%TF.GenerationSoftware,KiCad,Pcbnew,10.0.5*%
%TF.CreationDate,2026-08-03T13:57:01-07:00*%
%TF.ProjectId,pico2-knob,7069636f-322d-46b6-9e6f-622e6b696361,rev?*%
%TF.SameCoordinates,Original*%
%TF.FileFunction,Copper,L2,Bot*%
%TF.FilePolarity,Positive*%
%FSLAX46Y46*%
G04 Gerber Fmt 4.6, Leading zero omitted, Abs format (unit mm)*
G04 Created by KiCad (PCBNEW 10.0.5) date 2026-08-03 13:57:01*
%MOMM*%
%LPD*%
G01*
G04 APERTURE LIST*
G04 Aperture macros list*
%AMRoundRect*
0 Rectangle with rounded corners*
0 $1 Rounding radius*
0 $2 $3 $4 $5 $6 $7 $8 $9 X,Y pos of 4 corners*
0 Add a 4 corners polygon primitive as box body*
4,1,4,$2,$3,$4,$5,$6,$7,$8,$9,$2,$3,0*
0 Add four circle primitives for the rounded corners*
1,1,$1+$1,$2,$3*
1,1,$1+$1,$4,$5*
1,1,$1+$1,$6,$7*
1,1,$1+$1,$8,$9*
0 Add four rect primitives between the rounded corners*
20,1,$1+$1,$2,$3,$4,$5,0*
20,1,$1+$1,$4,$5,$6,$7,0*
20,1,$1+$1,$6,$7,$8,$9,0*
20,1,$1+$1,$8,$9,$2,$3,0*%
G04 Aperture macros list end*
%TA.AperFunction,ComponentPad*%
%ADD10C,1.600000*%
%TD*%
%TA.AperFunction,ComponentPad*%
%ADD11C,2.000000*%
%TD*%
%TA.AperFunction,ComponentPad*%
%ADD12R,2.000000X2.000000*%
%TD*%
%TA.AperFunction,ComponentPad*%
%ADD13R,3.200000X2.000000*%
%TD*%
%TA.AperFunction,SMDPad,CuDef*%
%ADD14C,1.500000*%
%TD*%
%TA.AperFunction,SMDPad,CuDef*%
%ADD15RoundRect,0.250000X-1.100000X0.325000X-1.100000X-0.325000X1.100000X-0.325000X1.100000X0.325000X0*%
%TD*%
%TA.AperFunction,SMDPad,CuDef*%
%ADD16R,1.300000X0.300000*%
%TD*%
%TA.AperFunction,SMDPad,CuDef*%
%ADD17R,3.000000X2.000000*%
%TD*%
%TA.AperFunction,ComponentPad*%
%ADD18RoundRect,0.250000X0.350000X0.625000X-0.350000X0.625000X-0.350000X-0.625000X0.350000X-0.625000X0*%
%TD*%
%TA.AperFunction,ComponentPad*%
%ADD19O,1.200000X1.750000*%
%TD*%
%TA.AperFunction,SMDPad,CuDef*%
%ADD20R,5.400000X2.900000*%
%TD*%
%TA.AperFunction,SMDPad,CuDef*%
%ADD21RoundRect,0.250000X0.650000X-0.325000X0.650000X0.325000X-0.650000X0.325000X-0.650000X-0.325000X0*%
%TD*%
%TA.AperFunction,ComponentPad*%
%ADD22C,1.800000*%
%TD*%
%TA.AperFunction,ComponentPad*%
%ADD23RoundRect,0.450000X0.450000X0.450000X-0.450000X0.450000X-0.450000X-0.450000X0.450000X-0.450000X0*%
%TD*%
%TA.AperFunction,ComponentPad*%
%ADD24O,1.800000X4.340000*%
%TD*%
%TA.AperFunction,SMDPad,CuDef*%
%ADD25RoundRect,0.250000X-0.650000X1.000000X-0.650000X-1.000000X0.650000X-1.000000X0.650000X1.000000X0*%
%TD*%
%TA.AperFunction,ViaPad*%
%ADD26C,0.600000*%
%TD*%
%TA.AperFunction,Conductor*%
%ADD27C,1.000000*%
%TD*%
%TA.AperFunction,Conductor*%
%ADD28C,0.200000*%
%TD*%
%TA.AperFunction,Conductor*%
%ADD29C,1.524000*%
%TD*%
%TA.AperFunction,Conductor*%
%ADD30C,0.300000*%
%TD*%
%TA.AperFunction,Conductor*%
%ADD31C,0.400000*%
%TD*%
%TA.AperFunction,Conductor*%
%ADD32C,0.600000*%
%TD*%
%TA.AperFunction,Conductor*%
%ADD33C,2.286000*%
%TD*%
G04 APERTURE END LIST*
D10*
%TO.P,R3,1*%
%TO.N,+12V*%
X102500000Y-129940000D03*
%TO.P,R3,2*%
%TO.N,Net-(U2-Vfb)*%
X102500000Y-137560000D03*
%TD*%
%TO.P,R7,1*%
%TO.N,Net-(U2-Ipk)*%
X119000000Y-171620000D03*
%TO.P,R7,2*%
%TO.N,Net-(U2-DC)*%
X119000000Y-164000000D03*
%TD*%
%TO.P,R5,1*%
%TO.N,Net-(U2-Vin)*%
X115000000Y-172810000D03*
%TO.P,R5,2*%
%TO.N,Net-(U2-Ipk)*%
X115000000Y-165190000D03*
%TD*%
%TO.P,R4,1*%
%TO.N,Net-(U2-Vfb)*%
X109250000Y-139000000D03*
%TO.P,R4,2*%
%TO.N,GND*%
X102650886Y-142810000D03*
%TD*%
D11*
%TO.P,SW1,1,1_1*%
%TO.N,/BTN1*%
X104500000Y-106000000D03*
X98000000Y-106000000D03*
%TO.P,SW1,2,2_2*%
%TO.N,GND*%
X104500000Y-101500000D03*
X98000000Y-101500000D03*
%TD*%
D10*
%TO.P,R2,1*%
%TO.N,+3.3V*%
X117190000Y-104190000D03*
%TO.P,R2,2*%
%TO.N,/OLED_RES*%
X117190000Y-111810000D03*
%TD*%
%TO.P,R6,1*%
%TO.N,+3.3V*%
X113500000Y-104190000D03*
%TO.P,R6,2*%
%TO.N,/OLED_CS*%
X113500000Y-111810000D03*
%TD*%
D11*
%TO.P,SW3,1,1_1*%
%TO.N,/BTN3*%
X101000000Y-120500000D03*
X101000000Y-127000000D03*
%TO.P,SW3,2,2_2*%
%TO.N,GND*%
X96500000Y-120500000D03*
X96500000Y-127000000D03*
%TD*%
D10*
%TO.P,R1,1*%
%TO.N,Net-(J3-Pin_6)*%
X129190000Y-109500000D03*
%TO.P,R1,2*%
%TO.N,GND*%
X136810000Y-109500000D03*
%TD*%
%TO.P,R8,1*%
%TO.N,+BATT*%
X128388154Y-158611846D03*
%TO.P,R8,2*%
%TO.N,/12V_EN*%
X123000000Y-164000000D03*
%TD*%
D11*
%TO.P,SW2,1,1_1*%
%TO.N,/BTN2*%
X112000000Y-121500000D03*
X112000000Y-115000000D03*
%TO.P,SW2,2,2_2*%
%TO.N,GND*%
X116500000Y-121500000D03*
X116500000Y-115000000D03*
%TD*%
D12*
%TO.P,RE1,A,A_A*%
%TO.N,/ENC_A*%
X107500000Y-147500000D03*
D11*
%TO.P,RE1,B,B_B*%
%TO.N,/ENC_B*%
X107500000Y-152500000D03*
%TO.P,RE1,C,C_C*%
%TO.N,GND*%
X107500000Y-150000000D03*
D13*
%TO.P,RE1,MP*%
%TO.N,N/C*%
X115000000Y-144400000D03*
X115000000Y-155600000D03*
D11*
%TO.P,RE1,S1,S1_S1*%
%TO.N,/ENC_SW*%
X122000000Y-152500000D03*
%TO.P,RE1,S2,S2_S2*%
%TO.N,GND*%
X122000000Y-147500000D03*
%TD*%
D14*
%TO.P,TP2,1,1_1*%
%TO.N,+BATT*%
X134500000Y-113500000D03*
%TD*%
D15*
%TO.P,C2,1*%
%TO.N,+12V*%
X95500000Y-138525000D03*
%TO.P,C2,2*%
%TO.N,GND*%
X95500000Y-141475000D03*
%TD*%
D16*
%TO.P,J3,1,Pin_1_1*%
%TO.N,+12V*%
X111000000Y-82500000D03*
%TO.P,J3,2,Pin_2_2*%
%TO.N,Net-(J3-Pin_2)*%
X111000000Y-83000000D03*
%TO.P,J3,3,Pin_3_3*%
%TO.N,+3.3V*%
X111000000Y-83500000D03*
%TO.P,J3,4,Pin_4_4*%
%TO.N,GND*%
X111000000Y-84000000D03*
%TO.P,J3,5,Pin_5_5*%
X111000000Y-84500000D03*
%TO.P,J3,6,Pin_6_6*%
%TO.N,Net-(J3-Pin_6)*%
X111000000Y-85000000D03*
%TO.P,J3,7,Pin_7_7*%
%TO.N,/OLED_CS*%
X111000000Y-85500000D03*
%TO.P,J3,8,Pin_8_8*%
%TO.N,/OLED_RES*%
X111000000Y-86000000D03*
%TO.P,J3,9,Pin_9_9*%
%TO.N,/OLED_DC*%
X111000000Y-86500000D03*
%TO.P,J3,10,Pin_10_10*%
%TO.N,+3.3V*%
X111000000Y-87000000D03*
%TO.P,J3,11,Pin_11_11*%
X111000000Y-87500000D03*
%TO.P,J3,12,Pin_12_12*%
%TO.N,/OLED_SCLK*%
X111000000Y-88000000D03*
%TO.P,J3,13,Pin_13_13*%
%TO.N,/OLED_SDI*%
X111000000Y-88500000D03*
%TO.P,J3,14,Pin_14_14*%
%TO.N,unconnected-(J3-Pin_14-Pad14)*%
X111000000Y-89000000D03*
%TO.P,J3,15,Pin_15_15*%
%TO.N,unconnected-(J3-Pin_15-Pad15)*%
X111000000Y-89500000D03*
%TO.P,J3,16,Pin_16_16*%
%TO.N,unconnected-(J3-Pin_16-Pad16)*%
X111000000Y-90000000D03*
%TO.P,J3,17,Pin_17_17*%
%TO.N,unconnected-(J3-Pin_17-Pad17)*%
X111000000Y-90500000D03*
%TO.P,J3,18,Pin_18_18*%
%TO.N,unconnected-(J3-Pin_18-Pad18)*%
X111000000Y-91000000D03*
%TO.P,J3,19,Pin_19_19*%
%TO.N,unconnected-(J3-Pin_19-Pad19)*%
X111000000Y-91500000D03*
%TO.P,J3,20,Pin_20_20*%
%TO.N,GND*%
X111000000Y-92000000D03*
D17*
%TO.P,J3,MP*%
%TO.N,N/C*%
X108650000Y-80960000D03*
X108650000Y-93540000D03*
%TD*%
D14*
%TO.P,TP3,1,1_1*%
%TO.N,+3.3V*%
X108500000Y-77000000D03*
%TD*%
D18*
%TO.P,J2,1,Pin_1_1*%
%TO.N,+BATT*%
X131000000Y-118000000D03*
D19*
%TO.P,J2,2,Pin_2_2*%
%TO.N,GND*%
X129000000Y-118000000D03*
%TD*%
D14*
%TO.P,TP1,1,1_1*%
%TO.N,GND*%
X93000000Y-84000000D03*
%TD*%
D20*
%TO.P,L1,1,1_1*%
%TO.N,Net-(D1-A)*%
X99000000Y-151000000D03*
%TO.P,L1,2,2_2*%
%TO.N,Net-(U2-Ipk)*%
X99000000Y-160900000D03*
%TD*%
D21*
%TO.P,C4,1*%
%TO.N,GND*%
X104500000Y-98975000D03*
%TO.P,C4,2*%
%TO.N,+3.3V*%
X104500000Y-96025000D03*
%TD*%
D22*
%TO.P,U1,1,P0.06_1*%
%TO.N,/OLED_DC*%
X124095000Y-101790000D03*
%TO.P,U1,2,P0.08_2*%
%TO.N,/OLED_SCLK*%
X124095000Y-104330000D03*
D23*
%TO.P,U1,3,GND_3*%
%TO.N,GND*%
X124095000Y-106870000D03*
%TO.P,U1,4,GND_4*%
X124095000Y-109410000D03*
D22*
%TO.P,U1,5,P0.17_5*%
%TO.N,/OLED_SDI*%
X124095000Y-111950000D03*
%TO.P,U1,6,P0.20_6*%
%TO.N,unconnected-(U1-P0.20-Pad6)*%
X124095000Y-114490000D03*
%TO.P,U1,7,P0.22_7*%
%TO.N,/OLED_RES*%
X124095000Y-117030000D03*
%TO.P,U1,8,P0.24_8*%
%TO.N,/OLED_CS*%
X124095000Y-119570000D03*
%TO.P,U1,9,P1.00_9*%
%TO.N,unconnected-(U1-P1.00-Pad9)*%
X124095000Y-122110000D03*
%TO.P,U1,10,P0.11_10*%
%TO.N,unconnected-(U1-P0.11-Pad10)*%
X124095000Y-124650000D03*
%TO.P,U1,11,P1.04-LF_11*%
%TO.N,unconnected-(U1-P1.04-LF-Pad11)*%
X124095000Y-127190000D03*
%TO.P,U1,12,P1.06-LF_12*%
%TO.N,/12V_EN*%
X124095000Y-129730000D03*
D24*
%TO.P,U1,13,BAT+_13*%
%TO.N,+BATT*%
X108855000Y-100520000D03*
D23*
%TO.P,U1,14,GND_14*%
%TO.N,GND*%
X108855000Y-104330000D03*
D22*
%TO.P,U1,15,RST_15*%
%TO.N,unconnected-(U1-RST-Pad15)*%
X108855000Y-106870000D03*
%TO.P,U1,16,3V3_16*%
%TO.N,+3.3V*%
X108855000Y-109410000D03*
%TO.P,U1,17,P0.31-LF_17*%
%TO.N,/BTN1*%
X108855000Y-111950000D03*
%TO.P,U1,18,P0.29-LF_18*%
%TO.N,unconnected-(U1-P0.29-LF-Pad18)*%
X108855000Y-114490000D03*
%TO.P,U1,19,P0.02-LF_19*%
%TO.N,/BTN2*%
X108855000Y-117030000D03*
%TO.P,U1,20,P1.15-LF_20*%
%TO.N,/BTN3*%
X108855000Y-119570000D03*
%TO.P,U1,21,P1.13-LF_21*%
%TO.N,unconnected-(U1-P1.13-LF-Pad21)*%
X108855000Y-122110000D03*
%TO.P,U1,22,P1.11-LF_22*%
%TO.N,/ENC_SW*%
X108855000Y-124650000D03*
%TO.P,U1,23,P0.10-LF_23*%
%TO.N,/ENC_B*%
X108855000Y-127190000D03*
%TO.P,U1,24,P0.09-LF_24*%
%TO.N,/ENC_A*%
X108855000Y-129730000D03*
D23*
%TO.P,U1,28,GND_28*%
%TO.N,GND*%
X124095000Y-99250000D03*
D22*
%TO.P,U1,29,BAT+_29*%
%TO.N,+BATT*%
X108855000Y-99250000D03*
%TD*%
D14*
%TO.P,TP4,1,1_1*%
%TO.N,+12V*%
X95275000Y-92725000D03*
%TD*%
D25*
%TO.P,D1,1,K_1*%
%TO.N,+12V*%
X99000000Y-143000000D03*
%TO.P,D1,2,A_2*%
%TO.N,Net-(D1-A)*%
X99000000Y-147000000D03*
%TD*%
D26*
%TO.N,Net-(U2-Vfb)*%
X107500000Y-161750000D03*
%TO.N,GND*%
X114500000Y-84400000D03*
X95000000Y-89000000D03*
X104500000Y-98975000D03*
X132000000Y-147500000D03*
X95500000Y-141475000D03*
X112500000Y-94500000D03*
%TO.N,+BATT*%
X133500000Y-142500000D03*
%TO.N,+3.3V*%
X113951473Y-83800000D03*
X108500000Y-77000000D03*
%TO.N,/OLED_CS*%
X119000000Y-90000000D03*
%TO.N,Net-(J3-Pin_6)*%
X120000000Y-90000000D03*
%TO.N,Net-(D1-A)*%
X104000000Y-157000000D03*
%TO.N,Net-(J3-Pin_2)*%
X121003097Y-90003097D03*
%TO.N,/OLED_RES*%
X118000000Y-90000000D03*
%TO.N,/OLED_DC*%
X121000000Y-99000000D03*
X116995259Y-90004741D03*
%TO.N,/OLED_SCLK*%
X120250000Y-100000000D03*
X116024265Y-89975735D03*
%TO.N,/OLED_SDI*%
X115075735Y-89924265D03*
X119500000Y-99000000D03*
%TD*%
%TO.N,+12V*%
D27*
X97000000Y-135000000D02*
X94291373Y-132291373D01*
D28*
X98060000Y-129940000D02*
X97500000Y-130500000D01*
X95025000Y-138500000D02*
X95000000Y-138500000D01*
D29*
X99000000Y-143000000D02*
X99000000Y-137000000D01*
D28*
X95275000Y-92725000D02*
X94291373Y-93708627D01*
X94291373Y-93708627D02*
X94291373Y-99291373D01*
D29*
X99000000Y-137000000D02*
X97000000Y-135000000D01*
D28*
X97525000Y-135000000D02*
X97000000Y-135000000D01*
D30*
X109500000Y-82500000D02*
X111000000Y-82500000D01*
D28*
X102500000Y-129940000D02*
X98060000Y-129940000D01*
X94291373Y-99291373D02*
X98582746Y-95000000D01*
X94291373Y-132291373D02*
X94291373Y-99291373D01*
%TO.N,Net-(U2-Vfb)*%
X107500000Y-161750000D02*
X106000000Y-160250000D01*
X105000000Y-139000000D02*
X109250000Y-139000000D01*
X103560000Y-137560000D02*
X105000000Y-139000000D01*
X106000000Y-160250000D02*
X106000000Y-142250000D01*
X102500000Y-137560000D02*
X103560000Y-137560000D01*
X106000000Y-142250000D02*
X109250000Y-139000000D01*
%TO.N,Net-(U2-Ipk)*%
D27*
X105500000Y-163000000D02*
X103400000Y-160900000D01*
X112190000Y-165190000D02*
X110000000Y-163000000D01*
X110000000Y-163000000D02*
X105500000Y-163000000D01*
X115000000Y-165190000D02*
X112190000Y-165190000D01*
D28*
X119000000Y-171620000D02*
X119000000Y-169190000D01*
D27*
X103400000Y-160900000D02*
X99000000Y-160900000D01*
D28*
X119000000Y-169190000D02*
X115000000Y-165190000D01*
%TO.N,GND*%
X111000000Y-93000000D02*
X112500000Y-94500000D01*
X111500000Y-84500000D02*
X112000000Y-84000000D01*
X112000000Y-84000000D02*
X111000000Y-84000000D01*
D31*
X116500000Y-121750000D02*
X116500000Y-115250000D01*
D28*
X113500000Y-84400000D02*
X113100000Y-84000000D01*
X111000000Y-84500000D02*
X111000000Y-84000000D01*
X111000000Y-84500000D02*
X111500000Y-84500000D01*
D32*
X119500000Y-150000000D02*
X107500000Y-150000000D01*
D28*
X113100000Y-84000000D02*
X112000000Y-84000000D01*
X114500000Y-84400000D02*
X113500000Y-84400000D01*
X93000000Y-87000000D02*
X95000000Y-89000000D01*
X93000000Y-84000000D02*
X93000000Y-87000000D01*
D27*
X122000000Y-147500000D02*
X132000000Y-147500000D01*
D28*
X111000000Y-92000000D02*
X111000000Y-93000000D01*
D32*
X122000000Y-147500000D02*
X119500000Y-150000000D01*
D31*
X104500000Y-101500000D02*
X98000000Y-101500000D01*
%TO.N,+BATT*%
D32*
X135503472Y-126051979D02*
X135559318Y-125987992D01*
X133500000Y-142500000D02*
X136250000Y-139750000D01*
X135520826Y-126307440D02*
X135503472Y-126051979D01*
X108855000Y-99250000D02*
X110605000Y-97500000D01*
D28*
X133000000Y-116000000D02*
X131000000Y-118000000D01*
D32*
X135490194Y-126561653D02*
X135520826Y-126307440D01*
X126000000Y-98000000D02*
X126000000Y-113000000D01*
X135928034Y-122928034D02*
X131000000Y-118000000D01*
D28*
X134500000Y-115500000D02*
X134500000Y-113500000D01*
D32*
X136250000Y-137041336D02*
X135542634Y-126628462D01*
X125500000Y-97500000D02*
X126000000Y-98000000D01*
D28*
X134500000Y-115500000D02*
X134000000Y-116000000D01*
X134000000Y-116000000D02*
X133000000Y-116000000D01*
D32*
X136250000Y-139750000D02*
X136250000Y-137041336D01*
X110605000Y-97500000D02*
X125500000Y-97500000D01*
X135559318Y-125987992D02*
X135928034Y-122928034D01*
X126000000Y-113000000D02*
X131000000Y-118000000D01*
X135542634Y-126628462D02*
X135490194Y-126561653D01*
%TO.N,/BTN1*%
D28*
X105700000Y-111950000D02*
X108855000Y-111950000D01*
X104500000Y-106000000D02*
X104500000Y-110750000D01*
X104500000Y-110750000D02*
X105700000Y-111950000D01*
D31*
X104750000Y-106000000D02*
X98250000Y-106000000D01*
%TO.N,+3.3V*%
D28*
X110000000Y-87500000D02*
X109500000Y-88000000D01*
X113448527Y-83500000D02*
X111000000Y-83500000D01*
X109500000Y-92000000D02*
X107090000Y-92000000D01*
X106850000Y-92240000D02*
X106850000Y-96850000D01*
X109500000Y-88000000D02*
X109500000Y-92000000D01*
X110000000Y-87500000D02*
X111000000Y-87500000D01*
X107090000Y-92000000D02*
X106850000Y-92240000D01*
X113951473Y-83800000D02*
X113748527Y-83800000D01*
X106850000Y-96850000D02*
X107000000Y-97000000D01*
X111000000Y-87000000D02*
X110500000Y-87000000D01*
X111000000Y-87000000D02*
X111000000Y-87500000D01*
X110500000Y-87000000D02*
X110000000Y-87500000D01*
X113748527Y-83800000D02*
X113448527Y-83500000D01*
%TO.N,/OLED_CS*%
X114500000Y-85500000D02*
X119000000Y-90000000D01*
X115190000Y-113500000D02*
X113500000Y-111810000D01*
X119000000Y-113500000D02*
X115190000Y-113500000D01*
X124095000Y-119570000D02*
X122500000Y-117975000D01*
X122500000Y-117975000D02*
X122500000Y-117000000D01*
X114500000Y-85500000D02*
X111000000Y-85500000D01*
X122500000Y-117000000D02*
X119000000Y-113500000D01*
%TO.N,/BTN3*%
D31*
X101000000Y-120250000D02*
X101000000Y-126750000D01*
D28*
X101930000Y-119570000D02*
X101000000Y-120500000D01*
X108855000Y-119570000D02*
X101930000Y-119570000D01*
%TO.N,Net-(J3-Pin_6)*%
X120000000Y-90000000D02*
X115000000Y-85000000D01*
X115000000Y-85000000D02*
X111000000Y-85000000D01*
%TO.N,Net-(D1-A)*%
D33*
X99000000Y-151000000D02*
X99000000Y-147000000D01*
X100000000Y-157000000D02*
X99000000Y-156000000D01*
X99000000Y-156000000D02*
X99000000Y-151000000D01*
X104000000Y-157000000D02*
X100000000Y-157000000D01*
%TO.N,Net-(J3-Pin_2)*%
D28*
X121003097Y-90003097D02*
X114000000Y-83000000D01*
X114000000Y-83000000D02*
X111000000Y-83000000D01*
%TO.N,/BTN2*%
X110885000Y-115000000D02*
X112000000Y-115000000D01*
D31*
X112000000Y-121750000D02*
X112000000Y-115250000D01*
D28*
X108855000Y-117030000D02*
X110885000Y-115000000D01*
%TO.N,/OLED_RES*%
X118875000Y-111810000D02*
X124095000Y-117030000D01*
X117190000Y-111810000D02*
X118875000Y-111810000D01*
X118000000Y-90000000D02*
X114000000Y-86000000D01*
X114000000Y-86000000D02*
X111000000Y-86000000D01*
%TO.N,/OLED_DC*%
X113500000Y-86500000D02*
X111000000Y-86500000D01*
X116995259Y-90004741D02*
X114997017Y-88006499D01*
X121305000Y-99000000D02*
X124095000Y-101790000D01*
X114997017Y-88006499D02*
X114997017Y-87997017D01*
X114997017Y-87997017D02*
X113500000Y-86500000D01*
X121000000Y-99000000D02*
X121305000Y-99000000D01*
%TO.N,/OLED_SCLK*%
X120250000Y-100485000D02*
X124095000Y-104330000D01*
X114000000Y-88000000D02*
X111000000Y-88000000D01*
X120250000Y-100000000D02*
X120250000Y-100485000D01*
X116024265Y-89975735D02*
X115975735Y-89975735D01*
X115975735Y-89975735D02*
X114000000Y-88000000D01*
%TO.N,/OLED_SDI*%
X119500000Y-107355000D02*
X124095000Y-111950000D01*
X119500000Y-99000000D02*
X119500000Y-107355000D01*
X114750000Y-89750000D02*
X113500000Y-88500000D01*
X113500000Y-88500000D02*
X111000000Y-88500000D01*
X114901470Y-89750000D02*
X114750000Y-89750000D01*
X115075735Y-89924265D02*
X114901470Y-89750000D01*
%TD*%
%TA.AperFunction,Conductor*%
%TO.N,+12V*%
G36*
X97529096Y-75202221D02*
G01*
X97544094Y-75206625D01*
X97602845Y-75244370D01*
X97604032Y-75245739D01*
X97631508Y-75300600D01*
X97633153Y-75308158D01*
X97635990Y-75334529D01*
X97635990Y-89102883D01*
X97645060Y-89197874D01*
X97645059Y-89197874D01*
X97673661Y-89497401D01*
X97673665Y-89497435D01*
X97673668Y-89497450D01*
X97748666Y-89886582D01*
X97748667Y-89886588D01*
X97748668Y-89886589D01*
X97860332Y-90266880D01*
X98007622Y-90634791D01*
X98007628Y-90634806D01*
X98189241Y-90987087D01*
X98189245Y-90987094D01*
X98324704Y-91197872D01*
X98324704Y-91197873D01*
X98324705Y-91197873D01*
X98391705Y-91302128D01*
X98391706Y-91302130D01*
X98391705Y-91302130D01*
X98403508Y-91320494D01*
X98403512Y-91320499D01*
X98403514Y-91320502D01*
X98648510Y-91632040D01*
X98737385Y-91725249D01*
X98922013Y-91918881D01*
X99096251Y-92069859D01*
X99201367Y-92160943D01*
X99201368Y-92160944D01*
X99201367Y-92160944D01*
X99220878Y-92177849D01*
X99221536Y-92178419D01*
X99221549Y-92178430D01*
X99315260Y-92245161D01*
X99544349Y-92408295D01*
X99544359Y-92408302D01*
X99544374Y-92408312D01*
X99544385Y-92408319D01*
X99715997Y-92507399D01*
X99887614Y-92606482D01*
X100248130Y-92771124D01*
X100351975Y-92807065D01*
X100351976Y-92807065D01*
X100351977Y-92807066D01*
X100618469Y-92899300D01*
X100619469Y-92899687D01*
X100621902Y-92900497D01*
X100622653Y-92900752D01*
X100623376Y-92900932D01*
X100625989Y-92901597D01*
X100627003Y-92901803D01*
X101007823Y-92994190D01*
X101400121Y-93050594D01*
X101796004Y-93069452D01*
X102191886Y-93050594D01*
X102584184Y-92994190D01*
X102969344Y-92900751D01*
X102972419Y-92899687D01*
X103192887Y-92823382D01*
X103343877Y-92771124D01*
X103704393Y-92606482D01*
X104047627Y-92408316D01*
X104047657Y-92408295D01*
X104078447Y-92386369D01*
X104158946Y-92329046D01*
X104368945Y-92179506D01*
X104370282Y-92178584D01*
X104371142Y-92177849D01*
X104373010Y-92176268D01*
X104373774Y-92175556D01*
X104669996Y-91918879D01*
X104943497Y-91632040D01*
X105188493Y-91320502D01*
X105402766Y-90987087D01*
X105584375Y-90634813D01*
X105731677Y-90266872D01*
X105843337Y-89886594D01*
X105918343Y-89497425D01*
X105956017Y-89102888D01*
X105956017Y-88904722D01*
X105956017Y-88838830D01*
X105956017Y-79472471D01*
X105975702Y-79405432D01*
X106028506Y-79359677D01*
X106097664Y-79349733D01*
X106153572Y-79372643D01*
X106576402Y-79684202D01*
X106612691Y-79710942D01*
X106654984Y-79766557D01*
X106660496Y-79836209D01*
X106656491Y-79850044D01*
X106655908Y-79852515D01*
X106649501Y-79912116D01*
X106649500Y-79912139D01*
X106649500Y-82007876D01*
X106649659Y-82009806D01*
X106649885Y-82011454D01*
X106655907Y-82067482D01*
X106683690Y-82141971D01*
X106706202Y-82202328D01*
X106706203Y-82202330D01*
X106706204Y-82202332D01*
X106706205Y-82202333D01*
X106792450Y-82317542D01*
X106792452Y-82317544D01*
X106792455Y-82317547D01*
X106907664Y-82403793D01*
X106907671Y-82403797D01*
X106957155Y-82422253D01*
X106992513Y-82448721D01*
X107049444Y-82454835D01*
X107049443Y-82454839D01*
X107049458Y-82454836D01*
X107102127Y-82460500D01*
X109722308Y-82460499D01*
X109757235Y-82465520D01*
X109768088Y-82468706D01*
X109826869Y-82506476D01*
X109855898Y-82570030D01*
X109849216Y-82616527D01*
X109852834Y-82617315D01*
X109850000Y-82630341D01*
X109850000Y-82697834D01*
X109853221Y-82727794D01*
X109853931Y-82741048D01*
X109853931Y-82754255D01*
X109853221Y-82767509D01*
X109849500Y-82802119D01*
X109849500Y-83197868D01*
X109849501Y-83197901D01*
X109849529Y-83198151D01*
X109852968Y-83230137D01*
X109853679Y-83243393D01*
X109853679Y-83256600D01*
X109852969Y-83269855D01*
X109849500Y-83302121D01*
X109849500Y-83697868D01*
X109849501Y-83697901D01*
X109849529Y-83698151D01*
X109852968Y-83730137D01*
X109853679Y-83743393D01*
X109853679Y-83756600D01*
X109852969Y-83769855D01*
X109849500Y-83802121D01*
X109849500Y-84197868D01*
X109849501Y-84197901D01*
X109849529Y-84198151D01*
X109852968Y-84230137D01*
X109853679Y-84243393D01*
X109853679Y-84256600D01*
X109852969Y-84269855D01*
X109849500Y-84302121D01*
X109849500Y-84697881D01*
X109849501Y-84697895D01*
X109850210Y-84704489D01*
X109850677Y-84725470D01*
X109849381Y-84746193D01*
X109846301Y-84766963D01*
X109228109Y-87383644D01*
X109215730Y-87415527D01*
X109199552Y-87444538D01*
X109178935Y-87471825D01*
X109132898Y-87517863D01*
X109114001Y-87533356D01*
X109105769Y-87538844D01*
X109102386Y-87547210D01*
X109092867Y-87557897D01*
X109019477Y-87631287D01*
X108972874Y-87712009D01*
X108972872Y-87712011D01*
X108940423Y-87768213D01*
X108940422Y-87768215D01*
X108926780Y-87819122D01*
X108926781Y-87819123D01*
X108899499Y-87920943D01*
X108899499Y-88091400D01*
X108899500Y-88091451D01*
X108899500Y-88752933D01*
X108898667Y-88767286D01*
X108897011Y-88781497D01*
X108894522Y-88795654D01*
X108314019Y-91252802D01*
X108303584Y-91281058D01*
X108290104Y-91307237D01*
X108273162Y-91332146D01*
X108263369Y-91343333D01*
X108263252Y-91343467D01*
X108262878Y-91343893D01*
X108236211Y-91366733D01*
X108215104Y-91380149D01*
X108148587Y-91399500D01*
X107010940Y-91399500D01*
X106860011Y-91439940D01*
X106858305Y-91440369D01*
X106836284Y-91453083D01*
X106808096Y-91469359D01*
X106808095Y-91469360D01*
X106764689Y-91494420D01*
X106764688Y-91494419D01*
X106721289Y-91519475D01*
X106721287Y-91519477D01*
X106721281Y-91519481D01*
X106721276Y-91519485D01*
X106369481Y-91871280D01*
X106369479Y-91871284D01*
X106349328Y-91906188D01*
X106349327Y-91906190D01*
X106349326Y-91906189D01*
X106340808Y-91920945D01*
X106340807Y-91920947D01*
X106290424Y-92008211D01*
X106290423Y-92008215D01*
X106273909Y-92069847D01*
X106249499Y-92160944D01*
X106249499Y-92331400D01*
X106249500Y-92331451D01*
X106249500Y-93579389D01*
X106244477Y-93614325D01*
X106236599Y-93641154D01*
X106210923Y-93687894D01*
X105533050Y-94462244D01*
X105508404Y-94483827D01*
X105481840Y-94501489D01*
X105452397Y-94515867D01*
X104180067Y-94939976D01*
X104160719Y-94944737D01*
X104141237Y-94947899D01*
X104121377Y-94949500D01*
X103799991Y-94949500D01*
X103799967Y-94949502D01*
X103752828Y-94954317D01*
X103697203Y-94960000D01*
X103697201Y-94960000D01*
X103697197Y-94960001D01*
X103697193Y-94960001D01*
X103697032Y-94960056D01*
X103530667Y-95015185D01*
X103530665Y-95015186D01*
X103530663Y-95015187D01*
X103431115Y-95076588D01*
X103381340Y-95107290D01*
X103257284Y-95231346D01*
X103234299Y-95268611D01*
X103211680Y-95295711D01*
X103188795Y-95316293D01*
X103151929Y-95339226D01*
X101856838Y-95857263D01*
X101522171Y-95991130D01*
X101512307Y-95993029D01*
X101499998Y-95999999D01*
X100000000Y-98499998D01*
X100000000Y-100657670D01*
X99994975Y-100692614D01*
X99990570Y-100707612D01*
X99952827Y-100766355D01*
X99951458Y-100767542D01*
X99896597Y-100795018D01*
X99889039Y-100796663D01*
X99862668Y-100799500D01*
X99420946Y-100799500D01*
X99386006Y-100794476D01*
X99369624Y-100789665D01*
X99312617Y-100753886D01*
X99303684Y-100744012D01*
X99285152Y-100717119D01*
X99283342Y-100713566D01*
X99144517Y-100522490D01*
X98977510Y-100355483D01*
X98786433Y-100216657D01*
X98575996Y-100109433D01*
X98351368Y-100036446D01*
X98351362Y-100036445D01*
X98118102Y-99999500D01*
X98118097Y-99999500D01*
X98118092Y-99999500D01*
X97881908Y-99999500D01*
X97881903Y-99999500D01*
X97881898Y-99999500D01*
X97648636Y-100036445D01*
X97648634Y-100036445D01*
X97648631Y-100036446D01*
X97424003Y-100109433D01*
X97228210Y-100209195D01*
X97213562Y-100216659D01*
X97104549Y-100295861D01*
X97104550Y-100295862D01*
X97034361Y-100346858D01*
X97026980Y-100350991D01*
X96850991Y-100526980D01*
X96846858Y-100534361D01*
X96795862Y-100604550D01*
X96795861Y-100604549D01*
X96716659Y-100713562D01*
X96716658Y-100713564D01*
X96716657Y-100713566D01*
X96609433Y-100924003D01*
X96536446Y-101148631D01*
X96536445Y-101148634D01*
X96536445Y-101148636D01*
X96499500Y-101381896D01*
X96499500Y-101618102D01*
X96536445Y-101851362D01*
X96536446Y-101851368D01*
X96609433Y-102075996D01*
X96609434Y-102075997D01*
X96609435Y-102076002D01*
X96672871Y-102200498D01*
X96672871Y-102200500D01*
X96672872Y-102200500D01*
X96716657Y-102286433D01*
X96855483Y-102477510D01*
X97022490Y-102644517D01*
X97213567Y-102783343D01*
X97312991Y-102834002D01*
X97417559Y-102887283D01*
X97419152Y-102888215D01*
X97422865Y-102890014D01*
X97424862Y-102891007D01*
X97428630Y-102892070D01*
X97476335Y-102907569D01*
X97544410Y-102929688D01*
X97544411Y-102929689D01*
X97544412Y-102929689D01*
X97648631Y-102963553D01*
X97881903Y-103000500D01*
X97881908Y-103000500D01*
X98118096Y-103000500D01*
X98118097Y-103000500D01*
X98351368Y-102963553D01*
X98575992Y-102890568D01*
X98786433Y-102783343D01*
X98977510Y-102644517D01*
X99144517Y-102477510D01*
X99283343Y-102286433D01*
X99284536Y-102284091D01*
X99304870Y-102255246D01*
X99305660Y-102254408D01*
X99316593Y-102242833D01*
X99374373Y-102208274D01*
X99384546Y-102205523D01*
X99387224Y-102204799D01*
X99419590Y-102200500D01*
X99858170Y-102200500D01*
X99893106Y-102205523D01*
X99908104Y-102209927D01*
X99966855Y-102247672D01*
X99968042Y-102249041D01*
X99995518Y-102303902D01*
X99997163Y-102311460D01*
X100000000Y-102337831D01*
X100000000Y-102995520D01*
X99999964Y-102998508D01*
X99999892Y-103001495D01*
X99999786Y-103004448D01*
X99896222Y-105163636D01*
X99889531Y-105198290D01*
X99884415Y-105213056D01*
X99843868Y-105269957D01*
X99843864Y-105269959D01*
X99841198Y-105272054D01*
X99788035Y-105296318D01*
X99785441Y-105296817D01*
X99783132Y-105297262D01*
X99759681Y-105299500D01*
X99420946Y-105299500D01*
X99386006Y-105294476D01*
X99369624Y-105289665D01*
X99312617Y-105253886D01*
X99303684Y-105244012D01*
X99285152Y-105217119D01*
X99283342Y-105213566D01*
X99144517Y-105022490D01*
X98977510Y-104855483D01*
X98786433Y-104716657D01*
X98575996Y-104609433D01*
X98351368Y-104536446D01*
X98351362Y-104536445D01*
X98118102Y-104499500D01*
X98118097Y-104499500D01*
X98118092Y-104499500D01*
X97881908Y-104499500D01*
X97881903Y-104499500D01*
X97881898Y-104499500D01*
X97648636Y-104536445D01*
X97648634Y-104536445D01*
X97648631Y-104536446D01*
X97424003Y-104609433D01*
X97228210Y-104709195D01*
X97213562Y-104716659D01*
X97104549Y-104795861D01*
X97104550Y-104795862D01*
X97034361Y-104846858D01*
X97026980Y-104850991D01*
X96850991Y-105026980D01*
X96846858Y-105034361D01*
X96795862Y-105104550D01*
X96795861Y-105104549D01*
X96716659Y-105213562D01*
X96716658Y-105213564D01*
X96716657Y-105213566D01*
X96609433Y-105424003D01*
X96536446Y-105648631D01*
X96536445Y-105648634D01*
X96536445Y-105648636D01*
X96499500Y-105881896D01*
X96499500Y-106118102D01*
X96536445Y-106351362D01*
X96536446Y-106351368D01*
X96609433Y-106575996D01*
X96707368Y-106768203D01*
X96716657Y-106786433D01*
X96855483Y-106977510D01*
X97022490Y-107144517D01*
X97213567Y-107283343D01*
X97312991Y-107334002D01*
X97417559Y-107387283D01*
X97419152Y-107388215D01*
X97422865Y-107390014D01*
X97424862Y-107391007D01*
X97428630Y-107392070D01*
X97476335Y-107407569D01*
X97544410Y-107429688D01*
X97544411Y-107429689D01*
X97544412Y-107429689D01*
X97648631Y-107463553D01*
X97881903Y-107500500D01*
X97881908Y-107500500D01*
X98118096Y-107500500D01*
X98118097Y-107500500D01*
X98351368Y-107463553D01*
X98575992Y-107390568D01*
X98786433Y-107283343D01*
X98977510Y-107144517D01*
X99144517Y-106977510D01*
X99283343Y-106786433D01*
X99284536Y-106784091D01*
X99304870Y-106755246D01*
X99305660Y-106754408D01*
X99316593Y-106742833D01*
X99374373Y-106708274D01*
X99384546Y-106705523D01*
X99387224Y-106704799D01*
X99419590Y-106700500D01*
X99674587Y-106700500D01*
X99709523Y-106705523D01*
X99724521Y-106709927D01*
X99783144Y-106747524D01*
X99783291Y-106747693D01*
X99811493Y-106805617D01*
X99813467Y-106815864D01*
X99815564Y-106845261D01*
X99500000Y-113424389D01*
X99500000Y-120368254D01*
X99499903Y-120373146D01*
X99499712Y-120377984D01*
X99499537Y-120380958D01*
X99499500Y-120381891D01*
X99499501Y-120381896D01*
X99499500Y-120381913D01*
X99499500Y-120618090D01*
X99499537Y-120619050D01*
X99499711Y-120621995D01*
X99499903Y-120626853D01*
X99500000Y-120631750D01*
X99500000Y-126868254D01*
X99499903Y-126873146D01*
X99499712Y-126877984D01*
X99499537Y-126880958D01*
X99499500Y-126881891D01*
X99499501Y-126881896D01*
X99499500Y-126881913D01*
X99499500Y-127118090D01*
X99499537Y-127119050D01*
X99499711Y-127121995D01*
X99499903Y-127126853D01*
X99500000Y-127131750D01*
X99500000Y-131554721D01*
X99498552Y-131573615D01*
X99495691Y-131592172D01*
X99491383Y-131610618D01*
X97520992Y-137850185D01*
X97505685Y-137881982D01*
X97499379Y-137891371D01*
X97445660Y-137936048D01*
X97376315Y-137944590D01*
X97313361Y-137914285D01*
X97307561Y-137909050D01*
X97285115Y-137882105D01*
X97192317Y-137731657D01*
X97192314Y-137731653D01*
X97068346Y-137607685D01*
X97068345Y-137607684D01*
X96919124Y-137515643D01*
X96919119Y-137515641D01*
X96919110Y-137515638D01*
X96752699Y-137460494D01*
X96752694Y-137460493D01*
X96649991Y-137450000D01*
X96649986Y-137450000D01*
X95750000Y-137450000D01*
X95750000Y-138383170D01*
X95744975Y-138418114D01*
X95740570Y-138433112D01*
X95702827Y-138491855D01*
X95701458Y-138493042D01*
X95646597Y-138520518D01*
X95639039Y-138522163D01*
X95612668Y-138525000D01*
X95500000Y-138525000D01*
X95500000Y-138633170D01*
X95494975Y-138668114D01*
X95490570Y-138683112D01*
X95452827Y-138741855D01*
X95451458Y-138743042D01*
X95396597Y-138770518D01*
X95389039Y-138772163D01*
X95362668Y-138775000D01*
X93650001Y-138775000D01*
X93650001Y-138899995D01*
X93660493Y-139002694D01*
X93660494Y-139002696D01*
X93715638Y-139169111D01*
X93715642Y-139169121D01*
X93715647Y-139169131D01*
X93793734Y-139295729D01*
X93807798Y-139328095D01*
X93811461Y-139341480D01*
X93810170Y-139411338D01*
X93771317Y-139469408D01*
X93771315Y-139469410D01*
X93770801Y-139469839D01*
X93716595Y-139496042D01*
X93712774Y-139496836D01*
X93710052Y-139497402D01*
X93684806Y-139500000D01*
X93433327Y-139500000D01*
X93398394Y-139494978D01*
X93383631Y-139490643D01*
X93324854Y-139452870D01*
X93296576Y-139393897D01*
X93294552Y-139382797D01*
X93292830Y-139352168D01*
X93295634Y-139310902D01*
X93305266Y-139169121D01*
X93334210Y-138743042D01*
X93374496Y-138150007D01*
X93650000Y-138150007D01*
X93650000Y-138150013D01*
X93650000Y-138275000D01*
X95250000Y-138275000D01*
X95250000Y-137450000D01*
X94350037Y-137450000D01*
X94350028Y-137450000D01*
X94350012Y-137450001D01*
X94350002Y-137450001D01*
X94350002Y-137450002D01*
X94247304Y-137460493D01*
X94247302Y-137460494D01*
X94080887Y-137515638D01*
X94080879Y-137515641D01*
X94080877Y-137515642D01*
X94080875Y-137515643D01*
X93981394Y-137577003D01*
X93931652Y-137607685D01*
X93807685Y-137731652D01*
X93715641Y-137880879D01*
X93715638Y-137880888D01*
X93660494Y-138047299D01*
X93660493Y-138047304D01*
X93650000Y-138150007D01*
X93374496Y-138150007D01*
X93375281Y-138138452D01*
X94065532Y-127977511D01*
X94139959Y-126881896D01*
X94999500Y-126881896D01*
X94999500Y-127118102D01*
X95001662Y-127131750D01*
X95036446Y-127351368D01*
X95109433Y-127575996D01*
X95216657Y-127786433D01*
X95355483Y-127977510D01*
X95522490Y-128144517D01*
X95713567Y-128283343D01*
X95812991Y-128334002D01*
X95917559Y-128387283D01*
X95919152Y-128388215D01*
X95922865Y-128390014D01*
X95924862Y-128391007D01*
X95928630Y-128392070D01*
X95976335Y-128407569D01*
X96044410Y-128429688D01*
X96044411Y-128429689D01*
X96044412Y-128429689D01*
X96148631Y-128463553D01*
X96381903Y-128500500D01*
X96381908Y-128500500D01*
X96618096Y-128500500D01*
X96618097Y-128500500D01*
X96851368Y-128463553D01*
X97075992Y-128390568D01*
X97286433Y-128283343D01*
X97477510Y-128144517D01*
X97644517Y-127977510D01*
X97783343Y-127786433D01*
X97890568Y-127575992D01*
X97963553Y-127351368D01*
X97965000Y-127342231D01*
X98000500Y-127118097D01*
X98000500Y-126881902D01*
X97963553Y-126648631D01*
X97890566Y-126424003D01*
X97825624Y-126296548D01*
X97783343Y-126213567D01*
X97644517Y-126022490D01*
X97477510Y-125855483D01*
X97286433Y-125716657D01*
X97075996Y-125609433D01*
X96851368Y-125536446D01*
X96851362Y-125536445D01*
X96618102Y-125499500D01*
X96618097Y-125499500D01*
X96618092Y-125499500D01*
X96381908Y-125499500D01*
X96381903Y-125499500D01*
X96381898Y-125499500D01*
X96148636Y-125536445D01*
X96148634Y-125536445D01*
X96148631Y-125536446D01*
X95924003Y-125609433D01*
X95728210Y-125709195D01*
X95713562Y-125716659D01*
X95604549Y-125795861D01*
X95604550Y-125795862D01*
X95534361Y-125846858D01*
X95526980Y-125850991D01*
X95350991Y-126026980D01*
X95346858Y-126034361D01*
X95295862Y-126104550D01*
X95295861Y-126104549D01*
X95216659Y-126213562D01*
X95216657Y-126213566D01*
X95109433Y-126424003D01*
X95036446Y-126648631D01*
X95036445Y-126648634D01*
X95036445Y-126648636D01*
X94999500Y-126881896D01*
X94139959Y-126881896D01*
X94173538Y-126387594D01*
X94173927Y-126383103D01*
X94174410Y-126378512D01*
X94174961Y-126374059D01*
X94180697Y-126333911D01*
X94180546Y-126332661D01*
X94179696Y-126321045D01*
X94179394Y-126309434D01*
X94179639Y-126297795D01*
X94179724Y-126296548D01*
X94171914Y-126256790D01*
X94171120Y-126252307D01*
X94170397Y-126247735D01*
X94169769Y-126243221D01*
X94122506Y-125850991D01*
X93464699Y-120391870D01*
X93463497Y-120381896D01*
X94999500Y-120381896D01*
X94999500Y-120618102D01*
X95001662Y-120631750D01*
X95036446Y-120851368D01*
X95109433Y-121075996D01*
X95216657Y-121286433D01*
X95355483Y-121477510D01*
X95522490Y-121644517D01*
X95713567Y-121783343D01*
X95812991Y-121834002D01*
X95917559Y-121887283D01*
X95919152Y-121888215D01*
X95922865Y-121890014D01*
X95924862Y-121891007D01*
X95928630Y-121892070D01*
X95976335Y-121907569D01*
X96044410Y-121929688D01*
X96044411Y-121929689D01*
X96044412Y-121929689D01*
X96148631Y-121963553D01*
X96381903Y-122000500D01*
X96381908Y-122000500D01*
X96618096Y-122000500D01*
X96618097Y-122000500D01*
X96851368Y-121963553D01*
X97075992Y-121890568D01*
X97286433Y-121783343D01*
X97477510Y-121644517D01*
X97644517Y-121477510D01*
X97783343Y-121286433D01*
X97890568Y-121075992D01*
X97963553Y-120851368D01*
X97965000Y-120842231D01*
X98000500Y-120618097D01*
X98000500Y-120381902D01*
X97963553Y-120148631D01*
X97890566Y-119924003D01*
X97834002Y-119812991D01*
X97783343Y-119713567D01*
X97644517Y-119522490D01*
X97477510Y-119355483D01*
X97286433Y-119216657D01*
X97075996Y-119109433D01*
X96851368Y-119036446D01*
X96851362Y-119036445D01*
X96618102Y-118999500D01*
X96618097Y-118999500D01*
X96618092Y-118999500D01*
X96381908Y-118999500D01*
X96381903Y-118999500D01*
X96381898Y-118999500D01*
X96148636Y-119036445D01*
X96148634Y-119036445D01*
X96148631Y-119036446D01*
X95924003Y-119109433D01*
X95728210Y-119209195D01*
X95713562Y-119216659D01*
X95604549Y-119295861D01*
X95604550Y-119295862D01*
X95534361Y-119346858D01*
X95526980Y-119350991D01*
X95350991Y-119526980D01*
X95346858Y-119534361D01*
X95295862Y-119604550D01*
X95295861Y-119604549D01*
X95216659Y-119713562D01*
X95216657Y-119713566D01*
X95109433Y-119924003D01*
X95036446Y-120148631D01*
X95036445Y-120148634D01*
X95036445Y-120148636D01*
X94999500Y-120381896D01*
X93463497Y-120381896D01*
X90256683Y-93768676D01*
X94584873Y-93768676D01*
X94584873Y-93768677D01*
X94584873Y-93768678D01*
X94619858Y-93794096D01*
X94795164Y-93883418D01*
X94982294Y-93944221D01*
X95176618Y-93975000D01*
X95373381Y-93975000D01*
X95373382Y-93975000D01*
X95567705Y-93944221D01*
X95754835Y-93883418D01*
X95930143Y-93794095D01*
X95932527Y-93792362D01*
X95933587Y-93791984D01*
X95934296Y-93791550D01*
X95934387Y-93791698D01*
X95959267Y-93782820D01*
X95965126Y-93768677D01*
X95275001Y-93078553D01*
X95275000Y-93078553D01*
X95274999Y-93078553D01*
X94584873Y-93768676D01*
X90256683Y-93768676D01*
X90252776Y-93736253D01*
X90121946Y-92650499D01*
X90119068Y-92626617D01*
X94025000Y-92626617D01*
X94025000Y-92823382D01*
X94055778Y-93017705D01*
X94116581Y-93204835D01*
X94116582Y-93204838D01*
X94116583Y-93204839D01*
X94205906Y-93380147D01*
X94231318Y-93415124D01*
X94231319Y-93415125D01*
X94231320Y-93415125D01*
X94921446Y-92725000D01*
X94921446Y-92724999D01*
X94921445Y-92724998D01*
X95628553Y-92724998D01*
X95628553Y-92725000D01*
X96318677Y-93415126D01*
X96318677Y-93415125D01*
X96318678Y-93415126D01*
X96318678Y-93415125D01*
X96332146Y-93409546D01*
X96338363Y-93388377D01*
X96342353Y-93382539D01*
X96344095Y-93380143D01*
X96433418Y-93204835D01*
X96494221Y-93017705D01*
X96525000Y-92823382D01*
X96525000Y-92626617D01*
X96494221Y-92432294D01*
X96433418Y-92245164D01*
X96344096Y-92069858D01*
X96338113Y-92061623D01*
X96318679Y-92034873D01*
X96318678Y-92034873D01*
X96318677Y-92034873D01*
X96318676Y-92034873D01*
X95628553Y-92724998D01*
X94921445Y-92724998D01*
X94802926Y-92606479D01*
X94231320Y-92034871D01*
X94217851Y-92040450D01*
X94211635Y-92061623D01*
X94207619Y-92067495D01*
X94206437Y-92069121D01*
X94205953Y-92069775D01*
X94205898Y-92069863D01*
X94116585Y-92245153D01*
X94116582Y-92245160D01*
X94116582Y-92245161D01*
X94055778Y-92432294D01*
X94025000Y-92626617D01*
X90119068Y-92626617D01*
X90005163Y-91681320D01*
X94584871Y-91681320D01*
X95232600Y-92329046D01*
X95275000Y-92371446D01*
X95275001Y-92371446D01*
X95965125Y-91681320D01*
X95965125Y-91681319D01*
X95965124Y-91681318D01*
X95930147Y-91655906D01*
X95754839Y-91566583D01*
X95754838Y-91566582D01*
X95754835Y-91566581D01*
X95567705Y-91505778D01*
X95373382Y-91475000D01*
X95373381Y-91475000D01*
X95176619Y-91475000D01*
X95176618Y-91475000D01*
X95092633Y-91488301D01*
X94982299Y-91505777D01*
X94982297Y-91505777D01*
X94982294Y-91505778D01*
X94859197Y-91545775D01*
X94795160Y-91566582D01*
X94795153Y-91566585D01*
X94619863Y-91655898D01*
X94619775Y-91655953D01*
X94619121Y-91656437D01*
X94617495Y-91657619D01*
X94616578Y-91657946D01*
X94615326Y-91658727D01*
X94615156Y-91658454D01*
X94590730Y-91667176D01*
X94584871Y-91681320D01*
X90005163Y-91681320D01*
X89356986Y-86302127D01*
X89068928Y-83911545D01*
X89067726Y-83901571D01*
X91749500Y-83901571D01*
X91749500Y-84098427D01*
X91774552Y-84256600D01*
X91780290Y-84292826D01*
X91841117Y-84480029D01*
X91918186Y-84631284D01*
X91930474Y-84655401D01*
X91930478Y-84655409D01*
X91961338Y-84697883D01*
X92046172Y-84814646D01*
X92185354Y-84953828D01*
X92333963Y-85061799D01*
X92359274Y-85086398D01*
X92372873Y-85104034D01*
X92396542Y-85156848D01*
X92397366Y-85161232D01*
X92399500Y-85184137D01*
X92399500Y-86911590D01*
X92399499Y-86911664D01*
X92399499Y-87039022D01*
X92393248Y-87060308D01*
X92398322Y-87075530D01*
X92400459Y-87082645D01*
X92440422Y-87231785D01*
X92448586Y-87245925D01*
X92448588Y-87245928D01*
X92459321Y-87264519D01*
X92459325Y-87264526D01*
X92519466Y-87368695D01*
X92519471Y-87368703D01*
X92519475Y-87368709D01*
X92519481Y-87368717D01*
X92519485Y-87368722D01*
X92640314Y-87489551D01*
X92640359Y-87489594D01*
X94152817Y-89002052D01*
X94173967Y-89030305D01*
X94189854Y-89059399D01*
X94202640Y-89094635D01*
X94230259Y-89233484D01*
X94230260Y-89233488D01*
X94230261Y-89233491D01*
X94230264Y-89233501D01*
X94230267Y-89233509D01*
X94230272Y-89233523D01*
X94290598Y-89379165D01*
X94290603Y-89379174D01*
X94290613Y-89379191D01*
X94378211Y-89510290D01*
X94378212Y-89510291D01*
X94378217Y-89510297D01*
X94489701Y-89621781D01*
X94489707Y-89621786D01*
X94489711Y-89621789D01*
X94620814Y-89709390D01*
X94620827Y-89709397D01*
X94718853Y-89750000D01*
X94766503Y-89769737D01*
X94766505Y-89769737D01*
X94766510Y-89769739D01*
X94892630Y-89794825D01*
X94913513Y-89798979D01*
X94916247Y-89799703D01*
X94921155Y-89800500D01*
X95078844Y-89800500D01*
X95082964Y-89800500D01*
X95090814Y-89798118D01*
X95233497Y-89769737D01*
X95379179Y-89709394D01*
X95510289Y-89621789D01*
X95621789Y-89510289D01*
X95709394Y-89379179D01*
X95769737Y-89233497D01*
X95800500Y-89078842D01*
X95800500Y-88921158D01*
X95800500Y-88921155D01*
X95800500Y-88920972D01*
X95800067Y-88918979D01*
X95797232Y-88904724D01*
X95769738Y-88766508D01*
X95769737Y-88766507D01*
X95769737Y-88766503D01*
X95755356Y-88731784D01*
X95709397Y-88620827D01*
X95709390Y-88620814D01*
X95621789Y-88489711D01*
X95621786Y-88489707D01*
X95621781Y-88489701D01*
X95510297Y-88378217D01*
X95510291Y-88378212D01*
X95510290Y-88378211D01*
X95379191Y-88290613D01*
X95379190Y-88290612D01*
X95379185Y-88290609D01*
X95379172Y-88290602D01*
X95379165Y-88290598D01*
X95233523Y-88230272D01*
X95233509Y-88230267D01*
X95233501Y-88230264D01*
X95233491Y-88230261D01*
X95233486Y-88230260D01*
X95233483Y-88230259D01*
X95095636Y-88202839D01*
X95062354Y-88191098D01*
X95032980Y-88175733D01*
X95002773Y-88153538D01*
X93649426Y-86800191D01*
X93628274Y-86771935D01*
X93615667Y-86748846D01*
X93600500Y-86689421D01*
X93600500Y-85190425D01*
X93605523Y-85155491D01*
X93611798Y-85134120D01*
X93640614Y-85083925D01*
X93643682Y-85080675D01*
X93660946Y-85065497D01*
X93814646Y-84953828D01*
X93953828Y-84814646D01*
X94069524Y-84655405D01*
X94158884Y-84480025D01*
X94219709Y-84292826D01*
X94234749Y-84197869D01*
X94250500Y-84098422D01*
X94250500Y-83901577D01*
X94219709Y-83707173D01*
X94185048Y-83600500D01*
X94160385Y-83524595D01*
X94159323Y-83520829D01*
X94158330Y-83518832D01*
X94156531Y-83515119D01*
X94155599Y-83513527D01*
X94069523Y-83344594D01*
X93953828Y-83185354D01*
X93814646Y-83046172D01*
X93655405Y-82930476D01*
X93480029Y-82841117D01*
X93292826Y-82780290D01*
X93292820Y-82780289D01*
X93098427Y-82749500D01*
X93098422Y-82749500D01*
X93098417Y-82749500D01*
X92901583Y-82749500D01*
X92901578Y-82749500D01*
X92901573Y-82749500D01*
X92707178Y-82780289D01*
X92707176Y-82780289D01*
X92707173Y-82780290D01*
X92519970Y-82841117D01*
X92432282Y-82885796D01*
X92344593Y-82930476D01*
X92253741Y-82996485D01*
X92197223Y-83037548D01*
X92189844Y-83041680D01*
X92041679Y-83189845D01*
X92037547Y-83197224D01*
X92008834Y-83236744D01*
X91961334Y-83302122D01*
X91930476Y-83344594D01*
X91841117Y-83519970D01*
X91780290Y-83707173D01*
X91780289Y-83707176D01*
X91780289Y-83707178D01*
X91749500Y-83901571D01*
X89067726Y-83901571D01*
X88678085Y-80667959D01*
X88678892Y-80632683D01*
X88681756Y-80615558D01*
X88710116Y-80555075D01*
X88718509Y-80545335D01*
X88742459Y-80523920D01*
X96488310Y-75228887D01*
X96519974Y-75213324D01*
X96550961Y-75203260D01*
X96589260Y-75197198D01*
X97494160Y-75197198D01*
X97529096Y-75202221D01*
G37*
%TD.AperFunction*%
%TD*%
%TA.AperFunction,Conductor*%
%TO.N,+3.3V*%
G36*
X110782783Y-75216883D02*
G01*
X110804219Y-75234318D01*
X113675529Y-78158418D01*
X138527741Y-103467547D01*
X138560666Y-103529173D01*
X138562374Y-103569260D01*
X137964427Y-108531605D01*
X137936864Y-108595808D01*
X137878966Y-108634918D01*
X137809114Y-108636516D01*
X137753637Y-108604452D01*
X137657213Y-108508028D01*
X137491613Y-108387715D01*
X137491612Y-108387714D01*
X137491610Y-108387713D01*
X137434653Y-108358691D01*
X137309223Y-108294781D01*
X137114534Y-108231522D01*
X136939995Y-108203878D01*
X136912352Y-108199500D01*
X136707648Y-108199500D01*
X136683329Y-108203351D01*
X136505465Y-108231522D01*
X136310776Y-108294781D01*
X136128386Y-108387715D01*
X135962786Y-108508028D01*
X135818028Y-108652786D01*
X135697715Y-108818386D01*
X135604781Y-109000776D01*
X135541522Y-109195465D01*
X135509500Y-109397648D01*
X135509500Y-109602351D01*
X135541522Y-109804534D01*
X135604781Y-109999223D01*
X135668691Y-110124653D01*
X135678427Y-110143760D01*
X135697715Y-110181613D01*
X135818028Y-110347213D01*
X135962786Y-110491971D01*
X136083086Y-110579372D01*
X136128390Y-110612287D01*
X136217585Y-110657734D01*
X136310776Y-110705218D01*
X136310778Y-110705218D01*
X136310781Y-110705220D01*
X136370667Y-110724678D01*
X136505465Y-110768477D01*
X136606557Y-110784488D01*
X136707648Y-110800500D01*
X136707649Y-110800500D01*
X136912351Y-110800500D01*
X136912352Y-110800500D01*
X137114534Y-110768477D01*
X137309219Y-110705220D01*
X137491610Y-110612287D01*
X137505013Y-110602548D01*
X137570819Y-110579068D01*
X137638873Y-110594893D01*
X137687569Y-110644998D01*
X137701445Y-110713475D01*
X137701009Y-110717700D01*
X136627311Y-119628270D01*
X136599748Y-119692473D01*
X136541850Y-119731583D01*
X136503310Y-119737433D01*
X133901264Y-119718713D01*
X133834368Y-119698546D01*
X133814475Y-119682397D01*
X132136818Y-118004740D01*
X132103333Y-117943417D01*
X132100499Y-117917059D01*
X132100499Y-117800097D01*
X132120184Y-117733058D01*
X132136818Y-117712416D01*
X133212416Y-116636819D01*
X133273739Y-116603334D01*
X133300097Y-116600500D01*
X133913331Y-116600500D01*
X133913347Y-116600501D01*
X133920943Y-116600501D01*
X134079054Y-116600501D01*
X134079057Y-116600501D01*
X134231785Y-116559577D01*
X134281904Y-116530639D01*
X134368716Y-116480520D01*
X134480520Y-116368716D01*
X134480521Y-116368714D01*
X134980520Y-115868716D01*
X135059577Y-115731784D01*
X135100501Y-115579057D01*
X135100501Y-115420942D01*
X135100501Y-115413347D01*
X135100500Y-115413329D01*
X135100500Y-114672596D01*
X135120185Y-114605557D01*
X135151614Y-114572278D01*
X135155403Y-114569524D01*
X135155405Y-114569524D01*
X135314646Y-114453828D01*
X135453828Y-114314646D01*
X135569524Y-114155405D01*
X135658884Y-113980025D01*
X135719709Y-113792826D01*
X135731773Y-113716657D01*
X135750500Y-113598422D01*
X135750500Y-113401577D01*
X135719709Y-113207173D01*
X135691281Y-113119682D01*
X135658884Y-113019975D01*
X135658882Y-113019972D01*
X135658882Y-113019970D01*
X135578577Y-112862363D01*
X135569524Y-112844595D01*
X135453828Y-112685354D01*
X135314646Y-112546172D01*
X135155405Y-112430476D01*
X135116200Y-112410500D01*
X134980029Y-112341117D01*
X134792826Y-112280290D01*
X134598422Y-112249500D01*
X134598417Y-112249500D01*
X134401583Y-112249500D01*
X134401578Y-112249500D01*
X134207173Y-112280290D01*
X134019970Y-112341117D01*
X133844594Y-112430476D01*
X133778902Y-112478205D01*
X133685354Y-112546172D01*
X133685352Y-112546174D01*
X133685351Y-112546174D01*
X133546174Y-112685351D01*
X133546174Y-112685352D01*
X133546172Y-112685354D01*
X133499827Y-112749142D01*
X133430476Y-112844594D01*
X133341117Y-113019970D01*
X133280290Y-113207173D01*
X133249500Y-113401577D01*
X133249500Y-113598422D01*
X133280290Y-113792826D01*
X133341117Y-113980029D01*
X133420455Y-114135738D01*
X133430476Y-114155405D01*
X133546172Y-114314646D01*
X133685354Y-114453828D01*
X133843300Y-114568583D01*
X133848386Y-114572278D01*
X133891051Y-114627608D01*
X133899500Y-114672596D01*
X133899500Y-115199901D01*
X133879815Y-115266940D01*
X133863182Y-115287582D01*
X133787584Y-115363181D01*
X133726261Y-115396666D01*
X133699902Y-115399500D01*
X133079057Y-115399500D01*
X132920943Y-115399500D01*
X132768215Y-115440423D01*
X132768214Y-115440423D01*
X132768212Y-115440424D01*
X132768209Y-115440425D01*
X132718096Y-115469359D01*
X132718095Y-115469360D01*
X132674689Y-115494420D01*
X132631285Y-115519479D01*
X132631282Y-115519481D01*
X132519478Y-115631286D01*
X131556226Y-116594537D01*
X131494903Y-116628022D01*
X131455943Y-116630214D01*
X131400018Y-116624500D01*
X131400009Y-116624500D01*
X130807940Y-116624500D01*
X130740901Y-116604815D01*
X130720259Y-116588181D01*
X126836819Y-112704741D01*
X126803334Y-112643418D01*
X126800500Y-112617060D01*
X126800500Y-109397648D01*
X127889500Y-109397648D01*
X127889500Y-109602351D01*
X127921522Y-109804534D01*
X127984781Y-109999223D01*
X128048691Y-110124653D01*
X128058427Y-110143760D01*
X128077715Y-110181613D01*
X128198028Y-110347213D01*
X128342786Y-110491971D01*
X128463086Y-110579372D01*
X128508390Y-110612287D01*
X128597585Y-110657734D01*
X128690776Y-110705218D01*
X128690778Y-110705218D01*
X128690781Y-110705220D01*
X128750667Y-110724678D01*
X128885465Y-110768477D01*
X128986557Y-110784488D01*
X129087648Y-110800500D01*
X129087649Y-110800500D01*
X129292351Y-110800500D01*
X129292352Y-110800500D01*
X129494534Y-110768477D01*
X129689219Y-110705220D01*
X129871610Y-110612287D01*
X129969009Y-110541523D01*
X130037213Y-110491971D01*
X130037215Y-110491968D01*
X130037219Y-110491966D01*
X130181966Y-110347219D01*
X130181968Y-110347215D01*
X130181971Y-110347213D01*
X130234732Y-110274590D01*
X130302287Y-110181610D01*
X130395220Y-109999219D01*
X130458477Y-109804534D01*
X130490500Y-109602352D01*
X130490500Y-109397648D01*
X130458477Y-109195466D01*
X130395220Y-109000781D01*
X130395218Y-109000778D01*
X130395218Y-109000776D01*
X130361503Y-108934607D01*
X130302287Y-108818390D01*
X130282713Y-108791448D01*
X130181971Y-108652786D01*
X130037213Y-108508028D01*
X129871613Y-108387715D01*
X129871612Y-108387714D01*
X129871610Y-108387713D01*
X129814653Y-108358691D01*
X129689223Y-108294781D01*
X129494534Y-108231522D01*
X129319995Y-108203878D01*
X129292352Y-108199500D01*
X129087648Y-108199500D01*
X129063329Y-108203351D01*
X128885465Y-108231522D01*
X128690776Y-108294781D01*
X128508386Y-108387715D01*
X128342786Y-108508028D01*
X128198028Y-108652786D01*
X128077715Y-108818386D01*
X127984781Y-109000776D01*
X127921522Y-109195465D01*
X127889500Y-109397648D01*
X126800500Y-109397648D01*
X126800500Y-97921157D01*
X126800499Y-97921156D01*
X126788252Y-97859583D01*
X126788252Y-97859580D01*
X126769739Y-97766510D01*
X126769738Y-97766503D01*
X126709394Y-97620821D01*
X126709392Y-97620818D01*
X126709390Y-97620814D01*
X126621789Y-97489711D01*
X126621786Y-97489707D01*
X126010292Y-96878213D01*
X126010288Y-96878210D01*
X125879185Y-96790609D01*
X125879172Y-96790602D01*
X125733501Y-96730264D01*
X125733489Y-96730261D01*
X125578845Y-96699500D01*
X125578842Y-96699500D01*
X110683843Y-96699500D01*
X110526158Y-96699500D01*
X110526153Y-96699500D01*
X110371510Y-96730260D01*
X110371502Y-96730262D01*
X110225824Y-96790604D01*
X110225814Y-96790609D01*
X110094711Y-96878210D01*
X110094707Y-96878213D01*
X109146466Y-97826454D01*
X109085143Y-97859939D01*
X109039387Y-97861246D01*
X108965227Y-97849500D01*
X108965222Y-97849500D01*
X108744778Y-97849500D01*
X108681136Y-97859580D01*
X108527047Y-97883985D01*
X108317396Y-97952103D01*
X108317393Y-97952104D01*
X108120974Y-98052187D01*
X107942641Y-98181752D01*
X107942636Y-98181756D01*
X107786756Y-98337636D01*
X107786752Y-98337641D01*
X107657187Y-98515974D01*
X107557104Y-98712393D01*
X107557103Y-98712396D01*
X107488985Y-98922047D01*
X107454500Y-99139778D01*
X107454500Y-101900221D01*
X107488985Y-102117952D01*
X107557103Y-102327603D01*
X107557104Y-102327606D01*
X107657187Y-102524025D01*
X107786752Y-102702358D01*
X107786756Y-102702363D01*
X107946080Y-102861687D01*
X107945122Y-102862644D01*
X107979952Y-102916008D01*
X107980446Y-102985875D01*
X107943088Y-103044919D01*
X107918638Y-103061690D01*
X107879250Y-103082265D01*
X107729428Y-103204428D01*
X107607265Y-103354250D01*
X107517762Y-103525594D01*
X107464582Y-103711451D01*
X107454500Y-103824863D01*
X107454500Y-104835136D01*
X107464582Y-104948548D01*
X107517762Y-105134405D01*
X107599604Y-105291082D01*
X107607266Y-105305751D01*
X107654518Y-105363700D01*
X107729428Y-105455571D01*
X107804339Y-105516652D01*
X107879249Y-105577734D01*
X107918636Y-105598308D01*
X107968944Y-105646795D01*
X107985051Y-105714782D01*
X107961845Y-105780685D01*
X107945841Y-105798074D01*
X107946080Y-105798313D01*
X107786756Y-105957636D01*
X107786752Y-105957641D01*
X107657187Y-106135974D01*
X107557104Y-106332393D01*
X107557103Y-106332396D01*
X107488985Y-106542047D01*
X107454500Y-106759778D01*
X107454500Y-106980221D01*
X107488985Y-107197952D01*
X107557103Y-107407603D01*
X107557104Y-107407606D01*
X107580778Y-107454067D01*
X107648402Y-107586785D01*
X107657187Y-107604025D01*
X107786752Y-107782358D01*
X107786756Y-107782363D01*
X107942640Y-107938247D01*
X108082679Y-108039990D01*
X108125345Y-108095319D01*
X108131324Y-108164933D01*
X108098719Y-108226728D01*
X108082679Y-108240626D01*
X108057485Y-108258930D01*
X108057485Y-108258932D01*
X108725590Y-108927037D01*
X108662007Y-108944075D01*
X108547993Y-109009901D01*
X108454901Y-109102993D01*
X108389075Y-109217007D01*
X108372037Y-109280590D01*
X107703932Y-108612485D01*
X107703931Y-108612485D01*
X107657616Y-108676233D01*
X107557567Y-108872589D01*
X107489473Y-109082164D01*
X107455000Y-109299818D01*
X107455000Y-109520181D01*
X107489473Y-109737835D01*
X107557567Y-109947410D01*
X107657611Y-110143756D01*
X107703932Y-110207513D01*
X108372037Y-109539408D01*
X108389075Y-109602993D01*
X108454901Y-109717007D01*
X108547993Y-109810099D01*
X108662007Y-109875925D01*
X108725590Y-109892962D01*
X108057485Y-110561065D01*
X108057485Y-110561066D01*
X108082680Y-110579371D01*
X108125346Y-110634701D01*
X108131325Y-110704314D01*
X108098720Y-110766110D01*
X108082681Y-110780008D01*
X107942636Y-110881756D01*
X107786756Y-111037636D01*
X107786752Y-111037641D01*
X107657185Y-111215976D01*
X107623648Y-111281796D01*
X107575674Y-111332591D01*
X107513164Y-111349500D01*
X106000097Y-111349500D01*
X105933058Y-111329815D01*
X105912416Y-111313181D01*
X105136819Y-110537584D01*
X105103334Y-110476261D01*
X105100500Y-110449903D01*
X105100500Y-107454067D01*
X105120185Y-107387028D01*
X105168205Y-107343582D01*
X105286433Y-107283343D01*
X105477510Y-107144517D01*
X105644517Y-106977510D01*
X105783343Y-106786433D01*
X105890568Y-106575992D01*
X105963553Y-106351368D01*
X105966651Y-106331811D01*
X106000500Y-106118097D01*
X106000500Y-105881902D01*
X105963553Y-105648631D01*
X105890566Y-105424003D01*
X105798015Y-105242363D01*
X105783343Y-105213567D01*
X105644517Y-105022490D01*
X105477510Y-104855483D01*
X105286433Y-104716657D01*
X105232214Y-104689031D01*
X105075996Y-104609433D01*
X104851368Y-104536446D01*
X104618097Y-104499500D01*
X104618092Y-104499500D01*
X104381908Y-104499500D01*
X104381903Y-104499500D01*
X104148630Y-104536447D01*
X104148627Y-104536447D01*
X103968580Y-104594948D01*
X103898738Y-104596943D01*
X103838906Y-104560862D01*
X103808078Y-104498161D01*
X103806289Y-104474504D01*
X103835734Y-103030016D01*
X103856780Y-102963396D01*
X103910505Y-102918727D01*
X103979852Y-102910195D01*
X103998013Y-102914614D01*
X104092197Y-102945216D01*
X104148631Y-102963553D01*
X104381903Y-103000500D01*
X104381908Y-103000500D01*
X104618097Y-103000500D01*
X104851368Y-102963553D01*
X104907803Y-102945216D01*
X105075992Y-102890568D01*
X105286433Y-102783343D01*
X105477510Y-102644517D01*
X105644517Y-102477510D01*
X105783343Y-102286433D01*
X105890568Y-102075992D01*
X105963553Y-101851368D01*
X105966651Y-101831811D01*
X106000500Y-101618097D01*
X106000500Y-101381902D01*
X105963553Y-101148631D01*
X105900926Y-100955886D01*
X105890568Y-100924008D01*
X105890566Y-100924005D01*
X105890566Y-100924003D01*
X105827128Y-100799500D01*
X105783343Y-100713567D01*
X105644517Y-100522490D01*
X105477510Y-100355483D01*
X105320047Y-100241079D01*
X105277382Y-100185749D01*
X105271403Y-100116135D01*
X105304009Y-100054340D01*
X105353927Y-100023056D01*
X105469334Y-99984814D01*
X105618656Y-99892712D01*
X105742712Y-99768656D01*
X105834814Y-99619334D01*
X105889999Y-99452797D01*
X105900500Y-99350009D01*
X105900499Y-98599992D01*
X105891916Y-98515974D01*
X105889999Y-98497203D01*
X105889998Y-98497200D01*
X105856690Y-98396684D01*
X105834814Y-98330666D01*
X105742712Y-98181344D01*
X105618656Y-98057288D01*
X105469334Y-97965186D01*
X105302797Y-97910001D01*
X105302795Y-97910000D01*
X105200016Y-97899500D01*
X104066870Y-97899500D01*
X103999831Y-97879815D01*
X103954076Y-97827011D01*
X103942897Y-97772978D01*
X103954139Y-97221470D01*
X103975186Y-97154847D01*
X104028911Y-97110178D01*
X104078113Y-97099999D01*
X104250000Y-97099999D01*
X104750000Y-97099999D01*
X105199972Y-97099999D01*
X105199986Y-97099998D01*
X105302697Y-97089505D01*
X105469119Y-97034358D01*
X105469124Y-97034356D01*
X105618345Y-96942315D01*
X105742315Y-96818345D01*
X105834356Y-96669124D01*
X105834358Y-96669119D01*
X105889505Y-96502697D01*
X105889506Y-96502690D01*
X105899999Y-96399986D01*
X105900000Y-96399973D01*
X105900000Y-96275000D01*
X104750000Y-96275000D01*
X104750000Y-97099999D01*
X104250000Y-97099999D01*
X104250000Y-96149000D01*
X104269685Y-96081961D01*
X104322489Y-96036206D01*
X104374000Y-96025000D01*
X104500000Y-96025000D01*
X104500000Y-95899000D01*
X104519685Y-95831961D01*
X104572489Y-95786206D01*
X104624000Y-95775000D01*
X105899999Y-95775000D01*
X105899999Y-95650028D01*
X105899998Y-95650013D01*
X105889505Y-95547302D01*
X105876933Y-95509361D01*
X105874531Y-95439533D01*
X105910263Y-95379491D01*
X105972783Y-95348298D01*
X105985120Y-95346723D01*
X109967903Y-95040862D01*
X109977391Y-95040499D01*
X110197872Y-95040499D01*
X110257483Y-95034091D01*
X110293316Y-95020725D01*
X110327140Y-95013274D01*
X110500000Y-95000000D01*
X110505276Y-94932665D01*
X110529629Y-94868046D01*
X110593796Y-94782331D01*
X110644091Y-94647483D01*
X110650500Y-94587873D01*
X110650499Y-93799095D01*
X110670183Y-93732057D01*
X110722987Y-93686302D01*
X110792146Y-93676358D01*
X110855702Y-93705383D01*
X110862180Y-93711415D01*
X111665425Y-94514660D01*
X111698910Y-94575983D01*
X111699361Y-94578149D01*
X111730261Y-94733491D01*
X111730264Y-94733501D01*
X111790602Y-94879172D01*
X111790609Y-94879185D01*
X111878210Y-95010288D01*
X111878213Y-95010292D01*
X111989707Y-95121786D01*
X111989711Y-95121789D01*
X112120814Y-95209390D01*
X112120827Y-95209397D01*
X112266498Y-95269735D01*
X112266503Y-95269737D01*
X112421153Y-95300499D01*
X112421156Y-95300500D01*
X112421158Y-95300500D01*
X112578844Y-95300500D01*
X112578845Y-95300499D01*
X112733497Y-95269737D01*
X112879179Y-95209394D01*
X113010289Y-95121789D01*
X113121789Y-95010289D01*
X113209394Y-94879179D01*
X113269737Y-94733497D01*
X113300500Y-94578842D01*
X113300500Y-94421158D01*
X113300500Y-94421155D01*
X113300499Y-94421153D01*
X113269738Y-94266510D01*
X113269737Y-94266503D01*
X113269735Y-94266498D01*
X113209397Y-94120827D01*
X113209390Y-94120814D01*
X113121789Y-93989711D01*
X113121786Y-93989707D01*
X113010292Y-93878213D01*
X113010288Y-93878210D01*
X112879185Y-93790609D01*
X112879172Y-93790602D01*
X112733501Y-93730264D01*
X112733491Y-93730261D01*
X112578149Y-93699361D01*
X112516238Y-93666976D01*
X112514660Y-93665425D01*
X111701040Y-92851805D01*
X111667555Y-92790482D01*
X111672539Y-92720790D01*
X111714411Y-92664857D01*
X111750633Y-92647924D01*
X111750215Y-92646802D01*
X111892328Y-92593797D01*
X111892327Y-92593797D01*
X111892331Y-92593796D01*
X112007546Y-92507546D01*
X112093796Y-92392331D01*
X112144091Y-92257483D01*
X112150500Y-92197873D01*
X112150499Y-91802128D01*
X112150499Y-91802127D01*
X112150498Y-91802111D01*
X112146320Y-91763253D01*
X112146320Y-91736747D01*
X112150500Y-91697873D01*
X112150499Y-91302128D01*
X112150499Y-91302127D01*
X112150498Y-91302111D01*
X112146320Y-91263253D01*
X112146320Y-91236747D01*
X112150500Y-91197873D01*
X112150499Y-90802128D01*
X112150499Y-90802127D01*
X112150498Y-90802111D01*
X112146320Y-90763253D01*
X112146320Y-90736747D01*
X112150500Y-90697873D01*
X112150499Y-90302128D01*
X112150499Y-90302127D01*
X112150498Y-90302111D01*
X112146320Y-90263253D01*
X112146320Y-90236747D01*
X112150500Y-90197873D01*
X112150499Y-89802128D01*
X112150499Y-89802127D01*
X112150498Y-89802111D01*
X112146320Y-89763253D01*
X112146320Y-89736747D01*
X112150500Y-89697873D01*
X112150499Y-89302128D01*
X112150499Y-89302127D01*
X112150498Y-89302111D01*
X112146320Y-89263253D01*
X112146320Y-89236747D01*
X112149062Y-89211239D01*
X112175802Y-89146691D01*
X112233195Y-89106844D01*
X112272351Y-89100500D01*
X113199903Y-89100500D01*
X113266942Y-89120185D01*
X113287584Y-89136819D01*
X114265139Y-90114374D01*
X114265160Y-90114397D01*
X114286766Y-90136002D01*
X114313648Y-90176232D01*
X114366339Y-90303441D01*
X114366344Y-90303450D01*
X114453945Y-90434553D01*
X114453948Y-90434557D01*
X114565442Y-90546051D01*
X114565446Y-90546054D01*
X114696549Y-90633655D01*
X114696562Y-90633662D01*
X114842233Y-90694000D01*
X114842238Y-90694002D01*
X114996888Y-90724764D01*
X114996891Y-90724765D01*
X114996893Y-90724765D01*
X115154579Y-90724765D01*
X115154580Y-90724764D01*
X115309232Y-90694002D01*
X115364855Y-90670962D01*
X115460543Y-90631328D01*
X115461321Y-90633208D01*
X115520595Y-90620851D01*
X115579569Y-90641352D01*
X115645086Y-90685129D01*
X115645088Y-90685130D01*
X115645092Y-90685132D01*
X115715120Y-90714138D01*
X115790768Y-90745472D01*
X115880159Y-90763253D01*
X115945418Y-90776234D01*
X115945421Y-90776235D01*
X115945423Y-90776235D01*
X116103109Y-90776235D01*
X116103110Y-90776234D01*
X116257762Y-90745472D01*
X116403444Y-90685129D01*
X116419166Y-90674623D01*
X116485842Y-90653746D01*
X116553222Y-90672230D01*
X116556947Y-90674624D01*
X116616073Y-90714131D01*
X116616086Y-90714138D01*
X116757788Y-90772832D01*
X116761762Y-90774478D01*
X116892578Y-90800499D01*
X116916412Y-90805240D01*
X116916415Y-90805241D01*
X116916417Y-90805241D01*
X117074103Y-90805241D01*
X117074104Y-90805240D01*
X117228756Y-90774478D01*
X117374438Y-90714135D01*
X117432287Y-90675480D01*
X117498961Y-90654603D01*
X117566341Y-90673086D01*
X117570068Y-90675482D01*
X117620812Y-90709389D01*
X117620827Y-90709397D01*
X117718853Y-90750000D01*
X117766503Y-90769737D01*
X117921153Y-90800499D01*
X117921156Y-90800500D01*
X117921158Y-90800500D01*
X118078844Y-90800500D01*
X118078845Y-90800499D01*
X118233497Y-90769737D01*
X118379179Y-90709394D01*
X118431110Y-90674694D01*
X118497785Y-90653816D01*
X118565165Y-90672300D01*
X118568863Y-90674676D01*
X118620821Y-90709394D01*
X118620823Y-90709395D01*
X118620825Y-90709396D01*
X118707924Y-90745473D01*
X118766503Y-90769737D01*
X118921153Y-90800499D01*
X118921156Y-90800500D01*
X118921158Y-90800500D01*
X119078844Y-90800500D01*
X119078845Y-90800499D01*
X119233497Y-90769737D01*
X119379179Y-90709394D01*
X119431110Y-90674694D01*
X119497785Y-90653816D01*
X119565165Y-90672300D01*
X119568863Y-90674676D01*
X119620821Y-90709394D01*
X119620823Y-90709395D01*
X119620825Y-90709396D01*
X119707924Y-90745473D01*
X119766503Y-90769737D01*
X119921153Y-90800499D01*
X119921156Y-90800500D01*
X119921158Y-90800500D01*
X120078844Y-90800500D01*
X120078845Y-90800499D01*
X120233497Y-90769737D01*
X120379179Y-90709394D01*
X120430340Y-90675208D01*
X120497016Y-90654330D01*
X120564397Y-90672814D01*
X120568098Y-90675193D01*
X120623918Y-90712491D01*
X120623920Y-90712492D01*
X120623922Y-90712493D01*
X120769595Y-90772832D01*
X120769600Y-90772834D01*
X120916865Y-90802127D01*
X120924250Y-90803596D01*
X120924253Y-90803597D01*
X120924255Y-90803597D01*
X121081941Y-90803597D01*
X121081942Y-90803596D01*
X121236594Y-90772834D01*
X121382276Y-90712491D01*
X121513386Y-90624886D01*
X121624886Y-90513386D01*
X121712491Y-90382276D01*
X121772834Y-90236594D01*
X121803597Y-90081939D01*
X121803597Y-89924255D01*
X121803597Y-89924252D01*
X121803596Y-89924250D01*
X121772835Y-89769607D01*
X121772834Y-89769600D01*
X121770205Y-89763253D01*
X121712494Y-89623924D01*
X121712487Y-89623911D01*
X121624886Y-89492808D01*
X121624883Y-89492804D01*
X121513389Y-89381310D01*
X121513385Y-89381307D01*
X121382282Y-89293706D01*
X121382269Y-89293699D01*
X121236598Y-89233361D01*
X121236588Y-89233358D01*
X121081248Y-89202459D01*
X121019338Y-89170074D01*
X121017759Y-89168523D01*
X114487590Y-82638355D01*
X114487588Y-82638352D01*
X114368717Y-82519481D01*
X114368716Y-82519480D01*
X114255459Y-82454091D01*
X114255459Y-82454090D01*
X114255454Y-82454089D01*
X114247194Y-82449320D01*
X114231786Y-82440423D01*
X114193603Y-82430192D01*
X114079057Y-82399499D01*
X113920943Y-82399499D01*
X113913347Y-82399499D01*
X113913331Y-82399500D01*
X112272351Y-82399500D01*
X112205312Y-82379815D01*
X112159557Y-82327011D01*
X112149061Y-82288752D01*
X112144091Y-82242516D01*
X112093797Y-82107671D01*
X112093793Y-82107664D01*
X112007547Y-81992455D01*
X112007544Y-81992452D01*
X111892335Y-81906206D01*
X111892328Y-81906202D01*
X111757482Y-81855908D01*
X111757483Y-81855908D01*
X111697883Y-81849501D01*
X111697881Y-81849500D01*
X111697873Y-81849500D01*
X111697865Y-81849500D01*
X110774500Y-81849500D01*
X110707461Y-81829815D01*
X110661706Y-81777011D01*
X110650500Y-81725500D01*
X110650499Y-79912129D01*
X110650498Y-79912123D01*
X110644091Y-79852516D01*
X110593797Y-79717671D01*
X110593793Y-79717664D01*
X110507547Y-79602455D01*
X110507544Y-79602452D01*
X110392335Y-79516206D01*
X110392328Y-79516202D01*
X110257482Y-79465908D01*
X110257483Y-79465908D01*
X110197883Y-79459501D01*
X110197881Y-79459500D01*
X110197873Y-79459500D01*
X110197865Y-79459500D01*
X107164359Y-79459500D01*
X107097320Y-79439815D01*
X107090802Y-79435327D01*
X106006460Y-78636338D01*
X105964167Y-78580723D01*
X105956017Y-78536511D01*
X105956017Y-78043677D01*
X107809873Y-78043677D01*
X107809873Y-78043678D01*
X107844858Y-78069096D01*
X108020164Y-78158418D01*
X108207294Y-78219221D01*
X108401618Y-78250000D01*
X108598382Y-78250000D01*
X108792705Y-78219221D01*
X108979835Y-78158418D01*
X109155143Y-78069095D01*
X109190125Y-78043678D01*
X109190126Y-78043678D01*
X108500001Y-77353553D01*
X108500000Y-77353553D01*
X107809873Y-78043677D01*
X105956017Y-78043677D01*
X105956017Y-76901617D01*
X107250000Y-76901617D01*
X107250000Y-77098382D01*
X107280778Y-77292705D01*
X107341581Y-77479835D01*
X107430905Y-77655145D01*
X107456319Y-77690125D01*
X107456320Y-77690125D01*
X108146446Y-77000000D01*
X108146446Y-76999999D01*
X108853553Y-76999999D01*
X108853553Y-77000001D01*
X109543678Y-77690126D01*
X109543678Y-77690125D01*
X109569095Y-77655143D01*
X109658418Y-77479835D01*
X109719221Y-77292705D01*
X109750000Y-77098382D01*
X109750000Y-76901617D01*
X109719221Y-76707294D01*
X109658418Y-76520164D01*
X109569096Y-76344858D01*
X109543678Y-76309873D01*
X109543677Y-76309873D01*
X108853553Y-76999999D01*
X108146446Y-76999999D01*
X107456320Y-76309872D01*
X107456320Y-76309873D01*
X107430902Y-76344859D01*
X107430899Y-76344863D01*
X107341582Y-76520161D01*
X107280778Y-76707294D01*
X107250000Y-76901617D01*
X105956017Y-76901617D01*
X105956017Y-75956320D01*
X107809872Y-75956320D01*
X108500000Y-76646446D01*
X108500001Y-76646446D01*
X109190125Y-75956320D01*
X109190125Y-75956319D01*
X109155145Y-75930905D01*
X108979835Y-75841581D01*
X108792705Y-75780778D01*
X108598382Y-75750000D01*
X108401618Y-75750000D01*
X108207294Y-75780778D01*
X108020161Y-75841582D01*
X107844863Y-75930899D01*
X107844859Y-75930902D01*
X107809873Y-75956320D01*
X107809872Y-75956320D01*
X105956017Y-75956320D01*
X105956017Y-75321198D01*
X105975702Y-75254159D01*
X106028506Y-75208404D01*
X106080017Y-75197198D01*
X110715744Y-75197198D01*
X110782783Y-75216883D01*
G37*
%TD.AperFunction*%
%TA.AperFunction,Conductor*%
G36*
X118839689Y-98320185D02*
G01*
X118885444Y-98372989D01*
X118895388Y-98442147D01*
X118875752Y-98493391D01*
X118790609Y-98620814D01*
X118790602Y-98620827D01*
X118730264Y-98766498D01*
X118730261Y-98766510D01*
X118699500Y-98921153D01*
X118699500Y-99078846D01*
X118730261Y-99233489D01*
X118730264Y-99233501D01*
X118790602Y-99379172D01*
X118790609Y-99379185D01*
X118878602Y-99510874D01*
X118899480Y-99577551D01*
X118899500Y-99579765D01*
X118899500Y-107268330D01*
X118899499Y-107268348D01*
X118899499Y-107434054D01*
X118899498Y-107434054D01*
X118899499Y-107434057D01*
X118940423Y-107586785D01*
X118944461Y-107593779D01*
X118950373Y-107604020D01*
X118950375Y-107604022D01*
X119019477Y-107723712D01*
X119019481Y-107723717D01*
X119138349Y-107842585D01*
X119138355Y-107842590D01*
X122721561Y-111425796D01*
X122755046Y-111487119D01*
X122751811Y-111551794D01*
X122728985Y-111622045D01*
X122694500Y-111839778D01*
X122694500Y-112060221D01*
X122728985Y-112277952D01*
X122797103Y-112487603D01*
X122797104Y-112487606D01*
X122863066Y-112617060D01*
X122889236Y-112668422D01*
X122897187Y-112684025D01*
X123026752Y-112862358D01*
X123026756Y-112862363D01*
X123182636Y-113018243D01*
X123182641Y-113018247D01*
X123322254Y-113119682D01*
X123364920Y-113175012D01*
X123370899Y-113244625D01*
X123338293Y-113306420D01*
X123322254Y-113320318D01*
X123182641Y-113421752D01*
X123182636Y-113421756D01*
X123026756Y-113577636D01*
X123026752Y-113577641D01*
X122897187Y-113755974D01*
X122797104Y-113952393D01*
X122797103Y-113952396D01*
X122728985Y-114162047D01*
X122694500Y-114379778D01*
X122694500Y-114480902D01*
X122674815Y-114547941D01*
X122622011Y-114593696D01*
X122552853Y-114603640D01*
X122489297Y-114574615D01*
X122482819Y-114568583D01*
X119362590Y-111448355D01*
X119362588Y-111448352D01*
X119243717Y-111329481D01*
X119243716Y-111329480D01*
X119156904Y-111279360D01*
X119156904Y-111279359D01*
X119156900Y-111279358D01*
X119106785Y-111250423D01*
X118954057Y-111209499D01*
X118795943Y-111209499D01*
X118788347Y-111209499D01*
X118788331Y-111209500D01*
X118419602Y-111209500D01*
X118352563Y-111189815D01*
X118309117Y-111141795D01*
X118302284Y-111128385D01*
X118181971Y-110962786D01*
X118037213Y-110818028D01*
X117871613Y-110697715D01*
X117871612Y-110697714D01*
X117871610Y-110697713D01*
X117787909Y-110655065D01*
X117689223Y-110604781D01*
X117494534Y-110541522D01*
X117319995Y-110513878D01*
X117292352Y-110509500D01*
X117087648Y-110509500D01*
X117063329Y-110513351D01*
X116885465Y-110541522D01*
X116690776Y-110604781D01*
X116508386Y-110697715D01*
X116342786Y-110818028D01*
X116198028Y-110962786D01*
X116077715Y-111128386D01*
X115984781Y-111310776D01*
X115921522Y-111505465D01*
X115889500Y-111707648D01*
X115889500Y-111912351D01*
X115921522Y-112114534D01*
X115984781Y-112309223D01*
X116036385Y-112410500D01*
X116075671Y-112487603D01*
X116077715Y-112491613D01*
X116198028Y-112657213D01*
X116228634Y-112687819D01*
X116262119Y-112749142D01*
X116257135Y-112818834D01*
X116215263Y-112874767D01*
X116149799Y-112899184D01*
X116140953Y-112899500D01*
X115490097Y-112899500D01*
X115423058Y-112879815D01*
X115402416Y-112863181D01*
X114794077Y-112254842D01*
X114760592Y-112193519D01*
X114763828Y-112128841D01*
X114768477Y-112114534D01*
X114800500Y-111912352D01*
X114800500Y-111707648D01*
X114768477Y-111505466D01*
X114705220Y-111310781D01*
X114705218Y-111310778D01*
X114705218Y-111310776D01*
X114656913Y-111215974D01*
X114612287Y-111128390D01*
X114546355Y-111037641D01*
X114491971Y-110962786D01*
X114347213Y-110818028D01*
X114181613Y-110697715D01*
X114181612Y-110697714D01*
X114181610Y-110697713D01*
X114097909Y-110655065D01*
X113999223Y-110604781D01*
X113804534Y-110541522D01*
X113629995Y-110513878D01*
X113602352Y-110509500D01*
X113397648Y-110509500D01*
X113373329Y-110513351D01*
X113195465Y-110541522D01*
X113000776Y-110604781D01*
X112818386Y-110697715D01*
X112652786Y-110818028D01*
X112508028Y-110962786D01*
X112387715Y-111128386D01*
X112294781Y-111310776D01*
X112231522Y-111505465D01*
X112199500Y-111707648D01*
X112199500Y-111912351D01*
X112231522Y-112114534D01*
X112294781Y-112309223D01*
X112346385Y-112410500D01*
X112385671Y-112487603D01*
X112387715Y-112491613D01*
X112508028Y-112657213D01*
X112652786Y-112801971D01*
X112786591Y-112899184D01*
X112818390Y-112922287D01*
X112934607Y-112981503D01*
X113000776Y-113015218D01*
X113000778Y-113015218D01*
X113000781Y-113015220D01*
X113105137Y-113049127D01*
X113195465Y-113078477D01*
X113197770Y-113078842D01*
X113397648Y-113110500D01*
X113397649Y-113110500D01*
X113602351Y-113110500D01*
X113602352Y-113110500D01*
X113804534Y-113078477D01*
X113818842Y-113073827D01*
X113888682Y-113071831D01*
X113944842Y-113104077D01*
X114705139Y-113864374D01*
X114705149Y-113864385D01*
X114709479Y-113868715D01*
X114709480Y-113868716D01*
X114821284Y-113980520D01*
X114821286Y-113980521D01*
X114821290Y-113980524D01*
X114882882Y-114016084D01*
X114882886Y-114016085D01*
X114882887Y-114016086D01*
X114958215Y-114059577D01*
X115106741Y-114099375D01*
X115166398Y-114135738D01*
X115196927Y-114198585D01*
X115188632Y-114267961D01*
X115185129Y-114275443D01*
X115109434Y-114424003D01*
X115036446Y-114648631D01*
X114999500Y-114881902D01*
X114999500Y-115118097D01*
X115036446Y-115351368D01*
X115109433Y-115575996D01*
X115203189Y-115760000D01*
X115216657Y-115786433D01*
X115355483Y-115977510D01*
X115522490Y-116144517D01*
X115713567Y-116283343D01*
X115731794Y-116292630D01*
X115782590Y-116340603D01*
X115799500Y-116403115D01*
X115799500Y-119463589D01*
X115779815Y-119530628D01*
X115727011Y-119576383D01*
X115674608Y-119587586D01*
X112823608Y-119567075D01*
X112756712Y-119546908D01*
X112711338Y-119493777D01*
X112700500Y-119443078D01*
X112700500Y-116403115D01*
X112720185Y-116336076D01*
X112768205Y-116292630D01*
X112786433Y-116283343D01*
X112977510Y-116144517D01*
X113144517Y-115977510D01*
X113283343Y-115786433D01*
X113390568Y-115575992D01*
X113463553Y-115351368D01*
X113483722Y-115224025D01*
X113500500Y-115118097D01*
X113500500Y-114881902D01*
X113463553Y-114648631D01*
X113414975Y-114499126D01*
X113390568Y-114424008D01*
X113390566Y-114424005D01*
X113390566Y-114424003D01*
X113283342Y-114213566D01*
X113272458Y-114198585D01*
X113144517Y-114022490D01*
X112977510Y-113855483D01*
X112786433Y-113716657D01*
X112773081Y-113709854D01*
X112575996Y-113609433D01*
X112351368Y-113536446D01*
X112118097Y-113499500D01*
X112118092Y-113499500D01*
X111881908Y-113499500D01*
X111881903Y-113499500D01*
X111648631Y-113536446D01*
X111424003Y-113609433D01*
X111213566Y-113716657D01*
X111108730Y-113792826D01*
X111022490Y-113855483D01*
X111022488Y-113855485D01*
X111022487Y-113855485D01*
X110855485Y-114022487D01*
X110855485Y-114022488D01*
X110855483Y-114022490D01*
X110828539Y-114059575D01*
X110716657Y-114213566D01*
X110609429Y-114424014D01*
X110609429Y-114424015D01*
X110607465Y-114430060D01*
X110568027Y-114487735D01*
X110551537Y-114499126D01*
X110516287Y-114519478D01*
X110516280Y-114519483D01*
X110467180Y-114568583D01*
X110405857Y-114602067D01*
X110336165Y-114597082D01*
X110280232Y-114555211D01*
X110255816Y-114489746D01*
X110255500Y-114480901D01*
X110255500Y-114379778D01*
X110245184Y-114314646D01*
X110221015Y-114162049D01*
X110173590Y-114016087D01*
X110152896Y-113952396D01*
X110152895Y-113952393D01*
X110071590Y-113792826D01*
X110052815Y-113755978D01*
X109964591Y-113634547D01*
X109923247Y-113577641D01*
X109923243Y-113577636D01*
X109767363Y-113421756D01*
X109767358Y-113421752D01*
X109627745Y-113320318D01*
X109585079Y-113264989D01*
X109579100Y-113195375D01*
X109611705Y-113133580D01*
X109627745Y-113119682D01*
X109764980Y-113019975D01*
X109767365Y-113018242D01*
X109923242Y-112862365D01*
X110052815Y-112684022D01*
X110152895Y-112487606D01*
X110221015Y-112277951D01*
X110255500Y-112060222D01*
X110255500Y-111839778D01*
X110221015Y-111622049D01*
X110186955Y-111517221D01*
X110152896Y-111412396D01*
X110152895Y-111412393D01*
X110085110Y-111279360D01*
X110052815Y-111215978D01*
X109989176Y-111128386D01*
X109923247Y-111037641D01*
X109923243Y-111037636D01*
X109767363Y-110881756D01*
X109767358Y-110881752D01*
X109627319Y-110780008D01*
X109584653Y-110724678D01*
X109578674Y-110655065D01*
X109611279Y-110593270D01*
X109627319Y-110579372D01*
X109652513Y-110561066D01*
X109652514Y-110561066D01*
X108984409Y-109892962D01*
X109047993Y-109875925D01*
X109162007Y-109810099D01*
X109255099Y-109717007D01*
X109320925Y-109602993D01*
X109337962Y-109539410D01*
X110006066Y-110207514D01*
X110006066Y-110207513D01*
X110052386Y-110143760D01*
X110152432Y-109947410D01*
X110220526Y-109737835D01*
X110255000Y-109520181D01*
X110255000Y-109299818D01*
X110220526Y-109082164D01*
X110152432Y-108872589D01*
X110052388Y-108676243D01*
X110006066Y-108612485D01*
X110006065Y-108612485D01*
X109337962Y-109280589D01*
X109320925Y-109217007D01*
X109255099Y-109102993D01*
X109162007Y-109009901D01*
X109047993Y-108944075D01*
X108984407Y-108927037D01*
X109652513Y-108258932D01*
X109627319Y-108240628D01*
X109584653Y-108185298D01*
X109578674Y-108115685D01*
X109611279Y-108053889D01*
X109627313Y-108039994D01*
X109767365Y-107938242D01*
X109923242Y-107782365D01*
X110052815Y-107604022D01*
X110152895Y-107407606D01*
X110221015Y-107197951D01*
X110255500Y-106980222D01*
X110255500Y-106759778D01*
X110221015Y-106542049D01*
X110163445Y-106364863D01*
X110152896Y-106332396D01*
X110152895Y-106332393D01*
X110111652Y-106251451D01*
X110052815Y-106135978D01*
X110004148Y-106068993D01*
X109923247Y-105957641D01*
X109923243Y-105957636D01*
X109763920Y-105798313D01*
X109764876Y-105797356D01*
X109730046Y-105743988D01*
X109729554Y-105674120D01*
X109766914Y-105615078D01*
X109791364Y-105598308D01*
X109830748Y-105577736D01*
X109830749Y-105577734D01*
X109830751Y-105577734D01*
X109980571Y-105455571D01*
X110102734Y-105305751D01*
X110192237Y-105134406D01*
X110245417Y-104948552D01*
X110255500Y-104835138D01*
X110255500Y-104087682D01*
X112200000Y-104087682D01*
X112200000Y-104292317D01*
X112232009Y-104494417D01*
X112295244Y-104689031D01*
X112388141Y-104871350D01*
X112388147Y-104871359D01*
X112420523Y-104915921D01*
X112420524Y-104915922D01*
X113100000Y-104236446D01*
X113100000Y-104242661D01*
X113127259Y-104344394D01*
X113179920Y-104435606D01*
X113254394Y-104510080D01*
X113345606Y-104562741D01*
X113447339Y-104590000D01*
X113453553Y-104590000D01*
X112774076Y-105269474D01*
X112818650Y-105301859D01*
X113000968Y-105394755D01*
X113195582Y-105457990D01*
X113397683Y-105490000D01*
X113602317Y-105490000D01*
X113804417Y-105457990D01*
X113999031Y-105394755D01*
X114181349Y-105301859D01*
X114225921Y-105269474D01*
X113546447Y-104590000D01*
X113552661Y-104590000D01*
X113654394Y-104562741D01*
X113745606Y-104510080D01*
X113820080Y-104435606D01*
X113872741Y-104344394D01*
X113900000Y-104242661D01*
X113900000Y-104236447D01*
X114579474Y-104915921D01*
X114611859Y-104871349D01*
X114704755Y-104689031D01*
X114767990Y-104494417D01*
X114800000Y-104292317D01*
X114800000Y-104087682D01*
X115890000Y-104087682D01*
X115890000Y-104292317D01*
X115922009Y-104494417D01*
X115985244Y-104689031D01*
X116078141Y-104871350D01*
X116078147Y-104871359D01*
X116110523Y-104915921D01*
X116110524Y-104915922D01*
X116790000Y-104236446D01*
X116790000Y-104242661D01*
X116817259Y-104344394D01*
X116869920Y-104435606D01*
X116944394Y-104510080D01*
X117035606Y-104562741D01*
X117137339Y-104590000D01*
X117143553Y-104590000D01*
X116464076Y-105269474D01*
X116508650Y-105301859D01*
X116690968Y-105394755D01*
X116885582Y-105457990D01*
X117087683Y-105490000D01*
X117292317Y-105490000D01*
X117494417Y-105457990D01*
X117689031Y-105394755D01*
X117871349Y-105301859D01*
X117915921Y-105269474D01*
X117236447Y-104590000D01*
X117242661Y-104590000D01*
X117344394Y-104562741D01*
X117435606Y-104510080D01*
X117510080Y-104435606D01*
X117562741Y-104344394D01*
X117590000Y-104242661D01*
X117590000Y-104236447D01*
X118269474Y-104915921D01*
X118301859Y-104871349D01*
X118394755Y-104689031D01*
X118457990Y-104494417D01*
X118490000Y-104292317D01*
X118490000Y-104087682D01*
X118457990Y-103885582D01*
X118394755Y-103690968D01*
X118301859Y-103508650D01*
X118269474Y-103464077D01*
X118269474Y-103464076D01*
X117590000Y-104143551D01*
X117590000Y-104137339D01*
X117562741Y-104035606D01*
X117510080Y-103944394D01*
X117435606Y-103869920D01*
X117344394Y-103817259D01*
X117242661Y-103790000D01*
X117236446Y-103790000D01*
X117915922Y-103110524D01*
X117915921Y-103110523D01*
X117871359Y-103078147D01*
X117871350Y-103078141D01*
X117689031Y-102985244D01*
X117494417Y-102922009D01*
X117292317Y-102890000D01*
X117087683Y-102890000D01*
X116885582Y-102922009D01*
X116690968Y-102985244D01*
X116508644Y-103078143D01*
X116464077Y-103110523D01*
X116464077Y-103110524D01*
X117143554Y-103790000D01*
X117137339Y-103790000D01*
X117035606Y-103817259D01*
X116944394Y-103869920D01*
X116869920Y-103944394D01*
X116817259Y-104035606D01*
X116790000Y-104137339D01*
X116790000Y-104143553D01*
X116110524Y-103464077D01*
X116110523Y-103464077D01*
X116078143Y-103508644D01*
X115985244Y-103690968D01*
X115922009Y-103885582D01*
X115890000Y-104087682D01*
X114800000Y-104087682D01*
X114767990Y-103885582D01*
X114704755Y-103690968D01*
X114611859Y-103508650D01*
X114579474Y-103464077D01*
X114579474Y-103464076D01*
X113900000Y-104143551D01*
X113900000Y-104137339D01*
X113872741Y-104035606D01*
X113820080Y-103944394D01*
X113745606Y-103869920D01*
X113654394Y-103817259D01*
X113552661Y-103790000D01*
X113546446Y-103790000D01*
X114225922Y-103110524D01*
X114225921Y-103110523D01*
X114181359Y-103078147D01*
X114181350Y-103078141D01*
X113999031Y-102985244D01*
X113804417Y-102922009D01*
X113602317Y-102890000D01*
X113397683Y-102890000D01*
X113195582Y-102922009D01*
X113000968Y-102985244D01*
X112818644Y-103078143D01*
X112774077Y-103110523D01*
X112774077Y-103110524D01*
X113453554Y-103790000D01*
X113447339Y-103790000D01*
X113345606Y-103817259D01*
X113254394Y-103869920D01*
X113179920Y-103944394D01*
X113127259Y-104035606D01*
X113100000Y-104137339D01*
X113100000Y-104143553D01*
X112420524Y-103464077D01*
X112420523Y-103464077D01*
X112388143Y-103508644D01*
X112295244Y-103690968D01*
X112232009Y-103885582D01*
X112200000Y-104087682D01*
X110255500Y-104087682D01*
X110255500Y-103824862D01*
X110245417Y-103711448D01*
X110192237Y-103525594D01*
X110102734Y-103354249D01*
X110006430Y-103236143D01*
X110006430Y-103236141D01*
X109980573Y-103204430D01*
X109830747Y-103082263D01*
X109791362Y-103061690D01*
X109741055Y-103013204D01*
X109724948Y-102945216D01*
X109748155Y-102879313D01*
X109764160Y-102861927D01*
X109763920Y-102861687D01*
X109842265Y-102783342D01*
X109923242Y-102702365D01*
X110052815Y-102524022D01*
X110152895Y-102327606D01*
X110221015Y-102117951D01*
X110255500Y-101900222D01*
X110255500Y-99139778D01*
X110243752Y-99065608D01*
X110252706Y-98996319D01*
X110278541Y-98958535D01*
X110900259Y-98336819D01*
X110961582Y-98303334D01*
X110987940Y-98300500D01*
X118772650Y-98300500D01*
X118839689Y-98320185D01*
G37*
%TD.AperFunction*%
%TD*%
M02*
