%TF.GenerationSoftware,KiCad,Pcbnew,10.0.5*%
%TF.CreationDate,2026-08-03T13:57:01-07:00*%
%TF.ProjectId,pico2-knob,7069636f-322d-46b6-9e6f-622e6b696361,rev?*%
%TF.SameCoordinates,Original*%
%TF.FileFunction,Legend,Top*%
%TF.FilePolarity,Positive*%
%FSLAX46Y46*%
G04 Gerber Fmt 4.6, Leading zero omitted, Abs format (unit mm)*
G04 Created by KiCad (PCBNEW 10.0.5) date 2026-08-03 13:57:01*
%MOMM*%
%LPD*%
G01*
G04 APERTURE LIST*
%ADD10C,0.150000*%
%ADD11C,0.120000*%
G04 APERTURE END LIST*
D10*
X105324819Y-133916666D02*
X104848628Y-134249999D01*
X105324819Y-134488094D02*
X104324819Y-134488094D01*
X104324819Y-134488094D02*
X104324819Y-134107142D01*
X104324819Y-134107142D02*
X104372438Y-134011904D01*
X104372438Y-134011904D02*
X104420057Y-133964285D01*
X104420057Y-133964285D02*
X104515295Y-133916666D01*
X104515295Y-133916666D02*
X104658152Y-133916666D01*
X104658152Y-133916666D02*
X104753390Y-133964285D01*
X104753390Y-133964285D02*
X104801009Y-134011904D01*
X104801009Y-134011904D02*
X104848628Y-134107142D01*
X104848628Y-134107142D02*
X104848628Y-134488094D01*
X104324819Y-133583332D02*
X104324819Y-132964285D01*
X104324819Y-132964285D02*
X104705771Y-133297618D01*
X104705771Y-133297618D02*
X104705771Y-133154761D01*
X104705771Y-133154761D02*
X104753390Y-133059523D01*
X104753390Y-133059523D02*
X104801009Y-133011904D01*
X104801009Y-133011904D02*
X104896247Y-132964285D01*
X104896247Y-132964285D02*
X105134342Y-132964285D01*
X105134342Y-132964285D02*
X105229580Y-133011904D01*
X105229580Y-133011904D02*
X105277200Y-133059523D01*
X105277200Y-133059523D02*
X105324819Y-133154761D01*
X105324819Y-133154761D02*
X105324819Y-133440475D01*
X105324819Y-133440475D02*
X105277200Y-133535713D01*
X105277200Y-133535713D02*
X105229580Y-133583332D01*
X118833333Y-162704819D02*
X118500000Y-162228628D01*
X118261905Y-162704819D02*
X118261905Y-161704819D01*
X118261905Y-161704819D02*
X118642857Y-161704819D01*
X118642857Y-161704819D02*
X118738095Y-161752438D01*
X118738095Y-161752438D02*
X118785714Y-161800057D01*
X118785714Y-161800057D02*
X118833333Y-161895295D01*
X118833333Y-161895295D02*
X118833333Y-162038152D01*
X118833333Y-162038152D02*
X118785714Y-162133390D01*
X118785714Y-162133390D02*
X118738095Y-162181009D01*
X118738095Y-162181009D02*
X118642857Y-162228628D01*
X118642857Y-162228628D02*
X118261905Y-162228628D01*
X119166667Y-161704819D02*
X119833333Y-161704819D01*
X119833333Y-161704819D02*
X119404762Y-162704819D01*
X114833333Y-163704819D02*
X114500000Y-163228628D01*
X114261905Y-163704819D02*
X114261905Y-162704819D01*
X114261905Y-162704819D02*
X114642857Y-162704819D01*
X114642857Y-162704819D02*
X114738095Y-162752438D01*
X114738095Y-162752438D02*
X114785714Y-162800057D01*
X114785714Y-162800057D02*
X114833333Y-162895295D01*
X114833333Y-162895295D02*
X114833333Y-163038152D01*
X114833333Y-163038152D02*
X114785714Y-163133390D01*
X114785714Y-163133390D02*
X114738095Y-163181009D01*
X114738095Y-163181009D02*
X114642857Y-163228628D01*
X114642857Y-163228628D02*
X114261905Y-163228628D01*
X115738095Y-162704819D02*
X115261905Y-162704819D01*
X115261905Y-162704819D02*
X115214286Y-163181009D01*
X115214286Y-163181009D02*
X115261905Y-163133390D01*
X115261905Y-163133390D02*
X115357143Y-163085771D01*
X115357143Y-163085771D02*
X115595238Y-163085771D01*
X115595238Y-163085771D02*
X115690476Y-163133390D01*
X115690476Y-163133390D02*
X115738095Y-163181009D01*
X115738095Y-163181009D02*
X115785714Y-163276247D01*
X115785714Y-163276247D02*
X115785714Y-163514342D01*
X115785714Y-163514342D02*
X115738095Y-163609580D01*
X115738095Y-163609580D02*
X115690476Y-163657200D01*
X115690476Y-163657200D02*
X115595238Y-163704819D01*
X115595238Y-163704819D02*
X115357143Y-163704819D01*
X115357143Y-163704819D02*
X115261905Y-163657200D01*
X115261905Y-163657200D02*
X115214286Y-163609580D01*
X87217426Y-108504659D02*
X86884093Y-108028468D01*
X86645998Y-108504659D02*
X86645998Y-107504659D01*
X86645998Y-107504659D02*
X87026950Y-107504659D01*
X87026950Y-107504659D02*
X87122188Y-107552278D01*
X87122188Y-107552278D02*
X87169807Y-107599897D01*
X87169807Y-107599897D02*
X87217426Y-107695135D01*
X87217426Y-107695135D02*
X87217426Y-107837992D01*
X87217426Y-107837992D02*
X87169807Y-107933230D01*
X87169807Y-107933230D02*
X87122188Y-107980849D01*
X87122188Y-107980849D02*
X87026950Y-108028468D01*
X87026950Y-108028468D02*
X86645998Y-108028468D01*
X87645998Y-107980849D02*
X87979331Y-107980849D01*
X88122188Y-108504659D02*
X87645998Y-108504659D01*
X87645998Y-108504659D02*
X87645998Y-107504659D01*
X87645998Y-107504659D02*
X88122188Y-107504659D01*
X88884093Y-107980849D02*
X88550760Y-107980849D01*
X88550760Y-108504659D02*
X88550760Y-107504659D01*
X88550760Y-107504659D02*
X89026950Y-107504659D01*
X89550760Y-107504659D02*
X89550760Y-107742754D01*
X89312665Y-107647516D02*
X89550760Y-107742754D01*
X89550760Y-107742754D02*
X89788855Y-107647516D01*
X89407903Y-107933230D02*
X89550760Y-107742754D01*
X89550760Y-107742754D02*
X89693617Y-107933230D01*
X90312665Y-107504659D02*
X90312665Y-107742754D01*
X90074570Y-107647516D02*
X90312665Y-107742754D01*
X90312665Y-107742754D02*
X90550760Y-107647516D01*
X90169808Y-107933230D02*
X90312665Y-107742754D01*
X90312665Y-107742754D02*
X90455522Y-107933230D01*
X90824250Y-98705339D02*
X90252822Y-98705339D01*
X90538536Y-98705339D02*
X90538536Y-97705339D01*
X90538536Y-97705339D02*
X90443298Y-97848196D01*
X90443298Y-97848196D02*
X90348060Y-97943434D01*
X90348060Y-97943434D02*
X90252822Y-97991053D01*
X91443298Y-97705339D02*
X91538536Y-97705339D01*
X91538536Y-97705339D02*
X91633774Y-97752958D01*
X91633774Y-97752958D02*
X91681393Y-97800577D01*
X91681393Y-97800577D02*
X91729012Y-97895815D01*
X91729012Y-97895815D02*
X91776631Y-98086291D01*
X91776631Y-98086291D02*
X91776631Y-98324386D01*
X91776631Y-98324386D02*
X91729012Y-98514862D01*
X91729012Y-98514862D02*
X91681393Y-98610100D01*
X91681393Y-98610100D02*
X91633774Y-98657720D01*
X91633774Y-98657720D02*
X91538536Y-98705339D01*
X91538536Y-98705339D02*
X91443298Y-98705339D01*
X91443298Y-98705339D02*
X91348060Y-98657720D01*
X91348060Y-98657720D02*
X91300441Y-98610100D01*
X91300441Y-98610100D02*
X91252822Y-98514862D01*
X91252822Y-98514862D02*
X91205203Y-98324386D01*
X91205203Y-98324386D02*
X91205203Y-98086291D01*
X91205203Y-98086291D02*
X91252822Y-97895815D01*
X91252822Y-97895815D02*
X91300441Y-97800577D01*
X91300441Y-97800577D02*
X91348060Y-97752958D01*
X91348060Y-97752958D02*
X91443298Y-97705339D01*
X92205203Y-98705339D02*
X92205203Y-98038672D01*
X92205203Y-98133910D02*
X92252822Y-98086291D01*
X92252822Y-98086291D02*
X92348060Y-98038672D01*
X92348060Y-98038672D02*
X92490917Y-98038672D01*
X92490917Y-98038672D02*
X92586155Y-98086291D01*
X92586155Y-98086291D02*
X92633774Y-98181529D01*
X92633774Y-98181529D02*
X92633774Y-98705339D01*
X92633774Y-98181529D02*
X92681393Y-98086291D01*
X92681393Y-98086291D02*
X92776631Y-98038672D01*
X92776631Y-98038672D02*
X92919488Y-98038672D01*
X92919488Y-98038672D02*
X93014727Y-98086291D01*
X93014727Y-98086291D02*
X93062346Y-98181529D01*
X93062346Y-98181529D02*
X93062346Y-98705339D01*
X93538536Y-98705339D02*
X93538536Y-98038672D01*
X93538536Y-98133910D02*
X93586155Y-98086291D01*
X93586155Y-98086291D02*
X93681393Y-98038672D01*
X93681393Y-98038672D02*
X93824250Y-98038672D01*
X93824250Y-98038672D02*
X93919488Y-98086291D01*
X93919488Y-98086291D02*
X93967107Y-98181529D01*
X93967107Y-98181529D02*
X93967107Y-98705339D01*
X93967107Y-98181529D02*
X94014726Y-98086291D01*
X94014726Y-98086291D02*
X94109964Y-98038672D01*
X94109964Y-98038672D02*
X94252821Y-98038672D01*
X94252821Y-98038672D02*
X94348060Y-98086291D01*
X94348060Y-98086291D02*
X94395679Y-98181529D01*
X94395679Y-98181529D02*
X94395679Y-98705339D01*
X93386255Y-102805659D02*
X92910065Y-102805659D01*
X92910065Y-102805659D02*
X92862446Y-103281849D01*
X92862446Y-103281849D02*
X92910065Y-103234230D01*
X92910065Y-103234230D02*
X93005303Y-103186611D01*
X93005303Y-103186611D02*
X93243398Y-103186611D01*
X93243398Y-103186611D02*
X93338636Y-103234230D01*
X93338636Y-103234230D02*
X93386255Y-103281849D01*
X93386255Y-103281849D02*
X93433874Y-103377087D01*
X93433874Y-103377087D02*
X93433874Y-103615182D01*
X93433874Y-103615182D02*
X93386255Y-103710420D01*
X93386255Y-103710420D02*
X93338636Y-103758040D01*
X93338636Y-103758040D02*
X93243398Y-103805659D01*
X93243398Y-103805659D02*
X93005303Y-103805659D01*
X93005303Y-103805659D02*
X92910065Y-103758040D01*
X92910065Y-103758040D02*
X92862446Y-103710420D01*
X93100541Y-107705319D02*
X93195779Y-107705319D01*
X93195779Y-107705319D02*
X93291017Y-107752938D01*
X93291017Y-107752938D02*
X93338636Y-107800557D01*
X93338636Y-107800557D02*
X93386255Y-107895795D01*
X93386255Y-107895795D02*
X93433874Y-108086271D01*
X93433874Y-108086271D02*
X93433874Y-108324366D01*
X93433874Y-108324366D02*
X93386255Y-108514842D01*
X93386255Y-108514842D02*
X93338636Y-108610080D01*
X93338636Y-108610080D02*
X93291017Y-108657700D01*
X93291017Y-108657700D02*
X93195779Y-108705319D01*
X93195779Y-108705319D02*
X93100541Y-108705319D01*
X93100541Y-108705319D02*
X93005303Y-108657700D01*
X93005303Y-108657700D02*
X92957684Y-108610080D01*
X92957684Y-108610080D02*
X92910065Y-108514842D01*
X92910065Y-108514842D02*
X92862446Y-108324366D01*
X92862446Y-108324366D02*
X92862446Y-108086271D01*
X92862446Y-108086271D02*
X92910065Y-107895795D01*
X92910065Y-107895795D02*
X92957684Y-107800557D01*
X92957684Y-107800557D02*
X93005303Y-107752938D01*
X93005303Y-107752938D02*
X93100541Y-107705319D01*
X96201881Y-110504399D02*
X96297119Y-110504399D01*
X96297119Y-110504399D02*
X96392357Y-110552018D01*
X96392357Y-110552018D02*
X96439976Y-110599637D01*
X96439976Y-110599637D02*
X96487595Y-110694875D01*
X96487595Y-110694875D02*
X96535214Y-110885351D01*
X96535214Y-110885351D02*
X96535214Y-111123446D01*
X96535214Y-111123446D02*
X96487595Y-111313922D01*
X96487595Y-111313922D02*
X96439976Y-111409160D01*
X96439976Y-111409160D02*
X96392357Y-111456780D01*
X96392357Y-111456780D02*
X96297119Y-111504399D01*
X96297119Y-111504399D02*
X96201881Y-111504399D01*
X96201881Y-111504399D02*
X96106643Y-111456780D01*
X96106643Y-111456780D02*
X96059024Y-111409160D01*
X96059024Y-111409160D02*
X96011405Y-111313922D01*
X96011405Y-111313922D02*
X95963786Y-111123446D01*
X95963786Y-111123446D02*
X95963786Y-110885351D01*
X95963786Y-110885351D02*
X96011405Y-110694875D01*
X96011405Y-110694875D02*
X96059024Y-110599637D01*
X96059024Y-110599637D02*
X96106643Y-110552018D01*
X96106643Y-110552018D02*
X96201881Y-110504399D01*
X101486315Y-110605999D02*
X101010125Y-110605999D01*
X101010125Y-110605999D02*
X100962506Y-111082189D01*
X100962506Y-111082189D02*
X101010125Y-111034570D01*
X101010125Y-111034570D02*
X101105363Y-110986951D01*
X101105363Y-110986951D02*
X101343458Y-110986951D01*
X101343458Y-110986951D02*
X101438696Y-111034570D01*
X101438696Y-111034570D02*
X101486315Y-111082189D01*
X101486315Y-111082189D02*
X101533934Y-111177427D01*
X101533934Y-111177427D02*
X101533934Y-111415522D01*
X101533934Y-111415522D02*
X101486315Y-111510760D01*
X101486315Y-111510760D02*
X101438696Y-111558380D01*
X101438696Y-111558380D02*
X101343458Y-111605999D01*
X101343458Y-111605999D02*
X101105363Y-111605999D01*
X101105363Y-111605999D02*
X101010125Y-111558380D01*
X101010125Y-111558380D02*
X100962506Y-111510760D01*
X104725670Y-111405339D02*
X104154242Y-111405339D01*
X104439956Y-111405339D02*
X104439956Y-110405339D01*
X104439956Y-110405339D02*
X104344718Y-110548196D01*
X104344718Y-110548196D02*
X104249480Y-110643434D01*
X104249480Y-110643434D02*
X104154242Y-110691053D01*
X105344718Y-110405339D02*
X105439956Y-110405339D01*
X105439956Y-110405339D02*
X105535194Y-110452958D01*
X105535194Y-110452958D02*
X105582813Y-110500577D01*
X105582813Y-110500577D02*
X105630432Y-110595815D01*
X105630432Y-110595815D02*
X105678051Y-110786291D01*
X105678051Y-110786291D02*
X105678051Y-111024386D01*
X105678051Y-111024386D02*
X105630432Y-111214862D01*
X105630432Y-111214862D02*
X105582813Y-111310100D01*
X105582813Y-111310100D02*
X105535194Y-111357720D01*
X105535194Y-111357720D02*
X105439956Y-111405339D01*
X105439956Y-111405339D02*
X105344718Y-111405339D01*
X105344718Y-111405339D02*
X105249480Y-111357720D01*
X105249480Y-111357720D02*
X105201861Y-111310100D01*
X105201861Y-111310100D02*
X105154242Y-111214862D01*
X105154242Y-111214862D02*
X105106623Y-111024386D01*
X105106623Y-111024386D02*
X105106623Y-110786291D01*
X105106623Y-110786291D02*
X105154242Y-110595815D01*
X105154242Y-110595815D02*
X105201861Y-110500577D01*
X105201861Y-110500577D02*
X105249480Y-110452958D01*
X105249480Y-110452958D02*
X105344718Y-110405339D01*
X106106623Y-111405339D02*
X106106623Y-110738672D01*
X106106623Y-110833910D02*
X106154242Y-110786291D01*
X106154242Y-110786291D02*
X106249480Y-110738672D01*
X106249480Y-110738672D02*
X106392337Y-110738672D01*
X106392337Y-110738672D02*
X106487575Y-110786291D01*
X106487575Y-110786291D02*
X106535194Y-110881529D01*
X106535194Y-110881529D02*
X106535194Y-111405339D01*
X106535194Y-110881529D02*
X106582813Y-110786291D01*
X106582813Y-110786291D02*
X106678051Y-110738672D01*
X106678051Y-110738672D02*
X106820908Y-110738672D01*
X106820908Y-110738672D02*
X106916147Y-110786291D01*
X106916147Y-110786291D02*
X106963766Y-110881529D01*
X106963766Y-110881529D02*
X106963766Y-111405339D01*
X107439956Y-111405339D02*
X107439956Y-110738672D01*
X107439956Y-110833910D02*
X107487575Y-110786291D01*
X107487575Y-110786291D02*
X107582813Y-110738672D01*
X107582813Y-110738672D02*
X107725670Y-110738672D01*
X107725670Y-110738672D02*
X107820908Y-110786291D01*
X107820908Y-110786291D02*
X107868527Y-110881529D01*
X107868527Y-110881529D02*
X107868527Y-111405339D01*
X107868527Y-110881529D02*
X107916146Y-110786291D01*
X107916146Y-110786291D02*
X108011384Y-110738672D01*
X108011384Y-110738672D02*
X108154241Y-110738672D01*
X108154241Y-110738672D02*
X108249480Y-110786291D01*
X108249480Y-110786291D02*
X108297099Y-110881529D01*
X108297099Y-110881529D02*
X108297099Y-111405339D01*
X110333072Y-141727217D02*
X109806301Y-141481491D01*
X109838200Y-142012932D02*
X109338200Y-141146906D01*
X109338200Y-141146906D02*
X109668115Y-140956430D01*
X109668115Y-140956430D02*
X109774403Y-140950050D01*
X109774403Y-140950050D02*
X109839452Y-140967480D01*
X109839452Y-140967480D02*
X109928310Y-141026149D01*
X109928310Y-141026149D02*
X109999739Y-141149867D01*
X109999739Y-141149867D02*
X110006118Y-141256155D01*
X110006118Y-141256155D02*
X109988688Y-141321204D01*
X109988688Y-141321204D02*
X109930019Y-141410062D01*
X109930019Y-141410062D02*
X109600105Y-141600539D01*
X110742046Y-140721296D02*
X111075379Y-141298646D01*
X110345373Y-140510429D02*
X110496320Y-141248066D01*
X110496320Y-141248066D02*
X111032431Y-140938542D01*
X124461636Y-167422149D02*
X124360621Y-167455821D01*
X124360621Y-167455821D02*
X124225934Y-167455821D01*
X124225934Y-167455821D02*
X124023903Y-167455821D01*
X124023903Y-167455821D02*
X123922888Y-167489493D01*
X123922888Y-167489493D02*
X123855545Y-167556836D01*
X124057575Y-167691523D02*
X123956560Y-167725195D01*
X123956560Y-167725195D02*
X123821873Y-167725195D01*
X123821873Y-167725195D02*
X123653514Y-167624180D01*
X123653514Y-167624180D02*
X123417812Y-167388477D01*
X123417812Y-167388477D02*
X123316797Y-167220119D01*
X123316797Y-167220119D02*
X123316797Y-167085432D01*
X123316797Y-167085432D02*
X123350468Y-166984416D01*
X123350468Y-166984416D02*
X123485155Y-166849729D01*
X123485155Y-166849729D02*
X123586171Y-166816058D01*
X123586171Y-166816058D02*
X123720858Y-166816058D01*
X123720858Y-166816058D02*
X123889216Y-166917073D01*
X123889216Y-166917073D02*
X124124919Y-167152775D01*
X124124919Y-167152775D02*
X124225934Y-167321134D01*
X124225934Y-167321134D02*
X124225934Y-167455821D01*
X124225934Y-167455821D02*
X124192262Y-167556836D01*
X124192262Y-167556836D02*
X124057575Y-167691523D01*
X125034056Y-166715042D02*
X124629995Y-167119103D01*
X124832025Y-166917073D02*
X124124919Y-166209966D01*
X124124919Y-166209966D02*
X124158590Y-166378325D01*
X124158590Y-166378325D02*
X124158590Y-166513012D01*
X124158590Y-166513012D02*
X124124919Y-166614027D01*
X99916667Y-98907200D02*
X100059524Y-98954819D01*
X100059524Y-98954819D02*
X100297619Y-98954819D01*
X100297619Y-98954819D02*
X100392857Y-98907200D01*
X100392857Y-98907200D02*
X100440476Y-98859580D01*
X100440476Y-98859580D02*
X100488095Y-98764342D01*
X100488095Y-98764342D02*
X100488095Y-98669104D01*
X100488095Y-98669104D02*
X100440476Y-98573866D01*
X100440476Y-98573866D02*
X100392857Y-98526247D01*
X100392857Y-98526247D02*
X100297619Y-98478628D01*
X100297619Y-98478628D02*
X100107143Y-98431009D01*
X100107143Y-98431009D02*
X100011905Y-98383390D01*
X100011905Y-98383390D02*
X99964286Y-98335771D01*
X99964286Y-98335771D02*
X99916667Y-98240533D01*
X99916667Y-98240533D02*
X99916667Y-98145295D01*
X99916667Y-98145295D02*
X99964286Y-98050057D01*
X99964286Y-98050057D02*
X100011905Y-98002438D01*
X100011905Y-98002438D02*
X100107143Y-97954819D01*
X100107143Y-97954819D02*
X100345238Y-97954819D01*
X100345238Y-97954819D02*
X100488095Y-98002438D01*
X100821429Y-97954819D02*
X101059524Y-98954819D01*
X101059524Y-98954819D02*
X101250000Y-98240533D01*
X101250000Y-98240533D02*
X101440476Y-98954819D01*
X101440476Y-98954819D02*
X101678572Y-97954819D01*
X102583333Y-98954819D02*
X102011905Y-98954819D01*
X102297619Y-98954819D02*
X102297619Y-97954819D01*
X102297619Y-97954819D02*
X102202381Y-98097676D01*
X102202381Y-98097676D02*
X102107143Y-98192914D01*
X102107143Y-98192914D02*
X102011905Y-98240533D01*
X120014819Y-105416666D02*
X119538628Y-105749999D01*
X120014819Y-105988094D02*
X119014819Y-105988094D01*
X119014819Y-105988094D02*
X119014819Y-105607142D01*
X119014819Y-105607142D02*
X119062438Y-105511904D01*
X119062438Y-105511904D02*
X119110057Y-105464285D01*
X119110057Y-105464285D02*
X119205295Y-105416666D01*
X119205295Y-105416666D02*
X119348152Y-105416666D01*
X119348152Y-105416666D02*
X119443390Y-105464285D01*
X119443390Y-105464285D02*
X119491009Y-105511904D01*
X119491009Y-105511904D02*
X119538628Y-105607142D01*
X119538628Y-105607142D02*
X119538628Y-105988094D01*
X119110057Y-105035713D02*
X119062438Y-104988094D01*
X119062438Y-104988094D02*
X119014819Y-104892856D01*
X119014819Y-104892856D02*
X119014819Y-104654761D01*
X119014819Y-104654761D02*
X119062438Y-104559523D01*
X119062438Y-104559523D02*
X119110057Y-104511904D01*
X119110057Y-104511904D02*
X119205295Y-104464285D01*
X119205295Y-104464285D02*
X119300533Y-104464285D01*
X119300533Y-104464285D02*
X119443390Y-104511904D01*
X119443390Y-104511904D02*
X120014819Y-105083332D01*
X120014819Y-105083332D02*
X120014819Y-104464285D01*
X111704819Y-110416666D02*
X111228628Y-110749999D01*
X111704819Y-110988094D02*
X110704819Y-110988094D01*
X110704819Y-110988094D02*
X110704819Y-110607142D01*
X110704819Y-110607142D02*
X110752438Y-110511904D01*
X110752438Y-110511904D02*
X110800057Y-110464285D01*
X110800057Y-110464285D02*
X110895295Y-110416666D01*
X110895295Y-110416666D02*
X111038152Y-110416666D01*
X111038152Y-110416666D02*
X111133390Y-110464285D01*
X111133390Y-110464285D02*
X111181009Y-110511904D01*
X111181009Y-110511904D02*
X111228628Y-110607142D01*
X111228628Y-110607142D02*
X111228628Y-110988094D01*
X110704819Y-109559523D02*
X110704819Y-109749999D01*
X110704819Y-109749999D02*
X110752438Y-109845237D01*
X110752438Y-109845237D02*
X110800057Y-109892856D01*
X110800057Y-109892856D02*
X110942914Y-109988094D01*
X110942914Y-109988094D02*
X111133390Y-110035713D01*
X111133390Y-110035713D02*
X111514342Y-110035713D01*
X111514342Y-110035713D02*
X111609580Y-109988094D01*
X111609580Y-109988094D02*
X111657200Y-109940475D01*
X111657200Y-109940475D02*
X111704819Y-109845237D01*
X111704819Y-109845237D02*
X111704819Y-109654761D01*
X111704819Y-109654761D02*
X111657200Y-109559523D01*
X111657200Y-109559523D02*
X111609580Y-109511904D01*
X111609580Y-109511904D02*
X111514342Y-109464285D01*
X111514342Y-109464285D02*
X111276247Y-109464285D01*
X111276247Y-109464285D02*
X111181009Y-109511904D01*
X111181009Y-109511904D02*
X111133390Y-109559523D01*
X111133390Y-109559523D02*
X111085771Y-109654761D01*
X111085771Y-109654761D02*
X111085771Y-109845237D01*
X111085771Y-109845237D02*
X111133390Y-109940475D01*
X111133390Y-109940475D02*
X111181009Y-109988094D01*
X111181009Y-109988094D02*
X111276247Y-110035713D01*
X103407200Y-125083332D02*
X103454819Y-124940475D01*
X103454819Y-124940475D02*
X103454819Y-124702380D01*
X103454819Y-124702380D02*
X103407200Y-124607142D01*
X103407200Y-124607142D02*
X103359580Y-124559523D01*
X103359580Y-124559523D02*
X103264342Y-124511904D01*
X103264342Y-124511904D02*
X103169104Y-124511904D01*
X103169104Y-124511904D02*
X103073866Y-124559523D01*
X103073866Y-124559523D02*
X103026247Y-124607142D01*
X103026247Y-124607142D02*
X102978628Y-124702380D01*
X102978628Y-124702380D02*
X102931009Y-124892856D01*
X102931009Y-124892856D02*
X102883390Y-124988094D01*
X102883390Y-124988094D02*
X102835771Y-125035713D01*
X102835771Y-125035713D02*
X102740533Y-125083332D01*
X102740533Y-125083332D02*
X102645295Y-125083332D01*
X102645295Y-125083332D02*
X102550057Y-125035713D01*
X102550057Y-125035713D02*
X102502438Y-124988094D01*
X102502438Y-124988094D02*
X102454819Y-124892856D01*
X102454819Y-124892856D02*
X102454819Y-124654761D01*
X102454819Y-124654761D02*
X102502438Y-124511904D01*
X102454819Y-124178570D02*
X103454819Y-123940475D01*
X103454819Y-123940475D02*
X102740533Y-123749999D01*
X102740533Y-123749999D02*
X103454819Y-123559523D01*
X103454819Y-123559523D02*
X102454819Y-123321428D01*
X102454819Y-123035713D02*
X102454819Y-122416666D01*
X102454819Y-122416666D02*
X102835771Y-122749999D01*
X102835771Y-122749999D02*
X102835771Y-122607142D01*
X102835771Y-122607142D02*
X102883390Y-122511904D01*
X102883390Y-122511904D02*
X102931009Y-122464285D01*
X102931009Y-122464285D02*
X103026247Y-122416666D01*
X103026247Y-122416666D02*
X103264342Y-122416666D01*
X103264342Y-122416666D02*
X103359580Y-122464285D01*
X103359580Y-122464285D02*
X103407200Y-122511904D01*
X103407200Y-122511904D02*
X103454819Y-122607142D01*
X103454819Y-122607142D02*
X103454819Y-122892856D01*
X103454819Y-122892856D02*
X103407200Y-122988094D01*
X103407200Y-122988094D02*
X103359580Y-123035713D01*
X102833333Y-173359580D02*
X102785714Y-173407200D01*
X102785714Y-173407200D02*
X102642857Y-173454819D01*
X102642857Y-173454819D02*
X102547619Y-173454819D01*
X102547619Y-173454819D02*
X102404762Y-173407200D01*
X102404762Y-173407200D02*
X102309524Y-173311961D01*
X102309524Y-173311961D02*
X102261905Y-173216723D01*
X102261905Y-173216723D02*
X102214286Y-173026247D01*
X102214286Y-173026247D02*
X102214286Y-172883390D01*
X102214286Y-172883390D02*
X102261905Y-172692914D01*
X102261905Y-172692914D02*
X102309524Y-172597676D01*
X102309524Y-172597676D02*
X102404762Y-172502438D01*
X102404762Y-172502438D02*
X102547619Y-172454819D01*
X102547619Y-172454819D02*
X102642857Y-172454819D01*
X102642857Y-172454819D02*
X102785714Y-172502438D01*
X102785714Y-172502438D02*
X102833333Y-172550057D01*
X103785714Y-173454819D02*
X103214286Y-173454819D01*
X103500000Y-173454819D02*
X103500000Y-172454819D01*
X103500000Y-172454819D02*
X103404762Y-172597676D01*
X103404762Y-172597676D02*
X103309524Y-172692914D01*
X103309524Y-172692914D02*
X103214286Y-172740533D01*
X132833333Y-107584819D02*
X132500000Y-107108628D01*
X132261905Y-107584819D02*
X132261905Y-106584819D01*
X132261905Y-106584819D02*
X132642857Y-106584819D01*
X132642857Y-106584819D02*
X132738095Y-106632438D01*
X132738095Y-106632438D02*
X132785714Y-106680057D01*
X132785714Y-106680057D02*
X132833333Y-106775295D01*
X132833333Y-106775295D02*
X132833333Y-106918152D01*
X132833333Y-106918152D02*
X132785714Y-107013390D01*
X132785714Y-107013390D02*
X132738095Y-107061009D01*
X132738095Y-107061009D02*
X132642857Y-107108628D01*
X132642857Y-107108628D02*
X132261905Y-107108628D01*
X133785714Y-107584819D02*
X133214286Y-107584819D01*
X133500000Y-107584819D02*
X133500000Y-106584819D01*
X133500000Y-106584819D02*
X133404762Y-106727676D01*
X133404762Y-106727676D02*
X133309524Y-106822914D01*
X133309524Y-106822914D02*
X133214286Y-106870533D01*
X130083333Y-170509580D02*
X130035714Y-170557200D01*
X130035714Y-170557200D02*
X129892857Y-170604819D01*
X129892857Y-170604819D02*
X129797619Y-170604819D01*
X129797619Y-170604819D02*
X129654762Y-170557200D01*
X129654762Y-170557200D02*
X129559524Y-170461961D01*
X129559524Y-170461961D02*
X129511905Y-170366723D01*
X129511905Y-170366723D02*
X129464286Y-170176247D01*
X129464286Y-170176247D02*
X129464286Y-170033390D01*
X129464286Y-170033390D02*
X129511905Y-169842914D01*
X129511905Y-169842914D02*
X129559524Y-169747676D01*
X129559524Y-169747676D02*
X129654762Y-169652438D01*
X129654762Y-169652438D02*
X129797619Y-169604819D01*
X129797619Y-169604819D02*
X129892857Y-169604819D01*
X129892857Y-169604819D02*
X130035714Y-169652438D01*
X130035714Y-169652438D02*
X130083333Y-169700057D01*
X130416667Y-169604819D02*
X131035714Y-169604819D01*
X131035714Y-169604819D02*
X130702381Y-169985771D01*
X130702381Y-169985771D02*
X130845238Y-169985771D01*
X130845238Y-169985771D02*
X130940476Y-170033390D01*
X130940476Y-170033390D02*
X130988095Y-170081009D01*
X130988095Y-170081009D02*
X131035714Y-170176247D01*
X131035714Y-170176247D02*
X131035714Y-170414342D01*
X131035714Y-170414342D02*
X130988095Y-170509580D01*
X130988095Y-170509580D02*
X130940476Y-170557200D01*
X130940476Y-170557200D02*
X130845238Y-170604819D01*
X130845238Y-170604819D02*
X130559524Y-170604819D01*
X130559524Y-170604819D02*
X130464286Y-170557200D01*
X130464286Y-170557200D02*
X130416667Y-170509580D01*
X105738095Y-161954819D02*
X105738095Y-162764342D01*
X105738095Y-162764342D02*
X105785714Y-162859580D01*
X105785714Y-162859580D02*
X105833333Y-162907200D01*
X105833333Y-162907200D02*
X105928571Y-162954819D01*
X105928571Y-162954819D02*
X106119047Y-162954819D01*
X106119047Y-162954819D02*
X106214285Y-162907200D01*
X106214285Y-162907200D02*
X106261904Y-162859580D01*
X106261904Y-162859580D02*
X106309523Y-162764342D01*
X106309523Y-162764342D02*
X106309523Y-161954819D01*
X106738095Y-162050057D02*
X106785714Y-162002438D01*
X106785714Y-162002438D02*
X106880952Y-161954819D01*
X106880952Y-161954819D02*
X107119047Y-161954819D01*
X107119047Y-161954819D02*
X107214285Y-162002438D01*
X107214285Y-162002438D02*
X107261904Y-162050057D01*
X107261904Y-162050057D02*
X107309523Y-162145295D01*
X107309523Y-162145295D02*
X107309523Y-162240533D01*
X107309523Y-162240533D02*
X107261904Y-162383390D01*
X107261904Y-162383390D02*
X106690476Y-162954819D01*
X106690476Y-162954819D02*
X107309523Y-162954819D01*
X134209580Y-103666666D02*
X134257200Y-103714285D01*
X134257200Y-103714285D02*
X134304819Y-103857142D01*
X134304819Y-103857142D02*
X134304819Y-103952380D01*
X134304819Y-103952380D02*
X134257200Y-104095237D01*
X134257200Y-104095237D02*
X134161961Y-104190475D01*
X134161961Y-104190475D02*
X134066723Y-104238094D01*
X134066723Y-104238094D02*
X133876247Y-104285713D01*
X133876247Y-104285713D02*
X133733390Y-104285713D01*
X133733390Y-104285713D02*
X133542914Y-104238094D01*
X133542914Y-104238094D02*
X133447676Y-104190475D01*
X133447676Y-104190475D02*
X133352438Y-104095237D01*
X133352438Y-104095237D02*
X133304819Y-103952380D01*
X133304819Y-103952380D02*
X133304819Y-103857142D01*
X133304819Y-103857142D02*
X133352438Y-103714285D01*
X133352438Y-103714285D02*
X133400057Y-103666666D01*
X133304819Y-102761904D02*
X133304819Y-103238094D01*
X133304819Y-103238094D02*
X133781009Y-103285713D01*
X133781009Y-103285713D02*
X133733390Y-103238094D01*
X133733390Y-103238094D02*
X133685771Y-103142856D01*
X133685771Y-103142856D02*
X133685771Y-102904761D01*
X133685771Y-102904761D02*
X133733390Y-102809523D01*
X133733390Y-102809523D02*
X133781009Y-102761904D01*
X133781009Y-102761904D02*
X133876247Y-102714285D01*
X133876247Y-102714285D02*
X134114342Y-102714285D01*
X134114342Y-102714285D02*
X134209580Y-102761904D01*
X134209580Y-102761904D02*
X134257200Y-102809523D01*
X134257200Y-102809523D02*
X134304819Y-102904761D01*
X134304819Y-102904761D02*
X134304819Y-103142856D01*
X134304819Y-103142856D02*
X134257200Y-103238094D01*
X134257200Y-103238094D02*
X134209580Y-103285713D01*
X127573674Y-163421222D02*
X127001255Y-163320207D01*
X127169613Y-163825283D02*
X126462507Y-163118176D01*
X126462507Y-163118176D02*
X126731881Y-162848802D01*
X126731881Y-162848802D02*
X126832896Y-162815130D01*
X126832896Y-162815130D02*
X126900239Y-162815130D01*
X126900239Y-162815130D02*
X127001255Y-162848802D01*
X127001255Y-162848802D02*
X127102270Y-162949817D01*
X127102270Y-162949817D02*
X127135942Y-163050833D01*
X127135942Y-163050833D02*
X127135942Y-163118176D01*
X127135942Y-163118176D02*
X127102270Y-163219191D01*
X127102270Y-163219191D02*
X126832896Y-163488565D01*
X127573674Y-162613100D02*
X127472659Y-162646772D01*
X127472659Y-162646772D02*
X127405316Y-162646772D01*
X127405316Y-162646772D02*
X127304300Y-162613100D01*
X127304300Y-162613100D02*
X127270629Y-162579428D01*
X127270629Y-162579428D02*
X127236957Y-162478413D01*
X127236957Y-162478413D02*
X127236957Y-162411069D01*
X127236957Y-162411069D02*
X127270629Y-162310054D01*
X127270629Y-162310054D02*
X127405316Y-162175367D01*
X127405316Y-162175367D02*
X127506331Y-162141695D01*
X127506331Y-162141695D02*
X127573674Y-162141695D01*
X127573674Y-162141695D02*
X127674690Y-162175367D01*
X127674690Y-162175367D02*
X127708361Y-162209039D01*
X127708361Y-162209039D02*
X127742033Y-162310054D01*
X127742033Y-162310054D02*
X127742033Y-162377398D01*
X127742033Y-162377398D02*
X127708361Y-162478413D01*
X127708361Y-162478413D02*
X127573674Y-162613100D01*
X127573674Y-162613100D02*
X127540003Y-162714115D01*
X127540003Y-162714115D02*
X127540003Y-162781459D01*
X127540003Y-162781459D02*
X127573674Y-162882474D01*
X127573674Y-162882474D02*
X127708361Y-163017161D01*
X127708361Y-163017161D02*
X127809377Y-163050833D01*
X127809377Y-163050833D02*
X127876720Y-163050833D01*
X127876720Y-163050833D02*
X127977735Y-163017161D01*
X127977735Y-163017161D02*
X128112422Y-162882474D01*
X128112422Y-162882474D02*
X128146094Y-162781459D01*
X128146094Y-162781459D02*
X128146094Y-162714115D01*
X128146094Y-162714115D02*
X128112422Y-162613100D01*
X128112422Y-162613100D02*
X127977735Y-162478413D01*
X127977735Y-162478413D02*
X127876720Y-162444741D01*
X127876720Y-162444741D02*
X127809377Y-162444741D01*
X127809377Y-162444741D02*
X127708361Y-162478413D01*
X110833333Y-173359580D02*
X110785714Y-173407200D01*
X110785714Y-173407200D02*
X110642857Y-173454819D01*
X110642857Y-173454819D02*
X110547619Y-173454819D01*
X110547619Y-173454819D02*
X110404762Y-173407200D01*
X110404762Y-173407200D02*
X110309524Y-173311961D01*
X110309524Y-173311961D02*
X110261905Y-173216723D01*
X110261905Y-173216723D02*
X110214286Y-173026247D01*
X110214286Y-173026247D02*
X110214286Y-172883390D01*
X110214286Y-172883390D02*
X110261905Y-172692914D01*
X110261905Y-172692914D02*
X110309524Y-172597676D01*
X110309524Y-172597676D02*
X110404762Y-172502438D01*
X110404762Y-172502438D02*
X110547619Y-172454819D01*
X110547619Y-172454819D02*
X110642857Y-172454819D01*
X110642857Y-172454819D02*
X110785714Y-172502438D01*
X110785714Y-172502438D02*
X110833333Y-172550057D01*
X111690476Y-172454819D02*
X111500000Y-172454819D01*
X111500000Y-172454819D02*
X111404762Y-172502438D01*
X111404762Y-172502438D02*
X111357143Y-172550057D01*
X111357143Y-172550057D02*
X111261905Y-172692914D01*
X111261905Y-172692914D02*
X111214286Y-172883390D01*
X111214286Y-172883390D02*
X111214286Y-173264342D01*
X111214286Y-173264342D02*
X111261905Y-173359580D01*
X111261905Y-173359580D02*
X111309524Y-173407200D01*
X111309524Y-173407200D02*
X111404762Y-173454819D01*
X111404762Y-173454819D02*
X111595238Y-173454819D01*
X111595238Y-173454819D02*
X111690476Y-173407200D01*
X111690476Y-173407200D02*
X111738095Y-173359580D01*
X111738095Y-173359580D02*
X111785714Y-173264342D01*
X111785714Y-173264342D02*
X111785714Y-173026247D01*
X111785714Y-173026247D02*
X111738095Y-172931009D01*
X111738095Y-172931009D02*
X111690476Y-172883390D01*
X111690476Y-172883390D02*
X111595238Y-172835771D01*
X111595238Y-172835771D02*
X111404762Y-172835771D01*
X111404762Y-172835771D02*
X111309524Y-172883390D01*
X111309524Y-172883390D02*
X111261905Y-172931009D01*
X111261905Y-172931009D02*
X111214286Y-173026247D01*
X110407200Y-119583332D02*
X110454819Y-119440475D01*
X110454819Y-119440475D02*
X110454819Y-119202380D01*
X110454819Y-119202380D02*
X110407200Y-119107142D01*
X110407200Y-119107142D02*
X110359580Y-119059523D01*
X110359580Y-119059523D02*
X110264342Y-119011904D01*
X110264342Y-119011904D02*
X110169104Y-119011904D01*
X110169104Y-119011904D02*
X110073866Y-119059523D01*
X110073866Y-119059523D02*
X110026247Y-119107142D01*
X110026247Y-119107142D02*
X109978628Y-119202380D01*
X109978628Y-119202380D02*
X109931009Y-119392856D01*
X109931009Y-119392856D02*
X109883390Y-119488094D01*
X109883390Y-119488094D02*
X109835771Y-119535713D01*
X109835771Y-119535713D02*
X109740533Y-119583332D01*
X109740533Y-119583332D02*
X109645295Y-119583332D01*
X109645295Y-119583332D02*
X109550057Y-119535713D01*
X109550057Y-119535713D02*
X109502438Y-119488094D01*
X109502438Y-119488094D02*
X109454819Y-119392856D01*
X109454819Y-119392856D02*
X109454819Y-119154761D01*
X109454819Y-119154761D02*
X109502438Y-119011904D01*
X109454819Y-118678570D02*
X110454819Y-118440475D01*
X110454819Y-118440475D02*
X109740533Y-118249999D01*
X109740533Y-118249999D02*
X110454819Y-118059523D01*
X110454819Y-118059523D02*
X109454819Y-117821428D01*
X109550057Y-117488094D02*
X109502438Y-117440475D01*
X109502438Y-117440475D02*
X109454819Y-117345237D01*
X109454819Y-117345237D02*
X109454819Y-117107142D01*
X109454819Y-117107142D02*
X109502438Y-117011904D01*
X109502438Y-117011904D02*
X109550057Y-116964285D01*
X109550057Y-116964285D02*
X109645295Y-116916666D01*
X109645295Y-116916666D02*
X109740533Y-116916666D01*
X109740533Y-116916666D02*
X109883390Y-116964285D01*
X109883390Y-116964285D02*
X110454819Y-117535713D01*
X110454819Y-117535713D02*
X110454819Y-116916666D01*
X115213095Y-98429819D02*
X115213095Y-99239342D01*
X115213095Y-99239342D02*
X115260714Y-99334580D01*
X115260714Y-99334580D02*
X115308333Y-99382200D01*
X115308333Y-99382200D02*
X115403571Y-99429819D01*
X115403571Y-99429819D02*
X115594047Y-99429819D01*
X115594047Y-99429819D02*
X115689285Y-99382200D01*
X115689285Y-99382200D02*
X115736904Y-99334580D01*
X115736904Y-99334580D02*
X115784523Y-99239342D01*
X115784523Y-99239342D02*
X115784523Y-98429819D01*
X116213095Y-99382200D02*
X116355952Y-99429819D01*
X116355952Y-99429819D02*
X116594047Y-99429819D01*
X116594047Y-99429819D02*
X116689285Y-99382200D01*
X116689285Y-99382200D02*
X116736904Y-99334580D01*
X116736904Y-99334580D02*
X116784523Y-99239342D01*
X116784523Y-99239342D02*
X116784523Y-99144104D01*
X116784523Y-99144104D02*
X116736904Y-99048866D01*
X116736904Y-99048866D02*
X116689285Y-99001247D01*
X116689285Y-99001247D02*
X116594047Y-98953628D01*
X116594047Y-98953628D02*
X116403571Y-98906009D01*
X116403571Y-98906009D02*
X116308333Y-98858390D01*
X116308333Y-98858390D02*
X116260714Y-98810771D01*
X116260714Y-98810771D02*
X116213095Y-98715533D01*
X116213095Y-98715533D02*
X116213095Y-98620295D01*
X116213095Y-98620295D02*
X116260714Y-98525057D01*
X116260714Y-98525057D02*
X116308333Y-98477438D01*
X116308333Y-98477438D02*
X116403571Y-98429819D01*
X116403571Y-98429819D02*
X116641666Y-98429819D01*
X116641666Y-98429819D02*
X116784523Y-98477438D01*
X117546428Y-98906009D02*
X117689285Y-98953628D01*
X117689285Y-98953628D02*
X117736904Y-99001247D01*
X117736904Y-99001247D02*
X117784523Y-99096485D01*
X117784523Y-99096485D02*
X117784523Y-99239342D01*
X117784523Y-99239342D02*
X117736904Y-99334580D01*
X117736904Y-99334580D02*
X117689285Y-99382200D01*
X117689285Y-99382200D02*
X117594047Y-99429819D01*
X117594047Y-99429819D02*
X117213095Y-99429819D01*
X117213095Y-99429819D02*
X117213095Y-98429819D01*
X117213095Y-98429819D02*
X117546428Y-98429819D01*
X117546428Y-98429819D02*
X117641666Y-98477438D01*
X117641666Y-98477438D02*
X117689285Y-98525057D01*
X117689285Y-98525057D02*
X117736904Y-98620295D01*
X117736904Y-98620295D02*
X117736904Y-98715533D01*
X117736904Y-98715533D02*
X117689285Y-98810771D01*
X117689285Y-98810771D02*
X117641666Y-98858390D01*
X117641666Y-98858390D02*
X117546428Y-98906009D01*
X117546428Y-98906009D02*
X117213095Y-98906009D01*
X113189286Y-100163152D02*
X113570238Y-100163152D01*
X113332143Y-99829819D02*
X113332143Y-100686961D01*
X113332143Y-100686961D02*
X113379762Y-100782200D01*
X113379762Y-100782200D02*
X113475000Y-100829819D01*
X113475000Y-100829819D02*
X113570238Y-100829819D01*
X114046429Y-100829819D02*
X113951191Y-100782200D01*
X113951191Y-100782200D02*
X113903572Y-100734580D01*
X113903572Y-100734580D02*
X113855953Y-100639342D01*
X113855953Y-100639342D02*
X113855953Y-100353628D01*
X113855953Y-100353628D02*
X113903572Y-100258390D01*
X113903572Y-100258390D02*
X113951191Y-100210771D01*
X113951191Y-100210771D02*
X114046429Y-100163152D01*
X114046429Y-100163152D02*
X114189286Y-100163152D01*
X114189286Y-100163152D02*
X114284524Y-100210771D01*
X114284524Y-100210771D02*
X114332143Y-100258390D01*
X114332143Y-100258390D02*
X114379762Y-100353628D01*
X114379762Y-100353628D02*
X114379762Y-100639342D01*
X114379762Y-100639342D02*
X114332143Y-100734580D01*
X114332143Y-100734580D02*
X114284524Y-100782200D01*
X114284524Y-100782200D02*
X114189286Y-100829819D01*
X114189286Y-100829819D02*
X114046429Y-100829819D01*
X114713096Y-100163152D02*
X114903572Y-100829819D01*
X114903572Y-100829819D02*
X115094048Y-100353628D01*
X115094048Y-100353628D02*
X115284524Y-100829819D01*
X115284524Y-100829819D02*
X115475000Y-100163152D01*
X115855953Y-100734580D02*
X115903572Y-100782200D01*
X115903572Y-100782200D02*
X115855953Y-100829819D01*
X115855953Y-100829819D02*
X115808334Y-100782200D01*
X115808334Y-100782200D02*
X115855953Y-100734580D01*
X115855953Y-100734580D02*
X115855953Y-100829819D01*
X117094048Y-100829819D02*
X117094048Y-99829819D01*
X117094048Y-99829819D02*
X117475000Y-99829819D01*
X117475000Y-99829819D02*
X117570238Y-99877438D01*
X117570238Y-99877438D02*
X117617857Y-99925057D01*
X117617857Y-99925057D02*
X117665476Y-100020295D01*
X117665476Y-100020295D02*
X117665476Y-100163152D01*
X117665476Y-100163152D02*
X117617857Y-100258390D01*
X117617857Y-100258390D02*
X117570238Y-100306009D01*
X117570238Y-100306009D02*
X117475000Y-100353628D01*
X117475000Y-100353628D02*
X117094048Y-100353628D01*
X118665476Y-100734580D02*
X118617857Y-100782200D01*
X118617857Y-100782200D02*
X118475000Y-100829819D01*
X118475000Y-100829819D02*
X118379762Y-100829819D01*
X118379762Y-100829819D02*
X118236905Y-100782200D01*
X118236905Y-100782200D02*
X118141667Y-100686961D01*
X118141667Y-100686961D02*
X118094048Y-100591723D01*
X118094048Y-100591723D02*
X118046429Y-100401247D01*
X118046429Y-100401247D02*
X118046429Y-100258390D01*
X118046429Y-100258390D02*
X118094048Y-100067914D01*
X118094048Y-100067914D02*
X118141667Y-99972676D01*
X118141667Y-99972676D02*
X118236905Y-99877438D01*
X118236905Y-99877438D02*
X118379762Y-99829819D01*
X118379762Y-99829819D02*
X118475000Y-99829819D01*
X118475000Y-99829819D02*
X118617857Y-99877438D01*
X118617857Y-99877438D02*
X118665476Y-99925057D01*
X119427381Y-100306009D02*
X119570238Y-100353628D01*
X119570238Y-100353628D02*
X119617857Y-100401247D01*
X119617857Y-100401247D02*
X119665476Y-100496485D01*
X119665476Y-100496485D02*
X119665476Y-100639342D01*
X119665476Y-100639342D02*
X119617857Y-100734580D01*
X119617857Y-100734580D02*
X119570238Y-100782200D01*
X119570238Y-100782200D02*
X119475000Y-100829819D01*
X119475000Y-100829819D02*
X119094048Y-100829819D01*
X119094048Y-100829819D02*
X119094048Y-99829819D01*
X119094048Y-99829819D02*
X119427381Y-99829819D01*
X119427381Y-99829819D02*
X119522619Y-99877438D01*
X119522619Y-99877438D02*
X119570238Y-99925057D01*
X119570238Y-99925057D02*
X119617857Y-100020295D01*
X119617857Y-100020295D02*
X119617857Y-100115533D01*
X119617857Y-100115533D02*
X119570238Y-100210771D01*
X119570238Y-100210771D02*
X119522619Y-100258390D01*
X119522619Y-100258390D02*
X119427381Y-100306009D01*
X119427381Y-100306009D02*
X119094048Y-100306009D01*
X122475714Y-102347319D02*
X121904286Y-102347319D01*
X122190000Y-102347319D02*
X122190000Y-101347319D01*
X122190000Y-101347319D02*
X122094762Y-101490176D01*
X122094762Y-101490176D02*
X121999524Y-101585414D01*
X121999524Y-101585414D02*
X121904286Y-101633033D01*
%TO.C,R3*%
D11*
X101130000Y-130480000D02*
X101130000Y-137020000D01*
X101130000Y-137020000D02*
X101460000Y-137020000D01*
X101460000Y-130480000D02*
X101130000Y-130480000D01*
X103540000Y-130480000D02*
X103870000Y-130480000D01*
X103870000Y-130480000D02*
X103870000Y-137020000D01*
X103870000Y-137020000D02*
X103540000Y-137020000D01*
%TO.C,R7*%
X117630000Y-164540000D02*
X117960000Y-164540000D01*
X117630000Y-171080000D02*
X117630000Y-164540000D01*
X117960000Y-171080000D02*
X117630000Y-171080000D01*
X120040000Y-171080000D02*
X120370000Y-171080000D01*
X120370000Y-164540000D02*
X120040000Y-164540000D01*
X120370000Y-171080000D02*
X120370000Y-164540000D01*
%TO.C,R5*%
X113630000Y-165730000D02*
X113960000Y-165730000D01*
X113630000Y-172270000D02*
X113630000Y-165730000D01*
X113960000Y-172270000D02*
X113630000Y-172270000D01*
X116040000Y-172270000D02*
X116370000Y-172270000D01*
X116370000Y-165730000D02*
X116040000Y-165730000D01*
X116370000Y-172270000D02*
X116370000Y-165730000D01*
%TO.C,REF\u002A\u002A*%
D10*
X96249500Y-98250520D02*
X94250520Y-98250520D01*
X96249500Y-99251280D02*
X95248740Y-99251280D01*
X96249500Y-100249500D02*
X95248740Y-100249500D01*
X96249500Y-101250260D02*
X95248740Y-101250260D01*
X96249500Y-102251020D02*
X95248740Y-102251020D01*
X96249500Y-103249240D02*
X94250520Y-103249240D01*
X96249500Y-104250000D02*
X95248740Y-104250000D01*
X96249500Y-105250760D02*
X95248740Y-105250760D01*
X96249500Y-106251520D02*
X95248740Y-106251520D01*
X96249500Y-107249740D02*
X95248740Y-107249740D01*
X96249500Y-108250500D02*
X94250520Y-108250500D01*
X96249500Y-108250500D02*
X96249500Y-98250520D01*
X96249500Y-108250500D02*
X96249500Y-110249480D01*
X96249500Y-108250500D02*
X106249480Y-108250500D01*
X97250260Y-108250500D02*
X97250260Y-109251260D01*
X98248480Y-108250500D02*
X98248480Y-109251260D01*
X99249240Y-108250500D02*
X99249240Y-109251260D01*
X100250000Y-108250500D02*
X100250000Y-109251260D01*
X101250760Y-108250500D02*
X101250760Y-110249480D01*
X102248980Y-108250500D02*
X102248980Y-109251260D01*
X103249740Y-108250500D02*
X103249740Y-109251260D01*
X104250500Y-108250500D02*
X104250500Y-109251260D01*
X105248720Y-108250500D02*
X105248720Y-109251260D01*
X106249480Y-108250500D02*
X106249480Y-110249480D01*
%TO.C,R4*%
D11*
X102433540Y-141353547D02*
X102598540Y-141639334D01*
X103803540Y-143726454D02*
X103638540Y-143440666D01*
X108097346Y-138083545D02*
X102433540Y-141353547D01*
X108262346Y-138369334D02*
X108097346Y-138083545D01*
X109302345Y-140170667D02*
X109467348Y-140456455D01*
X109467348Y-140456455D02*
X103803540Y-143726454D01*
%TO.C,Q1*%
X124196599Y-168097228D02*
X125271402Y-167022425D01*
X124231955Y-168132583D02*
X124196599Y-168097228D01*
X125271402Y-167022425D02*
X125978508Y-167729532D01*
X125575457Y-169476086D02*
X125023914Y-168924543D01*
X126402772Y-170303401D02*
X126367417Y-170268045D01*
X126770468Y-168521492D02*
X127477575Y-169228598D01*
X127477575Y-169228598D02*
X126402772Y-170303401D01*
X124649148Y-169313451D02*
X125052198Y-169377091D01*
X124712787Y-169716502D01*
X124649148Y-169313451D01*
G36*
X125052198Y-169377091D02*
G01*
X124712787Y-169716502D01*
X124649148Y-169313451D01*
X125052198Y-169377091D01*
G37*
%TO.C,SW1*%
X97750000Y-103000000D02*
X97750000Y-104500000D01*
X99000000Y-107000000D02*
X103500000Y-107000000D01*
X103500000Y-100500000D02*
X99000000Y-100500000D01*
X104750000Y-104500000D02*
X104750000Y-103000000D01*
%TO.C,R2*%
X115820000Y-104730000D02*
X115820000Y-111270000D01*
X115820000Y-111270000D02*
X116150000Y-111270000D01*
X116150000Y-104730000D02*
X115820000Y-104730000D01*
X118230000Y-104730000D02*
X118560000Y-104730000D01*
X118560000Y-104730000D02*
X118560000Y-111270000D01*
X118560000Y-111270000D02*
X118230000Y-111270000D01*
%TO.C,R6*%
X112130000Y-104730000D02*
X112130000Y-111270000D01*
X112130000Y-111270000D02*
X112460000Y-111270000D01*
X112460000Y-104730000D02*
X112130000Y-104730000D01*
X114540000Y-104730000D02*
X114870000Y-104730000D01*
X114870000Y-104730000D02*
X114870000Y-111270000D01*
X114870000Y-111270000D02*
X114540000Y-111270000D01*
%TO.C,SW3*%
X95500000Y-121500000D02*
X95500000Y-126000000D01*
X98000000Y-127250000D02*
X99500000Y-127250000D01*
X99500000Y-120250000D02*
X98000000Y-120250000D01*
X102000000Y-126000000D02*
X102000000Y-121500000D01*
%TO.C,C1*%
X103711252Y-170090000D02*
X102288748Y-170090000D01*
X103711252Y-171910000D02*
X102288748Y-171910000D01*
%TO.C,R1*%
X129730000Y-108130000D02*
X136270000Y-108130000D01*
X129730000Y-108460000D02*
X129730000Y-108130000D01*
X129730000Y-110540000D02*
X129730000Y-110870000D01*
X129730000Y-110870000D02*
X136270000Y-110870000D01*
X136270000Y-108130000D02*
X136270000Y-108460000D01*
X136270000Y-110870000D02*
X136270000Y-110540000D01*
%TO.C,C3*%
X129538748Y-171090000D02*
X130961252Y-171090000D01*
X129538748Y-172910000D02*
X130961252Y-172910000D01*
%TO.C,U2*%
X104415000Y-163345000D02*
X108535000Y-163345000D01*
X104415000Y-163440000D02*
X104415000Y-163345000D01*
X104415000Y-168465000D02*
X104415000Y-168370000D01*
X108535000Y-163345000D02*
X108535000Y-163440000D01*
X108535000Y-168370000D02*
X108535000Y-168465000D01*
X108535000Y-168465000D02*
X104415000Y-168465000D01*
X103875000Y-163435000D02*
X103635000Y-163105000D01*
X104115000Y-163105000D01*
X103875000Y-163435000D01*
G36*
X103875000Y-163435000D02*
G01*
X103635000Y-163105000D01*
X104115000Y-163105000D01*
X103875000Y-163435000D01*
G37*
%TO.C,C5*%
X131090000Y-102788748D02*
X131090000Y-104211252D01*
X132910000Y-102788748D02*
X132910000Y-104211252D01*
%TO.C,R8*%
X122413102Y-162649426D02*
X122646447Y-162882771D01*
X124350574Y-164586898D02*
X124117229Y-164353553D01*
X127037580Y-158024947D02*
X122413102Y-162649426D01*
X127270925Y-158258293D02*
X127037580Y-158024947D01*
X128741707Y-159729075D02*
X128975053Y-159962420D01*
X128975053Y-159962420D02*
X124350574Y-164586898D01*
%TO.C,C6*%
X111711252Y-170090000D02*
X110288748Y-170090000D01*
X111711252Y-171910000D02*
X110288748Y-171910000D01*
%TO.C,SW2*%
X111000000Y-116000000D02*
X111000000Y-120500000D01*
X113500000Y-121750000D02*
X115000000Y-121750000D01*
X115000000Y-114750000D02*
X113500000Y-114750000D01*
X117500000Y-120500000D02*
X117500000Y-116000000D01*
%TO.C,RE1*%
X107200000Y-145900000D02*
X107800000Y-145900000D01*
X107500000Y-146200000D02*
X107200000Y-145900000D01*
X107800000Y-145900000D02*
X107500000Y-146200000D01*
X108900000Y-144100000D02*
X108900000Y-155900000D01*
X113000000Y-144100000D02*
X108900000Y-144100000D01*
X113000000Y-155900000D02*
X108900000Y-155900000D01*
X114500000Y-150000000D02*
X115500000Y-150000000D01*
X115000000Y-149500000D02*
X115000000Y-150500000D01*
X117000000Y-144100000D02*
X121100000Y-144100000D01*
X121100000Y-144100000D02*
X121100000Y-146500000D01*
X121100000Y-148700000D02*
X121100000Y-151300000D01*
X121100000Y-153500000D02*
X121100000Y-155900000D01*
X121100000Y-155900000D02*
X117000000Y-155900000D01*
X118000000Y-150000000D02*
G75*
G02*
X112000000Y-150000000I-3000000J0D01*
G01*
X112000000Y-150000000D02*
G75*
G02*
X118000000Y-150000000I3000000J0D01*
G01*
%TO.C,U1*%
D10*
X112925000Y-101560000D02*
X112925000Y-97980000D01*
X120025000Y-101560000D02*
X112925000Y-101560000D01*
X120025000Y-101560000D02*
X120025000Y-97980000D01*
X107585000Y-97980000D02*
X125365000Y-97980000D01*
X125365000Y-131000000D01*
X107585000Y-131000000D01*
X107585000Y-97980000D01*
%TD*%
M02*
