%TF.GenerationSoftware,KiCad,Pcbnew,10.0.5*%
%TF.CreationDate,2026-08-03T13:57:01-07:00*%
%TF.ProjectId,pico2-knob,7069636f-322d-46b6-9e6f-622e6b696361,rev?*%
%TF.SameCoordinates,Original*%
%TF.FileFunction,AssemblyDrawing,Bot*%
%FSLAX46Y46*%
G04 Gerber Fmt 4.6, Leading zero omitted, Abs format (unit mm)*
G04 Created by KiCad (PCBNEW 10.0.5) date 2026-08-03 13:57:01*
%MOMM*%
%LPD*%
G01*
G04 APERTURE LIST*
%ADD10C,0.150000*%
%ADD11C,0.120000*%
%ADD12C,0.100000*%
G04 APERTURE END LIST*
D10*
X129938152Y-102523809D02*
X130604819Y-102523809D01*
X129557200Y-102285714D02*
X130271485Y-102047619D01*
X130271485Y-102047619D02*
X130271485Y-102666666D01*
X130509580Y-103047619D02*
X130557200Y-103095238D01*
X130557200Y-103095238D02*
X130604819Y-103047619D01*
X130604819Y-103047619D02*
X130557200Y-103000000D01*
X130557200Y-103000000D02*
X130509580Y-103047619D01*
X130509580Y-103047619D02*
X130604819Y-103047619D01*
X129604819Y-103428571D02*
X129604819Y-104095237D01*
X129604819Y-104095237D02*
X130604819Y-103666666D01*
X129938152Y-104904761D02*
X130604819Y-104904761D01*
X129938152Y-104476190D02*
X130461961Y-104476190D01*
X130461961Y-104476190D02*
X130557200Y-104523809D01*
X130557200Y-104523809D02*
X130604819Y-104619047D01*
X130604819Y-104619047D02*
X130604819Y-104761904D01*
X130604819Y-104761904D02*
X130557200Y-104857142D01*
X130557200Y-104857142D02*
X130509580Y-104904761D01*
X135833809Y-115954819D02*
X135500476Y-116954819D01*
X135500476Y-116954819D02*
X135167143Y-115954819D01*
X135071905Y-117050057D02*
X134310000Y-117050057D01*
X133738571Y-116431009D02*
X133595714Y-116478628D01*
X133595714Y-116478628D02*
X133548095Y-116526247D01*
X133548095Y-116526247D02*
X133500476Y-116621485D01*
X133500476Y-116621485D02*
X133500476Y-116764342D01*
X133500476Y-116764342D02*
X133548095Y-116859580D01*
X133548095Y-116859580D02*
X133595714Y-116907200D01*
X133595714Y-116907200D02*
X133690952Y-116954819D01*
X133690952Y-116954819D02*
X134071904Y-116954819D01*
X134071904Y-116954819D02*
X134071904Y-115954819D01*
X134071904Y-115954819D02*
X133738571Y-115954819D01*
X133738571Y-115954819D02*
X133643333Y-116002438D01*
X133643333Y-116002438D02*
X133595714Y-116050057D01*
X133595714Y-116050057D02*
X133548095Y-116145295D01*
X133548095Y-116145295D02*
X133548095Y-116240533D01*
X133548095Y-116240533D02*
X133595714Y-116335771D01*
X133595714Y-116335771D02*
X133643333Y-116383390D01*
X133643333Y-116383390D02*
X133738571Y-116431009D01*
X133738571Y-116431009D02*
X134071904Y-116431009D01*
X133119523Y-116669104D02*
X132643333Y-116669104D01*
X133214761Y-116954819D02*
X132881428Y-115954819D01*
X132881428Y-115954819D02*
X132548095Y-116954819D01*
X132357618Y-115954819D02*
X131786190Y-115954819D01*
X132071904Y-116954819D02*
X132071904Y-115954819D01*
X135761904Y-111304819D02*
X135190476Y-111304819D01*
X135476190Y-112304819D02*
X135476190Y-111304819D01*
X134857142Y-112304819D02*
X134857142Y-111304819D01*
X134857142Y-111304819D02*
X134476190Y-111304819D01*
X134476190Y-111304819D02*
X134380952Y-111352438D01*
X134380952Y-111352438D02*
X134333333Y-111400057D01*
X134333333Y-111400057D02*
X134285714Y-111495295D01*
X134285714Y-111495295D02*
X134285714Y-111638152D01*
X134285714Y-111638152D02*
X134333333Y-111733390D01*
X134333333Y-111733390D02*
X134380952Y-111781009D01*
X134380952Y-111781009D02*
X134476190Y-111828628D01*
X134476190Y-111828628D02*
X134857142Y-111828628D01*
X133904761Y-111400057D02*
X133857142Y-111352438D01*
X133857142Y-111352438D02*
X133761904Y-111304819D01*
X133761904Y-111304819D02*
X133523809Y-111304819D01*
X133523809Y-111304819D02*
X133428571Y-111352438D01*
X133428571Y-111352438D02*
X133380952Y-111400057D01*
X133380952Y-111400057D02*
X133333333Y-111495295D01*
X133333333Y-111495295D02*
X133333333Y-111590533D01*
X133333333Y-111590533D02*
X133380952Y-111733390D01*
X133380952Y-111733390D02*
X133952380Y-112304819D01*
X133952380Y-112304819D02*
X133333333Y-112304819D01*
X97350057Y-138357143D02*
X97302438Y-138404762D01*
X97302438Y-138404762D02*
X97254819Y-138500000D01*
X97254819Y-138500000D02*
X97254819Y-138738095D01*
X97254819Y-138738095D02*
X97302438Y-138833333D01*
X97302438Y-138833333D02*
X97350057Y-138880952D01*
X97350057Y-138880952D02*
X97445295Y-138928571D01*
X97445295Y-138928571D02*
X97540533Y-138928571D01*
X97540533Y-138928571D02*
X97683390Y-138880952D01*
X97683390Y-138880952D02*
X98254819Y-138309524D01*
X98254819Y-138309524D02*
X98254819Y-138928571D01*
X97350057Y-139309524D02*
X97302438Y-139357143D01*
X97302438Y-139357143D02*
X97254819Y-139452381D01*
X97254819Y-139452381D02*
X97254819Y-139690476D01*
X97254819Y-139690476D02*
X97302438Y-139785714D01*
X97302438Y-139785714D02*
X97350057Y-139833333D01*
X97350057Y-139833333D02*
X97445295Y-139880952D01*
X97445295Y-139880952D02*
X97540533Y-139880952D01*
X97540533Y-139880952D02*
X97683390Y-139833333D01*
X97683390Y-139833333D02*
X98254819Y-139261905D01*
X98254819Y-139261905D02*
X98254819Y-139880952D01*
X97588152Y-140738095D02*
X98254819Y-140738095D01*
X97588152Y-140309524D02*
X98111961Y-140309524D01*
X98111961Y-140309524D02*
X98207200Y-140357143D01*
X98207200Y-140357143D02*
X98254819Y-140452381D01*
X98254819Y-140452381D02*
X98254819Y-140595238D01*
X98254819Y-140595238D02*
X98207200Y-140690476D01*
X98207200Y-140690476D02*
X98159580Y-140738095D01*
X97731009Y-141547619D02*
X97731009Y-141214286D01*
X98254819Y-141214286D02*
X97254819Y-141214286D01*
X97254819Y-141214286D02*
X97254819Y-141690476D01*
D11*
X95787664Y-139866667D02*
X95825760Y-139828571D01*
X95825760Y-139828571D02*
X95863855Y-139714286D01*
X95863855Y-139714286D02*
X95863855Y-139638095D01*
X95863855Y-139638095D02*
X95825760Y-139523809D01*
X95825760Y-139523809D02*
X95749569Y-139447619D01*
X95749569Y-139447619D02*
X95673379Y-139409524D01*
X95673379Y-139409524D02*
X95520998Y-139371428D01*
X95520998Y-139371428D02*
X95406712Y-139371428D01*
X95406712Y-139371428D02*
X95254331Y-139409524D01*
X95254331Y-139409524D02*
X95178140Y-139447619D01*
X95178140Y-139447619D02*
X95101950Y-139523809D01*
X95101950Y-139523809D02*
X95063855Y-139638095D01*
X95063855Y-139638095D02*
X95063855Y-139714286D01*
X95063855Y-139714286D02*
X95101950Y-139828571D01*
X95101950Y-139828571D02*
X95140045Y-139866667D01*
X95140045Y-140171428D02*
X95101950Y-140209524D01*
X95101950Y-140209524D02*
X95063855Y-140285714D01*
X95063855Y-140285714D02*
X95063855Y-140476190D01*
X95063855Y-140476190D02*
X95101950Y-140552381D01*
X95101950Y-140552381D02*
X95140045Y-140590476D01*
X95140045Y-140590476D02*
X95216236Y-140628571D01*
X95216236Y-140628571D02*
X95292426Y-140628571D01*
X95292426Y-140628571D02*
X95406712Y-140590476D01*
X95406712Y-140590476D02*
X95863855Y-140133333D01*
X95863855Y-140133333D02*
X95863855Y-140628571D01*
D10*
X104181009Y-81416667D02*
X104181009Y-81750000D01*
X104704819Y-81892857D02*
X104704819Y-81416667D01*
X104704819Y-81416667D02*
X103704819Y-81416667D01*
X103704819Y-81416667D02*
X103704819Y-81892857D01*
X104704819Y-82892857D02*
X104228628Y-82559524D01*
X104704819Y-82321429D02*
X103704819Y-82321429D01*
X103704819Y-82321429D02*
X103704819Y-82702381D01*
X103704819Y-82702381D02*
X103752438Y-82797619D01*
X103752438Y-82797619D02*
X103800057Y-82845238D01*
X103800057Y-82845238D02*
X103895295Y-82892857D01*
X103895295Y-82892857D02*
X104038152Y-82892857D01*
X104038152Y-82892857D02*
X104133390Y-82845238D01*
X104133390Y-82845238D02*
X104181009Y-82797619D01*
X104181009Y-82797619D02*
X104228628Y-82702381D01*
X104228628Y-82702381D02*
X104228628Y-82321429D01*
X104323866Y-83321429D02*
X104323866Y-84083334D01*
X104609580Y-85130952D02*
X104657200Y-85083333D01*
X104657200Y-85083333D02*
X104704819Y-84940476D01*
X104704819Y-84940476D02*
X104704819Y-84845238D01*
X104704819Y-84845238D02*
X104657200Y-84702381D01*
X104657200Y-84702381D02*
X104561961Y-84607143D01*
X104561961Y-84607143D02*
X104466723Y-84559524D01*
X104466723Y-84559524D02*
X104276247Y-84511905D01*
X104276247Y-84511905D02*
X104133390Y-84511905D01*
X104133390Y-84511905D02*
X103942914Y-84559524D01*
X103942914Y-84559524D02*
X103847676Y-84607143D01*
X103847676Y-84607143D02*
X103752438Y-84702381D01*
X103752438Y-84702381D02*
X103704819Y-84845238D01*
X103704819Y-84845238D02*
X103704819Y-84940476D01*
X103704819Y-84940476D02*
X103752438Y-85083333D01*
X103752438Y-85083333D02*
X103800057Y-85130952D01*
X103704819Y-85750000D02*
X103704819Y-85940476D01*
X103704819Y-85940476D02*
X103752438Y-86035714D01*
X103752438Y-86035714D02*
X103847676Y-86130952D01*
X103847676Y-86130952D02*
X104038152Y-86178571D01*
X104038152Y-86178571D02*
X104371485Y-86178571D01*
X104371485Y-86178571D02*
X104561961Y-86130952D01*
X104561961Y-86130952D02*
X104657200Y-86035714D01*
X104657200Y-86035714D02*
X104704819Y-85940476D01*
X104704819Y-85940476D02*
X104704819Y-85750000D01*
X104704819Y-85750000D02*
X104657200Y-85654762D01*
X104657200Y-85654762D02*
X104561961Y-85559524D01*
X104561961Y-85559524D02*
X104371485Y-85511905D01*
X104371485Y-85511905D02*
X104038152Y-85511905D01*
X104038152Y-85511905D02*
X103847676Y-85559524D01*
X103847676Y-85559524D02*
X103752438Y-85654762D01*
X103752438Y-85654762D02*
X103704819Y-85750000D01*
X104704819Y-86607143D02*
X103704819Y-86607143D01*
X103704819Y-86607143D02*
X104704819Y-87178571D01*
X104704819Y-87178571D02*
X103704819Y-87178571D01*
X103800057Y-87607143D02*
X103752438Y-87654762D01*
X103752438Y-87654762D02*
X103704819Y-87750000D01*
X103704819Y-87750000D02*
X103704819Y-87988095D01*
X103704819Y-87988095D02*
X103752438Y-88083333D01*
X103752438Y-88083333D02*
X103800057Y-88130952D01*
X103800057Y-88130952D02*
X103895295Y-88178571D01*
X103895295Y-88178571D02*
X103990533Y-88178571D01*
X103990533Y-88178571D02*
X104133390Y-88130952D01*
X104133390Y-88130952D02*
X104704819Y-87559524D01*
X104704819Y-87559524D02*
X104704819Y-88178571D01*
X103704819Y-88797619D02*
X103704819Y-88892857D01*
X103704819Y-88892857D02*
X103752438Y-88988095D01*
X103752438Y-88988095D02*
X103800057Y-89035714D01*
X103800057Y-89035714D02*
X103895295Y-89083333D01*
X103895295Y-89083333D02*
X104085771Y-89130952D01*
X104085771Y-89130952D02*
X104323866Y-89130952D01*
X104323866Y-89130952D02*
X104514342Y-89083333D01*
X104514342Y-89083333D02*
X104609580Y-89035714D01*
X104609580Y-89035714D02*
X104657200Y-88988095D01*
X104657200Y-88988095D02*
X104704819Y-88892857D01*
X104704819Y-88892857D02*
X104704819Y-88797619D01*
X104704819Y-88797619D02*
X104657200Y-88702381D01*
X104657200Y-88702381D02*
X104609580Y-88654762D01*
X104609580Y-88654762D02*
X104514342Y-88607143D01*
X104514342Y-88607143D02*
X104323866Y-88559524D01*
X104323866Y-88559524D02*
X104085771Y-88559524D01*
X104085771Y-88559524D02*
X103895295Y-88607143D01*
X103895295Y-88607143D02*
X103800057Y-88654762D01*
X103800057Y-88654762D02*
X103752438Y-88702381D01*
X103752438Y-88702381D02*
X103704819Y-88797619D01*
X104704819Y-89559524D02*
X103704819Y-89559524D01*
X104181009Y-89559524D02*
X104181009Y-90130952D01*
X104704819Y-90130952D02*
X103704819Y-90130952D01*
X103704819Y-90464286D02*
X103704819Y-91035714D01*
X104704819Y-90750000D02*
X103704819Y-90750000D01*
X104323866Y-91369048D02*
X104323866Y-92130953D01*
X104704819Y-93130952D02*
X104704819Y-92559524D01*
X104704819Y-92845238D02*
X103704819Y-92845238D01*
X103704819Y-92845238D02*
X103847676Y-92750000D01*
X103847676Y-92750000D02*
X103942914Y-92654762D01*
X103942914Y-92654762D02*
X103990533Y-92559524D01*
X105404819Y-86916666D02*
X106119104Y-86916666D01*
X106119104Y-86916666D02*
X106261961Y-86869047D01*
X106261961Y-86869047D02*
X106357200Y-86773809D01*
X106357200Y-86773809D02*
X106404819Y-86630952D01*
X106404819Y-86630952D02*
X106404819Y-86535714D01*
X105404819Y-87297619D02*
X105404819Y-87916666D01*
X105404819Y-87916666D02*
X105785771Y-87583333D01*
X105785771Y-87583333D02*
X105785771Y-87726190D01*
X105785771Y-87726190D02*
X105833390Y-87821428D01*
X105833390Y-87821428D02*
X105881009Y-87869047D01*
X105881009Y-87869047D02*
X105976247Y-87916666D01*
X105976247Y-87916666D02*
X106214342Y-87916666D01*
X106214342Y-87916666D02*
X106309580Y-87869047D01*
X106309580Y-87869047D02*
X106357200Y-87821428D01*
X106357200Y-87821428D02*
X106404819Y-87726190D01*
X106404819Y-87726190D02*
X106404819Y-87440476D01*
X106404819Y-87440476D02*
X106357200Y-87345238D01*
X106357200Y-87345238D02*
X106309580Y-87297619D01*
X109738094Y-78204819D02*
X109119047Y-78204819D01*
X109119047Y-78204819D02*
X109452380Y-78585771D01*
X109452380Y-78585771D02*
X109309523Y-78585771D01*
X109309523Y-78585771D02*
X109214285Y-78633390D01*
X109214285Y-78633390D02*
X109166666Y-78681009D01*
X109166666Y-78681009D02*
X109119047Y-78776247D01*
X109119047Y-78776247D02*
X109119047Y-79014342D01*
X109119047Y-79014342D02*
X109166666Y-79109580D01*
X109166666Y-79109580D02*
X109214285Y-79157200D01*
X109214285Y-79157200D02*
X109309523Y-79204819D01*
X109309523Y-79204819D02*
X109595237Y-79204819D01*
X109595237Y-79204819D02*
X109690475Y-79157200D01*
X109690475Y-79157200D02*
X109738094Y-79109580D01*
X108833332Y-78204819D02*
X108499999Y-79204819D01*
X108499999Y-79204819D02*
X108166666Y-78204819D01*
X107928570Y-78204819D02*
X107309523Y-78204819D01*
X107309523Y-78204819D02*
X107642856Y-78585771D01*
X107642856Y-78585771D02*
X107499999Y-78585771D01*
X107499999Y-78585771D02*
X107404761Y-78633390D01*
X107404761Y-78633390D02*
X107357142Y-78681009D01*
X107357142Y-78681009D02*
X107309523Y-78776247D01*
X107309523Y-78776247D02*
X107309523Y-79014342D01*
X107309523Y-79014342D02*
X107357142Y-79109580D01*
X107357142Y-79109580D02*
X107404761Y-79157200D01*
X107404761Y-79157200D02*
X107499999Y-79204819D01*
X107499999Y-79204819D02*
X107785713Y-79204819D01*
X107785713Y-79204819D02*
X107880951Y-79157200D01*
X107880951Y-79157200D02*
X107928570Y-79109580D01*
X109761904Y-74804819D02*
X109190476Y-74804819D01*
X109476190Y-75804819D02*
X109476190Y-74804819D01*
X108857142Y-75804819D02*
X108857142Y-74804819D01*
X108857142Y-74804819D02*
X108476190Y-74804819D01*
X108476190Y-74804819D02*
X108380952Y-74852438D01*
X108380952Y-74852438D02*
X108333333Y-74900057D01*
X108333333Y-74900057D02*
X108285714Y-74995295D01*
X108285714Y-74995295D02*
X108285714Y-75138152D01*
X108285714Y-75138152D02*
X108333333Y-75233390D01*
X108333333Y-75233390D02*
X108380952Y-75281009D01*
X108380952Y-75281009D02*
X108476190Y-75328628D01*
X108476190Y-75328628D02*
X108857142Y-75328628D01*
X107952380Y-74804819D02*
X107333333Y-74804819D01*
X107333333Y-74804819D02*
X107666666Y-75185771D01*
X107666666Y-75185771D02*
X107523809Y-75185771D01*
X107523809Y-75185771D02*
X107428571Y-75233390D01*
X107428571Y-75233390D02*
X107380952Y-75281009D01*
X107380952Y-75281009D02*
X107333333Y-75376247D01*
X107333333Y-75376247D02*
X107333333Y-75614342D01*
X107333333Y-75614342D02*
X107380952Y-75709580D01*
X107380952Y-75709580D02*
X107428571Y-75757200D01*
X107428571Y-75757200D02*
X107523809Y-75804819D01*
X107523809Y-75804819D02*
X107809523Y-75804819D01*
X107809523Y-75804819D02*
X107904761Y-75757200D01*
X107904761Y-75757200D02*
X107952380Y-75709580D01*
X133904762Y-122654819D02*
X134380952Y-122654819D01*
X134380952Y-122654819D02*
X134380952Y-121654819D01*
X133571428Y-122654819D02*
X133571428Y-121988152D01*
X133571428Y-121654819D02*
X133619047Y-121702438D01*
X133619047Y-121702438D02*
X133571428Y-121750057D01*
X133571428Y-121750057D02*
X133523809Y-121702438D01*
X133523809Y-121702438D02*
X133571428Y-121654819D01*
X133571428Y-121654819D02*
X133571428Y-121750057D01*
X133095238Y-122654819D02*
X133095238Y-121654819D01*
X133095238Y-121654819D02*
X132714286Y-121654819D01*
X132714286Y-121654819D02*
X132619048Y-121702438D01*
X132619048Y-121702438D02*
X132571429Y-121750057D01*
X132571429Y-121750057D02*
X132523810Y-121845295D01*
X132523810Y-121845295D02*
X132523810Y-121988152D01*
X132523810Y-121988152D02*
X132571429Y-122083390D01*
X132571429Y-122083390D02*
X132619048Y-122131009D01*
X132619048Y-122131009D02*
X132714286Y-122178628D01*
X132714286Y-122178628D02*
X133095238Y-122178628D01*
X131952381Y-122654819D02*
X132047619Y-122607200D01*
X132047619Y-122607200D02*
X132095238Y-122559580D01*
X132095238Y-122559580D02*
X132142857Y-122464342D01*
X132142857Y-122464342D02*
X132142857Y-122178628D01*
X132142857Y-122178628D02*
X132095238Y-122083390D01*
X132095238Y-122083390D02*
X132047619Y-122035771D01*
X132047619Y-122035771D02*
X131952381Y-121988152D01*
X131952381Y-121988152D02*
X131809524Y-121988152D01*
X131809524Y-121988152D02*
X131714286Y-122035771D01*
X131714286Y-122035771D02*
X131666667Y-122083390D01*
X131666667Y-122083390D02*
X131619048Y-122178628D01*
X131619048Y-122178628D02*
X131619048Y-122464342D01*
X131619048Y-122464342D02*
X131666667Y-122559580D01*
X131666667Y-122559580D02*
X131714286Y-122607200D01*
X131714286Y-122607200D02*
X131809524Y-122654819D01*
X131809524Y-122654819D02*
X131952381Y-122654819D01*
X131428572Y-122750057D02*
X130666667Y-122750057D01*
X130142857Y-121654819D02*
X130142857Y-122369104D01*
X130142857Y-122369104D02*
X130190476Y-122511961D01*
X130190476Y-122511961D02*
X130285714Y-122607200D01*
X130285714Y-122607200D02*
X130428571Y-122654819D01*
X130428571Y-122654819D02*
X130523809Y-122654819D01*
X129714285Y-122607200D02*
X129571428Y-122654819D01*
X129571428Y-122654819D02*
X129333333Y-122654819D01*
X129333333Y-122654819D02*
X129238095Y-122607200D01*
X129238095Y-122607200D02*
X129190476Y-122559580D01*
X129190476Y-122559580D02*
X129142857Y-122464342D01*
X129142857Y-122464342D02*
X129142857Y-122369104D01*
X129142857Y-122369104D02*
X129190476Y-122273866D01*
X129190476Y-122273866D02*
X129238095Y-122226247D01*
X129238095Y-122226247D02*
X129333333Y-122178628D01*
X129333333Y-122178628D02*
X129523809Y-122131009D01*
X129523809Y-122131009D02*
X129619047Y-122083390D01*
X129619047Y-122083390D02*
X129666666Y-122035771D01*
X129666666Y-122035771D02*
X129714285Y-121940533D01*
X129714285Y-121940533D02*
X129714285Y-121845295D01*
X129714285Y-121845295D02*
X129666666Y-121750057D01*
X129666666Y-121750057D02*
X129619047Y-121702438D01*
X129619047Y-121702438D02*
X129523809Y-121654819D01*
X129523809Y-121654819D02*
X129285714Y-121654819D01*
X129285714Y-121654819D02*
X129142857Y-121702438D01*
X128857142Y-121654819D02*
X128285714Y-121654819D01*
X128571428Y-122654819D02*
X128571428Y-121654819D01*
X128190476Y-122750057D02*
X127428571Y-122750057D01*
X127190475Y-122654819D02*
X127190475Y-121654819D01*
X127190475Y-121654819D02*
X126809523Y-121654819D01*
X126809523Y-121654819D02*
X126714285Y-121702438D01*
X126714285Y-121702438D02*
X126666666Y-121750057D01*
X126666666Y-121750057D02*
X126619047Y-121845295D01*
X126619047Y-121845295D02*
X126619047Y-121988152D01*
X126619047Y-121988152D02*
X126666666Y-122083390D01*
X126666666Y-122083390D02*
X126714285Y-122131009D01*
X126714285Y-122131009D02*
X126809523Y-122178628D01*
X126809523Y-122178628D02*
X127190475Y-122178628D01*
X126190475Y-122654819D02*
X126190475Y-121654819D01*
X126190475Y-122131009D02*
X125619047Y-122131009D01*
X125619047Y-122654819D02*
X125619047Y-121654819D01*
X130333333Y-119954819D02*
X130333333Y-120669104D01*
X130333333Y-120669104D02*
X130380952Y-120811961D01*
X130380952Y-120811961D02*
X130476190Y-120907200D01*
X130476190Y-120907200D02*
X130619047Y-120954819D01*
X130619047Y-120954819D02*
X130714285Y-120954819D01*
X129904761Y-120050057D02*
X129857142Y-120002438D01*
X129857142Y-120002438D02*
X129761904Y-119954819D01*
X129761904Y-119954819D02*
X129523809Y-119954819D01*
X129523809Y-119954819D02*
X129428571Y-120002438D01*
X129428571Y-120002438D02*
X129380952Y-120050057D01*
X129380952Y-120050057D02*
X129333333Y-120145295D01*
X129333333Y-120145295D02*
X129333333Y-120240533D01*
X129333333Y-120240533D02*
X129380952Y-120383390D01*
X129380952Y-120383390D02*
X129952380Y-120954819D01*
X129952380Y-120954819D02*
X129333333Y-120954819D01*
X93761904Y-85252438D02*
X93857142Y-85204819D01*
X93857142Y-85204819D02*
X93999999Y-85204819D01*
X93999999Y-85204819D02*
X94142856Y-85252438D01*
X94142856Y-85252438D02*
X94238094Y-85347676D01*
X94238094Y-85347676D02*
X94285713Y-85442914D01*
X94285713Y-85442914D02*
X94333332Y-85633390D01*
X94333332Y-85633390D02*
X94333332Y-85776247D01*
X94333332Y-85776247D02*
X94285713Y-85966723D01*
X94285713Y-85966723D02*
X94238094Y-86061961D01*
X94238094Y-86061961D02*
X94142856Y-86157200D01*
X94142856Y-86157200D02*
X93999999Y-86204819D01*
X93999999Y-86204819D02*
X93904761Y-86204819D01*
X93904761Y-86204819D02*
X93761904Y-86157200D01*
X93761904Y-86157200D02*
X93714285Y-86109580D01*
X93714285Y-86109580D02*
X93714285Y-85776247D01*
X93714285Y-85776247D02*
X93904761Y-85776247D01*
X93285713Y-86204819D02*
X93285713Y-85204819D01*
X93285713Y-85204819D02*
X92714285Y-86204819D01*
X92714285Y-86204819D02*
X92714285Y-85204819D01*
X92238094Y-86204819D02*
X92238094Y-85204819D01*
X92238094Y-85204819D02*
X91999999Y-85204819D01*
X91999999Y-85204819D02*
X91857142Y-85252438D01*
X91857142Y-85252438D02*
X91761904Y-85347676D01*
X91761904Y-85347676D02*
X91714285Y-85442914D01*
X91714285Y-85442914D02*
X91666666Y-85633390D01*
X91666666Y-85633390D02*
X91666666Y-85776247D01*
X91666666Y-85776247D02*
X91714285Y-85966723D01*
X91714285Y-85966723D02*
X91761904Y-86061961D01*
X91761904Y-86061961D02*
X91857142Y-86157200D01*
X91857142Y-86157200D02*
X91999999Y-86204819D01*
X91999999Y-86204819D02*
X92238094Y-86204819D01*
X94261904Y-81804819D02*
X93690476Y-81804819D01*
X93976190Y-82804819D02*
X93976190Y-81804819D01*
X93357142Y-82804819D02*
X93357142Y-81804819D01*
X93357142Y-81804819D02*
X92976190Y-81804819D01*
X92976190Y-81804819D02*
X92880952Y-81852438D01*
X92880952Y-81852438D02*
X92833333Y-81900057D01*
X92833333Y-81900057D02*
X92785714Y-81995295D01*
X92785714Y-81995295D02*
X92785714Y-82138152D01*
X92785714Y-82138152D02*
X92833333Y-82233390D01*
X92833333Y-82233390D02*
X92880952Y-82281009D01*
X92880952Y-82281009D02*
X92976190Y-82328628D01*
X92976190Y-82328628D02*
X93357142Y-82328628D01*
X91833333Y-82804819D02*
X92404761Y-82804819D01*
X92119047Y-82804819D02*
X92119047Y-81804819D01*
X92119047Y-81804819D02*
X92214285Y-81947676D01*
X92214285Y-81947676D02*
X92309523Y-82042914D01*
X92309523Y-82042914D02*
X92404761Y-82090533D01*
X106954819Y-154307142D02*
X106954819Y-153735714D01*
X106954819Y-154021428D02*
X105954819Y-154021428D01*
X105954819Y-154021428D02*
X106097676Y-153926190D01*
X106097676Y-153926190D02*
X106192914Y-153830952D01*
X106192914Y-153830952D02*
X106240533Y-153735714D01*
X105954819Y-154926190D02*
X105954819Y-155021428D01*
X105954819Y-155021428D02*
X106002438Y-155116666D01*
X106002438Y-155116666D02*
X106050057Y-155164285D01*
X106050057Y-155164285D02*
X106145295Y-155211904D01*
X106145295Y-155211904D02*
X106335771Y-155259523D01*
X106335771Y-155259523D02*
X106573866Y-155259523D01*
X106573866Y-155259523D02*
X106764342Y-155211904D01*
X106764342Y-155211904D02*
X106859580Y-155164285D01*
X106859580Y-155164285D02*
X106907200Y-155116666D01*
X106907200Y-155116666D02*
X106954819Y-155021428D01*
X106954819Y-155021428D02*
X106954819Y-154926190D01*
X106954819Y-154926190D02*
X106907200Y-154830952D01*
X106907200Y-154830952D02*
X106859580Y-154783333D01*
X106859580Y-154783333D02*
X106764342Y-154735714D01*
X106764342Y-154735714D02*
X106573866Y-154688095D01*
X106573866Y-154688095D02*
X106335771Y-154688095D01*
X106335771Y-154688095D02*
X106145295Y-154735714D01*
X106145295Y-154735714D02*
X106050057Y-154783333D01*
X106050057Y-154783333D02*
X106002438Y-154830952D01*
X106002438Y-154830952D02*
X105954819Y-154926190D01*
X105954819Y-155878571D02*
X105954819Y-155973809D01*
X105954819Y-155973809D02*
X106002438Y-156069047D01*
X106002438Y-156069047D02*
X106050057Y-156116666D01*
X106050057Y-156116666D02*
X106145295Y-156164285D01*
X106145295Y-156164285D02*
X106335771Y-156211904D01*
X106335771Y-156211904D02*
X106573866Y-156211904D01*
X106573866Y-156211904D02*
X106764342Y-156164285D01*
X106764342Y-156164285D02*
X106859580Y-156116666D01*
X106859580Y-156116666D02*
X106907200Y-156069047D01*
X106907200Y-156069047D02*
X106954819Y-155973809D01*
X106954819Y-155973809D02*
X106954819Y-155878571D01*
X106954819Y-155878571D02*
X106907200Y-155783333D01*
X106907200Y-155783333D02*
X106859580Y-155735714D01*
X106859580Y-155735714D02*
X106764342Y-155688095D01*
X106764342Y-155688095D02*
X106573866Y-155640476D01*
X106573866Y-155640476D02*
X106335771Y-155640476D01*
X106335771Y-155640476D02*
X106145295Y-155688095D01*
X106145295Y-155688095D02*
X106050057Y-155735714D01*
X106050057Y-155735714D02*
X106002438Y-155783333D01*
X106002438Y-155783333D02*
X105954819Y-155878571D01*
X106288152Y-157069047D02*
X106954819Y-157069047D01*
X106288152Y-156640476D02*
X106811961Y-156640476D01*
X106811961Y-156640476D02*
X106907200Y-156688095D01*
X106907200Y-156688095D02*
X106954819Y-156783333D01*
X106954819Y-156783333D02*
X106954819Y-156926190D01*
X106954819Y-156926190D02*
X106907200Y-157021428D01*
X106907200Y-157021428D02*
X106859580Y-157069047D01*
X106954819Y-157545238D02*
X105954819Y-157545238D01*
X106431009Y-157545238D02*
X106431009Y-158116666D01*
X106954819Y-158116666D02*
X105954819Y-158116666D01*
X99454819Y-155783333D02*
X99454819Y-155307143D01*
X99454819Y-155307143D02*
X98454819Y-155307143D01*
X99454819Y-156640476D02*
X99454819Y-156069048D01*
X99454819Y-156354762D02*
X98454819Y-156354762D01*
X98454819Y-156354762D02*
X98597676Y-156259524D01*
X98597676Y-156259524D02*
X98692914Y-156164286D01*
X98692914Y-156164286D02*
X98740533Y-156069048D01*
X103104819Y-97333333D02*
X103104819Y-96761905D01*
X103104819Y-97047619D02*
X102104819Y-97047619D01*
X102104819Y-97047619D02*
X102247676Y-96952381D01*
X102247676Y-96952381D02*
X102342914Y-96857143D01*
X102342914Y-96857143D02*
X102390533Y-96761905D01*
X102438152Y-98190476D02*
X103104819Y-98190476D01*
X102438152Y-97761905D02*
X102961961Y-97761905D01*
X102961961Y-97761905D02*
X103057200Y-97809524D01*
X103057200Y-97809524D02*
X103104819Y-97904762D01*
X103104819Y-97904762D02*
X103104819Y-98047619D01*
X103104819Y-98047619D02*
X103057200Y-98142857D01*
X103057200Y-98142857D02*
X103009580Y-98190476D01*
D11*
X104787664Y-97366667D02*
X104825760Y-97328571D01*
X104825760Y-97328571D02*
X104863855Y-97214286D01*
X104863855Y-97214286D02*
X104863855Y-97138095D01*
X104863855Y-97138095D02*
X104825760Y-97023809D01*
X104825760Y-97023809D02*
X104749569Y-96947619D01*
X104749569Y-96947619D02*
X104673379Y-96909524D01*
X104673379Y-96909524D02*
X104520998Y-96871428D01*
X104520998Y-96871428D02*
X104406712Y-96871428D01*
X104406712Y-96871428D02*
X104254331Y-96909524D01*
X104254331Y-96909524D02*
X104178140Y-96947619D01*
X104178140Y-96947619D02*
X104101950Y-97023809D01*
X104101950Y-97023809D02*
X104063855Y-97138095D01*
X104063855Y-97138095D02*
X104063855Y-97214286D01*
X104063855Y-97214286D02*
X104101950Y-97328571D01*
X104101950Y-97328571D02*
X104140045Y-97366667D01*
X104330521Y-98052381D02*
X104863855Y-98052381D01*
X104025760Y-97861905D02*
X104597188Y-97671428D01*
X104597188Y-97671428D02*
X104597188Y-98166667D01*
D10*
X121070237Y-116183152D02*
X121070237Y-116849819D01*
X121070237Y-116278390D02*
X121022618Y-116230771D01*
X121022618Y-116230771D02*
X120927380Y-116183152D01*
X120927380Y-116183152D02*
X120784523Y-116183152D01*
X120784523Y-116183152D02*
X120689285Y-116230771D01*
X120689285Y-116230771D02*
X120641666Y-116326009D01*
X120641666Y-116326009D02*
X120641666Y-116849819D01*
X120165475Y-116849819D02*
X120165475Y-116183152D01*
X120165475Y-115849819D02*
X120213094Y-115897438D01*
X120213094Y-115897438D02*
X120165475Y-115945057D01*
X120165475Y-115945057D02*
X120117856Y-115897438D01*
X120117856Y-115897438D02*
X120165475Y-115849819D01*
X120165475Y-115849819D02*
X120165475Y-115945057D01*
X119260714Y-116802200D02*
X119355952Y-116849819D01*
X119355952Y-116849819D02*
X119546428Y-116849819D01*
X119546428Y-116849819D02*
X119641666Y-116802200D01*
X119641666Y-116802200D02*
X119689285Y-116754580D01*
X119689285Y-116754580D02*
X119736904Y-116659342D01*
X119736904Y-116659342D02*
X119736904Y-116373628D01*
X119736904Y-116373628D02*
X119689285Y-116278390D01*
X119689285Y-116278390D02*
X119641666Y-116230771D01*
X119641666Y-116230771D02*
X119546428Y-116183152D01*
X119546428Y-116183152D02*
X119355952Y-116183152D01*
X119355952Y-116183152D02*
X119260714Y-116230771D01*
X118451190Y-116802200D02*
X118546428Y-116849819D01*
X118546428Y-116849819D02*
X118736904Y-116849819D01*
X118736904Y-116849819D02*
X118832142Y-116802200D01*
X118832142Y-116802200D02*
X118879761Y-116706961D01*
X118879761Y-116706961D02*
X118879761Y-116326009D01*
X118879761Y-116326009D02*
X118832142Y-116230771D01*
X118832142Y-116230771D02*
X118736904Y-116183152D01*
X118736904Y-116183152D02*
X118546428Y-116183152D01*
X118546428Y-116183152D02*
X118451190Y-116230771D01*
X118451190Y-116230771D02*
X118403571Y-116326009D01*
X118403571Y-116326009D02*
X118403571Y-116421247D01*
X118403571Y-116421247D02*
X118879761Y-116516485D01*
X117974999Y-116754580D02*
X117927380Y-116802200D01*
X117927380Y-116802200D02*
X117974999Y-116849819D01*
X117974999Y-116849819D02*
X118022618Y-116802200D01*
X118022618Y-116802200D02*
X117974999Y-116754580D01*
X117974999Y-116754580D02*
X117974999Y-116849819D01*
X117974999Y-116468866D02*
X118022618Y-115897438D01*
X118022618Y-115897438D02*
X117974999Y-115849819D01*
X117974999Y-115849819D02*
X117927380Y-115897438D01*
X117927380Y-115897438D02*
X117974999Y-116468866D01*
X117974999Y-116468866D02*
X117974999Y-115849819D01*
X117498809Y-116183152D02*
X117498809Y-116849819D01*
X117498809Y-116278390D02*
X117451190Y-116230771D01*
X117451190Y-116230771D02*
X117355952Y-116183152D01*
X117355952Y-116183152D02*
X117213095Y-116183152D01*
X117213095Y-116183152D02*
X117117857Y-116230771D01*
X117117857Y-116230771D02*
X117070238Y-116326009D01*
X117070238Y-116326009D02*
X117070238Y-116849819D01*
X116165476Y-116849819D02*
X116165476Y-116326009D01*
X116165476Y-116326009D02*
X116213095Y-116230771D01*
X116213095Y-116230771D02*
X116308333Y-116183152D01*
X116308333Y-116183152D02*
X116498809Y-116183152D01*
X116498809Y-116183152D02*
X116594047Y-116230771D01*
X116165476Y-116802200D02*
X116260714Y-116849819D01*
X116260714Y-116849819D02*
X116498809Y-116849819D01*
X116498809Y-116849819D02*
X116594047Y-116802200D01*
X116594047Y-116802200D02*
X116641666Y-116706961D01*
X116641666Y-116706961D02*
X116641666Y-116611723D01*
X116641666Y-116611723D02*
X116594047Y-116516485D01*
X116594047Y-116516485D02*
X116498809Y-116468866D01*
X116498809Y-116468866D02*
X116260714Y-116468866D01*
X116260714Y-116468866D02*
X116165476Y-116421247D01*
X115689285Y-116183152D02*
X115689285Y-116849819D01*
X115689285Y-116278390D02*
X115641666Y-116230771D01*
X115641666Y-116230771D02*
X115546428Y-116183152D01*
X115546428Y-116183152D02*
X115403571Y-116183152D01*
X115403571Y-116183152D02*
X115308333Y-116230771D01*
X115308333Y-116230771D02*
X115260714Y-116326009D01*
X115260714Y-116326009D02*
X115260714Y-116849819D01*
X114641666Y-116849819D02*
X114736904Y-116802200D01*
X114736904Y-116802200D02*
X114784523Y-116754580D01*
X114784523Y-116754580D02*
X114832142Y-116659342D01*
X114832142Y-116659342D02*
X114832142Y-116373628D01*
X114832142Y-116373628D02*
X114784523Y-116278390D01*
X114784523Y-116278390D02*
X114736904Y-116230771D01*
X114736904Y-116230771D02*
X114641666Y-116183152D01*
X114641666Y-116183152D02*
X114498809Y-116183152D01*
X114498809Y-116183152D02*
X114403571Y-116230771D01*
X114403571Y-116230771D02*
X114355952Y-116278390D01*
X114355952Y-116278390D02*
X114308333Y-116373628D01*
X114308333Y-116373628D02*
X114308333Y-116659342D01*
X114308333Y-116659342D02*
X114355952Y-116754580D01*
X114355952Y-116754580D02*
X114403571Y-116802200D01*
X114403571Y-116802200D02*
X114498809Y-116849819D01*
X114498809Y-116849819D02*
X114641666Y-116849819D01*
X114117857Y-116945057D02*
X113355952Y-116945057D01*
X113213094Y-116183152D02*
X112974999Y-116849819D01*
X112974999Y-116849819D02*
X112736904Y-116183152D01*
X112403570Y-115945057D02*
X112355951Y-115897438D01*
X112355951Y-115897438D02*
X112260713Y-115849819D01*
X112260713Y-115849819D02*
X112022618Y-115849819D01*
X112022618Y-115849819D02*
X111927380Y-115897438D01*
X111927380Y-115897438D02*
X111879761Y-115945057D01*
X111879761Y-115945057D02*
X111832142Y-116040295D01*
X111832142Y-116040295D02*
X111832142Y-116135533D01*
X111832142Y-116135533D02*
X111879761Y-116278390D01*
X111879761Y-116278390D02*
X112451189Y-116849819D01*
X112451189Y-116849819D02*
X111832142Y-116849819D01*
X97036904Y-91048866D02*
X96275000Y-91048866D01*
X96655952Y-91429819D02*
X96655952Y-90667914D01*
X95275000Y-91429819D02*
X95846428Y-91429819D01*
X95560714Y-91429819D02*
X95560714Y-90429819D01*
X95560714Y-90429819D02*
X95655952Y-90572676D01*
X95655952Y-90572676D02*
X95751190Y-90667914D01*
X95751190Y-90667914D02*
X95846428Y-90715533D01*
X94894047Y-90525057D02*
X94846428Y-90477438D01*
X94846428Y-90477438D02*
X94751190Y-90429819D01*
X94751190Y-90429819D02*
X94513095Y-90429819D01*
X94513095Y-90429819D02*
X94417857Y-90477438D01*
X94417857Y-90477438D02*
X94370238Y-90525057D01*
X94370238Y-90525057D02*
X94322619Y-90620295D01*
X94322619Y-90620295D02*
X94322619Y-90715533D01*
X94322619Y-90715533D02*
X94370238Y-90858390D01*
X94370238Y-90858390D02*
X94941666Y-91429819D01*
X94941666Y-91429819D02*
X94322619Y-91429819D01*
X94036904Y-90429819D02*
X93703571Y-91429819D01*
X93703571Y-91429819D02*
X93370238Y-90429819D01*
X96536904Y-93829819D02*
X95965476Y-93829819D01*
X96251190Y-94829819D02*
X96251190Y-93829819D01*
X95632142Y-94829819D02*
X95632142Y-93829819D01*
X95632142Y-93829819D02*
X95251190Y-93829819D01*
X95251190Y-93829819D02*
X95155952Y-93877438D01*
X95155952Y-93877438D02*
X95108333Y-93925057D01*
X95108333Y-93925057D02*
X95060714Y-94020295D01*
X95060714Y-94020295D02*
X95060714Y-94163152D01*
X95060714Y-94163152D02*
X95108333Y-94258390D01*
X95108333Y-94258390D02*
X95155952Y-94306009D01*
X95155952Y-94306009D02*
X95251190Y-94353628D01*
X95251190Y-94353628D02*
X95632142Y-94353628D01*
X94203571Y-94163152D02*
X94203571Y-94829819D01*
X94441666Y-93782200D02*
X94679761Y-94496485D01*
X94679761Y-94496485D02*
X94060714Y-94496485D01*
X102007200Y-143285714D02*
X102054819Y-143428571D01*
X102054819Y-143428571D02*
X102054819Y-143666666D01*
X102054819Y-143666666D02*
X102007200Y-143761904D01*
X102007200Y-143761904D02*
X101959580Y-143809523D01*
X101959580Y-143809523D02*
X101864342Y-143857142D01*
X101864342Y-143857142D02*
X101769104Y-143857142D01*
X101769104Y-143857142D02*
X101673866Y-143809523D01*
X101673866Y-143809523D02*
X101626247Y-143761904D01*
X101626247Y-143761904D02*
X101578628Y-143666666D01*
X101578628Y-143666666D02*
X101531009Y-143476190D01*
X101531009Y-143476190D02*
X101483390Y-143380952D01*
X101483390Y-143380952D02*
X101435771Y-143333333D01*
X101435771Y-143333333D02*
X101340533Y-143285714D01*
X101340533Y-143285714D02*
X101245295Y-143285714D01*
X101245295Y-143285714D02*
X101150057Y-143333333D01*
X101150057Y-143333333D02*
X101102438Y-143380952D01*
X101102438Y-143380952D02*
X101054819Y-143476190D01*
X101054819Y-143476190D02*
X101054819Y-143714285D01*
X101054819Y-143714285D02*
X101102438Y-143857142D01*
X102007200Y-144238095D02*
X102054819Y-144380952D01*
X102054819Y-144380952D02*
X102054819Y-144619047D01*
X102054819Y-144619047D02*
X102007200Y-144714285D01*
X102007200Y-144714285D02*
X101959580Y-144761904D01*
X101959580Y-144761904D02*
X101864342Y-144809523D01*
X101864342Y-144809523D02*
X101769104Y-144809523D01*
X101769104Y-144809523D02*
X101673866Y-144761904D01*
X101673866Y-144761904D02*
X101626247Y-144714285D01*
X101626247Y-144714285D02*
X101578628Y-144619047D01*
X101578628Y-144619047D02*
X101531009Y-144428571D01*
X101531009Y-144428571D02*
X101483390Y-144333333D01*
X101483390Y-144333333D02*
X101435771Y-144285714D01*
X101435771Y-144285714D02*
X101340533Y-144238095D01*
X101340533Y-144238095D02*
X101245295Y-144238095D01*
X101245295Y-144238095D02*
X101150057Y-144285714D01*
X101150057Y-144285714D02*
X101102438Y-144333333D01*
X101102438Y-144333333D02*
X101054819Y-144428571D01*
X101054819Y-144428571D02*
X101054819Y-144666666D01*
X101054819Y-144666666D02*
X101102438Y-144809523D01*
X102054819Y-145761904D02*
X102054819Y-145190476D01*
X102054819Y-145476190D02*
X101054819Y-145476190D01*
X101054819Y-145476190D02*
X101197676Y-145380952D01*
X101197676Y-145380952D02*
X101292914Y-145285714D01*
X101292914Y-145285714D02*
X101340533Y-145190476D01*
X101388152Y-146619047D02*
X102054819Y-146619047D01*
X101007200Y-146380952D02*
X101721485Y-146142857D01*
X101721485Y-146142857D02*
X101721485Y-146761904D01*
X96954819Y-144261905D02*
X95954819Y-144261905D01*
X95954819Y-144261905D02*
X95954819Y-144500000D01*
X95954819Y-144500000D02*
X96002438Y-144642857D01*
X96002438Y-144642857D02*
X96097676Y-144738095D01*
X96097676Y-144738095D02*
X96192914Y-144785714D01*
X96192914Y-144785714D02*
X96383390Y-144833333D01*
X96383390Y-144833333D02*
X96526247Y-144833333D01*
X96526247Y-144833333D02*
X96716723Y-144785714D01*
X96716723Y-144785714D02*
X96811961Y-144738095D01*
X96811961Y-144738095D02*
X96907200Y-144642857D01*
X96907200Y-144642857D02*
X96954819Y-144500000D01*
X96954819Y-144500000D02*
X96954819Y-144261905D01*
X96954819Y-145785714D02*
X96954819Y-145214286D01*
X96954819Y-145500000D02*
X95954819Y-145500000D01*
X95954819Y-145500000D02*
X96097676Y-145404762D01*
X96097676Y-145404762D02*
X96192914Y-145309524D01*
X96192914Y-145309524D02*
X96240533Y-145214286D01*
%TO.C,C2*%
D12*
X94250000Y-138400000D02*
X96750000Y-138400000D01*
X96750000Y-141600000D01*
X94250000Y-141600000D01*
X94250000Y-138400000D01*
%TO.C,J3*%
X109650000Y-82500000D02*
X110350000Y-83000000D01*
X110350000Y-82000000D02*
X109650000Y-82500000D01*
X105950000Y-79425000D02*
X110450000Y-79425000D01*
X110450000Y-95075000D01*
X105950000Y-95075000D01*
X105950000Y-79425000D01*
%TO.C,J2*%
X127050000Y-116650000D02*
X127750000Y-116650000D01*
X127050000Y-124250000D02*
X127050000Y-116650000D01*
X127750000Y-116650000D02*
X127750000Y-118250000D01*
X127750000Y-118250000D02*
X132250000Y-118250000D01*
X130500000Y-119375000D02*
X131000000Y-118875000D01*
X131000000Y-118875000D02*
X131500000Y-119375000D01*
X131500000Y-119375000D02*
X130500000Y-119375000D01*
X132250000Y-116650000D02*
X132950000Y-116650000D01*
X132250000Y-118250000D02*
X132250000Y-116650000D01*
X132950000Y-116650000D02*
X132950000Y-124250000D01*
X132950000Y-124250000D02*
X127050000Y-124250000D01*
%TO.C,L1*%
X92800000Y-149750000D02*
X95700000Y-149750000D01*
X92800000Y-162150000D02*
X92800000Y-149750000D01*
X92800000Y-162150000D02*
X95700000Y-162150000D01*
X93400000Y-155950000D02*
X93500000Y-155150000D01*
X93500000Y-155150000D02*
X93700000Y-154250000D01*
X93500000Y-156850000D02*
X93400000Y-155950000D01*
X93700000Y-154250000D02*
X94100000Y-153350000D01*
X93700000Y-157650000D02*
X93500000Y-156850000D01*
X93900000Y-152250000D02*
X94000000Y-151750000D01*
X93900000Y-158150000D02*
X93700000Y-157650000D01*
X93900000Y-159850000D02*
X94000000Y-159550000D01*
X93900000Y-160150000D02*
X93900000Y-159850000D01*
X94000000Y-151750000D02*
X94200000Y-151350000D01*
X94000000Y-159550000D02*
X94100000Y-159250000D01*
X94100000Y-152650000D02*
X93900000Y-152250000D01*
X94100000Y-153350000D02*
X94300000Y-152950000D01*
X94100000Y-158550000D02*
X93900000Y-158150000D01*
X94100000Y-159250000D02*
X94400000Y-158950000D01*
X94100000Y-160450000D02*
X93900000Y-160150000D01*
X94200000Y-151350000D02*
X94500000Y-151050000D01*
X94300000Y-152950000D02*
X94100000Y-152650000D01*
X94300000Y-160750000D02*
X94100000Y-160450000D01*
X94400000Y-158950000D02*
X94100000Y-158550000D01*
X94500000Y-151050000D02*
X95000000Y-150850000D01*
X94700000Y-160950000D02*
X94300000Y-160750000D01*
X95000000Y-150850000D02*
X95500000Y-150950000D01*
X95000000Y-161050000D02*
X94700000Y-160950000D01*
X95400000Y-160950000D02*
X95000000Y-161050000D01*
X95500000Y-150950000D02*
X95800000Y-151150000D01*
X95700000Y-160850000D02*
X95400000Y-160950000D01*
X102300000Y-149750000D02*
X105200000Y-149750000D01*
X102300000Y-160850000D02*
X102400000Y-160950000D01*
X102400000Y-160950000D02*
X102800000Y-161050000D01*
X102600000Y-150950000D02*
X102200000Y-151150000D01*
X102800000Y-161050000D02*
X103300000Y-160950000D01*
X103100000Y-150850000D02*
X102600000Y-150950000D01*
X103300000Y-160950000D02*
X103600000Y-160750000D01*
X103600000Y-151050000D02*
X103100000Y-150850000D01*
X103600000Y-158950000D02*
X104000000Y-158350000D01*
X103600000Y-160750000D02*
X104000000Y-160450000D01*
X103700000Y-152950000D02*
X103900000Y-152650000D01*
X103700000Y-159050000D02*
X103600000Y-158950000D01*
X103800000Y-151350000D02*
X103600000Y-151050000D01*
X103900000Y-152650000D02*
X104100000Y-152050000D01*
X103900000Y-153350000D02*
X103700000Y-152950000D01*
X104000000Y-151650000D02*
X103800000Y-151350000D01*
X104000000Y-158350000D02*
X104300000Y-157550000D01*
X104000000Y-159450000D02*
X103700000Y-159050000D01*
X104000000Y-160450000D02*
X104100000Y-159950000D01*
X104100000Y-152050000D02*
X104000000Y-151650000D01*
X104100000Y-153850000D02*
X103900000Y-153350000D01*
X104100000Y-159950000D02*
X104000000Y-159450000D01*
X104300000Y-154450000D02*
X104100000Y-153850000D01*
X104300000Y-157550000D02*
X104500000Y-156550000D01*
X104500000Y-155350000D02*
X104300000Y-154450000D01*
X104500000Y-156550000D02*
X104500000Y-155350000D01*
X105200000Y-149750000D02*
X105200000Y-162150000D01*
X105200000Y-162150000D02*
X102300000Y-162150000D01*
X102390512Y-153850000D02*
G75*
G02*
X101609488Y-153850000I-390512J0D01*
G01*
X101609488Y-153850000D02*
G75*
G02*
X102390512Y-153850000I390512J0D01*
G01*
%TO.C,C4*%
X103700000Y-95900000D02*
X105300000Y-95900000D01*
X105300000Y-99100000D01*
X103700000Y-99100000D01*
X103700000Y-95900000D01*
%TO.C,D1*%
X97500000Y-147300000D02*
X97500000Y-142700000D01*
X97500000Y-147300000D02*
X100500000Y-147300000D01*
X98200920Y-144350560D02*
X99801120Y-144350560D01*
X99001020Y-144350560D02*
X98200920Y-145501180D01*
X99001020Y-144350560D02*
X99001020Y-143448860D01*
X99001020Y-144350560D02*
X99750320Y-145501180D01*
X99001020Y-145501180D02*
X99001020Y-146499400D01*
X99750320Y-145501180D02*
X98200920Y-145501180D01*
X100500000Y-142700000D02*
X97500000Y-142700000D01*
X100500000Y-147300000D02*
X100500000Y-142700000D01*
%TD*%
M02*
