ISO-10303-21;
HEADER;
FILE_DESCRIPTION(('FreeCAD Model'),'2;1');
FILE_NAME('Open CASCADE Shape Model','2026-07-25T22:48:06',('Author'),(
    ''),'Open CASCADE STEP processor 7.9','FreeCAD','Unknown');
FILE_SCHEMA(('AUTOMOTIVE_DESIGN { 1 0 10303 214 1 1 1 1 }'));
ENDSEC;
DATA;
#1 = APPLICATION_PROTOCOL_DEFINITION('international standard',
  'automotive_design',2000,#2);
#2 = APPLICATION_CONTEXT(
  'core data for automotive mechanical design processes');
#3 = SHAPE_DEFINITION_REPRESENTATION(#4,#10);
#4 = PRODUCT_DEFINITION_SHAPE('','',#5);
#5 = PRODUCT_DEFINITION('design','',#6,#9);
#6 = PRODUCT_DEFINITION_FORMATION('','',#7);
#7 = PRODUCT('Body','Body','',(#8));
#8 = PRODUCT_CONTEXT('',#2,'mechanical');
#9 = PRODUCT_DEFINITION_CONTEXT('part definition',#2,'design');
#10 = ADVANCED_BREP_SHAPE_REPRESENTATION('',(#11,#15),#439);
#11 = AXIS2_PLACEMENT_3D('',#12,#13,#14);
#12 = CARTESIAN_POINT('',(0.,0.,0.));
#13 = DIRECTION('',(0.,0.,1.));
#14 = DIRECTION('',(1.,0.,-0.));
#15 = MANIFOLD_SOLID_BREP('',#16);
#16 = CLOSED_SHELL('',(#17,#89,#143,#167,#191,#208,#232,#256,#273,#319,
    #331,#362,#386,#410,#427));
#17 = ADVANCED_FACE('',(#18),#84,.F.);
#18 = FACE_BOUND('',#19,.F.);
#19 = EDGE_LOOP('',(#20,#30,#38,#46,#54,#62,#70,#78));
#20 = ORIENTED_EDGE('',*,*,#21,.F.);
#21 = EDGE_CURVE('',#22,#24,#26,.T.);
#22 = VERTEX_POINT('',#23);
#23 = CARTESIAN_POINT('',(5.442141,2.802045815543,0.));
#24 = VERTEX_POINT('',#25);
#25 = CARTESIAN_POINT('',(8.517141,2.802045815543,0.));
#26 = LINE('',#27,#28);
#27 = CARTESIAN_POINT('',(5.442141,2.802045815543,0.));
#28 = VECTOR('',#29,1.);
#29 = DIRECTION('',(1.,0.,0.));
#30 = ORIENTED_EDGE('',*,*,#31,.T.);
#31 = EDGE_CURVE('',#22,#32,#34,.T.);
#32 = VERTEX_POINT('',#33);
#33 = CARTESIAN_POINT('',(5.442141,2.802045815543,2.));
#34 = LINE('',#35,#36);
#35 = CARTESIAN_POINT('',(5.442141,2.802045815543,0.));
#36 = VECTOR('',#37,1.);
#37 = DIRECTION('',(0.,0.,1.));
#38 = ORIENTED_EDGE('',*,*,#39,.T.);
#39 = EDGE_CURVE('',#32,#40,#42,.T.);
#40 = VERTEX_POINT('',#41);
#41 = CARTESIAN_POINT('',(21.092141,2.802045815543,2.));
#42 = LINE('',#43,#44);
#43 = CARTESIAN_POINT('',(5.442141,2.802045815543,2.));
#44 = VECTOR('',#45,1.);
#45 = DIRECTION('',(1.,0.,0.));
#46 = ORIENTED_EDGE('',*,*,#47,.F.);
#47 = EDGE_CURVE('',#48,#40,#50,.T.);
#48 = VERTEX_POINT('',#49);
#49 = CARTESIAN_POINT('',(21.092141,2.802045815543,0.));
#50 = LINE('',#51,#52);
#51 = CARTESIAN_POINT('',(21.092141,2.802045815543,0.));
#52 = VECTOR('',#53,1.);
#53 = DIRECTION('',(0.,0.,1.));
#54 = ORIENTED_EDGE('',*,*,#55,.F.);
#55 = EDGE_CURVE('',#56,#48,#58,.T.);
#56 = VERTEX_POINT('',#57);
#57 = CARTESIAN_POINT('',(18.017141,2.802045815543,0.));
#58 = LINE('',#59,#60);
#59 = CARTESIAN_POINT('',(5.442141,2.802045815543,0.));
#60 = VECTOR('',#61,1.);
#61 = DIRECTION('',(1.,0.,0.));
#62 = ORIENTED_EDGE('',*,*,#63,.T.);
#63 = EDGE_CURVE('',#56,#64,#66,.T.);
#64 = VERTEX_POINT('',#65);
#65 = CARTESIAN_POINT('',(18.017141,2.802045815543,0.2));
#66 = LINE('',#67,#68);
#67 = CARTESIAN_POINT('',(18.017141,2.802045815543,0.));
#68 = VECTOR('',#69,1.);
#69 = DIRECTION('',(0.,2.22044604925E-16,1.));
#70 = ORIENTED_EDGE('',*,*,#71,.T.);
#71 = EDGE_CURVE('',#64,#72,#74,.T.);
#72 = VERTEX_POINT('',#73);
#73 = CARTESIAN_POINT('',(8.517141,2.802045815543,0.2));
#74 = LINE('',#75,#76);
#75 = CARTESIAN_POINT('',(18.017141,2.802045815543,0.2));
#76 = VECTOR('',#77,1.);
#77 = DIRECTION('',(-1.,0.,0.));
#78 = ORIENTED_EDGE('',*,*,#79,.T.);
#79 = EDGE_CURVE('',#72,#24,#80,.T.);
#80 = LINE('',#81,#82);
#81 = CARTESIAN_POINT('',(8.517141,2.802045815543,0.2));
#82 = VECTOR('',#83,1.);
#83 = DIRECTION('',(0.,-2.22044604925E-16,-1.));
#84 = PLANE('',#85);
#85 = AXIS2_PLACEMENT_3D('',#86,#87,#88);
#86 = CARTESIAN_POINT('',(5.442141,2.802045815543,0.));
#87 = DIRECTION('',(0.,1.,0.));
#88 = DIRECTION('',(1.,0.,0.));
#89 = ADVANCED_FACE('',(#90),#138,.T.);
#90 = FACE_BOUND('',#91,.T.);
#91 = EDGE_LOOP('',(#92,#93,#101,#109,#115,#116,#124,#132));
#92 = ORIENTED_EDGE('',*,*,#21,.F.);
#93 = ORIENTED_EDGE('',*,*,#94,.F.);
#94 = EDGE_CURVE('',#95,#22,#97,.T.);
#95 = VERTEX_POINT('',#96);
#96 = CARTESIAN_POINT('',(5.442141,7.302045815543,0.));
#97 = LINE('',#98,#99);
#98 = CARTESIAN_POINT('',(5.442141,7.302045815543,0.));
#99 = VECTOR('',#100,1.);
#100 = DIRECTION('',(0.,-1.,0.));
#101 = ORIENTED_EDGE('',*,*,#102,.F.);
#102 = EDGE_CURVE('',#103,#95,#105,.T.);
#103 = VERTEX_POINT('',#104);
#104 = CARTESIAN_POINT('',(21.092141,7.302045815543,0.));
#105 = LINE('',#106,#107);
#106 = CARTESIAN_POINT('',(21.092141,7.302045815543,0.));
#107 = VECTOR('',#108,1.);
#108 = DIRECTION('',(-1.,0.,0.));
#109 = ORIENTED_EDGE('',*,*,#110,.F.);
#110 = EDGE_CURVE('',#48,#103,#111,.T.);
#111 = LINE('',#112,#113);
#112 = CARTESIAN_POINT('',(21.092141,2.802045815543,0.));
#113 = VECTOR('',#114,1.);
#114 = DIRECTION('',(0.,1.,0.));
#115 = ORIENTED_EDGE('',*,*,#55,.F.);
#116 = ORIENTED_EDGE('',*,*,#117,.T.);
#117 = EDGE_CURVE('',#56,#118,#120,.T.);
#118 = VERTEX_POINT('',#119);
#119 = CARTESIAN_POINT('',(18.017141,1.802045815543,2.22044604925E-16));
#120 = LINE('',#121,#122);
#121 = CARTESIAN_POINT('',(18.017141,2.802045815543,0.));
#122 = VECTOR('',#123,1.);
#123 = DIRECTION('',(0.,-1.,2.22044604925E-16));
#124 = ORIENTED_EDGE('',*,*,#125,.F.);
#125 = EDGE_CURVE('',#126,#118,#128,.T.);
#126 = VERTEX_POINT('',#127);
#127 = CARTESIAN_POINT('',(8.517141,1.802045815543,2.22044604925E-16));
#128 = LINE('',#129,#130);
#129 = CARTESIAN_POINT('',(8.517141,1.802045815543,2.22044604925E-16));
#130 = VECTOR('',#131,1.);
#131 = DIRECTION('',(1.,0.,0.));
#132 = ORIENTED_EDGE('',*,*,#133,.F.);
#133 = EDGE_CURVE('',#24,#126,#134,.T.);
#134 = LINE('',#135,#136);
#135 = CARTESIAN_POINT('',(8.517141,2.802045815543,0.));
#136 = VECTOR('',#137,1.);
#137 = DIRECTION('',(0.,-1.,2.22044604925E-16));
#138 = PLANE('',#139);
#139 = AXIS2_PLACEMENT_3D('',#140,#141,#142);
#140 = CARTESIAN_POINT('',(13.267141,4.697435886464,5.511745512323E-17)
  );
#141 = DIRECTION('',(-0.,-0.,-1.));
#142 = DIRECTION('',(-1.,0.,0.));
#143 = ADVANCED_FACE('',(#144),#162,.F.);
#144 = FACE_BOUND('',#145,.F.);
#145 = EDGE_LOOP('',(#146,#154,#160,#161));
#146 = ORIENTED_EDGE('',*,*,#147,.T.);
#147 = EDGE_CURVE('',#72,#148,#150,.T.);
#148 = VERTEX_POINT('',#149);
#149 = CARTESIAN_POINT('',(8.517141,1.802045815543,0.2));
#150 = LINE('',#151,#152);
#151 = CARTESIAN_POINT('',(8.517141,2.802045815543,0.2));
#152 = VECTOR('',#153,1.);
#153 = DIRECTION('',(0.,-1.,2.22044604925E-16));
#154 = ORIENTED_EDGE('',*,*,#155,.T.);
#155 = EDGE_CURVE('',#148,#126,#156,.T.);
#156 = LINE('',#157,#158);
#157 = CARTESIAN_POINT('',(8.517141,1.802045815543,0.2));
#158 = VECTOR('',#159,1.);
#159 = DIRECTION('',(0.,-2.22044604925E-16,-1.));
#160 = ORIENTED_EDGE('',*,*,#133,.F.);
#161 = ORIENTED_EDGE('',*,*,#79,.F.);
#162 = PLANE('',#163);
#163 = AXIS2_PLACEMENT_3D('',#164,#165,#166);
#164 = CARTESIAN_POINT('',(8.517141,2.802045815543,0.2));
#165 = DIRECTION('',(1.,0.,0.));
#166 = DIRECTION('',(0.,-2.22044604925E-16,-1.));
#167 = ADVANCED_FACE('',(#168),#186,.F.);
#168 = FACE_BOUND('',#169,.F.);
#169 = EDGE_LOOP('',(#170,#178,#184,#185));
#170 = ORIENTED_EDGE('',*,*,#171,.T.);
#171 = EDGE_CURVE('',#64,#172,#174,.T.);
#172 = VERTEX_POINT('',#173);
#173 = CARTESIAN_POINT('',(18.017141,1.802045815543,0.2));
#174 = LINE('',#175,#176);
#175 = CARTESIAN_POINT('',(18.017141,2.802045815543,0.2));
#176 = VECTOR('',#177,1.);
#177 = DIRECTION('',(0.,-1.,2.22044604925E-16));
#178 = ORIENTED_EDGE('',*,*,#179,.T.);
#179 = EDGE_CURVE('',#172,#148,#180,.T.);
#180 = LINE('',#181,#182);
#181 = CARTESIAN_POINT('',(18.017141,1.802045815543,0.2));
#182 = VECTOR('',#183,1.);
#183 = DIRECTION('',(-1.,0.,0.));
#184 = ORIENTED_EDGE('',*,*,#147,.F.);
#185 = ORIENTED_EDGE('',*,*,#71,.F.);
#186 = PLANE('',#187);
#187 = AXIS2_PLACEMENT_3D('',#188,#189,#190);
#188 = CARTESIAN_POINT('',(18.017141,2.802045815543,0.2));
#189 = DIRECTION('',(-0.,-2.22044604925E-16,-1.));
#190 = DIRECTION('',(-1.,0.,0.));
#191 = ADVANCED_FACE('',(#192),#203,.F.);
#192 = FACE_BOUND('',#193,.F.);
#193 = EDGE_LOOP('',(#194,#195,#201,#202));
#194 = ORIENTED_EDGE('',*,*,#117,.T.);
#195 = ORIENTED_EDGE('',*,*,#196,.T.);
#196 = EDGE_CURVE('',#118,#172,#197,.T.);
#197 = LINE('',#198,#199);
#198 = CARTESIAN_POINT('',(18.017141,1.802045815543,2.22044604925E-16));
#199 = VECTOR('',#200,1.);
#200 = DIRECTION('',(0.,2.22044604925E-16,1.));
#201 = ORIENTED_EDGE('',*,*,#171,.F.);
#202 = ORIENTED_EDGE('',*,*,#63,.F.);
#203 = PLANE('',#204);
#204 = AXIS2_PLACEMENT_3D('',#205,#206,#207);
#205 = CARTESIAN_POINT('',(18.017141,2.802045815543,0.));
#206 = DIRECTION('',(-1.,0.,0.));
#207 = DIRECTION('',(0.,2.22044604925E-16,1.));
#208 = ADVANCED_FACE('',(#209),#227,.F.);
#209 = FACE_BOUND('',#210,.F.);
#210 = EDGE_LOOP('',(#211,#212,#220,#226));
#211 = ORIENTED_EDGE('',*,*,#47,.T.);
#212 = ORIENTED_EDGE('',*,*,#213,.T.);
#213 = EDGE_CURVE('',#40,#214,#216,.T.);
#214 = VERTEX_POINT('',#215);
#215 = CARTESIAN_POINT('',(21.092141,7.302045815543,2.));
#216 = LINE('',#217,#218);
#217 = CARTESIAN_POINT('',(21.092141,2.802045815543,2.));
#218 = VECTOR('',#219,1.);
#219 = DIRECTION('',(0.,1.,0.));
#220 = ORIENTED_EDGE('',*,*,#221,.F.);
#221 = EDGE_CURVE('',#103,#214,#222,.T.);
#222 = LINE('',#223,#224);
#223 = CARTESIAN_POINT('',(21.092141,7.302045815543,0.));
#224 = VECTOR('',#225,1.);
#225 = DIRECTION('',(0.,0.,1.));
#226 = ORIENTED_EDGE('',*,*,#110,.F.);
#227 = PLANE('',#228);
#228 = AXIS2_PLACEMENT_3D('',#229,#230,#231);
#229 = CARTESIAN_POINT('',(21.092141,2.802045815543,0.));
#230 = DIRECTION('',(-1.,0.,0.));
#231 = DIRECTION('',(0.,1.,0.));
#232 = ADVANCED_FACE('',(#233),#251,.T.);
#233 = FACE_BOUND('',#234,.T.);
#234 = EDGE_LOOP('',(#235,#236,#237,#245));
#235 = ORIENTED_EDGE('',*,*,#39,.T.);
#236 = ORIENTED_EDGE('',*,*,#213,.T.);
#237 = ORIENTED_EDGE('',*,*,#238,.T.);
#238 = EDGE_CURVE('',#214,#239,#241,.T.);
#239 = VERTEX_POINT('',#240);
#240 = CARTESIAN_POINT('',(5.442141,7.302045815543,2.));
#241 = LINE('',#242,#243);
#242 = CARTESIAN_POINT('',(21.092141,7.302045815543,2.));
#243 = VECTOR('',#244,1.);
#244 = DIRECTION('',(-1.,0.,0.));
#245 = ORIENTED_EDGE('',*,*,#246,.T.);
#246 = EDGE_CURVE('',#239,#32,#247,.T.);
#247 = LINE('',#248,#249);
#248 = CARTESIAN_POINT('',(5.442141,7.302045815543,2.));
#249 = VECTOR('',#250,1.);
#250 = DIRECTION('',(0.,-1.,0.));
#251 = PLANE('',#252);
#252 = AXIS2_PLACEMENT_3D('',#253,#254,#255);
#253 = CARTESIAN_POINT('',(13.267141,5.052045815543,2.));
#254 = DIRECTION('',(0.,0.,1.));
#255 = DIRECTION('',(1.,0.,0.));
#256 = ADVANCED_FACE('',(#257),#268,.F.);
#257 = FACE_BOUND('',#258,.F.);
#258 = EDGE_LOOP('',(#259,#265,#266,#267));
#259 = ORIENTED_EDGE('',*,*,#260,.T.);
#260 = EDGE_CURVE('',#95,#239,#261,.T.);
#261 = LINE('',#262,#263);
#262 = CARTESIAN_POINT('',(5.442141,7.302045815543,0.));
#263 = VECTOR('',#264,1.);
#264 = DIRECTION('',(0.,0.,1.));
#265 = ORIENTED_EDGE('',*,*,#246,.T.);
#266 = ORIENTED_EDGE('',*,*,#31,.F.);
#267 = ORIENTED_EDGE('',*,*,#94,.F.);
#268 = PLANE('',#269);
#269 = AXIS2_PLACEMENT_3D('',#270,#271,#272);
#270 = CARTESIAN_POINT('',(5.442141,7.302045815543,0.));
#271 = DIRECTION('',(1.,0.,0.));
#272 = DIRECTION('',(0.,-1.,0.));
#273 = ADVANCED_FACE('',(#274,#280),#314,.F.);
#274 = FACE_BOUND('',#275,.F.);
#275 = EDGE_LOOP('',(#276,#277,#278,#279));
#276 = ORIENTED_EDGE('',*,*,#221,.T.);
#277 = ORIENTED_EDGE('',*,*,#238,.T.);
#278 = ORIENTED_EDGE('',*,*,#260,.F.);
#279 = ORIENTED_EDGE('',*,*,#102,.F.);
#280 = FACE_BOUND('',#281,.F.);
#281 = EDGE_LOOP('',(#282,#292,#300,#308));
#282 = ORIENTED_EDGE('',*,*,#283,.T.);
#283 = EDGE_CURVE('',#284,#286,#288,.T.);
#284 = VERTEX_POINT('',#285);
#285 = CARTESIAN_POINT('',(7.967141,7.302045815543,1.5834218));
#286 = VERTEX_POINT('',#287);
#287 = CARTESIAN_POINT('',(18.567141,7.302045815543,1.5834218));
#288 = LINE('',#289,#290);
#289 = CARTESIAN_POINT('',(7.967141,7.302045815543,1.5834218));
#290 = VECTOR('',#291,1.);
#291 = DIRECTION('',(1.,0.,0.));
#292 = ORIENTED_EDGE('',*,*,#293,.T.);
#293 = EDGE_CURVE('',#286,#294,#296,.T.);
#294 = VERTEX_POINT('',#295);
#295 = CARTESIAN_POINT('',(18.567141,7.302045815543,1.07294));
#296 = LINE('',#297,#298);
#297 = CARTESIAN_POINT('',(18.567141,7.302045815543,1.5834218));
#298 = VECTOR('',#299,1.);
#299 = DIRECTION('',(0.,-2.22044604925E-16,-1.));
#300 = ORIENTED_EDGE('',*,*,#301,.T.);
#301 = EDGE_CURVE('',#294,#302,#304,.T.);
#302 = VERTEX_POINT('',#303);
#303 = CARTESIAN_POINT('',(7.967141,7.302045815543,1.07294));
#304 = LINE('',#305,#306);
#305 = CARTESIAN_POINT('',(18.567141,7.302045815543,1.07294));
#306 = VECTOR('',#307,1.);
#307 = DIRECTION('',(-1.,0.,0.));
#308 = ORIENTED_EDGE('',*,*,#309,.T.);
#309 = EDGE_CURVE('',#302,#284,#310,.T.);
#310 = LINE('',#311,#312);
#311 = CARTESIAN_POINT('',(7.967141,7.302045815543,1.07294));
#312 = VECTOR('',#313,1.);
#313 = DIRECTION('',(0.,2.22044604925E-16,1.));
#314 = PLANE('',#315);
#315 = AXIS2_PLACEMENT_3D('',#316,#317,#318);
#316 = CARTESIAN_POINT('',(21.092141,7.302045815543,0.));
#317 = DIRECTION('',(0.,-1.,0.));
#318 = DIRECTION('',(-1.,0.,0.));
#319 = ADVANCED_FACE('',(#320),#326,.F.);
#320 = FACE_BOUND('',#321,.T.);
#321 = EDGE_LOOP('',(#322,#323,#324,#325));
#322 = ORIENTED_EDGE('',*,*,#125,.T.);
#323 = ORIENTED_EDGE('',*,*,#196,.T.);
#324 = ORIENTED_EDGE('',*,*,#179,.T.);
#325 = ORIENTED_EDGE('',*,*,#155,.T.);
#326 = PLANE('',#327);
#327 = AXIS2_PLACEMENT_3D('',#328,#329,#330);
#328 = CARTESIAN_POINT('',(13.267141,1.802045815543,0.1));
#329 = DIRECTION('',(0.,1.,0.));
#330 = DIRECTION('',(0.,0.,1.));
#331 = ADVANCED_FACE('',(#332),#357,.F.);
#332 = FACE_BOUND('',#333,.F.);
#333 = EDGE_LOOP('',(#334,#342,#350,#356));
#334 = ORIENTED_EDGE('',*,*,#335,.T.);
#335 = EDGE_CURVE('',#284,#336,#338,.T.);
#336 = VERTEX_POINT('',#337);
#337 = CARTESIAN_POINT('',(7.967141,5.002045815543,1.5834218));
#338 = LINE('',#339,#340);
#339 = CARTESIAN_POINT('',(7.967141,7.302045815543,1.5834218));
#340 = VECTOR('',#341,1.);
#341 = DIRECTION('',(0.,-1.,2.22044604925E-16));
#342 = ORIENTED_EDGE('',*,*,#343,.T.);
#343 = EDGE_CURVE('',#336,#344,#346,.T.);
#344 = VERTEX_POINT('',#345);
#345 = CARTESIAN_POINT('',(18.567141,5.002045815543,1.5834218));
#346 = LINE('',#347,#348);
#347 = CARTESIAN_POINT('',(7.967141,5.002045815543,1.5834218));
#348 = VECTOR('',#349,1.);
#349 = DIRECTION('',(1.,0.,0.));
#350 = ORIENTED_EDGE('',*,*,#351,.F.);
#351 = EDGE_CURVE('',#286,#344,#352,.T.);
#352 = LINE('',#353,#354);
#353 = CARTESIAN_POINT('',(18.567141,7.302045815543,1.5834218));
#354 = VECTOR('',#355,1.);
#355 = DIRECTION('',(0.,-1.,2.22044604925E-16));
#356 = ORIENTED_EDGE('',*,*,#283,.F.);
#357 = PLANE('',#358);
#358 = AXIS2_PLACEMENT_3D('',#359,#360,#361);
#359 = CARTESIAN_POINT('',(7.967141,7.302045815543,1.5834218));
#360 = DIRECTION('',(0.,2.22044604925E-16,1.));
#361 = DIRECTION('',(1.,0.,0.));
#362 = ADVANCED_FACE('',(#363),#381,.F.);
#363 = FACE_BOUND('',#364,.F.);
#364 = EDGE_LOOP('',(#365,#373,#379,#380));
#365 = ORIENTED_EDGE('',*,*,#366,.T.);
#366 = EDGE_CURVE('',#302,#367,#369,.T.);
#367 = VERTEX_POINT('',#368);
#368 = CARTESIAN_POINT('',(7.967141,5.002045815543,1.07294));
#369 = LINE('',#370,#371);
#370 = CARTESIAN_POINT('',(7.967141,7.302045815543,1.07294));
#371 = VECTOR('',#372,1.);
#372 = DIRECTION('',(0.,-1.,2.22044604925E-16));
#373 = ORIENTED_EDGE('',*,*,#374,.T.);
#374 = EDGE_CURVE('',#367,#336,#375,.T.);
#375 = LINE('',#376,#377);
#376 = CARTESIAN_POINT('',(7.967141,5.002045815543,1.07294));
#377 = VECTOR('',#378,1.);
#378 = DIRECTION('',(0.,2.22044604925E-16,1.));
#379 = ORIENTED_EDGE('',*,*,#335,.F.);
#380 = ORIENTED_EDGE('',*,*,#309,.F.);
#381 = PLANE('',#382);
#382 = AXIS2_PLACEMENT_3D('',#383,#384,#385);
#383 = CARTESIAN_POINT('',(7.967141,7.302045815543,1.07294));
#384 = DIRECTION('',(-1.,0.,0.));
#385 = DIRECTION('',(0.,2.22044604925E-16,1.));
#386 = ADVANCED_FACE('',(#387),#405,.F.);
#387 = FACE_BOUND('',#388,.F.);
#388 = EDGE_LOOP('',(#389,#397,#403,#404));
#389 = ORIENTED_EDGE('',*,*,#390,.T.);
#390 = EDGE_CURVE('',#294,#391,#393,.T.);
#391 = VERTEX_POINT('',#392);
#392 = CARTESIAN_POINT('',(18.567141,5.002045815543,1.07294));
#393 = LINE('',#394,#395);
#394 = CARTESIAN_POINT('',(18.567141,7.302045815543,1.07294));
#395 = VECTOR('',#396,1.);
#396 = DIRECTION('',(0.,-1.,2.22044604925E-16));
#397 = ORIENTED_EDGE('',*,*,#398,.T.);
#398 = EDGE_CURVE('',#391,#367,#399,.T.);
#399 = LINE('',#400,#401);
#400 = CARTESIAN_POINT('',(18.567141,5.002045815543,1.07294));
#401 = VECTOR('',#402,1.);
#402 = DIRECTION('',(-1.,0.,0.));
#403 = ORIENTED_EDGE('',*,*,#366,.F.);
#404 = ORIENTED_EDGE('',*,*,#301,.F.);
#405 = PLANE('',#406);
#406 = AXIS2_PLACEMENT_3D('',#407,#408,#409);
#407 = CARTESIAN_POINT('',(18.567141,7.302045815543,1.07294));
#408 = DIRECTION('',(-0.,-2.22044604925E-16,-1.));
#409 = DIRECTION('',(-1.,0.,0.));
#410 = ADVANCED_FACE('',(#411),#422,.F.);
#411 = FACE_BOUND('',#412,.F.);
#412 = EDGE_LOOP('',(#413,#414,#420,#421));
#413 = ORIENTED_EDGE('',*,*,#351,.T.);
#414 = ORIENTED_EDGE('',*,*,#415,.T.);
#415 = EDGE_CURVE('',#344,#391,#416,.T.);
#416 = LINE('',#417,#418);
#417 = CARTESIAN_POINT('',(18.567141,5.002045815543,1.5834218));
#418 = VECTOR('',#419,1.);
#419 = DIRECTION('',(0.,-2.22044604925E-16,-1.));
#420 = ORIENTED_EDGE('',*,*,#390,.F.);
#421 = ORIENTED_EDGE('',*,*,#293,.F.);
#422 = PLANE('',#423);
#423 = AXIS2_PLACEMENT_3D('',#424,#425,#426);
#424 = CARTESIAN_POINT('',(18.567141,7.302045815543,1.5834218));
#425 = DIRECTION('',(1.,0.,0.));
#426 = DIRECTION('',(0.,-2.22044604925E-16,-1.));
#427 = ADVANCED_FACE('',(#428),#434,.T.);
#428 = FACE_BOUND('',#429,.T.);
#429 = EDGE_LOOP('',(#430,#431,#432,#433));
#430 = ORIENTED_EDGE('',*,*,#415,.T.);
#431 = ORIENTED_EDGE('',*,*,#398,.T.);
#432 = ORIENTED_EDGE('',*,*,#374,.T.);
#433 = ORIENTED_EDGE('',*,*,#343,.T.);
#434 = PLANE('',#435);
#435 = AXIS2_PLACEMENT_3D('',#436,#437,#438);
#436 = CARTESIAN_POINT('',(13.267141,5.002045815543,1.3281809));
#437 = DIRECTION('',(0.,1.,0.));
#438 = DIRECTION('',(0.,0.,1.));
#439 = ( GEOMETRIC_REPRESENTATION_CONTEXT(3) 
GLOBAL_UNCERTAINTY_ASSIGNED_CONTEXT((#443)) GLOBAL_UNIT_ASSIGNED_CONTEXT
((#440,#441,#442)) REPRESENTATION_CONTEXT('Context #1',
  '3D Context with UNIT and UNCERTAINTY') );
#440 = ( LENGTH_UNIT() NAMED_UNIT(*) SI_UNIT(.MILLI.,.METRE.) );
#441 = ( NAMED_UNIT(*) PLANE_ANGLE_UNIT() SI_UNIT($,.RADIAN.) );
#442 = ( NAMED_UNIT(*) SI_UNIT($,.STERADIAN.) SOLID_ANGLE_UNIT() );
#443 = UNCERTAINTY_MEASURE_WITH_UNIT(LENGTH_MEASURE(1.E-07),#440,
  'distance_accuracy_value','confusion accuracy');
#444 = PRODUCT_RELATED_PRODUCT_CATEGORY('part',$,(#7));
#445 = MECHANICAL_DESIGN_GEOMETRIC_PRESENTATION_REPRESENTATION('',(#446)
  ,#439);
#446 = STYLED_ITEM('color',(#447),#15);
#447 = PRESENTATION_STYLE_ASSIGNMENT((#448,#454));
#448 = SURFACE_STYLE_USAGE(.BOTH.,#449);
#449 = SURFACE_SIDE_STYLE('',(#450));
#450 = SURFACE_STYLE_FILL_AREA(#451);
#451 = FILL_AREA_STYLE('',(#452));
#452 = FILL_AREA_STYLE_COLOUR('',#453);
#453 = COLOUR_RGB('',0.447058818107,0.474509808674,0.501960817233);
#454 = CURVE_STYLE('',#455,POSITIVE_LENGTH_MEASURE(0.1),#456);
#455 = DRAUGHTING_PRE_DEFINED_CURVE_FONT('continuous');
#456 = COLOUR_RGB('',9.803921802644E-02,9.803921802644E-02,
  9.803921802644E-02);
ENDSEC;
END-ISO-10303-21;
