ISO-10303-21;
HEADER;
FILE_DESCRIPTION(('FreeCAD Model'),'2;1');
FILE_NAME('Open CASCADE Shape Model','2026-09-04T17:12:16',(''),(''),
  'Open CASCADE STEP processor 7.9','FreeCAD','Unknown');
FILE_SCHEMA(('AUTOMOTIVE_DESIGN { 1 0 10303 214 1 1 1 1 }'));
ENDSEC;
DATA;
#1 = APPLICATION_PROTOCOL_DEFINITION('international standard',
  'automotive_design',2000,#2);
#2 = APPLICATION_CONTEXT(
  'core data for automotive mechanical design processes');
#3 = SHAPE_DEFINITION_REPRESENTATION(#4,#10);
#4 = PRODUCT_DEFINITION_SHAPE('','',#5);
#5 = PRODUCT_DEFINITION('design','',#6,#9);
#6 = PRODUCT_DEFINITION_FORMATION('','',#7);
#7 = PRODUCT('Body','Body','',(#8));
#8 = PRODUCT_CONTEXT('',#2,'mechanical');
#9 = PRODUCT_DEFINITION_CONTEXT('part definition',#2,'design');
#10 = ADVANCED_BREP_SHAPE_REPRESENTATION('',(#11,#15),#401);
#11 = AXIS2_PLACEMENT_3D('',#12,#13,#14);
#12 = CARTESIAN_POINT('',(0.,0.,0.));
#13 = DIRECTION('',(0.,0.,1.));
#14 = DIRECTION('',(1.,0.,-0.));
#15 = MANIFOLD_SOLID_BREP('',#16);
#16 = CLOSED_SHELL('',(#17,#79,#124,#134,#144,#230,#249,#269,#321,#347,
    #372,#382,#392));
#17 = ADVANCED_FACE('',(#18),#74,.T.);
#18 = FACE_BOUND('',#19,.T.);
#19 = EDGE_LOOP('',(#20,#31,#40,#49,#58,#67));
#20 = ORIENTED_EDGE('',*,*,#21,.T.);
#21 = EDGE_CURVE('',#22,#24,#26,.T.);
#22 = VERTEX_POINT('',#23);
#23 = CARTESIAN_POINT('',(1.25,4.179558585763,-0.185016));
#24 = VERTEX_POINT('',#25);
#25 = CARTESIAN_POINT('',(1.236231806638,4.151800651619,-0.185016));
#26 = CIRCLE('',#27,1.387720821975);
#27 = AXIS2_PLACEMENT_3D('',#28,#29,#30);
#28 = CARTESIAN_POINT('',(0.,4.782276662267,-0.185016));
#29 = DIRECTION('',(0.,-2.22044604925E-16,-1.));
#30 = DIRECTION('',(0.,1.,-2.22044604925E-16));
#31 = ORIENTED_EDGE('',*,*,#32,.T.);
#32 = EDGE_CURVE('',#24,#33,#35,.T.);
#33 = VERTEX_POINT('',#34);
#34 = CARTESIAN_POINT('',(-1.236231806638,4.151800651619,-0.185016));
#35 = CIRCLE('',#36,1.249999999999);
#36 = AXIS2_PLACEMENT_3D('',#37,#38,#39);
#37 = CARTESIAN_POINT('',(0.,4.151800651619,0.));
#38 = DIRECTION('',(-0.,1.,0.));
#39 = DIRECTION('',(1.,0.,0.));
#40 = ORIENTED_EDGE('',*,*,#41,.T.);
#41 = EDGE_CURVE('',#33,#42,#44,.T.);
#42 = VERTEX_POINT('',#43);
#43 = CARTESIAN_POINT('',(-1.25,4.179558585763,-0.185016));
#44 = CIRCLE('',#45,1.387720821975);
#45 = AXIS2_PLACEMENT_3D('',#46,#47,#48);
#46 = CARTESIAN_POINT('',(0.,4.782276662267,-0.185016));
#47 = DIRECTION('',(0.,-2.22044604925E-16,-1.));
#48 = DIRECTION('',(0.,1.,-2.22044604925E-16));
#49 = ORIENTED_EDGE('',*,*,#50,.T.);
#50 = EDGE_CURVE('',#42,#51,#53,.T.);
#51 = VERTEX_POINT('',#52);
#52 = CARTESIAN_POINT('',(-1.25,5.38499473877,-0.185016));
#53 = CIRCLE('',#54,0.630476010646);
#54 = AXIS2_PLACEMENT_3D('',#55,#56,#57);
#55 = CARTESIAN_POINT('',(-1.25,4.782276662267,0.));
#56 = DIRECTION('',(1.,0.,-0.));
#57 = DIRECTION('',(0.,0.,1.));
#58 = ORIENTED_EDGE('',*,*,#59,.T.);
#59 = EDGE_CURVE('',#51,#60,#62,.T.);
#60 = VERTEX_POINT('',#61);
#61 = CARTESIAN_POINT('',(1.25,5.38499473877,-0.185016));
#62 = CIRCLE('',#63,1.387720821975);
#63 = AXIS2_PLACEMENT_3D('',#64,#65,#66);
#64 = CARTESIAN_POINT('',(0.,4.782276662267,-0.185016));
#65 = DIRECTION('',(0.,-2.22044604925E-16,-1.));
#66 = DIRECTION('',(0.,1.,-2.22044604925E-16));
#67 = ORIENTED_EDGE('',*,*,#68,.T.);
#68 = EDGE_CURVE('',#60,#22,#69,.T.);
#69 = CIRCLE('',#70,0.630476010646);
#70 = AXIS2_PLACEMENT_3D('',#71,#72,#73);
#71 = CARTESIAN_POINT('',(1.25,4.782276662267,0.));
#72 = DIRECTION('',(-1.,-0.,-0.));
#73 = DIRECTION('',(0.,0.,-1.));
#74 = SPHERICAL_SURFACE('',#75,1.4);
#75 = AXIS2_PLACEMENT_3D('',#76,#77,#78);
#76 = CARTESIAN_POINT('',(0.,4.782276662267,0.));
#77 = DIRECTION('',(0.,1.,0.));
#78 = DIRECTION('',(1.,0.,0.));
#79 = ADVANCED_FACE('',(#80),#119,.F.);
#80 = FACE_BOUND('',#81,.F.);
#81 = EDGE_LOOP('',(#82,#83,#89,#90,#96,#97,#105,#113));
#82 = ORIENTED_EDGE('',*,*,#41,.T.);
#83 = ORIENTED_EDGE('',*,*,#84,.F.);
#84 = EDGE_CURVE('',#51,#42,#85,.T.);
#85 = LINE('',#86,#87);
#86 = CARTESIAN_POINT('',(-1.25,3.5,-0.185016));
#87 = VECTOR('',#88,1.);
#88 = DIRECTION('',(0.,-1.,2.22044604925E-16));
#89 = ORIENTED_EDGE('',*,*,#59,.T.);
#90 = ORIENTED_EDGE('',*,*,#91,.F.);
#91 = EDGE_CURVE('',#22,#60,#92,.T.);
#92 = LINE('',#93,#94);
#93 = CARTESIAN_POINT('',(1.25,3.5,-0.185016));
#94 = VECTOR('',#95,1.);
#95 = DIRECTION('',(0.,1.,-2.22044604925E-16));
#96 = ORIENTED_EDGE('',*,*,#21,.T.);
#97 = ORIENTED_EDGE('',*,*,#98,.T.);
#98 = EDGE_CURVE('',#24,#99,#101,.T.);
#99 = VERTEX_POINT('',#100);
#100 = CARTESIAN_POINT('',(1.236231806638,3.5,-0.185016));
#101 = LINE('',#102,#103);
#102 = CARTESIAN_POINT('',(1.236231806638,4.151800651619,-0.185016));
#103 = VECTOR('',#104,1.);
#104 = DIRECTION('',(-0.,-1.,-0.));
#105 = ORIENTED_EDGE('',*,*,#106,.F.);
#106 = EDGE_CURVE('',#107,#99,#109,.T.);
#107 = VERTEX_POINT('',#108);
#108 = CARTESIAN_POINT('',(-1.236231806638,3.5,-0.185016));
#109 = LINE('',#110,#111);
#110 = CARTESIAN_POINT('',(-1.33265,3.5,-0.185016));
#111 = VECTOR('',#112,1.);
#112 = DIRECTION('',(1.,0.,0.));
#113 = ORIENTED_EDGE('',*,*,#114,.F.);
#114 = EDGE_CURVE('',#33,#107,#115,.T.);
#115 = LINE('',#116,#117);
#116 = CARTESIAN_POINT('',(-1.236231806638,4.151800651619,-0.185016));
#117 = VECTOR('',#118,1.);
#118 = DIRECTION('',(-0.,-1.,-0.));
#119 = PLANE('',#120);
#120 = AXIS2_PLACEMENT_3D('',#121,#122,#123);
#121 = CARTESIAN_POINT('',(-1.33265,3.5,-0.185016));
#122 = DIRECTION('',(0.,-2.22044604925E-16,-1.));
#123 = DIRECTION('',(1.,0.,0.));
#124 = ADVANCED_FACE('',(#125),#129,.F.);
#125 = FACE_BOUND('',#126,.F.);
#126 = EDGE_LOOP('',(#127,#128));
#127 = ORIENTED_EDGE('',*,*,#91,.T.);
#128 = ORIENTED_EDGE('',*,*,#68,.T.);
#129 = PLANE('',#130);
#130 = AXIS2_PLACEMENT_3D('',#131,#132,#133);
#131 = CARTESIAN_POINT('',(1.25,3.5,1.118287));
#132 = DIRECTION('',(-1.,0.,0.));
#133 = DIRECTION('',(0.,-2.22044604925E-16,-1.));
#134 = ADVANCED_FACE('',(#135),#139,.F.);
#135 = FACE_BOUND('',#136,.F.);
#136 = EDGE_LOOP('',(#137,#138));
#137 = ORIENTED_EDGE('',*,*,#84,.T.);
#138 = ORIENTED_EDGE('',*,*,#50,.T.);
#139 = PLANE('',#140);
#140 = AXIS2_PLACEMENT_3D('',#141,#142,#143);
#141 = CARTESIAN_POINT('',(-1.25,3.5,-1.319948));
#142 = DIRECTION('',(1.,0.,0.));
#143 = DIRECTION('',(0.,2.22044604925E-16,1.));
#144 = ADVANCED_FACE('',(#145),#225,.T.);
#145 = FACE_BOUND('',#146,.F.);
#146 = EDGE_LOOP('',(#147,#148,#149,#150,#159,#168,#176,#185,#193,#202,
    #210,#217,#218));
#147 = ORIENTED_EDGE('',*,*,#98,.F.);
#148 = ORIENTED_EDGE('',*,*,#32,.T.);
#149 = ORIENTED_EDGE('',*,*,#114,.T.);
#150 = ORIENTED_EDGE('',*,*,#151,.F.);
#151 = EDGE_CURVE('',#152,#107,#154,.T.);
#152 = VERTEX_POINT('',#153);
#153 = CARTESIAN_POINT('',(-1.25,3.5,0.));
#154 = CIRCLE('',#155,1.249999999999);
#155 = AXIS2_PLACEMENT_3D('',#156,#157,#158);
#156 = CARTESIAN_POINT('',(0.,3.5,0.));
#157 = DIRECTION('',(0.,-1.,0.));
#158 = DIRECTION('',(1.,0.,0.));
#159 = ORIENTED_EDGE('',*,*,#160,.F.);
#160 = EDGE_CURVE('',#161,#152,#163,.T.);
#161 = VERTEX_POINT('',#162);
#162 = CARTESIAN_POINT('',(-1.236231806638,3.5,0.185016));
#163 = CIRCLE('',#164,1.249999999999);
#164 = AXIS2_PLACEMENT_3D('',#165,#166,#167);
#165 = CARTESIAN_POINT('',(0.,3.5,0.));
#166 = DIRECTION('',(0.,-1.,0.));
#167 = DIRECTION('',(1.,0.,0.));
#168 = ORIENTED_EDGE('',*,*,#169,.F.);
#169 = EDGE_CURVE('',#170,#161,#172,.T.);
#170 = VERTEX_POINT('',#171);
#171 = CARTESIAN_POINT('',(-1.236231806638,4.151800651619,0.185016));
#172 = LINE('',#173,#174);
#173 = CARTESIAN_POINT('',(-1.236231806638,4.151800651619,0.185016));
#174 = VECTOR('',#175,1.);
#175 = DIRECTION('',(-0.,-1.,-0.));
#176 = ORIENTED_EDGE('',*,*,#177,.T.);
#177 = EDGE_CURVE('',#170,#178,#180,.T.);
#178 = VERTEX_POINT('',#179);
#179 = CARTESIAN_POINT('',(1.236231806638,4.151800651619,0.185016));
#180 = CIRCLE('',#181,1.249999999999);
#181 = AXIS2_PLACEMENT_3D('',#182,#183,#184);
#182 = CARTESIAN_POINT('',(0.,4.151800651619,0.));
#183 = DIRECTION('',(-0.,1.,0.));
#184 = DIRECTION('',(1.,0.,0.));
#185 = ORIENTED_EDGE('',*,*,#186,.T.);
#186 = EDGE_CURVE('',#178,#187,#189,.T.);
#187 = VERTEX_POINT('',#188);
#188 = CARTESIAN_POINT('',(1.236231806638,3.5,0.185016));
#189 = LINE('',#190,#191);
#190 = CARTESIAN_POINT('',(1.236231806638,4.151800651619,0.185016));
#191 = VECTOR('',#192,1.);
#192 = DIRECTION('',(-0.,-1.,-0.));
#193 = ORIENTED_EDGE('',*,*,#194,.F.);
#194 = EDGE_CURVE('',#195,#187,#197,.T.);
#195 = VERTEX_POINT('',#196);
#196 = CARTESIAN_POINT('',(1.25,3.5,0.));
#197 = CIRCLE('',#198,1.249999999999);
#198 = AXIS2_PLACEMENT_3D('',#199,#200,#201);
#199 = CARTESIAN_POINT('',(0.,3.5,0.));
#200 = DIRECTION('',(0.,-1.,0.));
#201 = DIRECTION('',(1.,0.,0.));
#202 = ORIENTED_EDGE('',*,*,#203,.T.);
#203 = EDGE_CURVE('',#195,#204,#206,.T.);
#204 = VERTEX_POINT('',#205);
#205 = CARTESIAN_POINT('',(1.249999999999,2.401800651619,0.));
#206 = LINE('',#207,#208);
#207 = CARTESIAN_POINT('',(1.249999999999,4.151800651619,0.));
#208 = VECTOR('',#209,1.);
#209 = DIRECTION('',(0.,-1.,0.));
#210 = ORIENTED_EDGE('',*,*,#211,.F.);
#211 = EDGE_CURVE('',#204,#204,#212,.T.);
#212 = CIRCLE('',#213,1.249999999999);
#213 = AXIS2_PLACEMENT_3D('',#214,#215,#216);
#214 = CARTESIAN_POINT('',(0.,2.401800651619,0.));
#215 = DIRECTION('',(-0.,1.,0.));
#216 = DIRECTION('',(1.,0.,0.));
#217 = ORIENTED_EDGE('',*,*,#203,.F.);
#218 = ORIENTED_EDGE('',*,*,#219,.F.);
#219 = EDGE_CURVE('',#99,#195,#220,.T.);
#220 = CIRCLE('',#221,1.249999999999);
#221 = AXIS2_PLACEMENT_3D('',#222,#223,#224);
#222 = CARTESIAN_POINT('',(0.,3.5,0.));
#223 = DIRECTION('',(0.,-1.,0.));
#224 = DIRECTION('',(1.,0.,0.));
#225 = CYLINDRICAL_SURFACE('',#226,1.249999999999);
#226 = AXIS2_PLACEMENT_3D('',#227,#228,#229);
#227 = CARTESIAN_POINT('',(0.,4.151800651619,0.));
#228 = DIRECTION('',(-0.,-1.,-0.));
#229 = DIRECTION('',(1.,0.,0.));
#230 = ADVANCED_FACE('',(#231),#244,.T.);
#231 = FACE_BOUND('',#232,.T.);
#232 = EDGE_LOOP('',(#233,#234,#235,#236,#237,#243));
#233 = ORIENTED_EDGE('',*,*,#219,.F.);
#234 = ORIENTED_EDGE('',*,*,#106,.F.);
#235 = ORIENTED_EDGE('',*,*,#151,.F.);
#236 = ORIENTED_EDGE('',*,*,#160,.F.);
#237 = ORIENTED_EDGE('',*,*,#238,.F.);
#238 = EDGE_CURVE('',#187,#161,#239,.T.);
#239 = LINE('',#240,#241);
#240 = CARTESIAN_POINT('',(1.334028,3.5,0.185016));
#241 = VECTOR('',#242,1.);
#242 = DIRECTION('',(-1.,0.,0.));
#243 = ORIENTED_EDGE('',*,*,#194,.F.);
#244 = PLANE('',#245);
#245 = AXIS2_PLACEMENT_3D('',#246,#247,#248);
#246 = CARTESIAN_POINT('',(3.224697307763E-02,3.5,-6.454776908833E-02));
#247 = DIRECTION('',(0.,1.,-3.595890207084E-16));
#248 = DIRECTION('',(0.,3.595890207084E-16,1.));
#249 = ADVANCED_FACE('',(#250,#253),#264,.T.);
#250 = FACE_BOUND('',#251,.F.);
#251 = EDGE_LOOP('',(#252));
#252 = ORIENTED_EDGE('',*,*,#211,.T.);
#253 = FACE_BOUND('',#254,.F.);
#254 = EDGE_LOOP('',(#255));
#255 = ORIENTED_EDGE('',*,*,#256,.F.);
#256 = EDGE_CURVE('',#257,#257,#259,.T.);
#257 = VERTEX_POINT('',#258);
#258 = CARTESIAN_POINT('',(7.,2.401800651619,0.));
#259 = CIRCLE('',#260,7.);
#260 = AXIS2_PLACEMENT_3D('',#261,#262,#263);
#261 = CARTESIAN_POINT('',(0.,2.401800651619,0.));
#262 = DIRECTION('',(-0.,1.,0.));
#263 = DIRECTION('',(1.,0.,0.));
#264 = PLANE('',#265);
#265 = AXIS2_PLACEMENT_3D('',#266,#267,#268);
#266 = CARTESIAN_POINT('',(0.,2.401800651619,0.));
#267 = DIRECTION('',(0.,1.,0.));
#268 = DIRECTION('',(1.,0.,0.));
#269 = ADVANCED_FACE('',(#270),#316,.F.);
#270 = FACE_BOUND('',#271,.F.);
#271 = EDGE_LOOP('',(#272,#281,#289,#298,#306,#313,#314,#315));
#272 = ORIENTED_EDGE('',*,*,#273,.T.);
#273 = EDGE_CURVE('',#178,#274,#276,.T.);
#274 = VERTEX_POINT('',#275);
#275 = CARTESIAN_POINT('',(1.25,4.179558585763,0.185016));
#276 = CIRCLE('',#277,1.387720821975);
#277 = AXIS2_PLACEMENT_3D('',#278,#279,#280);
#278 = CARTESIAN_POINT('',(0.,4.782276662267,0.185016));
#279 = DIRECTION('',(-0.,2.22044604925E-16,1.));
#280 = DIRECTION('',(0.,-1.,2.22044604925E-16));
#281 = ORIENTED_EDGE('',*,*,#282,.F.);
#282 = EDGE_CURVE('',#283,#274,#285,.T.);
#283 = VERTEX_POINT('',#284);
#284 = CARTESIAN_POINT('',(1.25,5.38499473877,0.185016));
#285 = LINE('',#286,#287);
#286 = CARTESIAN_POINT('',(1.25,3.5,0.185016));
#287 = VECTOR('',#288,1.);
#288 = DIRECTION('',(0.,-1.,2.22044604925E-16));
#289 = ORIENTED_EDGE('',*,*,#290,.T.);
#290 = EDGE_CURVE('',#283,#291,#293,.T.);
#291 = VERTEX_POINT('',#292);
#292 = CARTESIAN_POINT('',(-1.25,5.38499473877,0.185016));
#293 = CIRCLE('',#294,1.387720821975);
#294 = AXIS2_PLACEMENT_3D('',#295,#296,#297);
#295 = CARTESIAN_POINT('',(0.,4.782276662267,0.185016));
#296 = DIRECTION('',(-0.,2.22044604925E-16,1.));
#297 = DIRECTION('',(0.,-1.,2.22044604925E-16));
#298 = ORIENTED_EDGE('',*,*,#299,.F.);
#299 = EDGE_CURVE('',#300,#291,#302,.T.);
#300 = VERTEX_POINT('',#301);
#301 = CARTESIAN_POINT('',(-1.25,4.179558585763,0.185016));
#302 = LINE('',#303,#304);
#303 = CARTESIAN_POINT('',(-1.25,3.5,0.185016));
#304 = VECTOR('',#305,1.);
#305 = DIRECTION('',(0.,1.,-2.22044604925E-16));
#306 = ORIENTED_EDGE('',*,*,#307,.T.);
#307 = EDGE_CURVE('',#300,#170,#308,.T.);
#308 = CIRCLE('',#309,1.387720821975);
#309 = AXIS2_PLACEMENT_3D('',#310,#311,#312);
#310 = CARTESIAN_POINT('',(0.,4.782276662267,0.185016));
#311 = DIRECTION('',(-0.,2.22044604925E-16,1.));
#312 = DIRECTION('',(0.,-1.,2.22044604925E-16));
#313 = ORIENTED_EDGE('',*,*,#169,.T.);
#314 = ORIENTED_EDGE('',*,*,#238,.F.);
#315 = ORIENTED_EDGE('',*,*,#186,.F.);
#316 = PLANE('',#317);
#317 = AXIS2_PLACEMENT_3D('',#318,#319,#320);
#318 = CARTESIAN_POINT('',(1.334028,3.5,0.185016));
#319 = DIRECTION('',(0.,2.22044604925E-16,1.));
#320 = DIRECTION('',(-1.,0.,0.));
#321 = ADVANCED_FACE('',(#322),#342,.T.);
#322 = FACE_BOUND('',#323,.T.);
#323 = EDGE_LOOP('',(#324,#325,#326,#333,#334,#341));
#324 = ORIENTED_EDGE('',*,*,#177,.T.);
#325 = ORIENTED_EDGE('',*,*,#273,.T.);
#326 = ORIENTED_EDGE('',*,*,#327,.T.);
#327 = EDGE_CURVE('',#274,#283,#328,.T.);
#328 = CIRCLE('',#329,0.630476010646);
#329 = AXIS2_PLACEMENT_3D('',#330,#331,#332);
#330 = CARTESIAN_POINT('',(1.25,4.782276662267,0.));
#331 = DIRECTION('',(-1.,-0.,-0.));
#332 = DIRECTION('',(0.,0.,-1.));
#333 = ORIENTED_EDGE('',*,*,#290,.T.);
#334 = ORIENTED_EDGE('',*,*,#335,.T.);
#335 = EDGE_CURVE('',#291,#300,#336,.T.);
#336 = CIRCLE('',#337,0.630476010646);
#337 = AXIS2_PLACEMENT_3D('',#338,#339,#340);
#338 = CARTESIAN_POINT('',(-1.25,4.782276662267,0.));
#339 = DIRECTION('',(1.,0.,-0.));
#340 = DIRECTION('',(0.,0.,1.));
#341 = ORIENTED_EDGE('',*,*,#307,.T.);
#342 = SPHERICAL_SURFACE('',#343,1.4);
#343 = AXIS2_PLACEMENT_3D('',#344,#345,#346);
#344 = CARTESIAN_POINT('',(0.,4.782276662267,0.));
#345 = DIRECTION('',(0.,1.,0.));
#346 = DIRECTION('',(1.,0.,0.));
#347 = ADVANCED_FACE('',(#348),#367,.T.);
#348 = FACE_BOUND('',#349,.T.);
#349 = EDGE_LOOP('',(#350,#359,#365,#366));
#350 = ORIENTED_EDGE('',*,*,#351,.T.);
#351 = EDGE_CURVE('',#352,#352,#354,.T.);
#352 = VERTEX_POINT('',#353);
#353 = CARTESIAN_POINT('',(7.,0.401800651619,0.));
#354 = CIRCLE('',#355,7.);
#355 = AXIS2_PLACEMENT_3D('',#356,#357,#358);
#356 = CARTESIAN_POINT('',(0.,0.401800651619,0.));
#357 = DIRECTION('',(-0.,1.,0.));
#358 = DIRECTION('',(1.,0.,0.));
#359 = ORIENTED_EDGE('',*,*,#360,.T.);
#360 = EDGE_CURVE('',#352,#257,#361,.T.);
#361 = LINE('',#362,#363);
#362 = CARTESIAN_POINT('',(7.,0.401800651619,0.));
#363 = VECTOR('',#364,1.);
#364 = DIRECTION('',(0.,1.,0.));
#365 = ORIENTED_EDGE('',*,*,#256,.F.);
#366 = ORIENTED_EDGE('',*,*,#360,.F.);
#367 = CYLINDRICAL_SURFACE('',#368,7.);
#368 = AXIS2_PLACEMENT_3D('',#369,#370,#371);
#369 = CARTESIAN_POINT('',(0.,0.401800651619,0.));
#370 = DIRECTION('',(0.,1.,0.));
#371 = DIRECTION('',(1.,0.,0.));
#372 = ADVANCED_FACE('',(#373),#377,.F.);
#373 = FACE_BOUND('',#374,.F.);
#374 = EDGE_LOOP('',(#375,#376));
#375 = ORIENTED_EDGE('',*,*,#299,.T.);
#376 = ORIENTED_EDGE('',*,*,#335,.T.);
#377 = PLANE('',#378);
#378 = AXIS2_PLACEMENT_3D('',#379,#380,#381);
#379 = CARTESIAN_POINT('',(-1.25,3.5,-1.319948));
#380 = DIRECTION('',(1.,0.,0.));
#381 = DIRECTION('',(0.,2.22044604925E-16,1.));
#382 = ADVANCED_FACE('',(#383),#387,.F.);
#383 = FACE_BOUND('',#384,.F.);
#384 = EDGE_LOOP('',(#385,#386));
#385 = ORIENTED_EDGE('',*,*,#282,.T.);
#386 = ORIENTED_EDGE('',*,*,#327,.T.);
#387 = PLANE('',#388);
#388 = AXIS2_PLACEMENT_3D('',#389,#390,#391);
#389 = CARTESIAN_POINT('',(1.25,3.5,1.118287));
#390 = DIRECTION('',(-1.,0.,0.));
#391 = DIRECTION('',(0.,-2.22044604925E-16,-1.));
#392 = ADVANCED_FACE('',(#393),#396,.F.);
#393 = FACE_BOUND('',#394,.T.);
#394 = EDGE_LOOP('',(#395));
#395 = ORIENTED_EDGE('',*,*,#351,.F.);
#396 = PLANE('',#397);
#397 = AXIS2_PLACEMENT_3D('',#398,#399,#400);
#398 = CARTESIAN_POINT('',(0.,0.401800651619,0.));
#399 = DIRECTION('',(0.,1.,0.));
#400 = DIRECTION('',(1.,0.,0.));
#401 = ( GEOMETRIC_REPRESENTATION_CONTEXT(3) 
GLOBAL_UNCERTAINTY_ASSIGNED_CONTEXT((#405)) GLOBAL_UNIT_ASSIGNED_CONTEXT
((#402,#403,#404)) REPRESENTATION_CONTEXT('Context #1',
  '3D Context with UNIT and UNCERTAINTY') );
#402 = ( LENGTH_UNIT() NAMED_UNIT(*) SI_UNIT(.MILLI.,.METRE.) );
#403 = ( NAMED_UNIT(*) PLANE_ANGLE_UNIT() SI_UNIT($,.RADIAN.) );
#404 = ( NAMED_UNIT(*) SI_UNIT($,.STERADIAN.) SOLID_ANGLE_UNIT() );
#405 = UNCERTAINTY_MEASURE_WITH_UNIT(LENGTH_MEASURE(2.E-06),#402,
  'distance_accuracy_value','confusion accuracy');
#406 = PRODUCT_RELATED_PRODUCT_CATEGORY('part',$,(#7));
#407 = MECHANICAL_DESIGN_GEOMETRIC_PRESENTATION_REPRESENTATION('',(#408)
  ,#401);
#408 = STYLED_ITEM('color',(#409),#15);
#409 = PRESENTATION_STYLE_ASSIGNMENT((#410,#416));
#410 = SURFACE_STYLE_USAGE(.BOTH.,#411);
#411 = SURFACE_SIDE_STYLE('',(#412));
#412 = SURFACE_STYLE_FILL_AREA(#413);
#413 = FILL_AREA_STYLE('',(#414));
#414 = FILL_AREA_STYLE_COLOUR('',#415);
#415 = COLOUR_RGB('',0.447058818107,0.474509808674,0.501960817233);
#416 = CURVE_STYLE('',#417,POSITIVE_LENGTH_MEASURE(0.1),#418);
#417 = DRAUGHTING_PRE_DEFINED_CURVE_FONT('continuous');
#418 = COLOUR_RGB('',9.803921802644E-02,9.803921802644E-02,
  9.803921802644E-02);
ENDSEC;
END-ISO-10303-21;
