ISO-10303-21;
HEADER;
FILE_DESCRIPTION(('FreeCAD Model'),'2;1');
FILE_NAME('Open CASCADE Shape Model','2026-09-03T18:26:18',(''),(''),
  'Open CASCADE STEP processor 7.9','FreeCAD','Unknown');
FILE_SCHEMA(('AUTOMOTIVE_DESIGN { 1 0 10303 214 1 1 1 1 }'));
ENDSEC;
DATA;
#1 = APPLICATION_PROTOCOL_DEFINITION('international standard',
  'automotive_design',2000,#2);
#2 = APPLICATION_CONTEXT(
  'core data for automotive mechanical design processes');
#3 = SHAPE_DEFINITION_REPRESENTATION(#4,#10);
#4 = PRODUCT_DEFINITION_SHAPE('','',#5);
#5 = PRODUCT_DEFINITION('design','',#6,#9);
#6 = PRODUCT_DEFINITION_FORMATION('','',#7);
#7 = PRODUCT('display back housi','display back housi','',(#8));
#8 = PRODUCT_CONTEXT('',#2,'mechanical');
#9 = PRODUCT_DEFINITION_CONTEXT('part definition',#2,'design');
#10 = ADVANCED_BREP_SHAPE_REPRESENTATION('',(#11,#15),#829);
#11 = AXIS2_PLACEMENT_3D('',#12,#13,#14);
#12 = CARTESIAN_POINT('',(0.,0.,0.));
#13 = DIRECTION('',(0.,0.,1.));
#14 = DIRECTION('',(1.,0.,-0.));
#15 = MANIFOLD_SOLID_BREP('',#16);
#16 = CLOSED_SHELL('',(#17,#57,#88,#177,#208,#289,#306,#323,#340,#357,
    #374,#391,#458,#537,#561,#625,#642,#659,#676,#693,#724,#741,#758,
    #784,#798,#815));
#17 = ADVANCED_FACE('',(#18),#52,.T.);
#18 = FACE_BOUND('',#19,.T.);
#19 = EDGE_LOOP('',(#20,#30,#38,#46));
#20 = ORIENTED_EDGE('',*,*,#21,.T.);
#21 = EDGE_CURVE('',#22,#24,#26,.T.);
#22 = VERTEX_POINT('',#23);
#23 = CARTESIAN_POINT('',(-10.662575,52.377598196097,-5.350061575595));
#24 = VERTEX_POINT('',#25);
#25 = CARTESIAN_POINT('',(-10.662575,52.377596847398,-9.350061575594));
#26 = LINE('',#27,#28);
#27 = CARTESIAN_POINT('',(-10.662575,52.377598196097,-5.350061575595));
#28 = VECTOR('',#29,1.);
#29 = DIRECTION('',(0.,-3.371747939185E-07,-1.));
#30 = ORIENTED_EDGE('',*,*,#31,.T.);
#31 = EDGE_CURVE('',#24,#32,#34,.T.);
#32 = VERTEX_POINT('',#33);
#33 = CARTESIAN_POINT('',(15.2097,52.377596847398,-9.350061575594));
#34 = LINE('',#35,#36);
#35 = CARTESIAN_POINT('',(-10.662575,52.377596847398,-9.350061575594));
#36 = VECTOR('',#37,1.);
#37 = DIRECTION('',(1.,0.,0.));
#38 = ORIENTED_EDGE('',*,*,#39,.F.);
#39 = EDGE_CURVE('',#40,#32,#42,.T.);
#40 = VERTEX_POINT('',#41);
#41 = CARTESIAN_POINT('',(15.2097,52.377598196097,-5.350061575595));
#42 = LINE('',#43,#44);
#43 = CARTESIAN_POINT('',(15.2097,52.377598196097,-5.350061575595));
#44 = VECTOR('',#45,1.);
#45 = DIRECTION('',(0.,-3.371747939185E-07,-1.));
#46 = ORIENTED_EDGE('',*,*,#47,.F.);
#47 = EDGE_CURVE('',#22,#40,#48,.T.);
#48 = LINE('',#49,#50);
#49 = CARTESIAN_POINT('',(-10.662575,52.377598196097,-5.350061575595));
#50 = VECTOR('',#51,1.);
#51 = DIRECTION('',(1.,0.,0.));
#52 = PLANE('',#53);
#53 = AXIS2_PLACEMENT_3D('',#54,#55,#56);
#54 = CARTESIAN_POINT('',(-10.662575,52.377598196097,-5.350061575595));
#55 = DIRECTION('',(0.,-1.,3.371747939185E-07));
#56 = DIRECTION('',(1.,0.,0.));
#57 = ADVANCED_FACE('',(#58),#83,.F.);
#58 = FACE_BOUND('',#59,.F.);
#59 = EDGE_LOOP('',(#60,#61,#69,#77));
#60 = ORIENTED_EDGE('',*,*,#47,.F.);
#61 = ORIENTED_EDGE('',*,*,#62,.T.);
#62 = EDGE_CURVE('',#22,#63,#65,.T.);
#63 = VERTEX_POINT('',#64);
#64 = CARTESIAN_POINT('',(-10.662575,50.000008280356,-5.350060773931));
#65 = LINE('',#66,#67);
#66 = CARTESIAN_POINT('',(-10.662575,78.199622196096,-5.35007028213));
#67 = VECTOR('',#68,1.);
#68 = DIRECTION('',(0.,-1.,3.371747939347E-07));
#69 = ORIENTED_EDGE('',*,*,#70,.T.);
#70 = EDGE_CURVE('',#63,#71,#73,.T.);
#71 = VERTEX_POINT('',#72);
#72 = CARTESIAN_POINT('',(18.934829145042,50.000008280356,
    -5.350060773931));
#73 = LINE('',#74,#75);
#74 = CARTESIAN_POINT('',(-10.662575,50.000008280356,-5.350060773931));
#75 = VECTOR('',#76,1.);
#76 = DIRECTION('',(1.,0.,0.));
#77 = ORIENTED_EDGE('',*,*,#78,.F.);
#78 = EDGE_CURVE('',#40,#71,#79,.T.);
#79 = LINE('',#80,#81);
#80 = CARTESIAN_POINT('',(15.2097,52.377598196097,-5.350061575595));
#81 = VECTOR('',#82,1.);
#82 = DIRECTION('',(0.842937817616,-0.538010999546,1.814037478977E-07));
#83 = PLANE('',#84);
#84 = AXIS2_PLACEMENT_3D('',#85,#86,#87);
#85 = CARTESIAN_POINT('',(7.231448083423,63.337303103889,-5.350065270931
    ));
#86 = DIRECTION('',(0.,3.371747939355E-07,1.));
#87 = DIRECTION('',(0.,1.,-3.371747939355E-07));
#88 = ADVANCED_FACE('',(#89),#172,.F.);
#89 = FACE_BOUND('',#90,.F.);
#90 = EDGE_LOOP('',(#91,#99,#100,#108,#116,#124,#132,#141,#149,#158,#166
    ));
#91 = ORIENTED_EDGE('',*,*,#92,.T.);
#92 = EDGE_CURVE('',#93,#24,#95,.T.);
#93 = VERTEX_POINT('',#94);
#94 = CARTESIAN_POINT('',(-10.662575,61.095278623752,-9.350064514977));
#95 = LINE('',#96,#97);
#96 = CARTESIAN_POINT('',(-10.662575,78.199620847396,-9.35007028213));
#97 = VECTOR('',#98,1.);
#98 = DIRECTION('',(0.,-1.,3.371747939185E-07));
#99 = ORIENTED_EDGE('',*,*,#31,.T.);
#100 = ORIENTED_EDGE('',*,*,#101,.T.);
#101 = EDGE_CURVE('',#32,#102,#104,.T.);
#102 = VERTEX_POINT('',#103);
#103 = CARTESIAN_POINT('',(24.508568,46.442528847398,-9.350059574439));
#104 = LINE('',#105,#106);
#105 = CARTESIAN_POINT('',(15.2097,52.377596847398,-9.350061575594));
#106 = VECTOR('',#107,1.);
#107 = DIRECTION('',(0.842937817616,-0.538010999546,1.814037478977E-07)
  );
#108 = ORIENTED_EDGE('',*,*,#109,.T.);
#109 = EDGE_CURVE('',#102,#110,#112,.T.);
#110 = VERTEX_POINT('',#111);
#111 = CARTESIAN_POINT('',(24.491666491351,46.905442847398,
    -9.350059730522));
#112 = LINE('',#113,#114);
#113 = CARTESIAN_POINT('',(24.508568,46.442528847398,-9.350059574439));
#114 = VECTOR('',#115,1.);
#115 = DIRECTION('',(-3.648680861122E-02,0.99933413471,
    -3.369502809267E-07));
#116 = ORIENTED_EDGE('',*,*,#117,.T.);
#117 = EDGE_CURVE('',#110,#118,#120,.T.);
#118 = VERTEX_POINT('',#119);
#119 = CARTESIAN_POINT('',(24.348437,46.917585847398,-9.350059734616));
#120 = LINE('',#121,#122);
#121 = CARTESIAN_POINT('',(24.491666491351,46.905442847398,
    -9.350059730522));
#122 = VECTOR('',#123,1.);
#123 = DIRECTION('',(-0.996425431663,8.447697399877E-02,
    -2.848350630027E-08));
#124 = ORIENTED_EDGE('',*,*,#125,.T.);
#125 = EDGE_CURVE('',#118,#126,#128,.T.);
#126 = VERTEX_POINT('',#127);
#127 = CARTESIAN_POINT('',(-3.768999941611,75.551971811184,
    -9.35006938941));
#128 = LINE('',#129,#130);
#129 = CARTESIAN_POINT('',(24.348437,46.917585847398,-9.350059734616));
#130 = VECTOR('',#131,1.);
#131 = DIRECTION('',(-0.700636720744,0.713518174642,-2.405803435037E-07)
  );
#132 = ORIENTED_EDGE('',*,*,#133,.F.);
#133 = EDGE_CURVE('',#134,#126,#136,.T.);
#134 = VERTEX_POINT('',#135);
#135 = CARTESIAN_POINT('',(-4.022241,75.65822148551,-9.350069425234));
#136 = CIRCLE('',#137,0.35491886176);
#137 = AXIS2_PLACEMENT_3D('',#138,#139,#140);
#138 = CARTESIAN_POINT('',(-4.022241,75.30330262375,-9.350069305565));
#139 = DIRECTION('',(-2.64697796017E-23,-3.371747939347E-07,-1.));
#140 = DIRECTION('',(0.700636721034,-0.713518174358,2.405803434078E-07)
  );
#141 = ORIENTED_EDGE('',*,*,#142,.T.);
#142 = EDGE_CURVE('',#134,#143,#145,.T.);
#143 = VERTEX_POINT('',#144);
#144 = CARTESIAN_POINT('',(-9.544483,75.65822148551,-9.350069425234));
#145 = LINE('',#146,#147);
#146 = CARTESIAN_POINT('',(-4.022241,75.65822148551,-9.350069425234));
#147 = VECTOR('',#148,1.);
#148 = DIRECTION('',(-1.,-0.,0.));
#149 = ORIENTED_EDGE('',*,*,#150,.F.);
#150 = EDGE_CURVE('',#151,#143,#153,.T.);
#151 = VERTEX_POINT('',#152);
#152 = CARTESIAN_POINT('',(-9.89940186176,75.30330262375,-9.350069305565
    ));
#153 = CIRCLE('',#154,0.35491886176);
#154 = AXIS2_PLACEMENT_3D('',#155,#156,#157);
#155 = CARTESIAN_POINT('',(-9.544483,75.30330262375,-9.350069305565));
#156 = DIRECTION('',(0.,-3.371747939347E-07,-1.));
#157 = DIRECTION('',(1.,0.,0.));
#158 = ORIENTED_EDGE('',*,*,#159,.T.);
#159 = EDGE_CURVE('',#151,#160,#162,.T.);
#160 = VERTEX_POINT('',#161);
#161 = CARTESIAN_POINT('',(-9.89940186176,61.095278623752,
    -9.350064514977));
#162 = LINE('',#163,#164);
#163 = CARTESIAN_POINT('',(-9.89940186176,75.30330262375,-9.350069305565
    ));
#164 = VECTOR('',#165,1.);
#165 = DIRECTION('',(0.,-1.,3.371747939347E-07));
#166 = ORIENTED_EDGE('',*,*,#167,.T.);
#167 = EDGE_CURVE('',#160,#93,#168,.T.);
#168 = LINE('',#169,#170);
#169 = CARTESIAN_POINT('',(-9.89940186176,61.095278623752,
    -9.350064514977));
#170 = VECTOR('',#171,1.);
#171 = DIRECTION('',(-1.,-0.,0.));
#172 = PLANE('',#173);
#173 = AXIS2_PLACEMENT_3D('',#174,#175,#176);
#174 = CARTESIAN_POINT('',(7.615643044941,64.009546759691,
    -9.350065497595));
#175 = DIRECTION('',(0.,3.371747939347E-07,1.));
#176 = DIRECTION('',(0.,1.,-3.371747939347E-07));
#177 = ADVANCED_FACE('',(#178),#203,.F.);
#178 = FACE_BOUND('',#179,.F.);
#179 = EDGE_LOOP('',(#180,#188,#196,#202));
#180 = ORIENTED_EDGE('',*,*,#181,.T.);
#181 = EDGE_CURVE('',#160,#182,#184,.T.);
#182 = VERTEX_POINT('',#183);
#183 = CARTESIAN_POINT('',(-9.89940186176,61.09527798312,-11.25006451497
    ));
#184 = LINE('',#185,#186);
#185 = CARTESIAN_POINT('',(-9.89940186176,61.095278623752,
    -9.350064514977));
#186 = VECTOR('',#187,1.);
#187 = DIRECTION('',(0.,-3.371747939347E-07,-1.));
#188 = ORIENTED_EDGE('',*,*,#189,.T.);
#189 = EDGE_CURVE('',#182,#190,#192,.T.);
#190 = VERTEX_POINT('',#191);
#191 = CARTESIAN_POINT('',(-10.662575,61.09527798312,-11.25006451497));
#192 = LINE('',#193,#194);
#193 = CARTESIAN_POINT('',(-9.89940186176,61.09527798312,-11.25006451497
    ));
#194 = VECTOR('',#195,1.);
#195 = DIRECTION('',(-1.,-0.,0.));
#196 = ORIENTED_EDGE('',*,*,#197,.F.);
#197 = EDGE_CURVE('',#93,#190,#198,.T.);
#198 = LINE('',#199,#200);
#199 = CARTESIAN_POINT('',(-10.662575,61.095278623752,-9.350064514977));
#200 = VECTOR('',#201,1.);
#201 = DIRECTION('',(0.,-3.371747939347E-07,-1.));
#202 = ORIENTED_EDGE('',*,*,#167,.F.);
#203 = PLANE('',#204);
#204 = AXIS2_PLACEMENT_3D('',#205,#206,#207);
#205 = CARTESIAN_POINT('',(-9.89940186176,61.095278623752,
    -9.350064514977));
#206 = DIRECTION('',(0.,1.,-3.371747939347E-07));
#207 = DIRECTION('',(-1.,0.,0.));
#208 = ADVANCED_FACE('',(#209),#284,.F.);
#209 = FACE_BOUND('',#210,.T.);
#210 = EDGE_LOOP('',(#211,#221,#230,#238,#247,#253,#254,#262,#270,#278)
  );
#211 = ORIENTED_EDGE('',*,*,#212,.T.);
#212 = EDGE_CURVE('',#213,#215,#217,.T.);
#213 = VERTEX_POINT('',#214);
#214 = CARTESIAN_POINT('',(24.348437,46.917585206766,-11.25005973461));
#215 = VERTEX_POINT('',#216);
#216 = CARTESIAN_POINT('',(-3.768999941611,75.551971170552,
    -11.2500693894));
#217 = LINE('',#218,#219);
#218 = CARTESIAN_POINT('',(24.348437,46.917585206766,-11.25005973461));
#219 = VECTOR('',#220,1.);
#220 = DIRECTION('',(-0.700636720744,0.713518174642,-2.405803435037E-07)
  );
#221 = ORIENTED_EDGE('',*,*,#222,.F.);
#222 = EDGE_CURVE('',#223,#215,#225,.T.);
#223 = VERTEX_POINT('',#224);
#224 = CARTESIAN_POINT('',(-4.022241,75.658220844878,-11.25006942523));
#225 = CIRCLE('',#226,0.35491886176);
#226 = AXIS2_PLACEMENT_3D('',#227,#228,#229);
#227 = CARTESIAN_POINT('',(-4.022241,75.303301983118,-11.25006930556));
#228 = DIRECTION('',(-2.64697796017E-23,-3.371747939347E-07,-1.));
#229 = DIRECTION('',(0.700636721034,-0.713518174358,2.405803434078E-07)
  );
#230 = ORIENTED_EDGE('',*,*,#231,.T.);
#231 = EDGE_CURVE('',#223,#232,#234,.T.);
#232 = VERTEX_POINT('',#233);
#233 = CARTESIAN_POINT('',(-9.544483,75.658220844878,-11.25006942523));
#234 = LINE('',#235,#236);
#235 = CARTESIAN_POINT('',(-4.022241,75.658220844878,-11.25006942523));
#236 = VECTOR('',#237,1.);
#237 = DIRECTION('',(-1.,-0.,0.));
#238 = ORIENTED_EDGE('',*,*,#239,.F.);
#239 = EDGE_CURVE('',#240,#232,#242,.T.);
#240 = VERTEX_POINT('',#241);
#241 = CARTESIAN_POINT('',(-9.89940186176,75.303301983118,
    -11.25006930556));
#242 = CIRCLE('',#243,0.35491886176);
#243 = AXIS2_PLACEMENT_3D('',#244,#245,#246);
#244 = CARTESIAN_POINT('',(-9.544483,75.303301983118,-11.25006930556));
#245 = DIRECTION('',(0.,-3.371747939347E-07,-1.));
#246 = DIRECTION('',(1.,0.,0.));
#247 = ORIENTED_EDGE('',*,*,#248,.T.);
#248 = EDGE_CURVE('',#240,#182,#249,.T.);
#249 = LINE('',#250,#251);
#250 = CARTESIAN_POINT('',(-9.89940186176,75.303301983118,
    -11.25006930556));
#251 = VECTOR('',#252,1.);
#252 = DIRECTION('',(0.,-1.,3.371747939347E-07));
#253 = ORIENTED_EDGE('',*,*,#189,.T.);
#254 = ORIENTED_EDGE('',*,*,#255,.T.);
#255 = EDGE_CURVE('',#190,#256,#258,.T.);
#256 = VERTEX_POINT('',#257);
#257 = CARTESIAN_POINT('',(-10.662575,78.199620206764,-11.25007028213));
#258 = LINE('',#259,#260);
#259 = CARTESIAN_POINT('',(-10.662575,61.09527798312,-11.25006451497));
#260 = VECTOR('',#261,1.);
#261 = DIRECTION('',(0.,1.,-3.371747939347E-07));
#262 = ORIENTED_EDGE('',*,*,#263,.T.);
#263 = EDGE_CURVE('',#256,#264,#266,.T.);
#264 = VERTEX_POINT('',#265);
#265 = CARTESIAN_POINT('',(23.349081,78.199620206764,-11.25007028213));
#266 = LINE('',#267,#268);
#267 = CARTESIAN_POINT('',(-10.662575,78.199620206764,-11.25007028213));
#268 = VECTOR('',#269,1.);
#269 = DIRECTION('',(1.,0.,0.));
#270 = ORIENTED_EDGE('',*,*,#271,.T.);
#271 = EDGE_CURVE('',#264,#272,#274,.T.);
#272 = VERTEX_POINT('',#273);
#273 = CARTESIAN_POINT('',(24.491666491351,46.905442206766,
    -11.25005973052));
#274 = LINE('',#275,#276);
#275 = CARTESIAN_POINT('',(23.349081,78.199620206764,-11.25007028213));
#276 = VECTOR('',#277,1.);
#277 = DIRECTION('',(3.648680861122E-02,-0.99933413471,
    3.369502809429E-07));
#278 = ORIENTED_EDGE('',*,*,#279,.T.);
#279 = EDGE_CURVE('',#272,#213,#280,.T.);
#280 = LINE('',#281,#282);
#281 = CARTESIAN_POINT('',(24.491666491351,46.905442206766,
    -11.25005973052));
#282 = VECTOR('',#283,1.);
#283 = DIRECTION('',(-0.996425431663,8.447697399877E-02,
    -2.848350630027E-08));
#284 = PLANE('',#285);
#285 = AXIS2_PLACEMENT_3D('',#286,#287,#288);
#286 = CARTESIAN_POINT('',(6.987713006667,67.834138402994,
    -11.25006678715));
#287 = DIRECTION('',(0.,3.371747939553E-07,1.));
#288 = DIRECTION('',(0.,1.,-3.371747939553E-07));
#289 = ADVANCED_FACE('',(#290),#301,.F.);
#290 = FACE_BOUND('',#291,.F.);
#291 = EDGE_LOOP('',(#292,#298,#299,#300));
#292 = ORIENTED_EDGE('',*,*,#293,.T.);
#293 = EDGE_CURVE('',#151,#240,#294,.T.);
#294 = LINE('',#295,#296);
#295 = CARTESIAN_POINT('',(-9.89940186176,75.30330262375,-9.350069305565
    ));
#296 = VECTOR('',#297,1.);
#297 = DIRECTION('',(0.,-3.371747939347E-07,-1.));
#298 = ORIENTED_EDGE('',*,*,#248,.T.);
#299 = ORIENTED_EDGE('',*,*,#181,.F.);
#300 = ORIENTED_EDGE('',*,*,#159,.F.);
#301 = PLANE('',#302);
#302 = AXIS2_PLACEMENT_3D('',#303,#304,#305);
#303 = CARTESIAN_POINT('',(-9.89940186176,75.30330262375,-9.350069305565
    ));
#304 = DIRECTION('',(-1.,0.,0.));
#305 = DIRECTION('',(0.,-1.,3.371747939347E-07));
#306 = ADVANCED_FACE('',(#307),#318,.F.);
#307 = FACE_BOUND('',#308,.T.);
#308 = EDGE_LOOP('',(#309,#310,#311,#317));
#309 = ORIENTED_EDGE('',*,*,#293,.T.);
#310 = ORIENTED_EDGE('',*,*,#239,.T.);
#311 = ORIENTED_EDGE('',*,*,#312,.F.);
#312 = EDGE_CURVE('',#143,#232,#313,.T.);
#313 = LINE('',#314,#315);
#314 = CARTESIAN_POINT('',(-9.544483,75.65822148551,-9.350069425234));
#315 = VECTOR('',#316,1.);
#316 = DIRECTION('',(0.,-3.371747939347E-07,-1.));
#317 = ORIENTED_EDGE('',*,*,#150,.F.);
#318 = CYLINDRICAL_SURFACE('',#319,0.35491886176);
#319 = AXIS2_PLACEMENT_3D('',#320,#321,#322);
#320 = CARTESIAN_POINT('',(-9.544483,75.30330262375,-9.350069305565));
#321 = DIRECTION('',(0.,3.371747939347E-07,1.));
#322 = DIRECTION('',(1.,0.,0.));
#323 = ADVANCED_FACE('',(#324),#335,.F.);
#324 = FACE_BOUND('',#325,.F.);
#325 = EDGE_LOOP('',(#326,#332,#333,#334));
#326 = ORIENTED_EDGE('',*,*,#327,.T.);
#327 = EDGE_CURVE('',#134,#223,#328,.T.);
#328 = LINE('',#329,#330);
#329 = CARTESIAN_POINT('',(-4.022241,75.65822148551,-9.350069425234));
#330 = VECTOR('',#331,1.);
#331 = DIRECTION('',(0.,-3.371747939347E-07,-1.));
#332 = ORIENTED_EDGE('',*,*,#231,.T.);
#333 = ORIENTED_EDGE('',*,*,#312,.F.);
#334 = ORIENTED_EDGE('',*,*,#142,.F.);
#335 = PLANE('',#336);
#336 = AXIS2_PLACEMENT_3D('',#337,#338,#339);
#337 = CARTESIAN_POINT('',(-4.022241,75.65822148551,-9.350069425234));
#338 = DIRECTION('',(0.,1.,-3.371747939347E-07));
#339 = DIRECTION('',(-1.,0.,0.));
#340 = ADVANCED_FACE('',(#341),#352,.F.);
#341 = FACE_BOUND('',#342,.T.);
#342 = EDGE_LOOP('',(#343,#344,#345,#351));
#343 = ORIENTED_EDGE('',*,*,#327,.T.);
#344 = ORIENTED_EDGE('',*,*,#222,.T.);
#345 = ORIENTED_EDGE('',*,*,#346,.F.);
#346 = EDGE_CURVE('',#126,#215,#347,.T.);
#347 = LINE('',#348,#349);
#348 = CARTESIAN_POINT('',(-3.768999941611,75.551971811184,
    -9.35006938941));
#349 = VECTOR('',#350,1.);
#350 = DIRECTION('',(0.,-3.371747939347E-07,-1.));
#351 = ORIENTED_EDGE('',*,*,#133,.F.);
#352 = CYLINDRICAL_SURFACE('',#353,0.35491886176);
#353 = AXIS2_PLACEMENT_3D('',#354,#355,#356);
#354 = CARTESIAN_POINT('',(-4.022241,75.30330262375,-9.350069305565));
#355 = DIRECTION('',(2.64697796017E-23,3.371747939347E-07,1.));
#356 = DIRECTION('',(0.700636721034,-0.713518174358,2.405803434078E-07)
  );
#357 = ADVANCED_FACE('',(#358),#369,.F.);
#358 = FACE_BOUND('',#359,.F.);
#359 = EDGE_LOOP('',(#360,#366,#367,#368));
#360 = ORIENTED_EDGE('',*,*,#361,.T.);
#361 = EDGE_CURVE('',#118,#213,#362,.T.);
#362 = LINE('',#363,#364);
#363 = CARTESIAN_POINT('',(24.348437,46.917585847398,-9.350059734616));
#364 = VECTOR('',#365,1.);
#365 = DIRECTION('',(0.,-3.371747939347E-07,-1.));
#366 = ORIENTED_EDGE('',*,*,#212,.T.);
#367 = ORIENTED_EDGE('',*,*,#346,.F.);
#368 = ORIENTED_EDGE('',*,*,#125,.F.);
#369 = PLANE('',#370);
#370 = AXIS2_PLACEMENT_3D('',#371,#372,#373);
#371 = CARTESIAN_POINT('',(24.348437,46.917585847398,-9.350059734616));
#372 = DIRECTION('',(0.713518174642,0.700636720744,-2.362370419401E-07)
  );
#373 = DIRECTION('',(-0.700636720744,0.713518174642,-2.405803435037E-07)
  );
#374 = ADVANCED_FACE('',(#375),#386,.F.);
#375 = FACE_BOUND('',#376,.F.);
#376 = EDGE_LOOP('',(#377,#383,#384,#385));
#377 = ORIENTED_EDGE('',*,*,#378,.T.);
#378 = EDGE_CURVE('',#110,#272,#379,.T.);
#379 = LINE('',#380,#381);
#380 = CARTESIAN_POINT('',(24.491666491351,46.905442847398,
    -9.350059730522));
#381 = VECTOR('',#382,1.);
#382 = DIRECTION('',(0.,-3.371747939347E-07,-1.));
#383 = ORIENTED_EDGE('',*,*,#279,.T.);
#384 = ORIENTED_EDGE('',*,*,#361,.F.);
#385 = ORIENTED_EDGE('',*,*,#117,.F.);
#386 = PLANE('',#387);
#387 = AXIS2_PLACEMENT_3D('',#388,#389,#390);
#388 = CARTESIAN_POINT('',(24.491666491351,46.905442847398,
    -9.350059730522));
#389 = DIRECTION('',(8.447697399877E-02,0.996425431663,
    -3.359695395922E-07));
#390 = DIRECTION('',(-0.996425431663,8.447697399877E-02,
    -2.848350630027E-08));
#391 = ADVANCED_FACE('',(#392),#453,.T.);
#392 = FACE_BOUND('',#393,.T.);
#393 = EDGE_LOOP('',(#394,#395,#396,#397,#398,#399,#407,#415,#423,#431,
    #439,#447));
#394 = ORIENTED_EDGE('',*,*,#255,.F.);
#395 = ORIENTED_EDGE('',*,*,#197,.F.);
#396 = ORIENTED_EDGE('',*,*,#92,.T.);
#397 = ORIENTED_EDGE('',*,*,#21,.F.);
#398 = ORIENTED_EDGE('',*,*,#62,.T.);
#399 = ORIENTED_EDGE('',*,*,#400,.T.);
#400 = EDGE_CURVE('',#63,#401,#403,.T.);
#401 = VERTEX_POINT('',#402);
#402 = CARTESIAN_POINT('',(-10.662575,50.00000983136,-0.750060773931));
#403 = LINE('',#404,#405);
#404 = CARTESIAN_POINT('',(-10.662575,50.000008280356,-5.350060773931));
#405 = VECTOR('',#406,1.);
#406 = DIRECTION('',(0.,3.371747939347E-07,1.));
#407 = ORIENTED_EDGE('',*,*,#408,.F.);
#408 = EDGE_CURVE('',#409,#401,#411,.T.);
#409 = VERTEX_POINT('',#410);
#410 = CARTESIAN_POINT('',(-10.662575,53.724746747101,-0.750062029819));
#411 = LINE('',#412,#413);
#412 = CARTESIAN_POINT('',(-10.662575,53.724746747101,-0.750062029819));
#413 = VECTOR('',#414,1.);
#414 = DIRECTION('',(0.,-1.,3.371747939355E-07));
#415 = ORIENTED_EDGE('',*,*,#416,.F.);
#416 = EDGE_CURVE('',#417,#409,#419,.T.);
#417 = VERTEX_POINT('',#418);
#418 = CARTESIAN_POINT('',(-10.662575,53.724746207621,-2.350062029819));
#419 = LINE('',#420,#421);
#420 = CARTESIAN_POINT('',(-10.662575,53.724746207621,-2.350062029819));
#421 = VECTOR('',#422,1.);
#422 = DIRECTION('',(0.,3.371747939355E-07,1.));
#423 = ORIENTED_EDGE('',*,*,#424,.F.);
#424 = EDGE_CURVE('',#425,#417,#427,.T.);
#425 = VERTEX_POINT('',#426);
#426 = CARTESIAN_POINT('',(-10.662575,69.52121420762,-2.35006735599));
#427 = LINE('',#428,#429);
#428 = CARTESIAN_POINT('',(-10.662575,78.19962320762,-2.35007028213));
#429 = VECTOR('',#430,1.);
#430 = DIRECTION('',(0.,-1.,3.371747939347E-07));
#431 = ORIENTED_EDGE('',*,*,#432,.T.);
#432 = EDGE_CURVE('',#425,#433,#435,.T.);
#433 = VERTEX_POINT('',#434);
#434 = CARTESIAN_POINT('',(-10.662575,69.5212147471,-0.75006735599));
#435 = LINE('',#436,#437);
#436 = CARTESIAN_POINT('',(-10.662575,69.52121420762,-2.35006735599));
#437 = VECTOR('',#438,1.);
#438 = DIRECTION('',(0.,3.371747939355E-07,1.));
#439 = ORIENTED_EDGE('',*,*,#440,.T.);
#440 = EDGE_CURVE('',#433,#441,#443,.T.);
#441 = VERTEX_POINT('',#442);
#442 = CARTESIAN_POINT('',(-10.662575,78.1996237471,-0.750070282131));
#443 = LINE('',#444,#445);
#444 = CARTESIAN_POINT('',(-10.662575,69.5212147471,-0.75006735599));
#445 = VECTOR('',#446,1.);
#446 = DIRECTION('',(0.,1.,-3.371747939355E-07));
#447 = ORIENTED_EDGE('',*,*,#448,.F.);
#448 = EDGE_CURVE('',#256,#441,#449,.T.);
#449 = LINE('',#450,#451);
#450 = CARTESIAN_POINT('',(-10.662575,78.19962320762,-2.35007028213));
#451 = VECTOR('',#452,1.);
#452 = DIRECTION('',(0.,3.371747939355E-07,1.));
#453 = PLANE('',#454);
#454 = AXIS2_PLACEMENT_3D('',#455,#456,#457);
#455 = CARTESIAN_POINT('',(-10.662575,64.38102747912,-5.757420282389));
#456 = DIRECTION('',(-1.,-0.,-0.));
#457 = DIRECTION('',(0.,0.,-1.));
#458 = ADVANCED_FACE('',(#459),#532,.T.);
#459 = FACE_BOUND('',#460,.T.);
#460 = EDGE_LOOP('',(#461,#469,#470,#478,#486,#494,#502,#510,#518,#526)
  );
#461 = ORIENTED_EDGE('',*,*,#462,.T.);
#462 = EDGE_CURVE('',#463,#425,#465,.T.);
#463 = VERTEX_POINT('',#464);
#464 = CARTESIAN_POINT('',(-9.066615,69.52121420762,-2.35006735599));
#465 = LINE('',#466,#467);
#466 = CARTESIAN_POINT('',(-9.066615,69.52121420762,-2.35006735599));
#467 = VECTOR('',#468,1.);
#468 = DIRECTION('',(-1.,0.,0.));
#469 = ORIENTED_EDGE('',*,*,#424,.T.);
#470 = ORIENTED_EDGE('',*,*,#471,.F.);
#471 = EDGE_CURVE('',#472,#417,#474,.T.);
#472 = VERTEX_POINT('',#473);
#473 = CARTESIAN_POINT('',(-9.066615,53.724746207621,-2.350062029819));
#474 = LINE('',#475,#476);
#475 = CARTESIAN_POINT('',(-9.066615,53.724746207621,-2.350062029819));
#476 = VECTOR('',#477,1.);
#477 = DIRECTION('',(-1.,0.,0.));
#478 = ORIENTED_EDGE('',*,*,#479,.F.);
#479 = EDGE_CURVE('',#480,#472,#482,.T.);
#480 = VERTEX_POINT('',#481);
#481 = CARTESIAN_POINT('',(-9.066615,50.000009291881,-2.350060773931));
#482 = LINE('',#483,#484);
#483 = CARTESIAN_POINT('',(-9.066615,50.000009291881,-2.350060773931));
#484 = VECTOR('',#485,1.);
#485 = DIRECTION('',(0.,1.,-3.371747939355E-07));
#486 = ORIENTED_EDGE('',*,*,#487,.T.);
#487 = EDGE_CURVE('',#480,#488,#490,.T.);
#488 = VERTEX_POINT('',#489);
#489 = CARTESIAN_POINT('',(18.934829145042,50.000009291881,
    -2.350060773931));
#490 = LINE('',#491,#492);
#491 = CARTESIAN_POINT('',(-10.662575,50.000009291881,-2.350060773931));
#492 = VECTOR('',#493,1.);
#493 = DIRECTION('',(1.,0.,0.));
#494 = ORIENTED_EDGE('',*,*,#495,.T.);
#495 = EDGE_CURVE('',#488,#496,#498,.T.);
#496 = VERTEX_POINT('',#497);
#497 = CARTESIAN_POINT('',(19.517995579158,49.627799207622,
    -2.350060648432));
#498 = LINE('',#499,#500);
#499 = CARTESIAN_POINT('',(18.934829145042,50.000009291881,
    -2.350060773931));
#500 = VECTOR('',#501,1.);
#501 = DIRECTION('',(0.842937817616,-0.538010999546,1.814037479065E-07)
  );
#502 = ORIENTED_EDGE('',*,*,#503,.T.);
#503 = EDGE_CURVE('',#496,#504,#506,.T.);
#504 = VERTEX_POINT('',#505);
#505 = CARTESIAN_POINT('',(21.6009,49.627799207622,-2.350060648432));
#506 = LINE('',#507,#508);
#507 = CARTESIAN_POINT('',(19.517995579158,49.627799207622,
    -2.350060648432));
#508 = VECTOR('',#509,1.);
#509 = DIRECTION('',(1.,0.,0.));
#510 = ORIENTED_EDGE('',*,*,#511,.T.);
#511 = EDGE_CURVE('',#504,#512,#514,.T.);
#512 = VERTEX_POINT('',#513);
#513 = CARTESIAN_POINT('',(21.6009,77.35479920762,-2.350069997277));
#514 = LINE('',#515,#516);
#515 = CARTESIAN_POINT('',(21.6009,49.627799207622,-2.350060648432));
#516 = VECTOR('',#517,1.);
#517 = DIRECTION('',(0.,1.,-3.371747939355E-07));
#518 = ORIENTED_EDGE('',*,*,#519,.T.);
#519 = EDGE_CURVE('',#512,#520,#522,.T.);
#520 = VERTEX_POINT('',#521);
#521 = CARTESIAN_POINT('',(-9.066615,77.35479920762,-2.350069997277));
#522 = LINE('',#523,#524);
#523 = CARTESIAN_POINT('',(21.6009,77.35479920762,-2.350069997277));
#524 = VECTOR('',#525,1.);
#525 = DIRECTION('',(-1.,0.,0.));
#526 = ORIENTED_EDGE('',*,*,#527,.T.);
#527 = EDGE_CURVE('',#520,#463,#528,.T.);
#528 = LINE('',#529,#530);
#529 = CARTESIAN_POINT('',(-9.066615,77.35479920762,-2.350069997277));
#530 = VECTOR('',#531,1.);
#531 = DIRECTION('',(0.,-1.,3.371747939355E-07));
#532 = PLANE('',#533);
#533 = AXIS2_PLACEMENT_3D('',#534,#535,#536);
#534 = CARTESIAN_POINT('',(7.231448083423,63.337304115413,
    -2.350065270931));
#535 = DIRECTION('',(0.,3.371747939355E-07,1.));
#536 = DIRECTION('',(0.,1.,-3.371747939355E-07));
#537 = ADVANCED_FACE('',(#538),#556,.T.);
#538 = FACE_BOUND('',#539,.T.);
#539 = EDGE_LOOP('',(#540,#548,#554,#555));
#540 = ORIENTED_EDGE('',*,*,#541,.T.);
#541 = EDGE_CURVE('',#463,#542,#544,.T.);
#542 = VERTEX_POINT('',#543);
#543 = CARTESIAN_POINT('',(-9.066615,69.5212147471,-0.75006735599));
#544 = LINE('',#545,#546);
#545 = CARTESIAN_POINT('',(-9.066615,69.52121420762,-2.35006735599));
#546 = VECTOR('',#547,1.);
#547 = DIRECTION('',(0.,3.371747939355E-07,1.));
#548 = ORIENTED_EDGE('',*,*,#549,.T.);
#549 = EDGE_CURVE('',#542,#433,#550,.T.);
#550 = LINE('',#551,#552);
#551 = CARTESIAN_POINT('',(-9.066615,69.5212147471,-0.75006735599));
#552 = VECTOR('',#553,1.);
#553 = DIRECTION('',(-1.,0.,0.));
#554 = ORIENTED_EDGE('',*,*,#432,.F.);
#555 = ORIENTED_EDGE('',*,*,#462,.F.);
#556 = PLANE('',#557);
#557 = AXIS2_PLACEMENT_3D('',#558,#559,#560);
#558 = CARTESIAN_POINT('',(-9.066615,69.52121420762,-2.35006735599));
#559 = DIRECTION('',(0.,-1.,3.371747939355E-07));
#560 = DIRECTION('',(-1.,0.,0.));
#561 = ADVANCED_FACE('',(#562),#620,.T.);
#562 = FACE_BOUND('',#563,.F.);
#563 = EDGE_LOOP('',(#564,#574,#582,#590,#596,#597,#598,#606,#614));
#564 = ORIENTED_EDGE('',*,*,#565,.T.);
#565 = EDGE_CURVE('',#566,#568,#570,.T.);
#566 = VERTEX_POINT('',#567);
#567 = CARTESIAN_POINT('',(19.517995579158,49.627799747101,
    -0.750060648432));
#568 = VERTEX_POINT('',#569);
#569 = CARTESIAN_POINT('',(21.6009,49.627799747101,-0.750060648432));
#570 = LINE('',#571,#572);
#571 = CARTESIAN_POINT('',(19.517995579158,49.627799747101,
    -0.750060648432));
#572 = VECTOR('',#573,1.);
#573 = DIRECTION('',(1.,0.,0.));
#574 = ORIENTED_EDGE('',*,*,#575,.T.);
#575 = EDGE_CURVE('',#568,#576,#578,.T.);
#576 = VERTEX_POINT('',#577);
#577 = CARTESIAN_POINT('',(21.6009,77.3547997471,-0.750069997277));
#578 = LINE('',#579,#580);
#579 = CARTESIAN_POINT('',(21.6009,49.627799747101,-0.750060648432));
#580 = VECTOR('',#581,1.);
#581 = DIRECTION('',(0.,1.,-3.371747939355E-07));
#582 = ORIENTED_EDGE('',*,*,#583,.T.);
#583 = EDGE_CURVE('',#576,#584,#586,.T.);
#584 = VERTEX_POINT('',#585);
#585 = CARTESIAN_POINT('',(-9.066615,77.3547997471,-0.750069997277));
#586 = LINE('',#587,#588);
#587 = CARTESIAN_POINT('',(21.6009,77.3547997471,-0.750069997277));
#588 = VECTOR('',#589,1.);
#589 = DIRECTION('',(-1.,0.,0.));
#590 = ORIENTED_EDGE('',*,*,#591,.T.);
#591 = EDGE_CURVE('',#584,#542,#592,.T.);
#592 = LINE('',#593,#594);
#593 = CARTESIAN_POINT('',(-9.066615,77.3547997471,-0.750069997277));
#594 = VECTOR('',#595,1.);
#595 = DIRECTION('',(0.,-1.,3.371747939355E-07));
#596 = ORIENTED_EDGE('',*,*,#549,.T.);
#597 = ORIENTED_EDGE('',*,*,#440,.T.);
#598 = ORIENTED_EDGE('',*,*,#599,.T.);
#599 = EDGE_CURVE('',#441,#600,#602,.T.);
#600 = VERTEX_POINT('',#601);
#601 = CARTESIAN_POINT('',(23.349081,78.1996237471,-0.750070282131));
#602 = LINE('',#603,#604);
#603 = CARTESIAN_POINT('',(-10.662575,78.1996237471,-0.750070282131));
#604 = VECTOR('',#605,1.);
#605 = DIRECTION('',(1.,0.,0.));
#606 = ORIENTED_EDGE('',*,*,#607,.T.);
#607 = EDGE_CURVE('',#600,#608,#610,.T.);
#608 = VERTEX_POINT('',#609);
#609 = CARTESIAN_POINT('',(24.508568,46.442531747101,-0.75005957444));
#610 = LINE('',#611,#612);
#611 = CARTESIAN_POINT('',(23.349081,78.1996237471,-0.750070282131));
#612 = VECTOR('',#613,1.);
#613 = DIRECTION('',(3.648680861122E-02,-0.99933413471,
    3.369502809437E-07));
#614 = ORIENTED_EDGE('',*,*,#615,.T.);
#615 = EDGE_CURVE('',#608,#566,#616,.T.);
#616 = LINE('',#617,#618);
#617 = CARTESIAN_POINT('',(24.508568,46.442531747101,-0.75005957444));
#618 = VECTOR('',#619,1.);
#619 = DIRECTION('',(-0.842937817616,0.538010999546,-1.814037479069E-07)
  );
#620 = PLANE('',#621);
#621 = AXIS2_PLACEMENT_3D('',#622,#623,#624);
#622 = CARTESIAN_POINT('',(10.290749776157,68.59654631058,
    -0.750067044215));
#623 = DIRECTION('',(0.,3.371747939306E-07,1.));
#624 = DIRECTION('',(0.,1.,-3.371747939306E-07));
#625 = ADVANCED_FACE('',(#626),#637,.T.);
#626 = FACE_BOUND('',#627,.T.);
#627 = EDGE_LOOP('',(#628,#634,#635,#636));
#628 = ORIENTED_EDGE('',*,*,#629,.T.);
#629 = EDGE_CURVE('',#520,#584,#630,.T.);
#630 = LINE('',#631,#632);
#631 = CARTESIAN_POINT('',(-9.066615,77.35479920762,-2.350069997277));
#632 = VECTOR('',#633,1.);
#633 = DIRECTION('',(0.,3.371747939355E-07,1.));
#634 = ORIENTED_EDGE('',*,*,#591,.T.);
#635 = ORIENTED_EDGE('',*,*,#541,.F.);
#636 = ORIENTED_EDGE('',*,*,#527,.F.);
#637 = PLANE('',#638);
#638 = AXIS2_PLACEMENT_3D('',#639,#640,#641);
#639 = CARTESIAN_POINT('',(-9.066615,77.35479920762,-2.350069997277));
#640 = DIRECTION('',(1.,0.,0.));
#641 = DIRECTION('',(0.,-1.,3.371747939355E-07));
#642 = ADVANCED_FACE('',(#643),#654,.T.);
#643 = FACE_BOUND('',#644,.T.);
#644 = EDGE_LOOP('',(#645,#651,#652,#653));
#645 = ORIENTED_EDGE('',*,*,#646,.T.);
#646 = EDGE_CURVE('',#512,#576,#647,.T.);
#647 = LINE('',#648,#649);
#648 = CARTESIAN_POINT('',(21.6009,77.35479920762,-2.350069997277));
#649 = VECTOR('',#650,1.);
#650 = DIRECTION('',(0.,3.371747939355E-07,1.));
#651 = ORIENTED_EDGE('',*,*,#583,.T.);
#652 = ORIENTED_EDGE('',*,*,#629,.F.);
#653 = ORIENTED_EDGE('',*,*,#519,.F.);
#654 = PLANE('',#655);
#655 = AXIS2_PLACEMENT_3D('',#656,#657,#658);
#656 = CARTESIAN_POINT('',(21.6009,77.35479920762,-2.350069997277));
#657 = DIRECTION('',(0.,-1.,3.371747939355E-07));
#658 = DIRECTION('',(-1.,0.,0.));
#659 = ADVANCED_FACE('',(#660),#671,.T.);
#660 = FACE_BOUND('',#661,.T.);
#661 = EDGE_LOOP('',(#662,#668,#669,#670));
#662 = ORIENTED_EDGE('',*,*,#663,.T.);
#663 = EDGE_CURVE('',#504,#568,#664,.T.);
#664 = LINE('',#665,#666);
#665 = CARTESIAN_POINT('',(21.6009,49.627799207622,-2.350060648432));
#666 = VECTOR('',#667,1.);
#667 = DIRECTION('',(0.,3.371747939355E-07,1.));
#668 = ORIENTED_EDGE('',*,*,#575,.T.);
#669 = ORIENTED_EDGE('',*,*,#646,.F.);
#670 = ORIENTED_EDGE('',*,*,#511,.F.);
#671 = PLANE('',#672);
#672 = AXIS2_PLACEMENT_3D('',#673,#674,#675);
#673 = CARTESIAN_POINT('',(21.6009,49.627799207622,-2.350060648432));
#674 = DIRECTION('',(-1.,0.,0.));
#675 = DIRECTION('',(0.,1.,-3.371747939355E-07));
#676 = ADVANCED_FACE('',(#677),#688,.T.);
#677 = FACE_BOUND('',#678,.T.);
#678 = EDGE_LOOP('',(#679,#685,#686,#687));
#679 = ORIENTED_EDGE('',*,*,#680,.T.);
#680 = EDGE_CURVE('',#496,#566,#681,.T.);
#681 = LINE('',#682,#683);
#682 = CARTESIAN_POINT('',(19.517995579158,49.627799207622,
    -2.350060648432));
#683 = VECTOR('',#684,1.);
#684 = DIRECTION('',(0.,3.371747939355E-07,1.));
#685 = ORIENTED_EDGE('',*,*,#565,.T.);
#686 = ORIENTED_EDGE('',*,*,#663,.F.);
#687 = ORIENTED_EDGE('',*,*,#503,.F.);
#688 = PLANE('',#689);
#689 = AXIS2_PLACEMENT_3D('',#690,#691,#692);
#690 = CARTESIAN_POINT('',(19.517995579158,49.627799207622,
    -2.350060648432));
#691 = DIRECTION('',(0.,1.,-3.371747939355E-07));
#692 = DIRECTION('',(1.,0.,0.));
#693 = ADVANCED_FACE('',(#694),#719,.F.);
#694 = FACE_BOUND('',#695,.F.);
#695 = EDGE_LOOP('',(#696,#704,#712,#718));
#696 = ORIENTED_EDGE('',*,*,#697,.T.);
#697 = EDGE_CURVE('',#480,#698,#700,.T.);
#698 = VERTEX_POINT('',#699);
#699 = CARTESIAN_POINT('',(-9.066615,50.00000983136,-0.750060773931));
#700 = LINE('',#701,#702);
#701 = CARTESIAN_POINT('',(-9.066615,50.000009291881,-2.350060773931));
#702 = VECTOR('',#703,1.);
#703 = DIRECTION('',(0.,3.371747939355E-07,1.));
#704 = ORIENTED_EDGE('',*,*,#705,.T.);
#705 = EDGE_CURVE('',#698,#706,#708,.T.);
#706 = VERTEX_POINT('',#707);
#707 = CARTESIAN_POINT('',(-9.066615,53.724746747101,-0.750062029819));
#708 = LINE('',#709,#710);
#709 = CARTESIAN_POINT('',(-9.066615,50.00000983136,-0.750060773931));
#710 = VECTOR('',#711,1.);
#711 = DIRECTION('',(0.,1.,-3.371747939355E-07));
#712 = ORIENTED_EDGE('',*,*,#713,.F.);
#713 = EDGE_CURVE('',#472,#706,#714,.T.);
#714 = LINE('',#715,#716);
#715 = CARTESIAN_POINT('',(-9.066615,53.724746207621,-2.350062029819));
#716 = VECTOR('',#717,1.);
#717 = DIRECTION('',(0.,3.371747939355E-07,1.));
#718 = ORIENTED_EDGE('',*,*,#479,.F.);
#719 = PLANE('',#720);
#720 = AXIS2_PLACEMENT_3D('',#721,#722,#723);
#721 = CARTESIAN_POINT('',(-9.066615,50.000009291881,-2.350060773931));
#722 = DIRECTION('',(-1.,0.,0.));
#723 = DIRECTION('',(0.,1.,-3.371747939355E-07));
#724 = ADVANCED_FACE('',(#725),#736,.F.);
#725 = FACE_BOUND('',#726,.F.);
#726 = EDGE_LOOP('',(#727,#728,#734,#735));
#727 = ORIENTED_EDGE('',*,*,#713,.T.);
#728 = ORIENTED_EDGE('',*,*,#729,.T.);
#729 = EDGE_CURVE('',#706,#409,#730,.T.);
#730 = LINE('',#731,#732);
#731 = CARTESIAN_POINT('',(-9.066615,53.724746747101,-0.750062029819));
#732 = VECTOR('',#733,1.);
#733 = DIRECTION('',(-1.,0.,0.));
#734 = ORIENTED_EDGE('',*,*,#416,.F.);
#735 = ORIENTED_EDGE('',*,*,#471,.F.);
#736 = PLANE('',#737);
#737 = AXIS2_PLACEMENT_3D('',#738,#739,#740);
#738 = CARTESIAN_POINT('',(-9.066615,53.724746207621,-2.350062029819));
#739 = DIRECTION('',(0.,-1.,3.371747939355E-07));
#740 = DIRECTION('',(-1.,0.,0.));
#741 = ADVANCED_FACE('',(#742),#753,.T.);
#742 = FACE_BOUND('',#743,.T.);
#743 = EDGE_LOOP('',(#744,#750,#751,#752));
#744 = ORIENTED_EDGE('',*,*,#745,.T.);
#745 = EDGE_CURVE('',#401,#698,#746,.T.);
#746 = LINE('',#747,#748);
#747 = CARTESIAN_POINT('',(-10.662575,50.00000983136,-0.750060773931));
#748 = VECTOR('',#749,1.);
#749 = DIRECTION('',(1.,0.,0.));
#750 = ORIENTED_EDGE('',*,*,#705,.T.);
#751 = ORIENTED_EDGE('',*,*,#729,.T.);
#752 = ORIENTED_EDGE('',*,*,#408,.T.);
#753 = PLANE('',#754);
#754 = AXIS2_PLACEMENT_3D('',#755,#756,#757);
#755 = CARTESIAN_POINT('',(10.290749776157,68.59654631058,
    -0.750067044215));
#756 = DIRECTION('',(0.,3.371747939306E-07,1.));
#757 = DIRECTION('',(0.,1.,-3.371747939306E-07));
#758 = ADVANCED_FACE('',(#759),#779,.T.);
#759 = FACE_BOUND('',#760,.T.);
#760 = EDGE_LOOP('',(#761,#762,#763,#769,#770,#771,#772,#778));
#761 = ORIENTED_EDGE('',*,*,#39,.T.);
#762 = ORIENTED_EDGE('',*,*,#101,.T.);
#763 = ORIENTED_EDGE('',*,*,#764,.F.);
#764 = EDGE_CURVE('',#608,#102,#765,.T.);
#765 = LINE('',#766,#767);
#766 = CARTESIAN_POINT('',(24.508568,46.442530196097,-5.350059574439));
#767 = VECTOR('',#768,1.);
#768 = DIRECTION('',(0.,-3.371747939185E-07,-1.));
#769 = ORIENTED_EDGE('',*,*,#615,.T.);
#770 = ORIENTED_EDGE('',*,*,#680,.F.);
#771 = ORIENTED_EDGE('',*,*,#495,.F.);
#772 = ORIENTED_EDGE('',*,*,#773,.F.);
#773 = EDGE_CURVE('',#71,#488,#774,.T.);
#774 = LINE('',#775,#776);
#775 = CARTESIAN_POINT('',(18.934829145042,50.000008280356,
    -5.350060773931));
#776 = VECTOR('',#777,1.);
#777 = DIRECTION('',(0.,3.371747939347E-07,1.));
#778 = ORIENTED_EDGE('',*,*,#78,.F.);
#779 = PLANE('',#780);
#780 = AXIS2_PLACEMENT_3D('',#781,#782,#783);
#781 = CARTESIAN_POINT('',(20.319329628097,49.116341012031,
    -5.59600303364));
#782 = DIRECTION('',(-0.538010999546,-0.842937817616,2.842173828553E-07)
  );
#783 = DIRECTION('',(-0.842937817616,0.538010999546,0.));
#784 = ADVANCED_FACE('',(#785),#793,.T.);
#785 = FACE_BOUND('',#786,.T.);
#786 = EDGE_LOOP('',(#787,#788,#789,#790,#791,#792));
#787 = ORIENTED_EDGE('',*,*,#400,.F.);
#788 = ORIENTED_EDGE('',*,*,#70,.T.);
#789 = ORIENTED_EDGE('',*,*,#773,.T.);
#790 = ORIENTED_EDGE('',*,*,#487,.F.);
#791 = ORIENTED_EDGE('',*,*,#697,.T.);
#792 = ORIENTED_EDGE('',*,*,#745,.F.);
#793 = PLANE('',#794);
#794 = AXIS2_PLACEMENT_3D('',#795,#796,#797);
#795 = CARTESIAN_POINT('',(3.481072811062,50.000008834991,-3.70511503539
    ));
#796 = DIRECTION('',(0.,-1.,3.371747942081E-07));
#797 = DIRECTION('',(0.,-3.371747942081E-07,-1.));
#798 = ADVANCED_FACE('',(#799),#810,.T.);
#799 = FACE_BOUND('',#800,.T.);
#800 = EDGE_LOOP('',(#801,#802,#803,#804));
#801 = ORIENTED_EDGE('',*,*,#263,.F.);
#802 = ORIENTED_EDGE('',*,*,#448,.T.);
#803 = ORIENTED_EDGE('',*,*,#599,.T.);
#804 = ORIENTED_EDGE('',*,*,#805,.F.);
#805 = EDGE_CURVE('',#264,#600,#806,.T.);
#806 = LINE('',#807,#808);
#807 = CARTESIAN_POINT('',(23.349081,78.19962320762,-2.35007028213));
#808 = VECTOR('',#809,1.);
#809 = DIRECTION('',(0.,3.371747939355E-07,1.));
#810 = PLANE('',#811);
#811 = AXIS2_PLACEMENT_3D('',#812,#813,#814);
#812 = CARTESIAN_POINT('',(6.343253,78.199621976932,-6.00007028213));
#813 = DIRECTION('',(0.,1.,-3.371747942025E-07));
#814 = DIRECTION('',(0.,3.371747942025E-07,1.));
#815 = ADVANCED_FACE('',(#816),#824,.T.);
#816 = FACE_BOUND('',#817,.T.);
#817 = EDGE_LOOP('',(#818,#819,#820,#821,#822,#823));
#818 = ORIENTED_EDGE('',*,*,#764,.T.);
#819 = ORIENTED_EDGE('',*,*,#109,.T.);
#820 = ORIENTED_EDGE('',*,*,#378,.T.);
#821 = ORIENTED_EDGE('',*,*,#271,.F.);
#822 = ORIENTED_EDGE('',*,*,#805,.T.);
#823 = ORIENTED_EDGE('',*,*,#607,.T.);
#824 = PLANE('',#825);
#825 = AXIS2_PLACEMENT_3D('',#826,#827,#828);
#826 = CARTESIAN_POINT('',(23.928444720032,62.331477742077,
    -5.98965623937));
#827 = DIRECTION('',(0.99933413471,3.648680861122E-02,
    -1.230243238822E-08));
#828 = DIRECTION('',(-3.648680861122E-02,0.99933413471,
    -5.169878828456E-26));
#829 = ( GEOMETRIC_REPRESENTATION_CONTEXT(3) 
GLOBAL_UNCERTAINTY_ASSIGNED_CONTEXT((#833)) GLOBAL_UNIT_ASSIGNED_CONTEXT
((#830,#831,#832)) REPRESENTATION_CONTEXT('Context #1',
  '3D Context with UNIT and UNCERTAINTY') );
#830 = ( LENGTH_UNIT() NAMED_UNIT(*) SI_UNIT(.MILLI.,.METRE.) );
#831 = ( NAMED_UNIT(*) PLANE_ANGLE_UNIT() SI_UNIT($,.RADIAN.) );
#832 = ( NAMED_UNIT(*) SI_UNIT($,.STERADIAN.) SOLID_ANGLE_UNIT() );
#833 = UNCERTAINTY_MEASURE_WITH_UNIT(LENGTH_MEASURE(1.E-07),#830,
  'distance_accuracy_value','confusion accuracy');
#834 = PRODUCT_RELATED_PRODUCT_CATEGORY('part',$,(#7));
#835 = MECHANICAL_DESIGN_GEOMETRIC_PRESENTATION_REPRESENTATION('',(#836)
  ,#829);
#836 = STYLED_ITEM('color',(#837),#15);
#837 = PRESENTATION_STYLE_ASSIGNMENT((#838,#844));
#838 = SURFACE_STYLE_USAGE(.BOTH.,#839);
#839 = SURFACE_SIDE_STYLE('',(#840));
#840 = SURFACE_STYLE_FILL_AREA(#841);
#841 = FILL_AREA_STYLE('',(#842));
#842 = FILL_AREA_STYLE_COLOUR('',#843);
#843 = COLOUR_RGB('',0.447058818107,0.474509808674,0.501960817233);
#844 = CURVE_STYLE('',#845,POSITIVE_LENGTH_MEASURE(0.1),#846);
#845 = DRAUGHTING_PRE_DEFINED_CURVE_FONT('continuous');
#846 = COLOUR_RGB('',9.803921802644E-02,9.803921802644E-02,
  9.803921802644E-02);
ENDSEC;
END-ISO-10303-21;
