ISO-10303-21;
HEADER;
FILE_DESCRIPTION(('FreeCAD Model'),'2;1');
FILE_NAME('Open CASCADE Shape Model','2026-09-03T18:13:19',(''),(''),
  'Open CASCADE STEP processor 7.9','FreeCAD','Unknown');
FILE_SCHEMA(('AUTOMOTIVE_DESIGN { 1 0 10303 214 1 1 1 1 }'));
ENDSEC;
DATA;
#1 = APPLICATION_PROTOCOL_DEFINITION('international standard',
  'automotive_design',2000,#2);
#2 = APPLICATION_CONTEXT(
  'core data for automotive mechanical design processes');
#3 = SHAPE_DEFINITION_REPRESENTATION(#4,#10);
#4 = PRODUCT_DEFINITION_SHAPE('','',#5);
#5 = PRODUCT_DEFINITION('design','',#6,#9);
#6 = PRODUCT_DEFINITION_FORMATION('','',#7);
#7 = PRODUCT('Pad008','Pad008','',(#8));
#8 = PRODUCT_CONTEXT('',#2,'mechanical');
#9 = PRODUCT_DEFINITION_CONTEXT('part definition',#2,'design');
#10 = ADVANCED_BREP_SHAPE_REPRESENTATION('',(#11,#15),#763);
#11 = AXIS2_PLACEMENT_3D('',#12,#13,#14);
#12 = CARTESIAN_POINT('',(0.,0.,0.));
#13 = DIRECTION('',(0.,0.,1.));
#14 = DIRECTION('',(1.,0.,-0.));
#15 = MANIFOLD_SOLID_BREP('',#16);
#16 = CLOSED_SHELL('',(#17,#115,#146,#227,#244,#261,#278,#295,#312,#329,
    #376,#455,#479,#503,#520,#551,#575,#599,#623,#647,#690,#713,#732,
    #749));
#17 = ADVANCED_FACE('',(#18),#110,.F.);
#18 = FACE_BOUND('',#19,.F.);
#19 = EDGE_LOOP('',(#20,#30,#38,#46,#54,#62,#70,#79,#87,#96,#104));
#20 = ORIENTED_EDGE('',*,*,#21,.T.);
#21 = EDGE_CURVE('',#22,#24,#26,.T.);
#22 = VERTEX_POINT('',#23);
#23 = CARTESIAN_POINT('',(-10.662575,61.095278623752,-9.350064514977));
#24 = VERTEX_POINT('',#25);
#25 = CARTESIAN_POINT('',(-10.662575,52.377596847398,-9.350061575594));
#26 = LINE('',#27,#28);
#27 = CARTESIAN_POINT('',(-10.662575,78.199620847396,-9.35007028213));
#28 = VECTOR('',#29,1.);
#29 = DIRECTION('',(0.,-1.,3.37174794E-07));
#30 = ORIENTED_EDGE('',*,*,#31,.T.);
#31 = EDGE_CURVE('',#24,#32,#34,.T.);
#32 = VERTEX_POINT('',#33);
#33 = CARTESIAN_POINT('',(15.2097,52.377596847398,-9.350061575594));
#34 = LINE('',#35,#36);
#35 = CARTESIAN_POINT('',(-10.662575,52.377596847398,-9.350061575594));
#36 = VECTOR('',#37,1.);
#37 = DIRECTION('',(1.,0.,0.));
#38 = ORIENTED_EDGE('',*,*,#39,.T.);
#39 = EDGE_CURVE('',#32,#40,#42,.T.);
#40 = VERTEX_POINT('',#41);
#41 = CARTESIAN_POINT('',(24.508568,46.442528847398,-9.350059574439));
#42 = LINE('',#43,#44);
#43 = CARTESIAN_POINT('',(15.2097,52.377596847398,-9.350061575594));
#44 = VECTOR('',#45,1.);
#45 = DIRECTION('',(0.842937817616,-0.538010999546,1.814037479416E-07));
#46 = ORIENTED_EDGE('',*,*,#47,.T.);
#47 = EDGE_CURVE('',#40,#48,#50,.T.);
#48 = VERTEX_POINT('',#49);
#49 = CARTESIAN_POINT('',(24.491666491351,46.905442847398,
    -9.350059730522));
#50 = LINE('',#51,#52);
#51 = CARTESIAN_POINT('',(24.508568,46.442528847398,-9.350059574439));
#52 = VECTOR('',#53,1.);
#53 = DIRECTION('',(-3.648680861122E-02,0.99933413471,
    -3.369502810081E-07));
#54 = ORIENTED_EDGE('',*,*,#55,.T.);
#55 = EDGE_CURVE('',#48,#56,#58,.T.);
#56 = VERTEX_POINT('',#57);
#57 = CARTESIAN_POINT('',(24.348437,46.917585847398,-9.350059734616));
#58 = LINE('',#59,#60);
#59 = CARTESIAN_POINT('',(24.491666491351,46.905442847398,
    -9.350059730522));
#60 = VECTOR('',#61,1.);
#61 = DIRECTION('',(-0.996425431663,8.447697399877E-02,
    -2.848350629818E-08));
#62 = ORIENTED_EDGE('',*,*,#63,.T.);
#63 = EDGE_CURVE('',#56,#64,#66,.T.);
#64 = VERTEX_POINT('',#65);
#65 = CARTESIAN_POINT('',(-3.768999941611,75.551971811184,-9.35006938941
    ));
#66 = LINE('',#67,#68);
#67 = CARTESIAN_POINT('',(24.348437,46.917585847398,-9.350059734616));
#68 = VECTOR('',#69,1.);
#69 = DIRECTION('',(-0.700636720744,0.713518174642,-2.40580343486E-07));
#70 = ORIENTED_EDGE('',*,*,#71,.F.);
#71 = EDGE_CURVE('',#72,#64,#74,.T.);
#72 = VERTEX_POINT('',#73);
#73 = CARTESIAN_POINT('',(-4.022241,75.65822148551,-9.350069425234));
#74 = CIRCLE('',#75,0.35491886176);
#75 = AXIS2_PLACEMENT_3D('',#76,#77,#78);
#76 = CARTESIAN_POINT('',(-4.022241,75.30330262375,-9.350069305565));
#77 = DIRECTION('',(-2.64697796017E-23,-3.3717479391E-07,-1.));
#78 = DIRECTION('',(0.700636721034,-0.713518174358,2.405803433901E-07));
#79 = ORIENTED_EDGE('',*,*,#80,.T.);
#80 = EDGE_CURVE('',#72,#81,#83,.T.);
#81 = VERTEX_POINT('',#82);
#82 = CARTESIAN_POINT('',(-9.544483,75.65822148551,-9.350069425234));
#83 = LINE('',#84,#85);
#84 = CARTESIAN_POINT('',(-4.022241,75.65822148551,-9.350069425234));
#85 = VECTOR('',#86,1.);
#86 = DIRECTION('',(-1.,-0.,0.));
#87 = ORIENTED_EDGE('',*,*,#88,.F.);
#88 = EDGE_CURVE('',#89,#81,#91,.T.);
#89 = VERTEX_POINT('',#90);
#90 = CARTESIAN_POINT('',(-9.89940186176,75.30330262375,-9.350069305565)
  );
#91 = CIRCLE('',#92,0.35491886176);
#92 = AXIS2_PLACEMENT_3D('',#93,#94,#95);
#93 = CARTESIAN_POINT('',(-9.544483,75.30330262375,-9.350069305565));
#94 = DIRECTION('',(0.,-3.3717479391E-07,-1.));
#95 = DIRECTION('',(1.,0.,0.));
#96 = ORIENTED_EDGE('',*,*,#97,.T.);
#97 = EDGE_CURVE('',#89,#98,#100,.T.);
#98 = VERTEX_POINT('',#99);
#99 = CARTESIAN_POINT('',(-9.89940186176,61.095278623752,-9.350064514977
    ));
#100 = LINE('',#101,#102);
#101 = CARTESIAN_POINT('',(-9.89940186176,75.30330262375,-9.350069305565
    ));
#102 = VECTOR('',#103,1.);
#103 = DIRECTION('',(0.,-1.,3.3717479391E-07));
#104 = ORIENTED_EDGE('',*,*,#105,.T.);
#105 = EDGE_CURVE('',#98,#22,#106,.T.);
#106 = LINE('',#107,#108);
#107 = CARTESIAN_POINT('',(-9.89940186176,61.095278623752,
    -9.350064514977));
#108 = VECTOR('',#109,1.);
#109 = DIRECTION('',(-1.,-0.,0.));
#110 = PLANE('',#111);
#111 = AXIS2_PLACEMENT_3D('',#112,#113,#114);
#112 = CARTESIAN_POINT('',(7.615643044941,64.009546759691,
    -9.350065497595));
#113 = DIRECTION('',(0.,3.3717479391E-07,1.));
#114 = DIRECTION('',(0.,1.,-3.3717479391E-07));
#115 = ADVANCED_FACE('',(#116),#141,.F.);
#116 = FACE_BOUND('',#117,.F.);
#117 = EDGE_LOOP('',(#118,#126,#134,#140));
#118 = ORIENTED_EDGE('',*,*,#119,.T.);
#119 = EDGE_CURVE('',#98,#120,#122,.T.);
#120 = VERTEX_POINT('',#121);
#121 = CARTESIAN_POINT('',(-9.89940186176,61.09527798312,-11.25006451497
    ));
#122 = LINE('',#123,#124);
#123 = CARTESIAN_POINT('',(-9.89940186176,61.095278623752,
    -9.350064514977));
#124 = VECTOR('',#125,1.);
#125 = DIRECTION('',(0.,-3.3717479391E-07,-1.));
#126 = ORIENTED_EDGE('',*,*,#127,.T.);
#127 = EDGE_CURVE('',#120,#128,#130,.T.);
#128 = VERTEX_POINT('',#129);
#129 = CARTESIAN_POINT('',(-10.662575,61.09527798312,-11.25006451497));
#130 = LINE('',#131,#132);
#131 = CARTESIAN_POINT('',(-9.89940186176,61.09527798312,-11.25006451497
    ));
#132 = VECTOR('',#133,1.);
#133 = DIRECTION('',(-1.,-0.,0.));
#134 = ORIENTED_EDGE('',*,*,#135,.F.);
#135 = EDGE_CURVE('',#22,#128,#136,.T.);
#136 = LINE('',#137,#138);
#137 = CARTESIAN_POINT('',(-10.662575,61.095278623752,-9.350064514977));
#138 = VECTOR('',#139,1.);
#139 = DIRECTION('',(0.,-3.3717479391E-07,-1.));
#140 = ORIENTED_EDGE('',*,*,#105,.F.);
#141 = PLANE('',#142);
#142 = AXIS2_PLACEMENT_3D('',#143,#144,#145);
#143 = CARTESIAN_POINT('',(-9.89940186176,61.095278623752,
    -9.350064514977));
#144 = DIRECTION('',(0.,1.,-3.3717479391E-07));
#145 = DIRECTION('',(-1.,0.,0.));
#146 = ADVANCED_FACE('',(#147),#222,.F.);
#147 = FACE_BOUND('',#148,.T.);
#148 = EDGE_LOOP('',(#149,#159,#168,#176,#185,#191,#192,#200,#208,#216)
  );
#149 = ORIENTED_EDGE('',*,*,#150,.T.);
#150 = EDGE_CURVE('',#151,#153,#155,.T.);
#151 = VERTEX_POINT('',#152);
#152 = CARTESIAN_POINT('',(24.348437,46.917585206766,-11.25005973461));
#153 = VERTEX_POINT('',#154);
#154 = CARTESIAN_POINT('',(-3.768999941611,75.551971170552,
    -11.2500693894));
#155 = LINE('',#156,#157);
#156 = CARTESIAN_POINT('',(24.348437,46.917585206766,-11.25005973461));
#157 = VECTOR('',#158,1.);
#158 = DIRECTION('',(-0.700636720744,0.713518174642,-2.40580343486E-07)
  );
#159 = ORIENTED_EDGE('',*,*,#160,.F.);
#160 = EDGE_CURVE('',#161,#153,#163,.T.);
#161 = VERTEX_POINT('',#162);
#162 = CARTESIAN_POINT('',(-4.022241,75.658220844878,-11.25006942523));
#163 = CIRCLE('',#164,0.35491886176);
#164 = AXIS2_PLACEMENT_3D('',#165,#166,#167);
#165 = CARTESIAN_POINT('',(-4.022241,75.303301983118,-11.25006930556));
#166 = DIRECTION('',(-2.64697796017E-23,-3.3717479391E-07,-1.));
#167 = DIRECTION('',(0.700636721034,-0.713518174358,2.405803433901E-07)
  );
#168 = ORIENTED_EDGE('',*,*,#169,.T.);
#169 = EDGE_CURVE('',#161,#170,#172,.T.);
#170 = VERTEX_POINT('',#171);
#171 = CARTESIAN_POINT('',(-9.544483,75.658220844878,-11.25006942523));
#172 = LINE('',#173,#174);
#173 = CARTESIAN_POINT('',(-4.022241,75.658220844878,-11.25006942523));
#174 = VECTOR('',#175,1.);
#175 = DIRECTION('',(-1.,-0.,0.));
#176 = ORIENTED_EDGE('',*,*,#177,.F.);
#177 = EDGE_CURVE('',#178,#170,#180,.T.);
#178 = VERTEX_POINT('',#179);
#179 = CARTESIAN_POINT('',(-9.89940186176,75.303301983118,
    -11.25006930556));
#180 = CIRCLE('',#181,0.35491886176);
#181 = AXIS2_PLACEMENT_3D('',#182,#183,#184);
#182 = CARTESIAN_POINT('',(-9.544483,75.303301983118,-11.25006930556));
#183 = DIRECTION('',(0.,-3.3717479391E-07,-1.));
#184 = DIRECTION('',(1.,0.,0.));
#185 = ORIENTED_EDGE('',*,*,#186,.T.);
#186 = EDGE_CURVE('',#178,#120,#187,.T.);
#187 = LINE('',#188,#189);
#188 = CARTESIAN_POINT('',(-9.89940186176,75.303301983118,
    -11.25006930556));
#189 = VECTOR('',#190,1.);
#190 = DIRECTION('',(0.,-1.,3.3717479391E-07));
#191 = ORIENTED_EDGE('',*,*,#127,.T.);
#192 = ORIENTED_EDGE('',*,*,#193,.T.);
#193 = EDGE_CURVE('',#128,#194,#196,.T.);
#194 = VERTEX_POINT('',#195);
#195 = CARTESIAN_POINT('',(-10.662575,78.199620206764,-11.25007028213));
#196 = LINE('',#197,#198);
#197 = CARTESIAN_POINT('',(-10.662575,61.09527798312,-11.25006451497));
#198 = VECTOR('',#199,1.);
#199 = DIRECTION('',(0.,1.,-3.3717479391E-07));
#200 = ORIENTED_EDGE('',*,*,#201,.T.);
#201 = EDGE_CURVE('',#194,#202,#204,.T.);
#202 = VERTEX_POINT('',#203);
#203 = CARTESIAN_POINT('',(23.349081,78.199620206764,-11.25007028213));
#204 = LINE('',#205,#206);
#205 = CARTESIAN_POINT('',(-10.662575,78.199620206764,-11.25007028213));
#206 = VECTOR('',#207,1.);
#207 = DIRECTION('',(1.,0.,0.));
#208 = ORIENTED_EDGE('',*,*,#209,.T.);
#209 = EDGE_CURVE('',#202,#210,#212,.T.);
#210 = VERTEX_POINT('',#211);
#211 = CARTESIAN_POINT('',(24.491666491351,46.905442206766,
    -11.25005973052));
#212 = LINE('',#213,#214);
#213 = CARTESIAN_POINT('',(23.349081,78.199620206764,-11.25007028213));
#214 = VECTOR('',#215,1.);
#215 = DIRECTION('',(3.648680861122E-02,-0.99933413471,
    3.369502809182E-07));
#216 = ORIENTED_EDGE('',*,*,#217,.T.);
#217 = EDGE_CURVE('',#210,#151,#218,.T.);
#218 = LINE('',#219,#220);
#219 = CARTESIAN_POINT('',(24.491666491351,46.905442206766,
    -11.25005973052));
#220 = VECTOR('',#221,1.);
#221 = DIRECTION('',(-0.996425431663,8.447697399877E-02,
    -2.848350629818E-08));
#222 = PLANE('',#223);
#223 = AXIS2_PLACEMENT_3D('',#224,#225,#226);
#224 = CARTESIAN_POINT('',(6.987713006667,67.834138402994,
    -11.25006678715));
#225 = DIRECTION('',(0.,3.371747938798E-07,1.));
#226 = DIRECTION('',(0.,1.,-3.371747938798E-07));
#227 = ADVANCED_FACE('',(#228),#239,.F.);
#228 = FACE_BOUND('',#229,.F.);
#229 = EDGE_LOOP('',(#230,#236,#237,#238));
#230 = ORIENTED_EDGE('',*,*,#231,.T.);
#231 = EDGE_CURVE('',#89,#178,#232,.T.);
#232 = LINE('',#233,#234);
#233 = CARTESIAN_POINT('',(-9.89940186176,75.30330262375,-9.350069305565
    ));
#234 = VECTOR('',#235,1.);
#235 = DIRECTION('',(0.,-3.3717479391E-07,-1.));
#236 = ORIENTED_EDGE('',*,*,#186,.T.);
#237 = ORIENTED_EDGE('',*,*,#119,.F.);
#238 = ORIENTED_EDGE('',*,*,#97,.F.);
#239 = PLANE('',#240);
#240 = AXIS2_PLACEMENT_3D('',#241,#242,#243);
#241 = CARTESIAN_POINT('',(-9.89940186176,75.30330262375,-9.350069305565
    ));
#242 = DIRECTION('',(-1.,0.,0.));
#243 = DIRECTION('',(0.,-1.,3.3717479391E-07));
#244 = ADVANCED_FACE('',(#245),#256,.F.);
#245 = FACE_BOUND('',#246,.T.);
#246 = EDGE_LOOP('',(#247,#248,#249,#255));
#247 = ORIENTED_EDGE('',*,*,#231,.T.);
#248 = ORIENTED_EDGE('',*,*,#177,.T.);
#249 = ORIENTED_EDGE('',*,*,#250,.F.);
#250 = EDGE_CURVE('',#81,#170,#251,.T.);
#251 = LINE('',#252,#253);
#252 = CARTESIAN_POINT('',(-9.544483,75.65822148551,-9.350069425234));
#253 = VECTOR('',#254,1.);
#254 = DIRECTION('',(0.,-3.3717479391E-07,-1.));
#255 = ORIENTED_EDGE('',*,*,#88,.F.);
#256 = CYLINDRICAL_SURFACE('',#257,0.35491886176);
#257 = AXIS2_PLACEMENT_3D('',#258,#259,#260);
#258 = CARTESIAN_POINT('',(-9.544483,75.30330262375,-9.350069305565));
#259 = DIRECTION('',(0.,3.3717479391E-07,1.));
#260 = DIRECTION('',(1.,0.,0.));
#261 = ADVANCED_FACE('',(#262),#273,.F.);
#262 = FACE_BOUND('',#263,.F.);
#263 = EDGE_LOOP('',(#264,#270,#271,#272));
#264 = ORIENTED_EDGE('',*,*,#265,.T.);
#265 = EDGE_CURVE('',#72,#161,#266,.T.);
#266 = LINE('',#267,#268);
#267 = CARTESIAN_POINT('',(-4.022241,75.65822148551,-9.350069425234));
#268 = VECTOR('',#269,1.);
#269 = DIRECTION('',(0.,-3.3717479391E-07,-1.));
#270 = ORIENTED_EDGE('',*,*,#169,.T.);
#271 = ORIENTED_EDGE('',*,*,#250,.F.);
#272 = ORIENTED_EDGE('',*,*,#80,.F.);
#273 = PLANE('',#274);
#274 = AXIS2_PLACEMENT_3D('',#275,#276,#277);
#275 = CARTESIAN_POINT('',(-4.022241,75.65822148551,-9.350069425234));
#276 = DIRECTION('',(0.,1.,-3.3717479391E-07));
#277 = DIRECTION('',(-1.,0.,0.));
#278 = ADVANCED_FACE('',(#279),#290,.F.);
#279 = FACE_BOUND('',#280,.T.);
#280 = EDGE_LOOP('',(#281,#282,#283,#289));
#281 = ORIENTED_EDGE('',*,*,#265,.T.);
#282 = ORIENTED_EDGE('',*,*,#160,.T.);
#283 = ORIENTED_EDGE('',*,*,#284,.F.);
#284 = EDGE_CURVE('',#64,#153,#285,.T.);
#285 = LINE('',#286,#287);
#286 = CARTESIAN_POINT('',(-3.768999941611,75.551971811184,
    -9.35006938941));
#287 = VECTOR('',#288,1.);
#288 = DIRECTION('',(0.,-3.3717479391E-07,-1.));
#289 = ORIENTED_EDGE('',*,*,#71,.F.);
#290 = CYLINDRICAL_SURFACE('',#291,0.35491886176);
#291 = AXIS2_PLACEMENT_3D('',#292,#293,#294);
#292 = CARTESIAN_POINT('',(-4.022241,75.30330262375,-9.350069305565));
#293 = DIRECTION('',(2.64697796017E-23,3.3717479391E-07,1.));
#294 = DIRECTION('',(0.700636721034,-0.713518174358,2.405803433901E-07)
  );
#295 = ADVANCED_FACE('',(#296),#307,.F.);
#296 = FACE_BOUND('',#297,.F.);
#297 = EDGE_LOOP('',(#298,#304,#305,#306));
#298 = ORIENTED_EDGE('',*,*,#299,.T.);
#299 = EDGE_CURVE('',#56,#151,#300,.T.);
#300 = LINE('',#301,#302);
#301 = CARTESIAN_POINT('',(24.348437,46.917585847398,-9.350059734616));
#302 = VECTOR('',#303,1.);
#303 = DIRECTION('',(0.,-3.3717479391E-07,-1.));
#304 = ORIENTED_EDGE('',*,*,#150,.T.);
#305 = ORIENTED_EDGE('',*,*,#284,.F.);
#306 = ORIENTED_EDGE('',*,*,#63,.F.);
#307 = PLANE('',#308);
#308 = AXIS2_PLACEMENT_3D('',#309,#310,#311);
#309 = CARTESIAN_POINT('',(24.348437,46.917585847398,-9.350059734616));
#310 = DIRECTION('',(0.713518174642,0.700636720744,-2.362370419227E-07)
  );
#311 = DIRECTION('',(-0.700636720744,0.713518174642,-2.40580343486E-07)
  );
#312 = ADVANCED_FACE('',(#313),#324,.F.);
#313 = FACE_BOUND('',#314,.F.);
#314 = EDGE_LOOP('',(#315,#321,#322,#323));
#315 = ORIENTED_EDGE('',*,*,#316,.T.);
#316 = EDGE_CURVE('',#48,#210,#317,.T.);
#317 = LINE('',#318,#319);
#318 = CARTESIAN_POINT('',(24.491666491351,46.905442847398,
    -9.350059730522));
#319 = VECTOR('',#320,1.);
#320 = DIRECTION('',(0.,-3.3717479391E-07,-1.));
#321 = ORIENTED_EDGE('',*,*,#217,.T.);
#322 = ORIENTED_EDGE('',*,*,#299,.F.);
#323 = ORIENTED_EDGE('',*,*,#55,.F.);
#324 = PLANE('',#325);
#325 = AXIS2_PLACEMENT_3D('',#326,#327,#328);
#326 = CARTESIAN_POINT('',(24.491666491351,46.905442847398,
    -9.350059730522));
#327 = DIRECTION('',(8.447697399877E-02,0.996425431663,
    -3.359695395675E-07));
#328 = DIRECTION('',(-0.996425431663,8.447697399877E-02,
    -2.848350629818E-08));
#329 = ADVANCED_FACE('',(#330),#371,.T.);
#330 = FACE_BOUND('',#331,.T.);
#331 = EDGE_LOOP('',(#332,#333,#341,#349,#357,#365));
#332 = ORIENTED_EDGE('',*,*,#31,.T.);
#333 = ORIENTED_EDGE('',*,*,#334,.F.);
#334 = EDGE_CURVE('',#335,#32,#337,.T.);
#335 = VERTEX_POINT('',#336);
#336 = CARTESIAN_POINT('',(15.2097,52.377599207621,-2.350061575595));
#337 = LINE('',#338,#339);
#338 = CARTESIAN_POINT('',(15.2097,52.377599207621,-2.350061575595));
#339 = VECTOR('',#340,1.);
#340 = DIRECTION('',(0.,-3.3717479392E-07,-1.));
#341 = ORIENTED_EDGE('',*,*,#342,.F.);
#342 = EDGE_CURVE('',#343,#335,#345,.T.);
#343 = VERTEX_POINT('',#344);
#344 = CARTESIAN_POINT('',(-9.028031,52.377599207621,-2.350061575595));
#345 = LINE('',#346,#347);
#346 = CARTESIAN_POINT('',(-10.662575,52.377599207621,-2.350061575595));
#347 = VECTOR('',#348,1.);
#348 = DIRECTION('',(1.,0.,0.));
#349 = ORIENTED_EDGE('',*,*,#350,.T.);
#350 = EDGE_CURVE('',#343,#351,#353,.T.);
#351 = VERTEX_POINT('',#352);
#352 = CARTESIAN_POINT('',(-9.028031,52.377599544796,-1.350061575595));
#353 = LINE('',#354,#355);
#354 = CARTESIAN_POINT('',(-9.028031,52.377599207621,-2.350061575595));
#355 = VECTOR('',#356,1.);
#356 = DIRECTION('',(0.,3.3717479391E-07,1.));
#357 = ORIENTED_EDGE('',*,*,#358,.F.);
#358 = EDGE_CURVE('',#359,#351,#361,.T.);
#359 = VERTEX_POINT('',#360);
#360 = CARTESIAN_POINT('',(-10.662575,52.377599544796,-1.350061575595));
#361 = LINE('',#362,#363);
#362 = CARTESIAN_POINT('',(-10.662575,52.377599544796,-1.350061575595));
#363 = VECTOR('',#364,1.);
#364 = DIRECTION('',(1.,0.,0.));
#365 = ORIENTED_EDGE('',*,*,#366,.F.);
#366 = EDGE_CURVE('',#24,#359,#367,.T.);
#367 = LINE('',#368,#369);
#368 = CARTESIAN_POINT('',(-10.662575,52.377599207621,-2.350061575595));
#369 = VECTOR('',#370,1.);
#370 = DIRECTION('',(0.,3.3717479391E-07,1.));
#371 = PLANE('',#372);
#372 = AXIS2_PLACEMENT_3D('',#373,#374,#375);
#373 = CARTESIAN_POINT('',(1.915781231987,52.377598075462,
    -5.707842843608));
#374 = DIRECTION('',(-0.,-1.,3.371747935224E-07));
#375 = DIRECTION('',(0.,-3.371747935224E-07,-1.));
#376 = ADVANCED_FACE('',(#377),#450,.T.);
#377 = FACE_BOUND('',#378,.T.);
#378 = EDGE_LOOP('',(#379,#387,#388,#396,#404,#412,#420,#428,#436,#444)
  );
#379 = ORIENTED_EDGE('',*,*,#380,.F.);
#380 = EDGE_CURVE('',#343,#381,#383,.T.);
#381 = VERTEX_POINT('',#382);
#382 = CARTESIAN_POINT('',(-9.028031,58.527699207621,-2.350063649253));
#383 = LINE('',#384,#385);
#384 = CARTESIAN_POINT('',(-9.028031,52.377599207621,-2.350061575595));
#385 = VECTOR('',#386,1.);
#386 = DIRECTION('',(0.,1.,-3.3717479391E-07));
#387 = ORIENTED_EDGE('',*,*,#342,.T.);
#388 = ORIENTED_EDGE('',*,*,#389,.T.);
#389 = EDGE_CURVE('',#335,#390,#392,.T.);
#390 = VERTEX_POINT('',#391);
#391 = CARTESIAN_POINT('',(19.285135,49.776424112483,-2.350060698544));
#392 = LINE('',#393,#394);
#393 = CARTESIAN_POINT('',(15.2097,52.377599207621,-2.350061575595));
#394 = VECTOR('',#395,1.);
#395 = DIRECTION('',(0.842937817616,-0.538010999546,1.814037479416E-07)
  );
#396 = ORIENTED_EDGE('',*,*,#397,.F.);
#397 = EDGE_CURVE('',#398,#390,#400,.T.);
#398 = VERTEX_POINT('',#399);
#399 = CARTESIAN_POINT('',(21.4529,49.766499207622,-2.350060695198));
#400 = LINE('',#401,#402);
#401 = CARTESIAN_POINT('',(21.4529,49.766499207622,-2.350060695198));
#402 = VECTOR('',#403,1.);
#403 = DIRECTION('',(-0.999989519271,4.578356436836E-03,
    -1.543706388037E-09));
#404 = ORIENTED_EDGE('',*,*,#405,.F.);
#405 = EDGE_CURVE('',#406,#398,#408,.T.);
#406 = VERTEX_POINT('',#407);
#407 = CARTESIAN_POINT('',(21.4529,77.23229920762,-2.350069955973));
#408 = LINE('',#409,#410);
#409 = CARTESIAN_POINT('',(21.4529,77.23229920762,-2.350069955973));
#410 = VECTOR('',#411,1.);
#411 = DIRECTION('',(0.,-1.,3.3717479391E-07));
#412 = ORIENTED_EDGE('',*,*,#413,.F.);
#413 = EDGE_CURVE('',#414,#406,#416,.T.);
#414 = VERTEX_POINT('',#415);
#415 = CARTESIAN_POINT('',(-9.028031,77.23229920762,-2.350069955973));
#416 = LINE('',#417,#418);
#417 = CARTESIAN_POINT('',(-9.028031,77.23229920762,-2.350069955973));
#418 = VECTOR('',#419,1.);
#419 = DIRECTION('',(1.,0.,0.));
#420 = ORIENTED_EDGE('',*,*,#421,.F.);
#421 = EDGE_CURVE('',#422,#414,#424,.T.);
#422 = VERTEX_POINT('',#423);
#423 = CARTESIAN_POINT('',(-9.028031,70.74503920762,-2.350067768633));
#424 = LINE('',#425,#426);
#425 = CARTESIAN_POINT('',(-9.028031,70.74503920762,-2.350067768633));
#426 = VECTOR('',#427,1.);
#427 = DIRECTION('',(0.,1.,-3.3717479391E-07));
#428 = ORIENTED_EDGE('',*,*,#429,.F.);
#429 = EDGE_CURVE('',#430,#422,#432,.T.);
#430 = VERTEX_POINT('',#431);
#431 = CARTESIAN_POINT('',(-10.662575,70.74503920762,-2.350067768633));
#432 = LINE('',#433,#434);
#433 = CARTESIAN_POINT('',(-10.662575,70.74503920762,-2.350067768633));
#434 = VECTOR('',#435,1.);
#435 = DIRECTION('',(1.,0.,0.));
#436 = ORIENTED_EDGE('',*,*,#437,.T.);
#437 = EDGE_CURVE('',#430,#438,#440,.T.);
#438 = VERTEX_POINT('',#439);
#439 = CARTESIAN_POINT('',(-10.662575,58.527699207621,-2.350063649253));
#440 = LINE('',#441,#442);
#441 = CARTESIAN_POINT('',(-10.662575,78.19962320762,-2.35007028213));
#442 = VECTOR('',#443,1.);
#443 = DIRECTION('',(0.,-1.,3.37174794E-07));
#444 = ORIENTED_EDGE('',*,*,#445,.F.);
#445 = EDGE_CURVE('',#381,#438,#446,.T.);
#446 = LINE('',#447,#448);
#447 = CARTESIAN_POINT('',(-9.028031,58.527699207621,-2.350063649253));
#448 = VECTOR('',#449,1.);
#449 = DIRECTION('',(-1.,0.,0.));
#450 = PLANE('',#451);
#451 = AXIS2_PLACEMENT_3D('',#452,#453,#454);
#452 = CARTESIAN_POINT('',(7.615643044941,64.009549119915,
    -2.350065497595));
#453 = DIRECTION('',(0.,3.3717479391E-07,1.));
#454 = DIRECTION('',(0.,1.,-3.3717479391E-07));
#455 = ADVANCED_FACE('',(#456),#474,.F.);
#456 = FACE_BOUND('',#457,.F.);
#457 = EDGE_LOOP('',(#458,#459,#467,#473));
#458 = ORIENTED_EDGE('',*,*,#350,.T.);
#459 = ORIENTED_EDGE('',*,*,#460,.T.);
#460 = EDGE_CURVE('',#351,#461,#463,.T.);
#461 = VERTEX_POINT('',#462);
#462 = CARTESIAN_POINT('',(-9.028031,58.527699544796,-1.350063649254));
#463 = LINE('',#464,#465);
#464 = CARTESIAN_POINT('',(-9.028031,52.377599544796,-1.350061575595));
#465 = VECTOR('',#466,1.);
#466 = DIRECTION('',(0.,1.,-3.3717479391E-07));
#467 = ORIENTED_EDGE('',*,*,#468,.F.);
#468 = EDGE_CURVE('',#381,#461,#469,.T.);
#469 = LINE('',#470,#471);
#470 = CARTESIAN_POINT('',(-9.028031,58.527699207621,-2.350063649253));
#471 = VECTOR('',#472,1.);
#472 = DIRECTION('',(0.,3.3717479391E-07,1.));
#473 = ORIENTED_EDGE('',*,*,#380,.F.);
#474 = PLANE('',#475);
#475 = AXIS2_PLACEMENT_3D('',#476,#477,#478);
#476 = CARTESIAN_POINT('',(-9.028031,52.377599207621,-2.350061575595));
#477 = DIRECTION('',(-1.,0.,0.));
#478 = DIRECTION('',(0.,1.,-3.3717479391E-07));
#479 = ADVANCED_FACE('',(#480),#498,.T.);
#480 = FACE_BOUND('',#481,.T.);
#481 = EDGE_LOOP('',(#482,#483,#484,#492));
#482 = ORIENTED_EDGE('',*,*,#358,.T.);
#483 = ORIENTED_EDGE('',*,*,#460,.T.);
#484 = ORIENTED_EDGE('',*,*,#485,.T.);
#485 = EDGE_CURVE('',#461,#486,#488,.T.);
#486 = VERTEX_POINT('',#487);
#487 = CARTESIAN_POINT('',(-10.662575,58.527699544796,-1.350063649254));
#488 = LINE('',#489,#490);
#489 = CARTESIAN_POINT('',(-9.028031,58.527699544796,-1.350063649254));
#490 = VECTOR('',#491,1.);
#491 = DIRECTION('',(-1.,0.,0.));
#492 = ORIENTED_EDGE('',*,*,#493,.T.);
#493 = EDGE_CURVE('',#486,#359,#494,.T.);
#494 = LINE('',#495,#496);
#495 = CARTESIAN_POINT('',(-10.662575,58.527699544796,-1.350063649254));
#496 = VECTOR('',#497,1.);
#497 = DIRECTION('',(0.,-1.,3.3717479391E-07));
#498 = PLANE('',#499);
#499 = AXIS2_PLACEMENT_3D('',#500,#501,#502);
#500 = CARTESIAN_POINT('',(9.967468398907,68.353436130876,
    -1.350066962244));
#501 = DIRECTION('',(0.,3.371747939097E-07,1.));
#502 = DIRECTION('',(0.,1.,-3.371747939097E-07));
#503 = ADVANCED_FACE('',(#504),#515,.F.);
#504 = FACE_BOUND('',#505,.F.);
#505 = EDGE_LOOP('',(#506,#507,#508,#514));
#506 = ORIENTED_EDGE('',*,*,#468,.T.);
#507 = ORIENTED_EDGE('',*,*,#485,.T.);
#508 = ORIENTED_EDGE('',*,*,#509,.F.);
#509 = EDGE_CURVE('',#438,#486,#510,.T.);
#510 = LINE('',#511,#512);
#511 = CARTESIAN_POINT('',(-10.662575,58.527699207621,-2.350063649253));
#512 = VECTOR('',#513,1.);
#513 = DIRECTION('',(0.,3.3717479391E-07,1.));
#514 = ORIENTED_EDGE('',*,*,#445,.F.);
#515 = PLANE('',#516);
#516 = AXIS2_PLACEMENT_3D('',#517,#518,#519);
#517 = CARTESIAN_POINT('',(-9.028031,58.527699207621,-2.350063649253));
#518 = DIRECTION('',(0.,-1.,3.3717479391E-07));
#519 = DIRECTION('',(-1.,0.,0.));
#520 = ADVANCED_FACE('',(#521),#546,.F.);
#521 = FACE_BOUND('',#522,.F.);
#522 = EDGE_LOOP('',(#523,#531,#539,#545));
#523 = ORIENTED_EDGE('',*,*,#524,.T.);
#524 = EDGE_CURVE('',#430,#525,#527,.T.);
#525 = VERTEX_POINT('',#526);
#526 = CARTESIAN_POINT('',(-10.662575,70.745039544795,-1.350067768633));
#527 = LINE('',#528,#529);
#528 = CARTESIAN_POINT('',(-10.662575,70.74503920762,-2.350067768633));
#529 = VECTOR('',#530,1.);
#530 = DIRECTION('',(0.,3.3717479391E-07,1.));
#531 = ORIENTED_EDGE('',*,*,#532,.T.);
#532 = EDGE_CURVE('',#525,#533,#535,.T.);
#533 = VERTEX_POINT('',#534);
#534 = CARTESIAN_POINT('',(-9.028031,70.745039544795,-1.350067768633));
#535 = LINE('',#536,#537);
#536 = CARTESIAN_POINT('',(-10.662575,70.745039544795,-1.350067768633));
#537 = VECTOR('',#538,1.);
#538 = DIRECTION('',(1.,0.,0.));
#539 = ORIENTED_EDGE('',*,*,#540,.F.);
#540 = EDGE_CURVE('',#422,#533,#541,.T.);
#541 = LINE('',#542,#543);
#542 = CARTESIAN_POINT('',(-9.028031,70.74503920762,-2.350067768633));
#543 = VECTOR('',#544,1.);
#544 = DIRECTION('',(0.,3.3717479391E-07,1.));
#545 = ORIENTED_EDGE('',*,*,#429,.F.);
#546 = PLANE('',#547);
#547 = AXIS2_PLACEMENT_3D('',#548,#549,#550);
#548 = CARTESIAN_POINT('',(-10.662575,70.74503920762,-2.350067768633));
#549 = DIRECTION('',(0.,1.,-3.3717479391E-07));
#550 = DIRECTION('',(1.,0.,0.));
#551 = ADVANCED_FACE('',(#552),#570,.F.);
#552 = FACE_BOUND('',#553,.F.);
#553 = EDGE_LOOP('',(#554,#555,#563,#569));
#554 = ORIENTED_EDGE('',*,*,#540,.T.);
#555 = ORIENTED_EDGE('',*,*,#556,.T.);
#556 = EDGE_CURVE('',#533,#557,#559,.T.);
#557 = VERTEX_POINT('',#558);
#558 = CARTESIAN_POINT('',(-9.028031,77.232299544795,-1.350069955973));
#559 = LINE('',#560,#561);
#560 = CARTESIAN_POINT('',(-9.028031,70.745039544795,-1.350067768633));
#561 = VECTOR('',#562,1.);
#562 = DIRECTION('',(0.,1.,-3.3717479391E-07));
#563 = ORIENTED_EDGE('',*,*,#564,.F.);
#564 = EDGE_CURVE('',#414,#557,#565,.T.);
#565 = LINE('',#566,#567);
#566 = CARTESIAN_POINT('',(-9.028031,77.23229920762,-2.350069955973));
#567 = VECTOR('',#568,1.);
#568 = DIRECTION('',(0.,3.3717479391E-07,1.));
#569 = ORIENTED_EDGE('',*,*,#421,.F.);
#570 = PLANE('',#571);
#571 = AXIS2_PLACEMENT_3D('',#572,#573,#574);
#572 = CARTESIAN_POINT('',(-9.028031,70.74503920762,-2.350067768633));
#573 = DIRECTION('',(-1.,0.,0.));
#574 = DIRECTION('',(0.,1.,-3.3717479391E-07));
#575 = ADVANCED_FACE('',(#576),#594,.F.);
#576 = FACE_BOUND('',#577,.F.);
#577 = EDGE_LOOP('',(#578,#579,#587,#593));
#578 = ORIENTED_EDGE('',*,*,#564,.T.);
#579 = ORIENTED_EDGE('',*,*,#580,.T.);
#580 = EDGE_CURVE('',#557,#581,#583,.T.);
#581 = VERTEX_POINT('',#582);
#582 = CARTESIAN_POINT('',(21.4529,77.232299544795,-1.350069955973));
#583 = LINE('',#584,#585);
#584 = CARTESIAN_POINT('',(-9.028031,77.232299544795,-1.350069955973));
#585 = VECTOR('',#586,1.);
#586 = DIRECTION('',(1.,0.,0.));
#587 = ORIENTED_EDGE('',*,*,#588,.F.);
#588 = EDGE_CURVE('',#406,#581,#589,.T.);
#589 = LINE('',#590,#591);
#590 = CARTESIAN_POINT('',(21.4529,77.23229920762,-2.350069955973));
#591 = VECTOR('',#592,1.);
#592 = DIRECTION('',(0.,3.3717479391E-07,1.));
#593 = ORIENTED_EDGE('',*,*,#413,.F.);
#594 = PLANE('',#595);
#595 = AXIS2_PLACEMENT_3D('',#596,#597,#598);
#596 = CARTESIAN_POINT('',(-9.028031,77.23229920762,-2.350069955973));
#597 = DIRECTION('',(0.,1.,-3.3717479391E-07));
#598 = DIRECTION('',(1.,0.,0.));
#599 = ADVANCED_FACE('',(#600),#618,.F.);
#600 = FACE_BOUND('',#601,.F.);
#601 = EDGE_LOOP('',(#602,#603,#611,#617));
#602 = ORIENTED_EDGE('',*,*,#588,.T.);
#603 = ORIENTED_EDGE('',*,*,#604,.T.);
#604 = EDGE_CURVE('',#581,#605,#607,.T.);
#605 = VERTEX_POINT('',#606);
#606 = CARTESIAN_POINT('',(21.4529,49.766499544796,-1.350060695198));
#607 = LINE('',#608,#609);
#608 = CARTESIAN_POINT('',(21.4529,77.232299544795,-1.350069955973));
#609 = VECTOR('',#610,1.);
#610 = DIRECTION('',(0.,-1.,3.3717479391E-07));
#611 = ORIENTED_EDGE('',*,*,#612,.F.);
#612 = EDGE_CURVE('',#398,#605,#613,.T.);
#613 = LINE('',#614,#615);
#614 = CARTESIAN_POINT('',(21.4529,49.766499207622,-2.350060695198));
#615 = VECTOR('',#616,1.);
#616 = DIRECTION('',(0.,3.3717479391E-07,1.));
#617 = ORIENTED_EDGE('',*,*,#405,.F.);
#618 = PLANE('',#619);
#619 = AXIS2_PLACEMENT_3D('',#620,#621,#622);
#620 = CARTESIAN_POINT('',(21.4529,77.23229920762,-2.350069955973));
#621 = DIRECTION('',(1.,0.,-0.));
#622 = DIRECTION('',(0.,-1.,3.3717479391E-07));
#623 = ADVANCED_FACE('',(#624),#642,.F.);
#624 = FACE_BOUND('',#625,.F.);
#625 = EDGE_LOOP('',(#626,#627,#635,#641));
#626 = ORIENTED_EDGE('',*,*,#612,.T.);
#627 = ORIENTED_EDGE('',*,*,#628,.T.);
#628 = EDGE_CURVE('',#605,#629,#631,.T.);
#629 = VERTEX_POINT('',#630);
#630 = CARTESIAN_POINT('',(19.285135,49.776424449658,-1.350060698544));
#631 = LINE('',#632,#633);
#632 = CARTESIAN_POINT('',(21.4529,49.766499544796,-1.350060695198));
#633 = VECTOR('',#634,1.);
#634 = DIRECTION('',(-0.999989519271,4.578356436836E-03,
    -1.543706388037E-09));
#635 = ORIENTED_EDGE('',*,*,#636,.F.);
#636 = EDGE_CURVE('',#390,#629,#637,.T.);
#637 = LINE('',#638,#639);
#638 = CARTESIAN_POINT('',(19.285135,49.776424112483,-2.350060698544));
#639 = VECTOR('',#640,1.);
#640 = DIRECTION('',(0.,3.3717479391E-07,1.));
#641 = ORIENTED_EDGE('',*,*,#397,.F.);
#642 = PLANE('',#643);
#643 = AXIS2_PLACEMENT_3D('',#644,#645,#646);
#644 = CARTESIAN_POINT('',(21.4529,49.766499207622,-2.350060695198));
#645 = DIRECTION('',(-4.578356436837E-03,-0.999989519271,
    3.371712600724E-07));
#646 = DIRECTION('',(-0.999989519271,4.578356436836E-03,
    -1.543706388037E-09));
#647 = ADVANCED_FACE('',(#648),#685,.T.);
#648 = FACE_BOUND('',#649,.T.);
#649 = EDGE_LOOP('',(#650,#658,#659,#660,#661,#662,#663,#671,#679));
#650 = ORIENTED_EDGE('',*,*,#651,.T.);
#651 = EDGE_CURVE('',#652,#525,#654,.T.);
#652 = VERTEX_POINT('',#653);
#653 = CARTESIAN_POINT('',(-10.662575,78.199623544795,-1.35007028213));
#654 = LINE('',#655,#656);
#655 = CARTESIAN_POINT('',(-10.662575,78.199623544795,-1.35007028213));
#656 = VECTOR('',#657,1.);
#657 = DIRECTION('',(0.,-1.,3.3717479391E-07));
#658 = ORIENTED_EDGE('',*,*,#532,.T.);
#659 = ORIENTED_EDGE('',*,*,#556,.T.);
#660 = ORIENTED_EDGE('',*,*,#580,.T.);
#661 = ORIENTED_EDGE('',*,*,#604,.T.);
#662 = ORIENTED_EDGE('',*,*,#628,.T.);
#663 = ORIENTED_EDGE('',*,*,#664,.T.);
#664 = EDGE_CURVE('',#629,#665,#667,.T.);
#665 = VERTEX_POINT('',#666);
#666 = CARTESIAN_POINT('',(24.508568,46.442531544797,-1.35005957444));
#667 = LINE('',#668,#669);
#668 = CARTESIAN_POINT('',(19.285135,49.776424449658,-1.350060698544));
#669 = VECTOR('',#670,1.);
#670 = DIRECTION('',(0.842937817616,-0.538010999546,1.814037478932E-07)
  );
#671 = ORIENTED_EDGE('',*,*,#672,.T.);
#672 = EDGE_CURVE('',#665,#673,#675,.T.);
#673 = VERTEX_POINT('',#674);
#674 = CARTESIAN_POINT('',(23.349081,78.199623544795,-1.35007028213));
#675 = LINE('',#676,#677);
#676 = CARTESIAN_POINT('',(24.508568,46.442531544797,-1.35005957444));
#677 = VECTOR('',#678,1.);
#678 = DIRECTION('',(-3.648680861122E-02,0.99933413471,
    -3.369502809182E-07));
#679 = ORIENTED_EDGE('',*,*,#680,.T.);
#680 = EDGE_CURVE('',#673,#652,#681,.T.);
#681 = LINE('',#682,#683);
#682 = CARTESIAN_POINT('',(23.349081,78.199623544795,-1.35007028213));
#683 = VECTOR('',#684,1.);
#684 = DIRECTION('',(-1.,0.,0.));
#685 = PLANE('',#686);
#686 = AXIS2_PLACEMENT_3D('',#687,#688,#689);
#687 = CARTESIAN_POINT('',(9.967468398907,68.353436130876,
    -1.350066962244));
#688 = DIRECTION('',(0.,3.371747939097E-07,1.));
#689 = DIRECTION('',(0.,1.,-3.371747939097E-07));
#690 = ADVANCED_FACE('',(#691),#708,.T.);
#691 = FACE_BOUND('',#692,.T.);
#692 = EDGE_LOOP('',(#693,#694,#695,#696,#697,#698,#699,#700,#701,#702)
  );
#693 = ORIENTED_EDGE('',*,*,#193,.F.);
#694 = ORIENTED_EDGE('',*,*,#135,.F.);
#695 = ORIENTED_EDGE('',*,*,#21,.T.);
#696 = ORIENTED_EDGE('',*,*,#366,.T.);
#697 = ORIENTED_EDGE('',*,*,#493,.F.);
#698 = ORIENTED_EDGE('',*,*,#509,.F.);
#699 = ORIENTED_EDGE('',*,*,#437,.F.);
#700 = ORIENTED_EDGE('',*,*,#524,.T.);
#701 = ORIENTED_EDGE('',*,*,#651,.F.);
#702 = ORIENTED_EDGE('',*,*,#703,.F.);
#703 = EDGE_CURVE('',#194,#652,#704,.T.);
#704 = LINE('',#705,#706);
#705 = CARTESIAN_POINT('',(-10.662575,78.19962320762,-2.35007028213));
#706 = VECTOR('',#707,1.);
#707 = DIRECTION('',(0.,3.3717479391E-07,1.));
#708 = PLANE('',#709);
#709 = AXIS2_PLACEMENT_3D('',#710,#711,#712);
#710 = CARTESIAN_POINT('',(-10.662575,65.496375055627,-6.119707539166));
#711 = DIRECTION('',(-1.,-0.,-0.));
#712 = DIRECTION('',(0.,0.,-1.));
#713 = ADVANCED_FACE('',(#714),#727,.T.);
#714 = FACE_BOUND('',#715,.T.);
#715 = EDGE_LOOP('',(#716,#717,#718,#724,#725,#726));
#716 = ORIENTED_EDGE('',*,*,#334,.T.);
#717 = ORIENTED_EDGE('',*,*,#39,.T.);
#718 = ORIENTED_EDGE('',*,*,#719,.F.);
#719 = EDGE_CURVE('',#665,#40,#720,.T.);
#720 = LINE('',#721,#722);
#721 = CARTESIAN_POINT('',(24.508568,46.442531207622,-2.350059574439));
#722 = VECTOR('',#723,1.);
#723 = DIRECTION('',(0.,-3.3717479392E-07,-1.));
#724 = ORIENTED_EDGE('',*,*,#664,.F.);
#725 = ORIENTED_EDGE('',*,*,#636,.F.);
#726 = ORIENTED_EDGE('',*,*,#389,.F.);
#727 = PLANE('',#728);
#728 = AXIS2_PLACEMENT_3D('',#729,#730,#731);
#729 = CARTESIAN_POINT('',(19.966204780966,49.341725473136,
    -5.477081524019));
#730 = DIRECTION('',(-0.538010999546,-0.842937817616,2.842173847764E-07)
  );
#731 = DIRECTION('',(-0.842937817616,0.538010999546,0.));
#732 = ADVANCED_FACE('',(#733),#744,.T.);
#733 = FACE_BOUND('',#734,.T.);
#734 = EDGE_LOOP('',(#735,#736,#737,#738));
#735 = ORIENTED_EDGE('',*,*,#201,.F.);
#736 = ORIENTED_EDGE('',*,*,#703,.T.);
#737 = ORIENTED_EDGE('',*,*,#680,.F.);
#738 = ORIENTED_EDGE('',*,*,#739,.F.);
#739 = EDGE_CURVE('',#202,#673,#740,.T.);
#740 = LINE('',#741,#742);
#741 = CARTESIAN_POINT('',(23.349081,78.19962320762,-2.35007028213));
#742 = VECTOR('',#743,1.);
#743 = DIRECTION('',(0.,3.3717479391E-07,1.));
#744 = PLANE('',#745);
#745 = AXIS2_PLACEMENT_3D('',#746,#747,#748);
#746 = CARTESIAN_POINT('',(6.343253,78.19962187578,-6.30007028213));
#747 = DIRECTION('',(0.,1.,-3.371747946261E-07));
#748 = DIRECTION('',(0.,3.371747946261E-07,1.));
#749 = ADVANCED_FACE('',(#750),#758,.T.);
#750 = FACE_BOUND('',#751,.T.);
#751 = EDGE_LOOP('',(#752,#753,#754,#755,#756,#757));
#752 = ORIENTED_EDGE('',*,*,#719,.T.);
#753 = ORIENTED_EDGE('',*,*,#47,.T.);
#754 = ORIENTED_EDGE('',*,*,#316,.T.);
#755 = ORIENTED_EDGE('',*,*,#209,.F.);
#756 = ORIENTED_EDGE('',*,*,#739,.T.);
#757 = ORIENTED_EDGE('',*,*,#672,.F.);
#758 = PLANE('',#759);
#759 = AXIS2_PLACEMENT_3D('',#760,#761,#762);
#760 = CARTESIAN_POINT('',(23.92843925272,62.331627384707,
    -6.289506395914));
#761 = DIRECTION('',(0.99933413471,3.648680861122E-02,-1.23024323998E-08
    ));
#762 = DIRECTION('',(-3.648680861122E-02,0.99933413471,
    -5.169878828456E-26));
#763 = ( GEOMETRIC_REPRESENTATION_CONTEXT(3) 
GLOBAL_UNCERTAINTY_ASSIGNED_CONTEXT((#767)) GLOBAL_UNIT_ASSIGNED_CONTEXT
((#764,#765,#766)) REPRESENTATION_CONTEXT('Context #1',
  '3D Context with UNIT and UNCERTAINTY') );
#764 = ( LENGTH_UNIT() NAMED_UNIT(*) SI_UNIT(.MILLI.,.METRE.) );
#765 = ( NAMED_UNIT(*) PLANE_ANGLE_UNIT() SI_UNIT($,.RADIAN.) );
#766 = ( NAMED_UNIT(*) SI_UNIT($,.STERADIAN.) SOLID_ANGLE_UNIT() );
#767 = UNCERTAINTY_MEASURE_WITH_UNIT(LENGTH_MEASURE(1.E-07),#764,
  'distance_accuracy_value','confusion accuracy');
#768 = PRODUCT_RELATED_PRODUCT_CATEGORY('part',$,(#7));
#769 = MECHANICAL_DESIGN_GEOMETRIC_PRESENTATION_REPRESENTATION('',(#770)
  ,#763);
#770 = STYLED_ITEM('color',(#771),#15);
#771 = PRESENTATION_STYLE_ASSIGNMENT((#772,#780));
#772 = SURFACE_STYLE_USAGE(.BOTH.,#773);
#773 = SURFACE_SIDE_STYLE('',(#774,#778));
#774 = SURFACE_STYLE_FILL_AREA(#775);
#775 = FILL_AREA_STYLE('',(#776));
#776 = FILL_AREA_STYLE_COLOUR('',#777);
#777 = COLOUR_RGB('',0.447058818107,0.474509808674,0.501960817233);
#778 = SURFACE_STYLE_RENDERING_WITH_PROPERTIES(.NORMAL_SHADING.,#777,(
    #779));
#779 = SURFACE_STYLE_TRANSPARENT(0.699999988079);
#780 = CURVE_STYLE('',#781,POSITIVE_LENGTH_MEASURE(0.1),#782);
#781 = DRAUGHTING_PRE_DEFINED_CURVE_FONT('continuous');
#782 = COLOUR_RGB('',9.803921802644E-02,9.803921802644E-02,
  9.803921802644E-02);
ENDSEC;
END-ISO-10303-21;
