  0
SECTION
  2
HEADER
  9
$ACADVER
  1
AC1018
  9
$HANDSEED
  5
FFFFFFFF
  9
$ANGBASE
  50
0.0
  9
$ANGDIR
  70
1
  9
$MEASUREMENT
  70
1
  9
$INSUNITS
  70
4
  0
ENDSEC
  0
SECTION
  2
TABLES
  0
TABLE
  2
APPID
  5
1
330
0
100
AcDbSymbolTable
 70
1
  0
APPID
  5
2
330
1
100
AcDbSymbolTableRecord
100
AcDbRegAppTableRecord
  2
ACAD
 70
0
  0
ENDTAB
  0
TABLE
  2
LTYPE
  5
3
330
0
100
AcDbSymbolTable
 70
6
  0
LTYPE
  5
4
330
3
100
AcDbSymbolTableRecord
100
AcDbLinetypeTableRecord
  2
ByBlock
 70
0
  3

 72
65
 73
0
 40
0
  0
LTYPE
  5
5
330
3
100
AcDbSymbolTableRecord
100
AcDbLinetypeTableRecord
  2
ByLayer
 70
0
  3

 72
65
 73
0
 40
0
  0
LTYPE
  5
6
330
3
100
AcDbSymbolTableRecord
100
AcDbLinetypeTableRecord
  2
CONTINUOUS
 70
0
  3
Solid line
 72
65
 73
0
 40
0
  0
LTYPE
  5
7
330
3
100
AcDbSymbolTableRecord
100
AcDbLinetypeTableRecord
  2
DASHDOT
 70
0
  3
Dash Dot ____ _ ____ _
 72
65
 73
4
 40
2
 49
1.25
 74
0
 49
-0.25
 74
0
 49
0.25
 74
0
 49
-0.25
 74
0
  0
LTYPE
  5
8
330
3
100
AcDbSymbolTableRecord
100
AcDbLinetypeTableRecord
  2
DASHED
 70
0
  3
Dashed __ __ __ __ __
 72
65
 73
2
 40
0.75
 49
0.5
 74
0
 49
-0.25
 74
0
  0
LTYPE
  5
9
330
3
100
AcDbSymbolTableRecord
100
AcDbLinetypeTableRecord
  2
DOTTED
 70
0
  3
Dotted .  .  .  .
 72
65
 73
2
 40
0.2
 49
0.0
 74
0
 49
-0.2
 74
0
  0
ENDTAB
  0
TABLE
  2
STYLE
  5
A
330
0
100
AcDbSymbolTable
 70
4
  0
STYLE
  5
B
330
A
100
AcDbSymbolTableRecord
100
AcDbTextStyleTableRecord
  2
KICAD
 70
0
 40
0
 41
1
 42
1
 50
0
 71
0
  3
isocp.shx
  0
STYLE
  5
C
330
A
100
AcDbSymbolTableRecord
100
AcDbTextStyleTableRecord
  2
KICADB
 70
0
 40
0
 41
1
 42
1
 50
0
 71
0
  3
isocp.shx
  0
STYLE
  5
D
330
A
100
AcDbSymbolTableRecord
100
AcDbTextStyleTableRecord
  2
KICADI
 70
0
 40
0
 41
1
 42
1
 50
15
 71
0
  3
isocp.shx
  0
STYLE
  5
E
330
A
100
AcDbSymbolTableRecord
100
AcDbTextStyleTableRecord
  2
KICADBI
 70
0
 40
0
 41
1
 42
1
 50
15
 71
0
  3
isocp.shx
  0
ENDTAB
  0
TABLE
  2
LAYER
  5
F
330
0
100
AcDbSymbolTable
 70
2
  0
LAYER
  5
12
330
F
100
AcDbSymbolTableRecord
100
AcDbLayerTableRecord
  2
0
 70
0
 62
7
  6
CONTINUOUS
390
10
  0
LAYER
  5
13
330
F
100
AcDbSymbolTableRecord
100
AcDbLayerTableRecord
  2
BLACK
 70
0
 62
250
  6
CONTINUOUS
390
10
  0
ENDTAB
  0
TABLE
  2
VPORT
  5
14
330
0
100
AcDbSymbolTable
 70
0
  0
ENDTAB
  0
TABLE
  2
VIEW
  5
15
330
0
100
AcDbSymbolTable
 70
0
  0
ENDTAB
  0
TABLE
  2
UCS
  5
16
330
0
100
AcDbSymbolTable
 70
0
  0
ENDTAB
  0
TABLE
  2
DIMSTYLE
  5
17
330
0
100
AcDbSymbolTable
 70
1
100
AcDbDimStyleTable
 71
0
  0
DIMSTYLE
105
18
330
17
100
AcDbSymbolTableRecord
100
AcDbDimStyleTableRecord
  2
Standard
 70
0
  0
ENDTAB
  0
TABLE
  2
BLOCK_RECORD
  5
19
330
0
100
AcDbSymbolTable
 70
3
  0
BLOCK_RECORD
  5
1A
330
19
100
AcDbSymbolTableRecord
100
AcDbBlockTableRecord
  2
*Model_Space
340
1D
 70
0
280
1
281
0
  0
BLOCK_RECORD
  5
1B
330
19
100
AcDbSymbolTableRecord
100
AcDbBlockTableRecord
  2
*Paper_Space
340
1E
 70
0
280
1
281
0
  0
BLOCK_RECORD
  5
1C
330
19
100
AcDbSymbolTableRecord
100
AcDbBlockTableRecord
  2
*Paper_Space0
340
1F
 70
0
280
1
281
0
  0
ENDTAB
  0
ENDSEC
  0
SECTION
  2
BLOCKS
  0
BLOCK
  5
23
330
1A
100
AcDbEntity
  8
0
100
AcDbBlockBegin
  2
*Model_Space
 70
0
 10
0.0
 20
0.0
 30
0.0
  3
*Model_Space
  1

  0
ENDBLK
  5
22
330
1A
100
AcDbEntity
  8
0
100
AcDbBlockEnd
  0
BLOCK
  5
25
330
1B
100
AcDbEntity
 67
1
  8
0
100
AcDbBlockBegin
  2
*Paper_Space
 70
0
 10
0.0
 20
0.0
 30
0.0
  3
*Paper_Space
  1

  0
ENDBLK
  5
24
330
1B
100
AcDbEntity
 67
1
  8
0
100
AcDbBlockEnd
  0
BLOCK
  5
27
330
1C
100
AcDbEntity
 67
1
  8
0
100
AcDbBlockBegin
  2
*Paper_Space0
 70
0
 10
0.0
 20
0.0
 30
0.0
  3
*Paper_Space0
  1

  0
ENDBLK
  5
26
330
1C
100
AcDbEntity
 67
1
  8
0
100
AcDbBlockEnd
  0
ENDSEC
  0
SECTION
  2
ENTITIES
  0
LINE
  5
28
330
1A
100
AcDbEntity
  8
BLACK
  6
CONTINUOUS
100
AcDbLine
 10
101.6999999999999886
 20
-162.3499999999999943
 30
0
 11
96.2999999999999972
 21
-162.3499999999999943
 31
0
  0
LINE
  5
29
330
1A
100
AcDbEntity
  8
BLACK
  6
CONTINUOUS
100
AcDbLine
 10
96.2999999999999972
 20
-162.3499999999999943
 30
0
 11
96.2999999999999972
 21
-159.4499999999999886
 31
0
  0
LINE
  5
2A
330
1A
100
AcDbEntity
  8
BLACK
  6
CONTINUOUS
100
AcDbLine
 10
96.2999999999999972
 20
-159.4499999999999886
 30
0
 11
101.6999999999999886
 21
-159.4499999999999886
 31
0
  0
LINE
  5
2B
330
1A
100
AcDbEntity
  8
BLACK
  6
CONTINUOUS
100
AcDbLine
 10
101.6999999999999886
 20
-159.4499999999999886
 30
0
 11
101.6999999999999886
 21
-162.3499999999999943
 31
0
  0
LINE
  5
2C
330
1A
100
AcDbEntity
  8
BLACK
  6
CONTINUOUS
100
AcDbLine
 10
101.6999999999999886
 20
-152.4499999999999886
 30
0
 11
96.2999999999999972
 21
-152.4499999999999886
 31
0
  0
LINE
  5
2D
330
1A
100
AcDbEntity
  8
BLACK
  6
CONTINUOUS
100
AcDbLine
 10
96.2999999999999972
 20
-152.4499999999999886
 30
0
 11
96.2999999999999972
 21
-149.5499999999999829
 31
0
  0
LINE
  5
2E
330
1A
100
AcDbEntity
  8
BLACK
  6
CONTINUOUS
100
AcDbLine
 10
96.2999999999999972
 20
-149.5499999999999829
 30
0
 11
101.6999999999999886
 21
-149.5499999999999829
 31
0
  0
LINE
  5
2F
330
1A
100
AcDbEntity
  8
BLACK
  6
CONTINUOUS
100
AcDbLine
 10
101.6999999999999886
 20
-149.5499999999999829
 30
0
 11
101.6999999999999886
 21
-152.4499999999999886
 31
0
  0
LINE
  5
30
330
1A
100
AcDbEntity
  8
BLACK
  6
CONTINUOUS
100
AcDbLine
 10
99.7456710000000015
 20
-145.7690299999999866
 30
0
 11
99.8267769999999928
 21
-145.8232229999999845
 31
0
  0
LINE
  5
31
330
1A
100
AcDbEntity
  8
BLACK
  6
CONTINUOUS
100
AcDbLine
 10
99.8267769999999928
 20
-145.8232229999999845
 30
0
 11
99.8809699999999907
 21
-145.9043289999999899
 31
0
  0
LINE
  5
32
330
1A
100
AcDbEntity
  8
BLACK
  6
CONTINUOUS
100
AcDbLine
 10
99.8809699999999907
 20
-145.9043289999999899
 30
0
 11
99.8999999999999915
 21
-146.
 31
0
  0
LINE
  5
33
330
1A
100
AcDbEntity
  8
BLACK
  6
CONTINUOUS
100
AcDbLine
 10
99.8999999999999915
 20
-146.
 30
0
 11
99.8999999999999915
 21
-148.
 31
0
  0
LINE
  5
34
330
1A
100
AcDbEntity
  8
BLACK
  6
CONTINUOUS
100
AcDbLine
 10
99.8999999999999915
 20
-148.
 30
0
 11
99.8809699999999907
 21
-148.0956709999999816
 31
0
  0
LINE
  5
35
330
1A
100
AcDbEntity
  8
BLACK
  6
CONTINUOUS
100
AcDbLine
 10
99.8809699999999907
 20
-148.0956709999999816
 30
0
 11
99.8267769999999928
 21
-148.1767769999999871
 31
0
  0
LINE
  5
36
330
1A
100
AcDbEntity
  8
BLACK
  6
CONTINUOUS
100
AcDbLine
 10
99.8267769999999928
 20
-148.1767769999999871
 30
0
 11
99.7456710000000015
 21
-148.230969999999985
 31
0
  0
LINE
  5
37
330
1A
100
AcDbEntity
  8
BLACK
  6
CONTINUOUS
100
AcDbLine
 10
99.7456710000000015
 20
-148.230969999999985
 30
0
 11
99.6499999999999915
 21
-148.25
 31
0
  0
LINE
  5
38
330
1A
100
AcDbEntity
  8
BLACK
  6
CONTINUOUS
100
AcDbLine
 10
99.6499999999999915
 20
-148.25
 30
0
 11
98.3499999999999943
 21
-148.25
 31
0
  0
LINE
  5
39
330
1A
100
AcDbEntity
  8
BLACK
  6
CONTINUOUS
100
AcDbLine
 10
98.3499999999999943
 20
-148.25
 30
0
 11
98.2543289999999985
 21
-148.230969999999985
 31
0
  0
LINE
  5
3A
330
1A
100
AcDbEntity
  8
BLACK
  6
CONTINUOUS
100
AcDbLine
 10
98.2543289999999985
 20
-148.230969999999985
 30
0
 11
98.173222999999993
 21
-148.1767769999999871
 31
0
  0
LINE
  5
3B
330
1A
100
AcDbEntity
  8
BLACK
  6
CONTINUOUS
100
AcDbLine
 10
98.173222999999993
 20
-148.1767769999999871
 30
0
 11
98.1190299999999951
 21
-148.0956709999999816
 31
0
  0
LINE
  5
3C
330
1A
100
AcDbEntity
  8
BLACK
  6
CONTINUOUS
100
AcDbLine
 10
98.1190299999999951
 20
-148.0956709999999816
 30
0
 11
98.0999999999999943
 21
-148.
 31
0
  0
LINE
  5
3D
330
1A
100
AcDbEntity
  8
BLACK
  6
CONTINUOUS
100
AcDbLine
 10
98.0999999999999943
 20
-148.
 30
0
 11
98.0999999999999943
 21
-146.
 31
0
  0
LINE
  5
3E
330
1A
100
AcDbEntity
  8
BLACK
  6
CONTINUOUS
100
AcDbLine
 10
98.0999999999999943
 20
-146.
 30
0
 11
98.1190299999999951
 21
-145.9043289999999899
 31
0
  0
LINE
  5
3F
330
1A
100
AcDbEntity
  8
BLACK
  6
CONTINUOUS
100
AcDbLine
 10
98.1190299999999951
 20
-145.9043289999999899
 30
0
 11
98.173222999999993
 21
-145.8232229999999845
 31
0
  0
LINE
  5
40
330
1A
100
AcDbEntity
  8
BLACK
  6
CONTINUOUS
100
AcDbLine
 10
98.173222999999993
 20
-145.8232229999999845
 30
0
 11
98.2543289999999985
 21
-145.7690299999999866
 31
0
  0
LINE
  5
41
330
1A
100
AcDbEntity
  8
BLACK
  6
CONTINUOUS
100
AcDbLine
 10
98.2543289999999985
 20
-145.7690299999999866
 30
0
 11
98.3499999999999943
 21
-145.75
 31
0
  0
LINE
  5
42
330
1A
100
AcDbEntity
  8
BLACK
  6
CONTINUOUS
100
AcDbLine
 10
98.3499999999999943
 20
-145.75
 30
0
 11
99.6499999999999915
 21
-145.75
 31
0
  0
LINE
  5
43
330
1A
100
AcDbEntity
  8
BLACK
  6
CONTINUOUS
100
AcDbLine
 10
99.6499999999999915
 20
-145.75
 30
0
 11
99.7456710000000015
 21
-145.7690299999999866
 31
0
  0
LINE
  5
44
330
1A
100
AcDbEntity
  8
BLACK
  6
CONTINUOUS
100
AcDbLine
 10
99.7456710000000015
 20
-141.7690299999999866
 30
0
 11
99.8267769999999928
 21
-141.8232229999999845
 31
0
  0
LINE
  5
45
330
1A
100
AcDbEntity
  8
BLACK
  6
CONTINUOUS
100
AcDbLine
 10
99.8267769999999928
 20
-141.8232229999999845
 30
0
 11
99.8809699999999907
 21
-141.9043289999999899
 31
0
  0
LINE
  5
46
330
1A
100
AcDbEntity
  8
BLACK
  6
CONTINUOUS
100
AcDbLine
 10
99.8809699999999907
 20
-141.9043289999999899
 30
0
 11
99.8999999999999915
 21
-142.
 31
0
  0
LINE
  5
47
330
1A
100
AcDbEntity
  8
BLACK
  6
CONTINUOUS
100
AcDbLine
 10
99.8999999999999915
 20
-142.
 30
0
 11
99.8999999999999915
 21
-144.
 31
0
  0
LINE
  5
48
330
1A
100
AcDbEntity
  8
BLACK
  6
CONTINUOUS
100
AcDbLine
 10
99.8999999999999915
 20
-144.
 30
0
 11
99.8809699999999907
 21
-144.0956709999999816
 31
0
  0
LINE
  5
49
330
1A
100
AcDbEntity
  8
BLACK
  6
CONTINUOUS
100
AcDbLine
 10
99.8809699999999907
 20
-144.0956709999999816
 30
0
 11
99.8267769999999928
 21
-144.1767769999999871
 31
0
  0
LINE
  5
4A
330
1A
100
AcDbEntity
  8
BLACK
  6
CONTINUOUS
100
AcDbLine
 10
99.8267769999999928
 20
-144.1767769999999871
 30
0
 11
99.7456710000000015
 21
-144.230969999999985
 31
0
  0
LINE
  5
4B
330
1A
100
AcDbEntity
  8
BLACK
  6
CONTINUOUS
100
AcDbLine
 10
99.7456710000000015
 20
-144.230969999999985
 30
0
 11
99.6499999999999915
 21
-144.25
 31
0
  0
LINE
  5
4C
330
1A
100
AcDbEntity
  8
BLACK
  6
CONTINUOUS
100
AcDbLine
 10
99.6499999999999915
 20
-144.25
 30
0
 11
98.3499999999999943
 21
-144.25
 31
0
  0
LINE
  5
4D
330
1A
100
AcDbEntity
  8
BLACK
  6
CONTINUOUS
100
AcDbLine
 10
98.3499999999999943
 20
-144.25
 30
0
 11
98.2543289999999985
 21
-144.230969999999985
 31
0
  0
LINE
  5
4E
330
1A
100
AcDbEntity
  8
BLACK
  6
CONTINUOUS
100
AcDbLine
 10
98.2543289999999985
 20
-144.230969999999985
 30
0
 11
98.173222999999993
 21
-144.1767769999999871
 31
0
  0
LINE
  5
4F
330
1A
100
AcDbEntity
  8
BLACK
  6
CONTINUOUS
100
AcDbLine
 10
98.173222999999993
 20
-144.1767769999999871
 30
0
 11
98.1190299999999951
 21
-144.0956709999999816
 31
0
  0
LINE
  5
50
330
1A
100
AcDbEntity
  8
BLACK
  6
CONTINUOUS
100
AcDbLine
 10
98.1190299999999951
 20
-144.0956709999999816
 30
0
 11
98.0999999999999943
 21
-144.
 31
0
  0
LINE
  5
51
330
1A
100
AcDbEntity
  8
BLACK
  6
CONTINUOUS
100
AcDbLine
 10
98.0999999999999943
 20
-144.
 30
0
 11
98.0999999999999943
 21
-142.
 31
0
  0
LINE
  5
52
330
1A
100
AcDbEntity
  8
BLACK
  6
CONTINUOUS
100
AcDbLine
 10
98.0999999999999943
 20
-142.
 30
0
 11
98.1190299999999951
 21
-141.9043289999999899
 31
0
  0
LINE
  5
53
330
1A
100
AcDbEntity
  8
BLACK
  6
CONTINUOUS
100
AcDbLine
 10
98.1190299999999951
 20
-141.9043289999999899
 30
0
 11
98.173222999999993
 21
-141.8232229999999845
 31
0
  0
LINE
  5
54
330
1A
100
AcDbEntity
  8
BLACK
  6
CONTINUOUS
100
AcDbLine
 10
98.173222999999993
 20
-141.8232229999999845
 30
0
 11
98.2543289999999985
 21
-141.7690299999999866
 31
0
  0
LINE
  5
55
330
1A
100
AcDbEntity
  8
BLACK
  6
CONTINUOUS
100
AcDbLine
 10
98.2543289999999985
 20
-141.7690299999999866
 30
0
 11
98.3499999999999943
 21
-141.75
 31
0
  0
LINE
  5
56
330
1A
100
AcDbEntity
  8
BLACK
  6
CONTINUOUS
100
AcDbLine
 10
98.3499999999999943
 20
-141.75
 30
0
 11
99.6499999999999915
 21
-141.75
 31
0
  0
LINE
  5
57
330
1A
100
AcDbEntity
  8
BLACK
  6
CONTINUOUS
100
AcDbLine
 10
99.6499999999999915
 20
-141.75
 30
0
 11
99.7456710000000015
 21
-141.7690299999999866
 31
0
  0
LINE
  5
58
330
1A
100
AcDbEntity
  8
BLACK
  6
CONTINUOUS
100
AcDbLine
 10
96.6956709999999902
 20
-140.9190299999999922
 30
0
 11
96.7767769999999956
 21
-140.9732229999999902
 31
0
  0
LINE
  5
59
330
1A
100
AcDbEntity
  8
BLACK
  6
CONTINUOUS
100
AcDbLine
 10
96.7767769999999956
 20
-140.9732229999999902
 30
0
 11
96.8309699999999935
 21
-141.0543289999999956
 31
0
  0
LINE
  5
5A
330
1A
100
AcDbEntity
  8
BLACK
  6
CONTINUOUS
100
AcDbLine
 10
96.8309699999999935
 20
-141.0543289999999956
 30
0
 11
96.8499999999999943
 21
-141.1500000000000057
 31
0
  0
LINE
  5
5B
330
1A
100
AcDbEntity
  8
BLACK
  6
CONTINUOUS
100
AcDbLine
 10
96.8499999999999943
 20
-141.1500000000000057
 30
0
 11
96.8499999999999943
 21
-141.7999999999999829
 31
0
  0
LINE
  5
5C
330
1A
100
AcDbEntity
  8
BLACK
  6
CONTINUOUS
100
AcDbLine
 10
96.8499999999999943
 20
-141.7999999999999829
 30
0
 11
96.8309699999999935
 21
-141.895670999999993
 31
0
  0
LINE
  5
5D
330
1A
100
AcDbEntity
  8
BLACK
  6
CONTINUOUS
100
AcDbLine
 10
96.8309699999999935
 20
-141.895670999999993
 30
0
 11
96.7767769999999956
 21
-141.9767769999999985
 31
0
  0
LINE
  5
5E
330
1A
100
AcDbEntity
  8
BLACK
  6
CONTINUOUS
100
AcDbLine
 10
96.7767769999999956
 20
-141.9767769999999985
 30
0
 11
96.6956709999999902
 21
-142.0309699999999964
 31
0
  0
LINE
  5
5F
330
1A
100
AcDbEntity
  8
BLACK
  6
CONTINUOUS
100
AcDbLine
 10
96.6956709999999902
 20
-142.0309699999999964
 30
0
 11
96.5999999999999943
 21
-142.0499999999999829
 31
0
  0
LINE
  5
60
330
1A
100
AcDbEntity
  8
BLACK
  6
CONTINUOUS
100
AcDbLine
 10
96.5999999999999943
 20
-142.0499999999999829
 30
0
 11
94.3999999999999915
 21
-142.0499999999999829
 31
0
  0
LINE
  5
61
330
1A
100
AcDbEntity
  8
BLACK
  6
CONTINUOUS
100
AcDbLine
 10
94.3999999999999915
 20
-142.0499999999999829
 30
0
 11
94.3043289999999956
 21
-142.0309699999999964
 31
0
  0
LINE
  5
62
330
1A
100
AcDbEntity
  8
BLACK
  6
CONTINUOUS
100
AcDbLine
 10
94.3043289999999956
 20
-142.0309699999999964
 30
0
 11
94.2232229999999902
 21
-141.9767769999999985
 31
0
  0
LINE
  5
63
330
1A
100
AcDbEntity
  8
BLACK
  6
CONTINUOUS
100
AcDbLine
 10
94.2232229999999902
 20
-141.9767769999999985
 30
0
 11
94.1690299999999922
 21
-141.895670999999993
 31
0
  0
LINE
  5
64
330
1A
100
AcDbEntity
  8
BLACK
  6
CONTINUOUS
100
AcDbLine
 10
94.1690299999999922
 20
-141.895670999999993
 30
0
 11
94.1499999999999915
 21
-141.7999999999999829
 31
0
  0
LINE
  5
65
330
1A
100
AcDbEntity
  8
BLACK
  6
CONTINUOUS
100
AcDbLine
 10
94.1499999999999915
 20
-141.7999999999999829
 30
0
 11
94.1499999999999915
 21
-141.1500000000000057
 31
0
  0
LINE
  5
66
330
1A
100
AcDbEntity
  8
BLACK
  6
CONTINUOUS
100
AcDbLine
 10
94.1499999999999915
 20
-141.1500000000000057
 30
0
 11
94.1690299999999922
 21
-141.0543289999999956
 31
0
  0
LINE
  5
67
330
1A
100
AcDbEntity
  8
BLACK
  6
CONTINUOUS
100
AcDbLine
 10
94.1690299999999922
 20
-141.0543289999999956
 30
0
 11
94.2232229999999902
 21
-140.9732229999999902
 31
0
  0
LINE
  5
68
330
1A
100
AcDbEntity
  8
BLACK
  6
CONTINUOUS
100
AcDbLine
 10
94.2232229999999902
 20
-140.9732229999999902
 30
0
 11
94.3043289999999956
 21
-140.9190299999999922
 31
0
  0
LINE
  5
69
330
1A
100
AcDbEntity
  8
BLACK
  6
CONTINUOUS
100
AcDbLine
 10
94.3043289999999956
 20
-140.9190299999999922
 30
0
 11
94.3999999999999915
 21
-140.9000000000000057
 31
0
  0
LINE
  5
6A
330
1A
100
AcDbEntity
  8
BLACK
  6
CONTINUOUS
100
AcDbLine
 10
94.3999999999999915
 20
-140.9000000000000057
 30
0
 11
96.5999999999999943
 21
-140.9000000000000057
 31
0
  0
LINE
  5
6B
330
1A
100
AcDbEntity
  8
BLACK
  6
CONTINUOUS
100
AcDbLine
 10
96.5999999999999943
 20
-140.9000000000000057
 30
0
 11
96.6956709999999902
 21
-140.9190299999999922
 31
0
  0
LINE
  5
6C
330
1A
100
AcDbEntity
  8
BLACK
  6
CONTINUOUS
100
AcDbLine
 10
96.6956709999999902
 20
-137.9690300000000036
 30
0
 11
96.7767769999999956
 21
-138.0232230000000015
 31
0
  0
LINE
  5
6D
330
1A
100
AcDbEntity
  8
BLACK
  6
CONTINUOUS
100
AcDbLine
 10
96.7767769999999956
 20
-138.0232230000000015
 30
0
 11
96.8309699999999935
 21
-138.104329000000007
 31
0
  0
LINE
  5
6E
330
1A
100
AcDbEntity
  8
BLACK
  6
CONTINUOUS
100
AcDbLine
 10
96.8309699999999935
 20
-138.104329000000007
 30
0
 11
96.8499999999999943
 21
-138.1999999999999886
 31
0
  0
LINE
  5
6F
330
1A
100
AcDbEntity
  8
BLACK
  6
CONTINUOUS
100
AcDbLine
 10
96.8499999999999943
 20
-138.1999999999999886
 30
0
 11
96.8499999999999943
 21
-138.8499999999999943
 31
0
  0
LINE
  5
70
330
1A
100
AcDbEntity
  8
BLACK
  6
CONTINUOUS
100
AcDbLine
 10
96.8499999999999943
 20
-138.8499999999999943
 30
0
 11
96.8309699999999935
 21
-138.9456710000000044
 31
0
  0
LINE
  5
71
330
1A
100
AcDbEntity
  8
BLACK
  6
CONTINUOUS
100
AcDbLine
 10
96.8309699999999935
 20
-138.9456710000000044
 30
0
 11
96.7767769999999956
 21
-139.0267769999999814
 31
0
  0
LINE
  5
72
330
1A
100
AcDbEntity
  8
BLACK
  6
CONTINUOUS
100
AcDbLine
 10
96.7767769999999956
 20
-139.0267769999999814
 30
0
 11
96.6956709999999902
 21
-139.0809700000000078
 31
0
  0
LINE
  5
73
330
1A
100
AcDbEntity
  8
BLACK
  6
CONTINUOUS
100
AcDbLine
 10
96.6956709999999902
 20
-139.0809700000000078
 30
0
 11
96.5999999999999943
 21
-139.0999999999999943
 31
0
  0
LINE
  5
74
330
1A
100
AcDbEntity
  8
BLACK
  6
CONTINUOUS
100
AcDbLine
 10
96.5999999999999943
 20
-139.0999999999999943
 30
0
 11
94.3999999999999915
 21
-139.0999999999999943
 31
0
  0
LINE
  5
75
330
1A
100
AcDbEntity
  8
BLACK
  6
CONTINUOUS
100
AcDbLine
 10
94.3999999999999915
 20
-139.0999999999999943
 30
0
 11
94.3043289999999956
 21
-139.0809700000000078
 31
0
  0
LINE
  5
76
330
1A
100
AcDbEntity
  8
BLACK
  6
CONTINUOUS
100
AcDbLine
 10
94.3043289999999956
 20
-139.0809700000000078
 30
0
 11
94.2232229999999902
 21
-139.0267769999999814
 31
0
  0
LINE
  5
77
330
1A
100
AcDbEntity
  8
BLACK
  6
CONTINUOUS
100
AcDbLine
 10
94.2232229999999902
 20
-139.0267769999999814
 30
0
 11
94.1690299999999922
 21
-138.9456710000000044
 31
0
  0
LINE
  5
78
330
1A
100
AcDbEntity
  8
BLACK
  6
CONTINUOUS
100
AcDbLine
 10
94.1690299999999922
 20
-138.9456710000000044
 30
0
 11
94.1499999999999915
 21
-138.8499999999999943
 31
0
  0
LINE
  5
79
330
1A
100
AcDbEntity
  8
BLACK
  6
CONTINUOUS
100
AcDbLine
 10
94.1499999999999915
 20
-138.8499999999999943
 30
0
 11
94.1499999999999915
 21
-138.1999999999999886
 31
0
  0
LINE
  5
7A
330
1A
100
AcDbEntity
  8
BLACK
  6
CONTINUOUS
100
AcDbLine
 10
94.1499999999999915
 20
-138.1999999999999886
 30
0
 11
94.1690299999999922
 21
-138.104329000000007
 31
0
  0
LINE
  5
7B
330
1A
100
AcDbEntity
  8
BLACK
  6
CONTINUOUS
100
AcDbLine
 10
94.1690299999999922
 20
-138.104329000000007
 30
0
 11
94.2232229999999902
 21
-138.0232230000000015
 31
0
  0
LINE
  5
7C
330
1A
100
AcDbEntity
  8
BLACK
  6
CONTINUOUS
100
AcDbLine
 10
94.2232229999999902
 20
-138.0232230000000015
 30
0
 11
94.3043289999999956
 21
-137.9690300000000036
 31
0
  0
LINE
  5
7D
330
1A
100
AcDbEntity
  8
BLACK
  6
CONTINUOUS
100
AcDbLine
 10
94.3043289999999956
 20
-137.9690300000000036
 30
0
 11
94.3999999999999915
 21
-137.9499999999999886
 31
0
  0
LINE
  5
7E
330
1A
100
AcDbEntity
  8
BLACK
  6
CONTINUOUS
100
AcDbLine
 10
94.3999999999999915
 20
-137.9499999999999886
 30
0
 11
96.5999999999999943
 21
-137.9499999999999886
 31
0
  0
LINE
  5
7F
330
1A
100
AcDbEntity
  8
BLACK
  6
CONTINUOUS
100
AcDbLine
 10
96.5999999999999943
 20
-137.9499999999999886
 30
0
 11
96.6956709999999902
 21
-137.9690300000000036
 31
0
  0
LINE
  5
80
330
1A
100
AcDbEntity
  8
BLACK
  6
CONTINUOUS
100
AcDbLine
 10
105.2456710000000015
 20
-98.4190299999999922
 30
0
 11
105.3267769999999928
 21
-98.4732229999999902
 31
0
  0
LINE
  5
81
330
1A
100
AcDbEntity
  8
BLACK
  6
CONTINUOUS
100
AcDbLine
 10
105.3267769999999928
 20
-98.4732229999999902
 30
0
 11
105.3809699999999907
 21
-98.5543289999999956
 31
0
  0
LINE
  5
82
330
1A
100
AcDbEntity
  8
BLACK
  6
CONTINUOUS
100
AcDbLine
 10
105.3809699999999907
 20
-98.5543289999999956
 30
0
 11
105.3999999999999915
 21
-98.6499999999999915
 31
0
  0
LINE
  5
83
330
1A
100
AcDbEntity
  8
BLACK
  6
CONTINUOUS
100
AcDbLine
 10
105.3999999999999915
 20
-98.6499999999999915
 30
0
 11
105.3999999999999915
 21
-99.2999999999999972
 31
0
  0
LINE
  5
84
330
1A
100
AcDbEntity
  8
BLACK
  6
CONTINUOUS
100
AcDbLine
 10
105.3999999999999915
 20
-99.2999999999999972
 30
0
 11
105.3809699999999907
 21
-99.395670999999993
 31
0
  0
LINE
  5
85
330
1A
100
AcDbEntity
  8
BLACK
  6
CONTINUOUS
100
AcDbLine
 10
105.3809699999999907
 20
-99.395670999999993
 30
0
 11
105.3267769999999928
 21
-99.4767769999999985
 31
0
  0
LINE
  5
86
330
1A
100
AcDbEntity
  8
BLACK
  6
CONTINUOUS
100
AcDbLine
 10
105.3267769999999928
 20
-99.4767769999999985
 30
0
 11
105.2456710000000015
 21
-99.5309699999999964
 31
0
  0
LINE
  5
87
330
1A
100
AcDbEntity
  8
BLACK
  6
CONTINUOUS
100
AcDbLine
 10
105.2456710000000015
 20
-99.5309699999999964
 30
0
 11
105.1499999999999915
 21
-99.5499999999999972
 31
0
  0
LINE
  5
88
330
1A
100
AcDbEntity
  8
BLACK
  6
CONTINUOUS
100
AcDbLine
 10
105.1499999999999915
 20
-99.5499999999999972
 30
0
 11
103.8499999999999943
 21
-99.5499999999999972
 31
0
  0
LINE
  5
89
330
1A
100
AcDbEntity
  8
BLACK
  6
CONTINUOUS
100
AcDbLine
 10
103.8499999999999943
 20
-99.5499999999999972
 30
0
 11
103.7543289999999985
 21
-99.5309699999999964
 31
0
  0
LINE
  5
8A
330
1A
100
AcDbEntity
  8
BLACK
  6
CONTINUOUS
100
AcDbLine
 10
103.7543289999999985
 20
-99.5309699999999964
 30
0
 11
103.673222999999993
 21
-99.4767769999999985
 31
0
  0
LINE
  5
8B
330
1A
100
AcDbEntity
  8
BLACK
  6
CONTINUOUS
100
AcDbLine
 10
103.673222999999993
 20
-99.4767769999999985
 30
0
 11
103.6190299999999951
 21
-99.395670999999993
 31
0
  0
LINE
  5
8C
330
1A
100
AcDbEntity
  8
BLACK
  6
CONTINUOUS
100
AcDbLine
 10
103.6190299999999951
 20
-99.395670999999993
 30
0
 11
103.5999999999999943
 21
-99.2999999999999972
 31
0
  0
LINE
  5
8D
330
1A
100
AcDbEntity
  8
BLACK
  6
CONTINUOUS
100
AcDbLine
 10
103.5999999999999943
 20
-99.2999999999999972
 30
0
 11
103.5999999999999943
 21
-98.6499999999999915
 31
0
  0
LINE
  5
8E
330
1A
100
AcDbEntity
  8
BLACK
  6
CONTINUOUS
100
AcDbLine
 10
103.5999999999999943
 20
-98.6499999999999915
 30
0
 11
103.6190299999999951
 21
-98.5543289999999956
 31
0
  0
LINE
  5
8F
330
1A
100
AcDbEntity
  8
BLACK
  6
CONTINUOUS
100
AcDbLine
 10
103.6190299999999951
 20
-98.5543289999999956
 30
0
 11
103.673222999999993
 21
-98.4732229999999902
 31
0
  0
LINE
  5
90
330
1A
100
AcDbEntity
  8
BLACK
  6
CONTINUOUS
100
AcDbLine
 10
103.673222999999993
 20
-98.4732229999999902
 30
0
 11
103.7543289999999985
 21
-98.4190299999999922
 31
0
  0
LINE
  5
91
330
1A
100
AcDbEntity
  8
BLACK
  6
CONTINUOUS
100
AcDbLine
 10
103.7543289999999985
 20
-98.4190299999999922
 30
0
 11
103.8499999999999943
 21
-98.3999999999999915
 31
0
  0
LINE
  5
92
330
1A
100
AcDbEntity
  8
BLACK
  6
CONTINUOUS
100
AcDbLine
 10
103.8499999999999943
 20
-98.3999999999999915
 30
0
 11
105.1499999999999915
 21
-98.3999999999999915
 31
0
  0
LINE
  5
93
330
1A
100
AcDbEntity
  8
BLACK
  6
CONTINUOUS
100
AcDbLine
 10
105.1499999999999915
 20
-98.3999999999999915
 30
0
 11
105.2456710000000015
 21
-98.4190299999999922
 31
0
  0
LINE
  5
94
330
1A
100
AcDbEntity
  8
BLACK
  6
CONTINUOUS
100
AcDbLine
 10
105.2456710000000015
 20
-95.4690299999999894
 30
0
 11
105.3267769999999928
 21
-95.5232230000000015
 31
0
  0
LINE
  5
95
330
1A
100
AcDbEntity
  8
BLACK
  6
CONTINUOUS
100
AcDbLine
 10
105.3267769999999928
 20
-95.5232230000000015
 30
0
 11
105.3809699999999907
 21
-95.6043289999999928
 31
0
  0
LINE
  5
96
330
1A
100
AcDbEntity
  8
BLACK
  6
CONTINUOUS
100
AcDbLine
 10
105.3809699999999907
 20
-95.6043289999999928
 30
0
 11
105.3999999999999915
 21
-95.6999999999999886
 31
0
  0
LINE
  5
97
330
1A
100
AcDbEntity
  8
BLACK
  6
CONTINUOUS
100
AcDbLine
 10
105.3999999999999915
 20
-95.6999999999999886
 30
0
 11
105.3999999999999915
 21
-96.3499999999999943
 31
0
  0
LINE
  5
98
330
1A
100
AcDbEntity
  8
BLACK
  6
CONTINUOUS
100
AcDbLine
 10
105.3999999999999915
 20
-96.3499999999999943
 30
0
 11
105.3809699999999907
 21
-96.4456709999999902
 31
0
  0
LINE
  5
99
330
1A
100
AcDbEntity
  8
BLACK
  6
CONTINUOUS
100
AcDbLine
 10
105.3809699999999907
 20
-96.4456709999999902
 30
0
 11
105.3267769999999928
 21
-96.5267769999999956
 31
0
  0
LINE
  5
9A
330
1A
100
AcDbEntity
  8
BLACK
  6
CONTINUOUS
100
AcDbLine
 10
105.3267769999999928
 20
-96.5267769999999956
 30
0
 11
105.2456710000000015
 21
-96.5809699999999935
 31
0
  0
LINE
  5
9B
330
1A
100
AcDbEntity
  8
BLACK
  6
CONTINUOUS
100
AcDbLine
 10
105.2456710000000015
 20
-96.5809699999999935
 30
0
 11
105.1499999999999915
 21
-96.5999999999999943
 31
0
  0
LINE
  5
9C
330
1A
100
AcDbEntity
  8
BLACK
  6
CONTINUOUS
100
AcDbLine
 10
105.1499999999999915
 20
-96.5999999999999943
 30
0
 11
103.8499999999999943
 21
-96.5999999999999943
 31
0
  0
LINE
  5
9D
330
1A
100
AcDbEntity
  8
BLACK
  6
CONTINUOUS
100
AcDbLine
 10
103.8499999999999943
 20
-96.5999999999999943
 30
0
 11
103.7543289999999985
 21
-96.5809699999999935
 31
0
  0
LINE
  5
9E
330
1A
100
AcDbEntity
  8
BLACK
  6
CONTINUOUS
100
AcDbLine
 10
103.7543289999999985
 20
-96.5809699999999935
 30
0
 11
103.673222999999993
 21
-96.5267769999999956
 31
0
  0
LINE
  5
9F
330
1A
100
AcDbEntity
  8
BLACK
  6
CONTINUOUS
100
AcDbLine
 10
103.673222999999993
 20
-96.5267769999999956
 30
0
 11
103.6190299999999951
 21
-96.4456709999999902
 31
0
  0
LINE
  5
A0
330
1A
100
AcDbEntity
  8
BLACK
  6
CONTINUOUS
100
AcDbLine
 10
103.6190299999999951
 20
-96.4456709999999902
 30
0
 11
103.5999999999999943
 21
-96.3499999999999943
 31
0
  0
LINE
  5
A1
330
1A
100
AcDbEntity
  8
BLACK
  6
CONTINUOUS
100
AcDbLine
 10
103.5999999999999943
 20
-96.3499999999999943
 30
0
 11
103.5999999999999943
 21
-95.6999999999999886
 31
0
  0
LINE
  5
A2
330
1A
100
AcDbEntity
  8
BLACK
  6
CONTINUOUS
100
AcDbLine
 10
103.5999999999999943
 20
-95.6999999999999886
 30
0
 11
103.6190299999999951
 21
-95.6043289999999928
 31
0
  0
LINE
  5
A3
330
1A
100
AcDbEntity
  8
BLACK
  6
CONTINUOUS
100
AcDbLine
 10
103.6190299999999951
 20
-95.6043289999999928
 30
0
 11
103.673222999999993
 21
-95.5232230000000015
 31
0
  0
LINE
  5
A4
330
1A
100
AcDbEntity
  8
BLACK
  6
CONTINUOUS
100
AcDbLine
 10
103.673222999999993
 20
-95.5232230000000015
 30
0
 11
103.7543289999999985
 21
-95.4690299999999894
 31
0
  0
LINE
  5
A5
330
1A
100
AcDbEntity
  8
BLACK
  6
CONTINUOUS
100
AcDbLine
 10
103.7543289999999985
 20
-95.4690299999999894
 30
0
 11
103.8499999999999943
 21
-95.4499999999999886
 31
0
  0
LINE
  5
A6
330
1A
100
AcDbEntity
  8
BLACK
  6
CONTINUOUS
100
AcDbLine
 10
103.8499999999999943
 20
-95.4499999999999886
 30
0
 11
105.1499999999999915
 21
-95.4499999999999886
 31
0
  0
LINE
  5
A7
330
1A
100
AcDbEntity
  8
BLACK
  6
CONTINUOUS
100
AcDbLine
 10
105.1499999999999915
 20
-95.4499999999999886
 30
0
 11
105.2456710000000015
 21
-95.4690299999999894
 31
0
  0
LINE
  5
A8
330
1A
100
AcDbEntity
  8
BLACK
  6
CONTINUOUS
100
AcDbLine
 10
110.1499999999999915
 20
-94.539999999999992
 30
0
 11
107.1499999999999915
 21
-94.539999999999992
 31
0
  0
LINE
  5
A9
330
1A
100
AcDbEntity
  8
BLACK
  6
CONTINUOUS
100
AcDbLine
 10
107.1499999999999915
 20
-94.539999999999992
 30
0
 11
107.1499999999999915
 21
-92.539999999999992
 31
0
  0
LINE
  5
AA
330
1A
100
AcDbEntity
  8
BLACK
  6
CONTINUOUS
100
AcDbLine
 10
107.1499999999999915
 20
-92.539999999999992
 30
0
 11
110.1499999999999915
 21
-92.539999999999992
 31
0
  0
LINE
  5
AB
330
1A
100
AcDbEntity
  8
BLACK
  6
CONTINUOUS
100
AcDbLine
 10
110.1499999999999915
 20
-92.539999999999992
 30
0
 11
110.1499999999999915
 21
-94.539999999999992
 31
0
  0
LINE
  5
AC
330
1A
100
AcDbEntity
  8
BLACK
  6
CONTINUOUS
100
AcDbLine
 10
111.6499999999999915
 20
-92.1499999999999915
 30
0
 11
110.3499999999999943
 21
-92.1499999999999915
 31
0
  0
LINE
  5
AD
330
1A
100
AcDbEntity
  8
BLACK
  6
CONTINUOUS
100
AcDbLine
 10
110.3499999999999943
 20
-92.1499999999999915
 30
0
 11
110.3499999999999943
 21
-91.8499999999999943
 31
0
  0
LINE
  5
AE
330
1A
100
AcDbEntity
  8
BLACK
  6
CONTINUOUS
100
AcDbLine
 10
110.3499999999999943
 20
-91.8499999999999943
 30
0
 11
111.6499999999999915
 21
-91.8499999999999943
 31
0
  0
LINE
  5
AF
330
1A
100
AcDbEntity
  8
BLACK
  6
CONTINUOUS
100
AcDbLine
 10
111.6499999999999915
 20
-91.8499999999999943
 30
0
 11
111.6499999999999915
 21
-92.1499999999999915
 31
0
  0
LINE
  5
B0
330
1A
100
AcDbEntity
  8
BLACK
  6
CONTINUOUS
100
AcDbLine
 10
111.6499999999999915
 20
-91.6499999999999915
 30
0
 11
110.3499999999999943
 21
-91.6499999999999915
 31
0
  0
LINE
  5
B1
330
1A
100
AcDbEntity
  8
BLACK
  6
CONTINUOUS
100
AcDbLine
 10
110.3499999999999943
 20
-91.6499999999999915
 30
0
 11
110.3499999999999943
 21
-91.3499999999999943
 31
0
  0
LINE
  5
B2
330
1A
100
AcDbEntity
  8
BLACK
  6
CONTINUOUS
100
AcDbLine
 10
110.3499999999999943
 20
-91.3499999999999943
 30
0
 11
111.6499999999999915
 21
-91.3499999999999943
 31
0
  0
LINE
  5
B3
330
1A
100
AcDbEntity
  8
BLACK
  6
CONTINUOUS
100
AcDbLine
 10
111.6499999999999915
 20
-91.3499999999999943
 30
0
 11
111.6499999999999915
 21
-91.6499999999999915
 31
0
  0
LINE
  5
B4
330
1A
100
AcDbEntity
  8
BLACK
  6
CONTINUOUS
100
AcDbLine
 10
111.6499999999999915
 20
-91.1499999999999915
 30
0
 11
110.3499999999999943
 21
-91.1499999999999915
 31
0
  0
LINE
  5
B5
330
1A
100
AcDbEntity
  8
BLACK
  6
CONTINUOUS
100
AcDbLine
 10
110.3499999999999943
 20
-91.1499999999999915
 30
0
 11
110.3499999999999943
 21
-90.8499999999999943
 31
0
  0
LINE
  5
B6
330
1A
100
AcDbEntity
  8
BLACK
  6
CONTINUOUS
100
AcDbLine
 10
110.3499999999999943
 20
-90.8499999999999943
 30
0
 11
111.6499999999999915
 21
-90.8499999999999943
 31
0
  0
LINE
  5
B7
330
1A
100
AcDbEntity
  8
BLACK
  6
CONTINUOUS
100
AcDbLine
 10
111.6499999999999915
 20
-90.8499999999999943
 30
0
 11
111.6499999999999915
 21
-91.1499999999999915
 31
0
  0
LINE
  5
B8
330
1A
100
AcDbEntity
  8
BLACK
  6
CONTINUOUS
100
AcDbLine
 10
111.6499999999999915
 20
-90.6499999999999915
 30
0
 11
110.3499999999999943
 21
-90.6499999999999915
 31
0
  0
LINE
  5
B9
330
1A
100
AcDbEntity
  8
BLACK
  6
CONTINUOUS
100
AcDbLine
 10
110.3499999999999943
 20
-90.6499999999999915
 30
0
 11
110.3499999999999943
 21
-90.3499999999999943
 31
0
  0
LINE
  5
BA
330
1A
100
AcDbEntity
  8
BLACK
  6
CONTINUOUS
100
AcDbLine
 10
110.3499999999999943
 20
-90.3499999999999943
 30
0
 11
111.6499999999999915
 21
-90.3499999999999943
 31
0
  0
LINE
  5
BB
330
1A
100
AcDbEntity
  8
BLACK
  6
CONTINUOUS
100
AcDbLine
 10
111.6499999999999915
 20
-90.3499999999999943
 30
0
 11
111.6499999999999915
 21
-90.6499999999999915
 31
0
  0
LINE
  5
BC
330
1A
100
AcDbEntity
  8
BLACK
  6
CONTINUOUS
100
AcDbLine
 10
111.6499999999999915
 20
-90.1499999999999915
 30
0
 11
110.3499999999999943
 21
-90.1499999999999915
 31
0
  0
LINE
  5
BD
330
1A
100
AcDbEntity
  8
BLACK
  6
CONTINUOUS
100
AcDbLine
 10
110.3499999999999943
 20
-90.1499999999999915
 30
0
 11
110.3499999999999943
 21
-89.8499999999999943
 31
0
  0
LINE
  5
BE
330
1A
100
AcDbEntity
  8
BLACK
  6
CONTINUOUS
100
AcDbLine
 10
110.3499999999999943
 20
-89.8499999999999943
 30
0
 11
111.6499999999999915
 21
-89.8499999999999943
 31
0
  0
LINE
  5
BF
330
1A
100
AcDbEntity
  8
BLACK
  6
CONTINUOUS
100
AcDbLine
 10
111.6499999999999915
 20
-89.8499999999999943
 30
0
 11
111.6499999999999915
 21
-90.1499999999999915
 31
0
  0
LINE
  5
C0
330
1A
100
AcDbEntity
  8
BLACK
  6
CONTINUOUS
100
AcDbLine
 10
111.6499999999999915
 20
-89.6499999999999915
 30
0
 11
110.3499999999999943
 21
-89.6499999999999915
 31
0
  0
LINE
  5
C1
330
1A
100
AcDbEntity
  8
BLACK
  6
CONTINUOUS
100
AcDbLine
 10
110.3499999999999943
 20
-89.6499999999999915
 30
0
 11
110.3499999999999943
 21
-89.3499999999999943
 31
0
  0
LINE
  5
C2
330
1A
100
AcDbEntity
  8
BLACK
  6
CONTINUOUS
100
AcDbLine
 10
110.3499999999999943
 20
-89.3499999999999943
 30
0
 11
111.6499999999999915
 21
-89.3499999999999943
 31
0
  0
LINE
  5
C3
330
1A
100
AcDbEntity
  8
BLACK
  6
CONTINUOUS
100
AcDbLine
 10
111.6499999999999915
 20
-89.3499999999999943
 30
0
 11
111.6499999999999915
 21
-89.6499999999999915
 31
0
  0
LINE
  5
C4
330
1A
100
AcDbEntity
  8
BLACK
  6
CONTINUOUS
100
AcDbLine
 10
111.6499999999999915
 20
-89.1499999999999915
 30
0
 11
110.3499999999999943
 21
-89.1499999999999915
 31
0
  0
LINE
  5
C5
330
1A
100
AcDbEntity
  8
BLACK
  6
CONTINUOUS
100
AcDbLine
 10
110.3499999999999943
 20
-89.1499999999999915
 30
0
 11
110.3499999999999943
 21
-88.8499999999999943
 31
0
  0
LINE
  5
C6
330
1A
100
AcDbEntity
  8
BLACK
  6
CONTINUOUS
100
AcDbLine
 10
110.3499999999999943
 20
-88.8499999999999943
 30
0
 11
111.6499999999999915
 21
-88.8499999999999943
 31
0
  0
LINE
  5
C7
330
1A
100
AcDbEntity
  8
BLACK
  6
CONTINUOUS
100
AcDbLine
 10
111.6499999999999915
 20
-88.8499999999999943
 30
0
 11
111.6499999999999915
 21
-89.1499999999999915
 31
0
  0
LINE
  5
C8
330
1A
100
AcDbEntity
  8
BLACK
  6
CONTINUOUS
100
AcDbLine
 10
111.6499999999999915
 20
-88.6499999999999915
 30
0
 11
110.3499999999999943
 21
-88.6499999999999915
 31
0
  0
LINE
  5
C9
330
1A
100
AcDbEntity
  8
BLACK
  6
CONTINUOUS
100
AcDbLine
 10
110.3499999999999943
 20
-88.6499999999999915
 30
0
 11
110.3499999999999943
 21
-88.3499999999999943
 31
0
  0
LINE
  5
CA
330
1A
100
AcDbEntity
  8
BLACK
  6
CONTINUOUS
100
AcDbLine
 10
110.3499999999999943
 20
-88.3499999999999943
 30
0
 11
111.6499999999999915
 21
-88.3499999999999943
 31
0
  0
LINE
  5
CB
330
1A
100
AcDbEntity
  8
BLACK
  6
CONTINUOUS
100
AcDbLine
 10
111.6499999999999915
 20
-88.3499999999999943
 30
0
 11
111.6499999999999915
 21
-88.6499999999999915
 31
0
  0
LINE
  5
CC
330
1A
100
AcDbEntity
  8
BLACK
  6
CONTINUOUS
100
AcDbLine
 10
111.6499999999999915
 20
-88.1499999999999915
 30
0
 11
110.3499999999999943
 21
-88.1499999999999915
 31
0
  0
LINE
  5
CD
330
1A
100
AcDbEntity
  8
BLACK
  6
CONTINUOUS
100
AcDbLine
 10
110.3499999999999943
 20
-88.1499999999999915
 30
0
 11
110.3499999999999943
 21
-87.8499999999999943
 31
0
  0
LINE
  5
CE
330
1A
100
AcDbEntity
  8
BLACK
  6
CONTINUOUS
100
AcDbLine
 10
110.3499999999999943
 20
-87.8499999999999943
 30
0
 11
111.6499999999999915
 21
-87.8499999999999943
 31
0
  0
LINE
  5
CF
330
1A
100
AcDbEntity
  8
BLACK
  6
CONTINUOUS
100
AcDbLine
 10
111.6499999999999915
 20
-87.8499999999999943
 30
0
 11
111.6499999999999915
 21
-88.1499999999999915
 31
0
  0
LINE
  5
D0
330
1A
100
AcDbEntity
  8
BLACK
  6
CONTINUOUS
100
AcDbLine
 10
111.6499999999999915
 20
-87.6499999999999915
 30
0
 11
110.3499999999999943
 21
-87.6499999999999915
 31
0
  0
LINE
  5
D1
330
1A
100
AcDbEntity
  8
BLACK
  6
CONTINUOUS
100
AcDbLine
 10
110.3499999999999943
 20
-87.6499999999999915
 30
0
 11
110.3499999999999943
 21
-87.3499999999999943
 31
0
  0
LINE
  5
D2
330
1A
100
AcDbEntity
  8
BLACK
  6
CONTINUOUS
100
AcDbLine
 10
110.3499999999999943
 20
-87.3499999999999943
 30
0
 11
111.6499999999999915
 21
-87.3499999999999943
 31
0
  0
LINE
  5
D3
330
1A
100
AcDbEntity
  8
BLACK
  6
CONTINUOUS
100
AcDbLine
 10
111.6499999999999915
 20
-87.3499999999999943
 30
0
 11
111.6499999999999915
 21
-87.6499999999999915
 31
0
  0
LINE
  5
D4
330
1A
100
AcDbEntity
  8
BLACK
  6
CONTINUOUS
100
AcDbLine
 10
111.6499999999999915
 20
-87.1499999999999915
 30
0
 11
110.3499999999999943
 21
-87.1499999999999915
 31
0
  0
LINE
  5
D5
330
1A
100
AcDbEntity
  8
BLACK
  6
CONTINUOUS
100
AcDbLine
 10
110.3499999999999943
 20
-87.1499999999999915
 30
0
 11
110.3499999999999943
 21
-86.8499999999999943
 31
0
  0
LINE
  5
D6
330
1A
100
AcDbEntity
  8
BLACK
  6
CONTINUOUS
100
AcDbLine
 10
110.3499999999999943
 20
-86.8499999999999943
 30
0
 11
111.6499999999999915
 21
-86.8499999999999943
 31
0
  0
LINE
  5
D7
330
1A
100
AcDbEntity
  8
BLACK
  6
CONTINUOUS
100
AcDbLine
 10
111.6499999999999915
 20
-86.8499999999999943
 30
0
 11
111.6499999999999915
 21
-87.1499999999999915
 31
0
  0
LINE
  5
D8
330
1A
100
AcDbEntity
  8
BLACK
  6
CONTINUOUS
100
AcDbLine
 10
111.6499999999999915
 20
-86.6499999999999915
 30
0
 11
110.3499999999999943
 21
-86.6499999999999915
 31
0
  0
LINE
  5
D9
330
1A
100
AcDbEntity
  8
BLACK
  6
CONTINUOUS
100
AcDbLine
 10
110.3499999999999943
 20
-86.6499999999999915
 30
0
 11
110.3499999999999943
 21
-86.3499999999999943
 31
0
  0
LINE
  5
DA
330
1A
100
AcDbEntity
  8
BLACK
  6
CONTINUOUS
100
AcDbLine
 10
110.3499999999999943
 20
-86.3499999999999943
 30
0
 11
111.6499999999999915
 21
-86.3499999999999943
 31
0
  0
LINE
  5
DB
330
1A
100
AcDbEntity
  8
BLACK
  6
CONTINUOUS
100
AcDbLine
 10
111.6499999999999915
 20
-86.3499999999999943
 30
0
 11
111.6499999999999915
 21
-86.6499999999999915
 31
0
  0
LINE
  5
DC
330
1A
100
AcDbEntity
  8
BLACK
  6
CONTINUOUS
100
AcDbLine
 10
111.6499999999999915
 20
-86.1499999999999915
 30
0
 11
110.3499999999999943
 21
-86.1499999999999915
 31
0
  0
LINE
  5
DD
330
1A
100
AcDbEntity
  8
BLACK
  6
CONTINUOUS
100
AcDbLine
 10
110.3499999999999943
 20
-86.1499999999999915
 30
0
 11
110.3499999999999943
 21
-85.8499999999999943
 31
0
  0
LINE
  5
DE
330
1A
100
AcDbEntity
  8
BLACK
  6
CONTINUOUS
100
AcDbLine
 10
110.3499999999999943
 20
-85.8499999999999943
 30
0
 11
111.6499999999999915
 21
-85.8499999999999943
 31
0
  0
LINE
  5
DF
330
1A
100
AcDbEntity
  8
BLACK
  6
CONTINUOUS
100
AcDbLine
 10
111.6499999999999915
 20
-85.8499999999999943
 30
0
 11
111.6499999999999915
 21
-86.1499999999999915
 31
0
  0
LINE
  5
E0
330
1A
100
AcDbEntity
  8
BLACK
  6
CONTINUOUS
100
AcDbLine
 10
111.6499999999999915
 20
-85.6499999999999915
 30
0
 11
110.3499999999999943
 21
-85.6499999999999915
 31
0
  0
LINE
  5
E1
330
1A
100
AcDbEntity
  8
BLACK
  6
CONTINUOUS
100
AcDbLine
 10
110.3499999999999943
 20
-85.6499999999999915
 30
0
 11
110.3499999999999943
 21
-85.3499999999999943
 31
0
  0
LINE
  5
E2
330
1A
100
AcDbEntity
  8
BLACK
  6
CONTINUOUS
100
AcDbLine
 10
110.3499999999999943
 20
-85.3499999999999943
 30
0
 11
111.6499999999999915
 21
-85.3499999999999943
 31
0
  0
LINE
  5
E3
330
1A
100
AcDbEntity
  8
BLACK
  6
CONTINUOUS
100
AcDbLine
 10
111.6499999999999915
 20
-85.3499999999999943
 30
0
 11
111.6499999999999915
 21
-85.6499999999999915
 31
0
  0
LINE
  5
E4
330
1A
100
AcDbEntity
  8
BLACK
  6
CONTINUOUS
100
AcDbLine
 10
111.6499999999999915
 20
-85.1499999999999915
 30
0
 11
110.3499999999999943
 21
-85.1499999999999915
 31
0
  0
LINE
  5
E5
330
1A
100
AcDbEntity
  8
BLACK
  6
CONTINUOUS
100
AcDbLine
 10
110.3499999999999943
 20
-85.1499999999999915
 30
0
 11
110.3499999999999943
 21
-84.8499999999999943
 31
0
  0
LINE
  5
E6
330
1A
100
AcDbEntity
  8
BLACK
  6
CONTINUOUS
100
AcDbLine
 10
110.3499999999999943
 20
-84.8499999999999943
 30
0
 11
111.6499999999999915
 21
-84.8499999999999943
 31
0
  0
LINE
  5
E7
330
1A
100
AcDbEntity
  8
BLACK
  6
CONTINUOUS
100
AcDbLine
 10
111.6499999999999915
 20
-84.8499999999999943
 30
0
 11
111.6499999999999915
 21
-85.1499999999999915
 31
0
  0
LINE
  5
E8
330
1A
100
AcDbEntity
  8
BLACK
  6
CONTINUOUS
100
AcDbLine
 10
111.6499999999999915
 20
-84.6499999999999915
 30
0
 11
110.3499999999999943
 21
-84.6499999999999915
 31
0
  0
LINE
  5
E9
330
1A
100
AcDbEntity
  8
BLACK
  6
CONTINUOUS
100
AcDbLine
 10
110.3499999999999943
 20
-84.6499999999999915
 30
0
 11
110.3499999999999943
 21
-84.3499999999999943
 31
0
  0
LINE
  5
EA
330
1A
100
AcDbEntity
  8
BLACK
  6
CONTINUOUS
100
AcDbLine
 10
110.3499999999999943
 20
-84.3499999999999943
 30
0
 11
111.6499999999999915
 21
-84.3499999999999943
 31
0
  0
LINE
  5
EB
330
1A
100
AcDbEntity
  8
BLACK
  6
CONTINUOUS
100
AcDbLine
 10
111.6499999999999915
 20
-84.3499999999999943
 30
0
 11
111.6499999999999915
 21
-84.6499999999999915
 31
0
  0
LINE
  5
EC
330
1A
100
AcDbEntity
  8
BLACK
  6
CONTINUOUS
100
AcDbLine
 10
111.6499999999999915
 20
-84.1499999999999915
 30
0
 11
110.3499999999999943
 21
-84.1499999999999915
 31
0
  0
LINE
  5
ED
330
1A
100
AcDbEntity
  8
BLACK
  6
CONTINUOUS
100
AcDbLine
 10
110.3499999999999943
 20
-84.1499999999999915
 30
0
 11
110.3499999999999943
 21
-83.8499999999999943
 31
0
  0
LINE
  5
EE
330
1A
100
AcDbEntity
  8
BLACK
  6
CONTINUOUS
100
AcDbLine
 10
110.3499999999999943
 20
-83.8499999999999943
 30
0
 11
111.6499999999999915
 21
-83.8499999999999943
 31
0
  0
LINE
  5
EF
330
1A
100
AcDbEntity
  8
BLACK
  6
CONTINUOUS
100
AcDbLine
 10
111.6499999999999915
 20
-83.8499999999999943
 30
0
 11
111.6499999999999915
 21
-84.1499999999999915
 31
0
  0
LINE
  5
F0
330
1A
100
AcDbEntity
  8
BLACK
  6
CONTINUOUS
100
AcDbLine
 10
111.6499999999999915
 20
-83.6499999999999915
 30
0
 11
110.3499999999999943
 21
-83.6499999999999915
 31
0
  0
LINE
  5
F1
330
1A
100
AcDbEntity
  8
BLACK
  6
CONTINUOUS
100
AcDbLine
 10
110.3499999999999943
 20
-83.6499999999999915
 30
0
 11
110.3499999999999943
 21
-83.3499999999999943
 31
0
  0
LINE
  5
F2
330
1A
100
AcDbEntity
  8
BLACK
  6
CONTINUOUS
100
AcDbLine
 10
110.3499999999999943
 20
-83.3499999999999943
 30
0
 11
111.6499999999999915
 21
-83.3499999999999943
 31
0
  0
LINE
  5
F3
330
1A
100
AcDbEntity
  8
BLACK
  6
CONTINUOUS
100
AcDbLine
 10
111.6499999999999915
 20
-83.3499999999999943
 30
0
 11
111.6499999999999915
 21
-83.6499999999999915
 31
0
  0
LINE
  5
F4
330
1A
100
AcDbEntity
  8
BLACK
  6
CONTINUOUS
100
AcDbLine
 10
111.6499999999999915
 20
-83.1499999999999915
 30
0
 11
110.3499999999999943
 21
-83.1499999999999915
 31
0
  0
LINE
  5
F5
330
1A
100
AcDbEntity
  8
BLACK
  6
CONTINUOUS
100
AcDbLine
 10
110.3499999999999943
 20
-83.1499999999999915
 30
0
 11
110.3499999999999943
 21
-82.8499999999999943
 31
0
  0
LINE
  5
F6
330
1A
100
AcDbEntity
  8
BLACK
  6
CONTINUOUS
100
AcDbLine
 10
110.3499999999999943
 20
-82.8499999999999943
 30
0
 11
111.6499999999999915
 21
-82.8499999999999943
 31
0
  0
LINE
  5
F7
330
1A
100
AcDbEntity
  8
BLACK
  6
CONTINUOUS
100
AcDbLine
 10
111.6499999999999915
 20
-82.8499999999999943
 30
0
 11
111.6499999999999915
 21
-83.1499999999999915
 31
0
  0
LINE
  5
F8
330
1A
100
AcDbEntity
  8
BLACK
  6
CONTINUOUS
100
AcDbLine
 10
111.6499999999999915
 20
-82.6499999999999915
 30
0
 11
110.3499999999999943
 21
-82.6499999999999915
 31
0
  0
LINE
  5
F9
330
1A
100
AcDbEntity
  8
BLACK
  6
CONTINUOUS
100
AcDbLine
 10
110.3499999999999943
 20
-82.6499999999999915
 30
0
 11
110.3499999999999943
 21
-82.3499999999999943
 31
0
  0
LINE
  5
FA
330
1A
100
AcDbEntity
  8
BLACK
  6
CONTINUOUS
100
AcDbLine
 10
110.3499999999999943
 20
-82.3499999999999943
 30
0
 11
111.6499999999999915
 21
-82.3499999999999943
 31
0
  0
LINE
  5
FB
330
1A
100
AcDbEntity
  8
BLACK
  6
CONTINUOUS
100
AcDbLine
 10
111.6499999999999915
 20
-82.3499999999999943
 30
0
 11
111.6499999999999915
 21
-82.6499999999999915
 31
0
  0
LINE
  5
FC
330
1A
100
AcDbEntity
  8
BLACK
  6
CONTINUOUS
100
AcDbLine
 10
110.1499999999999915
 20
-81.9599999999999937
 30
0
 11
107.1499999999999915
 21
-81.9599999999999937
 31
0
  0
LINE
  5
FD
330
1A
100
AcDbEntity
  8
BLACK
  6
CONTINUOUS
100
AcDbLine
 10
107.1499999999999915
 20
-81.9599999999999937
 30
0
 11
107.1499999999999915
 21
-79.9599999999999937
 31
0
  0
LINE
  5
FE
330
1A
100
AcDbEntity
  8
BLACK
  6
CONTINUOUS
100
AcDbLine
 10
107.1499999999999915
 20
-79.9599999999999937
 30
0
 11
110.1499999999999915
 21
-79.9599999999999937
 31
0
  0
LINE
  5
FF
330
1A
100
AcDbEntity
  8
BLACK
  6
CONTINUOUS
100
AcDbLine
 10
110.1499999999999915
 20
-79.9599999999999937
 30
0
 11
110.1499999999999915
 21
-81.9599999999999937
 31
0
  0
ENDSEC
  0
SECTION
  2
OBJECTS
  0
DICTIONARY
  5
20
330
0
100
AcDbDictionary
281
1
  3
ACAD_GROUP
350
100
  3
ACAD_LAYOUT
350
21
  3
ACAD_PLOTSTYLENAME
350
11
  0
DICTIONARY
  5
100
330
20
100
AcDbDictionary
281
1
  0
ACDBDICTIONARYWDFLT
  5
11
330
20
100
AcDbDictionary
281
1
  3
Normal
350
10
100
AcDbDictionaryWithDefault
340
10
  0
ACDBPLACEHOLDER
  5
10
330
11
  0
DICTIONARY
  5
21
330
20
100
AcDbDictionary
281
1
  3
Model
350
1D
  3
Layout1
350
1E
  3
Layout2
350
1F
  0
LAYOUT
  5
1D
330
21
100
AcDbPlotSettings
  1

  2
none_device
  4
A3
  6

 40
0.0
 41
0.0
 42
0.0
 43
0.0
 44
420.0
 45
297.0
 46
0.0
 47
0.0
 48
0.0
 49
0.0
140
0.0
141
0.0
142
1.0
143
1.0
 70
1024
 72
1
 73
0
 74
5
  7

 75
16
 76
0
 77
2
 78
300
147
1.0
148
0.0
149
0.0
100
AcDbLayout
  1
Model
 70
1
 71
0
 10
0.0
 20
0.0
 11
420.0
 21
297.0
 12
0.0
 22
0.0
 32
0.0
 14
1e+20
 24
1e+20
 34
1e+20
 15
-1e+20
 25
-1e+20
 35
-1e+20
146
0.0
 13
0.0
 23
0.0
 33
0.0
 16
1.0
 26
0.0
 36
0.0
 17
0.0
 27
1.0
 37
0.0
 76
0
330
1A
  0
LAYOUT
  5
1E
330
21
100
AcDbPlotSettings
  1

  2
none_device
  4
A3
  6

 40
0.0
 41
0.0
 42
0.0
 43
0.0
 44
420.0
 45
297.0
 46
0.0
 47
0.0
 48
0.0
 49
0.0
140
0.0
141
0.0
142
1.0
143
1.0
 70
0
 72
1
 73
0
 74
5
  7

 75
16
 76
0
 77
2
 78
300
147
1.0
148
0.0
149
0.0
100
AcDbLayout
  1
Layout1
 70
1
 71
1
 10
0.0
 20
0.0
 11
420.0
 21
297.0
 12
0.0
 22
0.0
 32
0.0
 14
1e+20
 24
1e+20
 34
1e+20
 15
-1e+20
 25
-1e+20
 35
-1e+20
146
0.0
 13
0.0
 23
0.0
 33
0.0
 16
1.0
 26
0.0
 36
0.0
 17
0.0
 27
1.0
 37
0.0
 76
0
330
1B
  0
LAYOUT
  5
1F
330
21
100
AcDbPlotSettings
  1

  2
none_device
  4
A3
  6

 40
0.0
 41
0.0
 42
0.0
 43
0.0
 44
420.0
 45
297.0
 46
0.0
 47
0.0
 48
0.0
 49
0.0
140
0.0
141
0.0
142
1.0
143
1.0
 70
0
 72
1
 73
0
 74
5
  7

 75
16
 76
0
 77
2
 78
300
147
1.0
148
0.0
149
0.0
100
AcDbLayout
  1
Layout2
 70
1
 71
2
 10
0.0
 20
0.0
 11
420.0
 21
297.0
 12
0.0
 22
0.0
 32
0.0
 14
1e+20
 24
1e+20
 34
1e+20
 15
-1e+20
 25
-1e+20
 35
-1e+20
146
0.0
 13
0.0
 23
0.0
 33
0.0
 16
1.0
 26
0.0
 36
0.0
 17
0.0
 27
1.0
 37
0.0
 76
0
330
1C
  0
ENDSEC
  0
EOF
