  0
SECTION
  2
HEADER
  9
$ACADVER
  1
AC1018
  9
$HANDSEED
  5
FFFFFFFF
  9
$ANGBASE
  50
0.0
  9
$ANGDIR
  70
1
  9
$MEASUREMENT
  70
1
  9
$INSUNITS
  70
4
  0
ENDSEC
  0
SECTION
  2
TABLES
  0
TABLE
  2
APPID
  5
1
330
0
100
AcDbSymbolTable
 70
1
  0
APPID
  5
2
330
1
100
AcDbSymbolTableRecord
100
AcDbRegAppTableRecord
  2
ACAD
 70
0
  0
ENDTAB
  0
TABLE
  2
LTYPE
  5
3
330
0
100
AcDbSymbolTable
 70
6
  0
LTYPE
  5
4
330
3
100
AcDbSymbolTableRecord
100
AcDbLinetypeTableRecord
  2
ByBlock
 70
0
  3

 72
65
 73
0
 40
0
  0
LTYPE
  5
5
330
3
100
AcDbSymbolTableRecord
100
AcDbLinetypeTableRecord
  2
ByLayer
 70
0
  3

 72
65
 73
0
 40
0
  0
LTYPE
  5
6
330
3
100
AcDbSymbolTableRecord
100
AcDbLinetypeTableRecord
  2
CONTINUOUS
 70
0
  3
Solid line
 72
65
 73
0
 40
0
  0
LTYPE
  5
7
330
3
100
AcDbSymbolTableRecord
100
AcDbLinetypeTableRecord
  2
DASHDOT
 70
0
  3
Dash Dot ____ _ ____ _
 72
65
 73
4
 40
2
 49
1.25
 74
0
 49
-0.25
 74
0
 49
0.25
 74
0
 49
-0.25
 74
0
  0
LTYPE
  5
8
330
3
100
AcDbSymbolTableRecord
100
AcDbLinetypeTableRecord
  2
DASHED
 70
0
  3
Dashed __ __ __ __ __
 72
65
 73
2
 40
0.75
 49
0.5
 74
0
 49
-0.25
 74
0
  0
LTYPE
  5
9
330
3
100
AcDbSymbolTableRecord
100
AcDbLinetypeTableRecord
  2
DOTTED
 70
0
  3
Dotted .  .  .  .
 72
65
 73
2
 40
0.2
 49
0.0
 74
0
 49
-0.2
 74
0
  0
ENDTAB
  0
TABLE
  2
STYLE
  5
A
330
0
100
AcDbSymbolTable
 70
4
  0
STYLE
  5
B
330
A
100
AcDbSymbolTableRecord
100
AcDbTextStyleTableRecord
  2
KICAD
 70
0
 40
0
 41
1
 42
1
 50
0
 71
0
  3
isocp.shx
  0
STYLE
  5
C
330
A
100
AcDbSymbolTableRecord
100
AcDbTextStyleTableRecord
  2
KICADB
 70
0
 40
0
 41
1
 42
1
 50
0
 71
0
  3
isocp.shx
  0
STYLE
  5
D
330
A
100
AcDbSymbolTableRecord
100
AcDbTextStyleTableRecord
  2
KICADI
 70
0
 40
0
 41
1
 42
1
 50
15
 71
0
  3
isocp.shx
  0
STYLE
  5
E
330
A
100
AcDbSymbolTableRecord
100
AcDbTextStyleTableRecord
  2
KICADBI
 70
0
 40
0
 41
1
 42
1
 50
15
 71
0
  3
isocp.shx
  0
ENDTAB
  0
TABLE
  2
LAYER
  5
F
330
0
100
AcDbSymbolTable
 70
2
  0
LAYER
  5
12
330
F
100
AcDbSymbolTableRecord
100
AcDbLayerTableRecord
  2
0
 70
0
 62
7
  6
CONTINUOUS
390
10
  0
LAYER
  5
13
330
F
100
AcDbSymbolTableRecord
100
AcDbLayerTableRecord
  2
BLACK
 70
0
 62
250
  6
CONTINUOUS
390
10
  0
ENDTAB
  0
TABLE
  2
VPORT
  5
14
330
0
100
AcDbSymbolTable
 70
0
  0
ENDTAB
  0
TABLE
  2
VIEW
  5
15
330
0
100
AcDbSymbolTable
 70
0
  0
ENDTAB
  0
TABLE
  2
UCS
  5
16
330
0
100
AcDbSymbolTable
 70
0
  0
ENDTAB
  0
TABLE
  2
DIMSTYLE
  5
17
330
0
100
AcDbSymbolTable
 70
1
100
AcDbDimStyleTable
 71
0
  0
DIMSTYLE
105
18
330
17
100
AcDbSymbolTableRecord
100
AcDbDimStyleTableRecord
  2
Standard
 70
0
  0
ENDTAB
  0
TABLE
  2
BLOCK_RECORD
  5
19
330
0
100
AcDbSymbolTable
 70
3
  0
BLOCK_RECORD
  5
1A
330
19
100
AcDbSymbolTableRecord
100
AcDbBlockTableRecord
  2
*Model_Space
340
1D
 70
0
280
1
281
0
  0
BLOCK_RECORD
  5
1B
330
19
100
AcDbSymbolTableRecord
100
AcDbBlockTableRecord
  2
*Paper_Space
340
1E
 70
0
280
1
281
0
  0
BLOCK_RECORD
  5
1C
330
19
100
AcDbSymbolTableRecord
100
AcDbBlockTableRecord
  2
*Paper_Space0
340
1F
 70
0
280
1
281
0
  0
ENDTAB
  0
ENDSEC
  0
SECTION
  2
BLOCKS
  0
BLOCK
  5
23
330
1A
100
AcDbEntity
  8
0
100
AcDbBlockBegin
  2
*Model_Space
 70
0
 10
0.0
 20
0.0
 30
0.0
  3
*Model_Space
  1

  0
ENDBLK
  5
22
330
1A
100
AcDbEntity
  8
0
100
AcDbBlockEnd
  0
BLOCK
  5
25
330
1B
100
AcDbEntity
 67
1
  8
0
100
AcDbBlockBegin
  2
*Paper_Space
 70
0
 10
0.0
 20
0.0
 30
0.0
  3
*Paper_Space
  1

  0
ENDBLK
  5
24
330
1B
100
AcDbEntity
 67
1
  8
0
100
AcDbBlockEnd
  0
BLOCK
  5
27
330
1C
100
AcDbEntity
 67
1
  8
0
100
AcDbBlockBegin
  2
*Paper_Space0
 70
0
 10
0.0
 20
0.0
 30
0.0
  3
*Paper_Space0
  1

  0
ENDBLK
  5
26
330
1C
100
AcDbEntity
 67
1
  8
0
100
AcDbBlockEnd
  0
ENDSEC
  0
SECTION
  2
ENTITIES
  0
LINE
  5
28
330
1A
100
AcDbEntity
  8
BLACK
  6
CONTINUOUS
100
AcDbLine
 10
129.1956710000000044
 20
-171.1190299999999809
 30
0
 11
129.2767769999999814
 21
-171.1732229999999788
 31
0
  0
LINE
  5
29
330
1A
100
AcDbEntity
  8
BLACK
  6
CONTINUOUS
100
AcDbLine
 10
129.2767769999999814
 20
-171.1732229999999788
 30
0
 11
129.3309700000000078
 21
-171.2543289999999843
 31
0
  0
LINE
  5
2A
330
1A
100
AcDbEntity
  8
BLACK
  6
CONTINUOUS
100
AcDbLine
 10
129.3309700000000078
 20
-171.2543289999999843
 30
0
 11
129.3499999999999943
 21
-171.3499999999999943
 31
0
  0
LINE
  5
2B
330
1A
100
AcDbEntity
  8
BLACK
  6
CONTINUOUS
100
AcDbLine
 10
129.3499999999999943
 20
-171.3499999999999943
 30
0
 11
129.3499999999999943
 21
-172.6500000000000057
 31
0
  0
LINE
  5
2C
330
1A
100
AcDbEntity
  8
BLACK
  6
CONTINUOUS
100
AcDbLine
 10
129.3499999999999943
 20
-172.6500000000000057
 30
0
 11
129.3309700000000078
 21
-172.7456709999999873
 31
0
  0
LINE
  5
2D
330
1A
100
AcDbEntity
  8
BLACK
  6
CONTINUOUS
100
AcDbLine
 10
129.3309700000000078
 20
-172.7456709999999873
 30
0
 11
129.2767769999999814
 21
-172.8267769999999928
 31
0
  0
LINE
  5
2E
330
1A
100
AcDbEntity
  8
BLACK
  6
CONTINUOUS
100
AcDbLine
 10
129.2767769999999814
 20
-172.8267769999999928
 30
0
 11
129.1956710000000044
 21
-172.8809699999999907
 31
0
  0
LINE
  5
2F
330
1A
100
AcDbEntity
  8
BLACK
  6
CONTINUOUS
100
AcDbLine
 10
129.1956710000000044
 20
-172.8809699999999907
 30
0
 11
129.0999999999999943
 21
-172.9000000000000057
 31
0
  0
LINE
  5
30
330
1A
100
AcDbEntity
  8
BLACK
  6
CONTINUOUS
100
AcDbLine
 10
129.0999999999999943
 20
-172.9000000000000057
 30
0
 11
128.4499999999999886
 21
-172.9000000000000057
 31
0
  0
LINE
  5
31
330
1A
100
AcDbEntity
  8
BLACK
  6
CONTINUOUS
100
AcDbLine
 10
128.4499999999999886
 20
-172.9000000000000057
 30
0
 11
128.354329000000007
 21
-172.8809699999999907
 31
0
  0
LINE
  5
32
330
1A
100
AcDbEntity
  8
BLACK
  6
CONTINUOUS
100
AcDbLine
 10
128.354329000000007
 20
-172.8809699999999907
 30
0
 11
128.2732230000000015
 21
-172.8267769999999928
 31
0
  0
LINE
  5
33
330
1A
100
AcDbEntity
  8
BLACK
  6
CONTINUOUS
100
AcDbLine
 10
128.2732230000000015
 20
-172.8267769999999928
 30
0
 11
128.2190300000000036
 21
-172.7456709999999873
 31
0
  0
LINE
  5
34
330
1A
100
AcDbEntity
  8
BLACK
  6
CONTINUOUS
100
AcDbLine
 10
128.2190300000000036
 20
-172.7456709999999873
 30
0
 11
128.1999999999999886
 21
-172.6500000000000057
 31
0
  0
LINE
  5
35
330
1A
100
AcDbEntity
  8
BLACK
  6
CONTINUOUS
100
AcDbLine
 10
128.1999999999999886
 20
-172.6500000000000057
 30
0
 11
128.1999999999999886
 21
-171.3499999999999943
 31
0
  0
LINE
  5
36
330
1A
100
AcDbEntity
  8
BLACK
  6
CONTINUOUS
100
AcDbLine
 10
128.1999999999999886
 20
-171.3499999999999943
 30
0
 11
128.2190300000000036
 21
-171.2543289999999843
 31
0
  0
LINE
  5
37
330
1A
100
AcDbEntity
  8
BLACK
  6
CONTINUOUS
100
AcDbLine
 10
128.2190300000000036
 20
-171.2543289999999843
 30
0
 11
128.2732230000000015
 21
-171.1732229999999788
 31
0
  0
LINE
  5
38
330
1A
100
AcDbEntity
  8
BLACK
  6
CONTINUOUS
100
AcDbLine
 10
128.2732230000000015
 20
-171.1732229999999788
 30
0
 11
128.354329000000007
 21
-171.1190299999999809
 31
0
  0
LINE
  5
39
330
1A
100
AcDbEntity
  8
BLACK
  6
CONTINUOUS
100
AcDbLine
 10
128.354329000000007
 20
-171.1190299999999809
 30
0
 11
128.4499999999999886
 21
-171.0999999999999943
 31
0
  0
LINE
  5
3A
330
1A
100
AcDbEntity
  8
BLACK
  6
CONTINUOUS
100
AcDbLine
 10
128.4499999999999886
 20
-171.0999999999999943
 30
0
 11
129.0999999999999943
 21
-171.0999999999999943
 31
0
  0
LINE
  5
3B
330
1A
100
AcDbEntity
  8
BLACK
  6
CONTINUOUS
100
AcDbLine
 10
129.0999999999999943
 20
-171.0999999999999943
 30
0
 11
129.1956710000000044
 21
-171.1190299999999809
 31
0
  0
LINE
  5
3C
330
1A
100
AcDbEntity
  8
BLACK
  6
CONTINUOUS
100
AcDbLine
 10
132.145670999999993
 20
-171.1190299999999809
 30
0
 11
132.2267769999999985
 21
-171.1732229999999788
 31
0
  0
LINE
  5
3D
330
1A
100
AcDbEntity
  8
BLACK
  6
CONTINUOUS
100
AcDbLine
 10
132.2267769999999985
 20
-171.1732229999999788
 30
0
 11
132.2809699999999964
 21
-171.2543289999999843
 31
0
  0
LINE
  5
3E
330
1A
100
AcDbEntity
  8
BLACK
  6
CONTINUOUS
100
AcDbLine
 10
132.2809699999999964
 20
-171.2543289999999843
 30
0
 11
132.2999999999999829
 21
-171.3499999999999943
 31
0
  0
LINE
  5
3F
330
1A
100
AcDbEntity
  8
BLACK
  6
CONTINUOUS
100
AcDbLine
 10
132.2999999999999829
 20
-171.3499999999999943
 30
0
 11
132.2999999999999829
 21
-172.6500000000000057
 31
0
  0
LINE
  5
40
330
1A
100
AcDbEntity
  8
BLACK
  6
CONTINUOUS
100
AcDbLine
 10
132.2999999999999829
 20
-172.6500000000000057
 30
0
 11
132.2809699999999964
 21
-172.7456709999999873
 31
0
  0
LINE
  5
41
330
1A
100
AcDbEntity
  8
BLACK
  6
CONTINUOUS
100
AcDbLine
 10
132.2809699999999964
 20
-172.7456709999999873
 30
0
 11
132.2267769999999985
 21
-172.8267769999999928
 31
0
  0
LINE
  5
42
330
1A
100
AcDbEntity
  8
BLACK
  6
CONTINUOUS
100
AcDbLine
 10
132.2267769999999985
 20
-172.8267769999999928
 30
0
 11
132.145670999999993
 21
-172.8809699999999907
 31
0
  0
LINE
  5
43
330
1A
100
AcDbEntity
  8
BLACK
  6
CONTINUOUS
100
AcDbLine
 10
132.145670999999993
 20
-172.8809699999999907
 30
0
 11
132.0499999999999829
 21
-172.9000000000000057
 31
0
  0
LINE
  5
44
330
1A
100
AcDbEntity
  8
BLACK
  6
CONTINUOUS
100
AcDbLine
 10
132.0499999999999829
 20
-172.9000000000000057
 30
0
 11
131.4000000000000057
 21
-172.9000000000000057
 31
0
  0
LINE
  5
45
330
1A
100
AcDbEntity
  8
BLACK
  6
CONTINUOUS
100
AcDbLine
 10
131.4000000000000057
 20
-172.9000000000000057
 30
0
 11
131.3043289999999956
 21
-172.8809699999999907
 31
0
  0
LINE
  5
46
330
1A
100
AcDbEntity
  8
BLACK
  6
CONTINUOUS
100
AcDbLine
 10
131.3043289999999956
 20
-172.8809699999999907
 30
0
 11
131.2232229999999902
 21
-172.8267769999999928
 31
0
  0
LINE
  5
47
330
1A
100
AcDbEntity
  8
BLACK
  6
CONTINUOUS
100
AcDbLine
 10
131.2232229999999902
 20
-172.8267769999999928
 30
0
 11
131.1690299999999922
 21
-172.7456709999999873
 31
0
  0
LINE
  5
48
330
1A
100
AcDbEntity
  8
BLACK
  6
CONTINUOUS
100
AcDbLine
 10
131.1690299999999922
 20
-172.7456709999999873
 30
0
 11
131.1500000000000057
 21
-172.6500000000000057
 31
0
  0
LINE
  5
49
330
1A
100
AcDbEntity
  8
BLACK
  6
CONTINUOUS
100
AcDbLine
 10
131.1500000000000057
 20
-172.6500000000000057
 30
0
 11
131.1500000000000057
 21
-171.3499999999999943
 31
0
  0
LINE
  5
4A
330
1A
100
AcDbEntity
  8
BLACK
  6
CONTINUOUS
100
AcDbLine
 10
131.1500000000000057
 20
-171.3499999999999943
 30
0
 11
131.1690299999999922
 21
-171.2543289999999843
 31
0
  0
LINE
  5
4B
330
1A
100
AcDbEntity
  8
BLACK
  6
CONTINUOUS
100
AcDbLine
 10
131.1690299999999922
 20
-171.2543289999999843
 30
0
 11
131.2232229999999902
 21
-171.1732229999999788
 31
0
  0
LINE
  5
4C
330
1A
100
AcDbEntity
  8
BLACK
  6
CONTINUOUS
100
AcDbLine
 10
131.2232229999999902
 20
-171.1732229999999788
 30
0
 11
131.3043289999999956
 21
-171.1190299999999809
 31
0
  0
LINE
  5
4D
330
1A
100
AcDbEntity
  8
BLACK
  6
CONTINUOUS
100
AcDbLine
 10
131.3043289999999956
 20
-171.1190299999999809
 30
0
 11
131.4000000000000057
 21
-171.0999999999999943
 31
0
  0
LINE
  5
4E
330
1A
100
AcDbEntity
  8
BLACK
  6
CONTINUOUS
100
AcDbLine
 10
131.4000000000000057
 20
-171.0999999999999943
 30
0
 11
132.0499999999999829
 21
-171.0999999999999943
 31
0
  0
LINE
  5
4F
330
1A
100
AcDbEntity
  8
BLACK
  6
CONTINUOUS
100
AcDbLine
 10
132.0499999999999829
 20
-171.0999999999999943
 30
0
 11
132.145670999999993
 21
-171.1190299999999809
 31
0
  0
LINE
  5
50
330
1A
100
AcDbEntity
  8
BLACK
  6
CONTINUOUS
100
AcDbLine
 10
101.9456709999999902
 20
-170.1190299999999809
 30
0
 11
102.0267769999999956
 21
-170.1732229999999788
 31
0
  0
LINE
  5
51
330
1A
100
AcDbEntity
  8
BLACK
  6
CONTINUOUS
100
AcDbLine
 10
102.0267769999999956
 20
-170.1732229999999788
 30
0
 11
102.0809699999999935
 21
-170.2543289999999843
 31
0
  0
LINE
  5
52
330
1A
100
AcDbEntity
  8
BLACK
  6
CONTINUOUS
100
AcDbLine
 10
102.0809699999999935
 20
-170.2543289999999843
 30
0
 11
102.0999999999999943
 21
-170.3499999999999943
 31
0
  0
LINE
  5
53
330
1A
100
AcDbEntity
  8
BLACK
  6
CONTINUOUS
100
AcDbLine
 10
102.0999999999999943
 20
-170.3499999999999943
 30
0
 11
102.0999999999999943
 21
-171.6500000000000057
 31
0
  0
LINE
  5
54
330
1A
100
AcDbEntity
  8
BLACK
  6
CONTINUOUS
100
AcDbLine
 10
102.0999999999999943
 20
-171.6500000000000057
 30
0
 11
102.0809699999999935
 21
-171.7456709999999873
 31
0
  0
LINE
  5
55
330
1A
100
AcDbEntity
  8
BLACK
  6
CONTINUOUS
100
AcDbLine
 10
102.0809699999999935
 20
-171.7456709999999873
 30
0
 11
102.0267769999999956
 21
-171.8267769999999928
 31
0
  0
LINE
  5
56
330
1A
100
AcDbEntity
  8
BLACK
  6
CONTINUOUS
100
AcDbLine
 10
102.0267769999999956
 20
-171.8267769999999928
 30
0
 11
101.9456709999999902
 21
-171.8809699999999907
 31
0
  0
LINE
  5
57
330
1A
100
AcDbEntity
  8
BLACK
  6
CONTINUOUS
100
AcDbLine
 10
101.9456709999999902
 20
-171.8809699999999907
 30
0
 11
101.8499999999999943
 21
-171.9000000000000057
 31
0
  0
LINE
  5
58
330
1A
100
AcDbEntity
  8
BLACK
  6
CONTINUOUS
100
AcDbLine
 10
101.8499999999999943
 20
-171.9000000000000057
 30
0
 11
101.1999999999999886
 21
-171.9000000000000057
 31
0
  0
LINE
  5
59
330
1A
100
AcDbEntity
  8
BLACK
  6
CONTINUOUS
100
AcDbLine
 10
101.1999999999999886
 20
-171.9000000000000057
 30
0
 11
101.1043289999999928
 21
-171.8809699999999907
 31
0
  0
LINE
  5
5A
330
1A
100
AcDbEntity
  8
BLACK
  6
CONTINUOUS
100
AcDbLine
 10
101.1043289999999928
 20
-171.8809699999999907
 30
0
 11
101.0232230000000015
 21
-171.8267769999999928
 31
0
  0
LINE
  5
5B
330
1A
100
AcDbEntity
  8
BLACK
  6
CONTINUOUS
100
AcDbLine
 10
101.0232230000000015
 20
-171.8267769999999928
 30
0
 11
100.9690299999999894
 21
-171.7456709999999873
 31
0
  0
LINE
  5
5C
330
1A
100
AcDbEntity
  8
BLACK
  6
CONTINUOUS
100
AcDbLine
 10
100.9690299999999894
 20
-171.7456709999999873
 30
0
 11
100.9499999999999886
 21
-171.6500000000000057
 31
0
  0
LINE
  5
5D
330
1A
100
AcDbEntity
  8
BLACK
  6
CONTINUOUS
100
AcDbLine
 10
100.9499999999999886
 20
-171.6500000000000057
 30
0
 11
100.9499999999999886
 21
-170.3499999999999943
 31
0
  0
LINE
  5
5E
330
1A
100
AcDbEntity
  8
BLACK
  6
CONTINUOUS
100
AcDbLine
 10
100.9499999999999886
 20
-170.3499999999999943
 30
0
 11
100.9690299999999894
 21
-170.2543289999999843
 31
0
  0
LINE
  5
5F
330
1A
100
AcDbEntity
  8
BLACK
  6
CONTINUOUS
100
AcDbLine
 10
100.9690299999999894
 20
-170.2543289999999843
 30
0
 11
101.0232230000000015
 21
-170.1732229999999788
 31
0
  0
LINE
  5
60
330
1A
100
AcDbEntity
  8
BLACK
  6
CONTINUOUS
100
AcDbLine
 10
101.0232230000000015
 20
-170.1732229999999788
 30
0
 11
101.1043289999999928
 21
-170.1190299999999809
 31
0
  0
LINE
  5
61
330
1A
100
AcDbEntity
  8
BLACK
  6
CONTINUOUS
100
AcDbLine
 10
101.1043289999999928
 20
-170.1190299999999809
 30
0
 11
101.1999999999999886
 21
-170.0999999999999943
 31
0
  0
LINE
  5
62
330
1A
100
AcDbEntity
  8
BLACK
  6
CONTINUOUS
100
AcDbLine
 10
101.1999999999999886
 20
-170.0999999999999943
 30
0
 11
101.8499999999999943
 21
-170.0999999999999943
 31
0
  0
LINE
  5
63
330
1A
100
AcDbEntity
  8
BLACK
  6
CONTINUOUS
100
AcDbLine
 10
101.8499999999999943
 20
-170.0999999999999943
 30
0
 11
101.9456709999999902
 21
-170.1190299999999809
 31
0
  0
LINE
  5
64
330
1A
100
AcDbEntity
  8
BLACK
  6
CONTINUOUS
100
AcDbLine
 10
104.895670999999993
 20
-170.1190299999999809
 30
0
 11
104.9767769999999985
 21
-170.1732229999999788
 31
0
  0
LINE
  5
65
330
1A
100
AcDbEntity
  8
BLACK
  6
CONTINUOUS
100
AcDbLine
 10
104.9767769999999985
 20
-170.1732229999999788
 30
0
 11
105.0309699999999964
 21
-170.2543289999999843
 31
0
  0
LINE
  5
66
330
1A
100
AcDbEntity
  8
BLACK
  6
CONTINUOUS
100
AcDbLine
 10
105.0309699999999964
 20
-170.2543289999999843
 30
0
 11
105.0499999999999972
 21
-170.3499999999999943
 31
0
  0
LINE
  5
67
330
1A
100
AcDbEntity
  8
BLACK
  6
CONTINUOUS
100
AcDbLine
 10
105.0499999999999972
 20
-170.3499999999999943
 30
0
 11
105.0499999999999972
 21
-171.6500000000000057
 31
0
  0
LINE
  5
68
330
1A
100
AcDbEntity
  8
BLACK
  6
CONTINUOUS
100
AcDbLine
 10
105.0499999999999972
 20
-171.6500000000000057
 30
0
 11
105.0309699999999964
 21
-171.7456709999999873
 31
0
  0
LINE
  5
69
330
1A
100
AcDbEntity
  8
BLACK
  6
CONTINUOUS
100
AcDbLine
 10
105.0309699999999964
 20
-171.7456709999999873
 30
0
 11
104.9767769999999985
 21
-171.8267769999999928
 31
0
  0
LINE
  5
6A
330
1A
100
AcDbEntity
  8
BLACK
  6
CONTINUOUS
100
AcDbLine
 10
104.9767769999999985
 20
-171.8267769999999928
 30
0
 11
104.895670999999993
 21
-171.8809699999999907
 31
0
  0
LINE
  5
6B
330
1A
100
AcDbEntity
  8
BLACK
  6
CONTINUOUS
100
AcDbLine
 10
104.895670999999993
 20
-171.8809699999999907
 30
0
 11
104.7999999999999972
 21
-171.9000000000000057
 31
0
  0
LINE
  5
6C
330
1A
100
AcDbEntity
  8
BLACK
  6
CONTINUOUS
100
AcDbLine
 10
104.7999999999999972
 20
-171.9000000000000057
 30
0
 11
104.1499999999999915
 21
-171.9000000000000057
 31
0
  0
LINE
  5
6D
330
1A
100
AcDbEntity
  8
BLACK
  6
CONTINUOUS
100
AcDbLine
 10
104.1499999999999915
 20
-171.9000000000000057
 30
0
 11
104.0543289999999956
 21
-171.8809699999999907
 31
0
  0
LINE
  5
6E
330
1A
100
AcDbEntity
  8
BLACK
  6
CONTINUOUS
100
AcDbLine
 10
104.0543289999999956
 20
-171.8809699999999907
 30
0
 11
103.9732229999999902
 21
-171.8267769999999928
 31
0
  0
LINE
  5
6F
330
1A
100
AcDbEntity
  8
BLACK
  6
CONTINUOUS
100
AcDbLine
 10
103.9732229999999902
 20
-171.8267769999999928
 30
0
 11
103.9190299999999922
 21
-171.7456709999999873
 31
0
  0
LINE
  5
70
330
1A
100
AcDbEntity
  8
BLACK
  6
CONTINUOUS
100
AcDbLine
 10
103.9190299999999922
 20
-171.7456709999999873
 30
0
 11
103.8999999999999915
 21
-171.6500000000000057
 31
0
  0
LINE
  5
71
330
1A
100
AcDbEntity
  8
BLACK
  6
CONTINUOUS
100
AcDbLine
 10
103.8999999999999915
 20
-171.6500000000000057
 30
0
 11
103.8999999999999915
 21
-170.3499999999999943
 31
0
  0
LINE
  5
72
330
1A
100
AcDbEntity
  8
BLACK
  6
CONTINUOUS
100
AcDbLine
 10
103.8999999999999915
 20
-170.3499999999999943
 30
0
 11
103.9190299999999922
 21
-170.2543289999999843
 31
0
  0
LINE
  5
73
330
1A
100
AcDbEntity
  8
BLACK
  6
CONTINUOUS
100
AcDbLine
 10
103.9190299999999922
 20
-170.2543289999999843
 30
0
 11
103.9732229999999902
 21
-170.1732229999999788
 31
0
  0
LINE
  5
74
330
1A
100
AcDbEntity
  8
BLACK
  6
CONTINUOUS
100
AcDbLine
 10
103.9732229999999902
 20
-170.1732229999999788
 30
0
 11
104.0543289999999956
 21
-170.1190299999999809
 31
0
  0
LINE
  5
75
330
1A
100
AcDbEntity
  8
BLACK
  6
CONTINUOUS
100
AcDbLine
 10
104.0543289999999956
 20
-170.1190299999999809
 30
0
 11
104.1499999999999915
 21
-170.0999999999999943
 31
0
  0
LINE
  5
76
330
1A
100
AcDbEntity
  8
BLACK
  6
CONTINUOUS
100
AcDbLine
 10
104.1499999999999915
 20
-170.0999999999999943
 30
0
 11
104.7999999999999972
 21
-170.0999999999999943
 31
0
  0
LINE
  5
77
330
1A
100
AcDbEntity
  8
BLACK
  6
CONTINUOUS
100
AcDbLine
 10
104.7999999999999972
 20
-170.0999999999999943
 30
0
 11
104.895670999999993
 21
-170.1190299999999809
 31
0
  0
LINE
  5
78
330
1A
100
AcDbEntity
  8
BLACK
  6
CONTINUOUS
100
AcDbLine
 10
109.9456709999999902
 20
-170.1190299999999809
 30
0
 11
110.0267769999999956
 21
-170.1732229999999788
 31
0
  0
LINE
  5
79
330
1A
100
AcDbEntity
  8
BLACK
  6
CONTINUOUS
100
AcDbLine
 10
110.0267769999999956
 20
-170.1732229999999788
 30
0
 11
110.0809699999999935
 21
-170.2543289999999843
 31
0
  0
LINE
  5
7A
330
1A
100
AcDbEntity
  8
BLACK
  6
CONTINUOUS
100
AcDbLine
 10
110.0809699999999935
 20
-170.2543289999999843
 30
0
 11
110.0999999999999943
 21
-170.3499999999999943
 31
0
  0
LINE
  5
7B
330
1A
100
AcDbEntity
  8
BLACK
  6
CONTINUOUS
100
AcDbLine
 10
110.0999999999999943
 20
-170.3499999999999943
 30
0
 11
110.0999999999999943
 21
-171.6500000000000057
 31
0
  0
LINE
  5
7C
330
1A
100
AcDbEntity
  8
BLACK
  6
CONTINUOUS
100
AcDbLine
 10
110.0999999999999943
 20
-171.6500000000000057
 30
0
 11
110.0809699999999935
 21
-171.7456709999999873
 31
0
  0
LINE
  5
7D
330
1A
100
AcDbEntity
  8
BLACK
  6
CONTINUOUS
100
AcDbLine
 10
110.0809699999999935
 20
-171.7456709999999873
 30
0
 11
110.0267769999999956
 21
-171.8267769999999928
 31
0
  0
LINE
  5
7E
330
1A
100
AcDbEntity
  8
BLACK
  6
CONTINUOUS
100
AcDbLine
 10
110.0267769999999956
 20
-171.8267769999999928
 30
0
 11
109.9456709999999902
 21
-171.8809699999999907
 31
0
  0
LINE
  5
7F
330
1A
100
AcDbEntity
  8
BLACK
  6
CONTINUOUS
100
AcDbLine
 10
109.9456709999999902
 20
-171.8809699999999907
 30
0
 11
109.8499999999999943
 21
-171.9000000000000057
 31
0
  0
LINE
  5
80
330
1A
100
AcDbEntity
  8
BLACK
  6
CONTINUOUS
100
AcDbLine
 10
109.8499999999999943
 20
-171.9000000000000057
 30
0
 11
109.1999999999999886
 21
-171.9000000000000057
 31
0
  0
LINE
  5
81
330
1A
100
AcDbEntity
  8
BLACK
  6
CONTINUOUS
100
AcDbLine
 10
109.1999999999999886
 20
-171.9000000000000057
 30
0
 11
109.1043289999999928
 21
-171.8809699999999907
 31
0
  0
LINE
  5
82
330
1A
100
AcDbEntity
  8
BLACK
  6
CONTINUOUS
100
AcDbLine
 10
109.1043289999999928
 20
-171.8809699999999907
 30
0
 11
109.0232230000000015
 21
-171.8267769999999928
 31
0
  0
LINE
  5
83
330
1A
100
AcDbEntity
  8
BLACK
  6
CONTINUOUS
100
AcDbLine
 10
109.0232230000000015
 20
-171.8267769999999928
 30
0
 11
108.9690299999999894
 21
-171.7456709999999873
 31
0
  0
LINE
  5
84
330
1A
100
AcDbEntity
  8
BLACK
  6
CONTINUOUS
100
AcDbLine
 10
108.9690299999999894
 20
-171.7456709999999873
 30
0
 11
108.9499999999999886
 21
-171.6500000000000057
 31
0
  0
LINE
  5
85
330
1A
100
AcDbEntity
  8
BLACK
  6
CONTINUOUS
100
AcDbLine
 10
108.9499999999999886
 20
-171.6500000000000057
 30
0
 11
108.9499999999999886
 21
-170.3499999999999943
 31
0
  0
LINE
  5
86
330
1A
100
AcDbEntity
  8
BLACK
  6
CONTINUOUS
100
AcDbLine
 10
108.9499999999999886
 20
-170.3499999999999943
 30
0
 11
108.9690299999999894
 21
-170.2543289999999843
 31
0
  0
LINE
  5
87
330
1A
100
AcDbEntity
  8
BLACK
  6
CONTINUOUS
100
AcDbLine
 10
108.9690299999999894
 20
-170.2543289999999843
 30
0
 11
109.0232230000000015
 21
-170.1732229999999788
 31
0
  0
LINE
  5
88
330
1A
100
AcDbEntity
  8
BLACK
  6
CONTINUOUS
100
AcDbLine
 10
109.0232230000000015
 20
-170.1732229999999788
 30
0
 11
109.1043289999999928
 21
-170.1190299999999809
 31
0
  0
LINE
  5
89
330
1A
100
AcDbEntity
  8
BLACK
  6
CONTINUOUS
100
AcDbLine
 10
109.1043289999999928
 20
-170.1190299999999809
 30
0
 11
109.1999999999999886
 21
-170.0999999999999943
 31
0
  0
LINE
  5
8A
330
1A
100
AcDbEntity
  8
BLACK
  6
CONTINUOUS
100
AcDbLine
 10
109.1999999999999886
 20
-170.0999999999999943
 30
0
 11
109.8499999999999943
 21
-170.0999999999999943
 31
0
  0
LINE
  5
8B
330
1A
100
AcDbEntity
  8
BLACK
  6
CONTINUOUS
100
AcDbLine
 10
109.8499999999999943
 20
-170.0999999999999943
 30
0
 11
109.9456709999999902
 21
-170.1190299999999809
 31
0
  0
LINE
  5
8C
330
1A
100
AcDbEntity
  8
BLACK
  6
CONTINUOUS
100
AcDbLine
 10
112.895670999999993
 20
-170.1190299999999809
 30
0
 11
112.9767769999999985
 21
-170.1732229999999788
 31
0
  0
LINE
  5
8D
330
1A
100
AcDbEntity
  8
BLACK
  6
CONTINUOUS
100
AcDbLine
 10
112.9767769999999985
 20
-170.1732229999999788
 30
0
 11
113.0309699999999964
 21
-170.2543289999999843
 31
0
  0
LINE
  5
8E
330
1A
100
AcDbEntity
  8
BLACK
  6
CONTINUOUS
100
AcDbLine
 10
113.0309699999999964
 20
-170.2543289999999843
 30
0
 11
113.0499999999999972
 21
-170.3499999999999943
 31
0
  0
LINE
  5
8F
330
1A
100
AcDbEntity
  8
BLACK
  6
CONTINUOUS
100
AcDbLine
 10
113.0499999999999972
 20
-170.3499999999999943
 30
0
 11
113.0499999999999972
 21
-171.6500000000000057
 31
0
  0
LINE
  5
90
330
1A
100
AcDbEntity
  8
BLACK
  6
CONTINUOUS
100
AcDbLine
 10
113.0499999999999972
 20
-171.6500000000000057
 30
0
 11
113.0309699999999964
 21
-171.7456709999999873
 31
0
  0
LINE
  5
91
330
1A
100
AcDbEntity
  8
BLACK
  6
CONTINUOUS
100
AcDbLine
 10
113.0309699999999964
 20
-171.7456709999999873
 30
0
 11
112.9767769999999985
 21
-171.8267769999999928
 31
0
  0
LINE
  5
92
330
1A
100
AcDbEntity
  8
BLACK
  6
CONTINUOUS
100
AcDbLine
 10
112.9767769999999985
 20
-171.8267769999999928
 30
0
 11
112.895670999999993
 21
-171.8809699999999907
 31
0
  0
LINE
  5
93
330
1A
100
AcDbEntity
  8
BLACK
  6
CONTINUOUS
100
AcDbLine
 10
112.895670999999993
 20
-171.8809699999999907
 30
0
 11
112.7999999999999972
 21
-171.9000000000000057
 31
0
  0
LINE
  5
94
330
1A
100
AcDbEntity
  8
BLACK
  6
CONTINUOUS
100
AcDbLine
 10
112.7999999999999972
 20
-171.9000000000000057
 30
0
 11
112.1499999999999915
 21
-171.9000000000000057
 31
0
  0
LINE
  5
95
330
1A
100
AcDbEntity
  8
BLACK
  6
CONTINUOUS
100
AcDbLine
 10
112.1499999999999915
 20
-171.9000000000000057
 30
0
 11
112.0543289999999956
 21
-171.8809699999999907
 31
0
  0
LINE
  5
96
330
1A
100
AcDbEntity
  8
BLACK
  6
CONTINUOUS
100
AcDbLine
 10
112.0543289999999956
 20
-171.8809699999999907
 30
0
 11
111.9732229999999902
 21
-171.8267769999999928
 31
0
  0
LINE
  5
97
330
1A
100
AcDbEntity
  8
BLACK
  6
CONTINUOUS
100
AcDbLine
 10
111.9732229999999902
 20
-171.8267769999999928
 30
0
 11
111.9190299999999922
 21
-171.7456709999999873
 31
0
  0
LINE
  5
98
330
1A
100
AcDbEntity
  8
BLACK
  6
CONTINUOUS
100
AcDbLine
 10
111.9190299999999922
 20
-171.7456709999999873
 30
0
 11
111.8999999999999915
 21
-171.6500000000000057
 31
0
  0
LINE
  5
99
330
1A
100
AcDbEntity
  8
BLACK
  6
CONTINUOUS
100
AcDbLine
 10
111.8999999999999915
 20
-171.6500000000000057
 30
0
 11
111.8999999999999915
 21
-170.3499999999999943
 31
0
  0
LINE
  5
9A
330
1A
100
AcDbEntity
  8
BLACK
  6
CONTINUOUS
100
AcDbLine
 10
111.8999999999999915
 20
-170.3499999999999943
 30
0
 11
111.9190299999999922
 21
-170.2543289999999843
 31
0
  0
LINE
  5
9B
330
1A
100
AcDbEntity
  8
BLACK
  6
CONTINUOUS
100
AcDbLine
 10
111.9190299999999922
 20
-170.2543289999999843
 30
0
 11
111.9732229999999902
 21
-170.1732229999999788
 31
0
  0
LINE
  5
9C
330
1A
100
AcDbEntity
  8
BLACK
  6
CONTINUOUS
100
AcDbLine
 10
111.9732229999999902
 20
-170.1732229999999788
 30
0
 11
112.0543289999999956
 21
-170.1190299999999809
 31
0
  0
LINE
  5
9D
330
1A
100
AcDbEntity
  8
BLACK
  6
CONTINUOUS
100
AcDbLine
 10
112.0543289999999956
 20
-170.1190299999999809
 30
0
 11
112.1499999999999915
 21
-170.0999999999999943
 31
0
  0
LINE
  5
9E
330
1A
100
AcDbEntity
  8
BLACK
  6
CONTINUOUS
100
AcDbLine
 10
112.1499999999999915
 20
-170.0999999999999943
 30
0
 11
112.7999999999999972
 21
-170.0999999999999943
 31
0
  0
LINE
  5
9F
330
1A
100
AcDbEntity
  8
BLACK
  6
CONTINUOUS
100
AcDbLine
 10
112.7999999999999972
 20
-170.0999999999999943
 30
0
 11
112.895670999999993
 21
-170.1190299999999809
 31
0
  0
LINE
  5
A0
330
1A
100
AcDbEntity
  8
BLACK
  6
CONTINUOUS
100
AcDbLine
 10
126.2126869999999883
 20
-169.3375029999999981
 30
0
 11
126.2613509999999906
 21
-169.3700199999999825
 31
0
  0
LINE
  5
A1
330
1A
100
AcDbEntity
  8
BLACK
  6
CONTINUOUS
100
AcDbLine
 10
126.2613509999999906
 20
-169.3700199999999825
 30
0
 11
126.4734829999999874
 21
-169.5821519999999794
 31
0
  0
LINE
  5
A2
330
1A
100
AcDbEntity
  8
BLACK
  6
CONTINUOUS
100
AcDbLine
 10
126.4734829999999874
 20
-169.5821519999999794
 30
0
 11
126.5060000000000002
 21
-169.6308159999999816
 31
0
  0
LINE
  5
A3
330
1A
100
AcDbEntity
  8
BLACK
  6
CONTINUOUS
100
AcDbLine
 10
126.5060000000000002
 20
-169.6308159999999816
 30
0
 11
126.5174169999999947
 21
-169.6882180000000062
 31
0
  0
LINE
  5
A4
330
1A
100
AcDbEntity
  8
BLACK
  6
CONTINUOUS
100
AcDbLine
 10
126.5174169999999947
 20
-169.6882180000000062
 30
0
 11
126.5060000000000002
 21
-169.7456200000000024
 31
0
  0
LINE
  5
A5
330
1A
100
AcDbEntity
  8
BLACK
  6
CONTINUOUS
100
AcDbLine
 10
126.5060000000000002
 20
-169.7456200000000024
 30
0
 11
126.4734829999999874
 21
-169.7942840000000047
 31
0
  0
LINE
  5
A6
330
1A
100
AcDbEntity
  8
BLACK
  6
CONTINUOUS
100
AcDbLine
 10
126.4734829999999874
 20
-169.7942840000000047
 30
0
 11
125.6426329999999894
 21
-170.6251340000000027
 31
0
  0
LINE
  5
A7
330
1A
100
AcDbEntity
  8
BLACK
  6
CONTINUOUS
100
AcDbLine
 10
125.6426329999999894
 20
-170.6251340000000027
 30
0
 11
125.5939690000000013
 21
-170.6576509999999871
 31
0
  0
LINE
  5
A8
330
1A
100
AcDbEntity
  8
BLACK
  6
CONTINUOUS
100
AcDbLine
 10
125.5939690000000013
 20
-170.6576509999999871
 30
0
 11
125.5365669999999909
 21
-170.6690679999999816
 31
0
  0
LINE
  5
A9
330
1A
100
AcDbEntity
  8
BLACK
  6
CONTINUOUS
100
AcDbLine
 10
125.5365669999999909
 20
-170.6690679999999816
 30
0
 11
125.4791649999999947
 21
-170.6576509999999871
 31
0
  0
LINE
  5
AA
330
1A
100
AcDbEntity
  8
BLACK
  6
CONTINUOUS
100
AcDbLine
 10
125.4791649999999947
 20
-170.6576509999999871
 30
0
 11
125.4305009999999925
 21
-170.6251340000000027
 31
0
  0
LINE
  5
AB
330
1A
100
AcDbEntity
  8
BLACK
  6
CONTINUOUS
100
AcDbLine
 10
125.4305009999999925
 20
-170.6251340000000027
 30
0
 11
125.2183689999999956
 21
-170.4130020000000059
 31
0
  0
LINE
  5
AC
330
1A
100
AcDbEntity
  8
BLACK
  6
CONTINUOUS
100
AcDbLine
 10
125.2183689999999956
 20
-170.4130020000000059
 30
0
 11
125.185851999999997
 21
-170.3643380000000036
 31
0
  0
LINE
  5
AD
330
1A
100
AcDbEntity
  8
BLACK
  6
CONTINUOUS
100
AcDbLine
 10
125.185851999999997
 20
-170.3643380000000036
 30
0
 11
125.1744349999999883
 21
-170.306935999999979
 31
0
  0
LINE
  5
AE
330
1A
100
AcDbEntity
  8
BLACK
  6
CONTINUOUS
100
AcDbLine
 10
125.1744349999999883
 20
-170.306935999999979
 30
0
 11
125.185851999999997
 21
-170.2495339999999828
 31
0
  0
LINE
  5
AF
330
1A
100
AcDbEntity
  8
BLACK
  6
CONTINUOUS
100
AcDbLine
 10
125.185851999999997
 20
-170.2495339999999828
 30
0
 11
125.2183689999999956
 21
-170.2008699999999806
 31
0
  0
LINE
  5
B0
330
1A
100
AcDbEntity
  8
BLACK
  6
CONTINUOUS
100
AcDbLine
 10
125.2183689999999956
 20
-170.2008699999999806
 30
0
 11
126.0492189999999937
 21
-169.3700199999999825
 31
0
  0
LINE
  5
B1
330
1A
100
AcDbEntity
  8
BLACK
  6
CONTINUOUS
100
AcDbLine
 10
126.0492189999999937
 20
-169.3700199999999825
 30
0
 11
126.0978829999999959
 21
-169.3375029999999981
 31
0
  0
LINE
  5
B2
330
1A
100
AcDbEntity
  8
BLACK
  6
CONTINUOUS
100
AcDbLine
 10
126.0978829999999959
 20
-169.3375029999999981
 30
0
 11
126.1552849999999921
 21
-169.3260860000000037
 31
0
  0
LINE
  5
B3
330
1A
100
AcDbEntity
  8
BLACK
  6
CONTINUOUS
100
AcDbLine
 10
126.1552849999999921
 20
-169.3260860000000037
 30
0
 11
126.2126869999999883
 21
-169.3375029999999981
 31
0
  0
LINE
  5
B4
330
1A
100
AcDbEntity
  8
BLACK
  6
CONTINUOUS
100
AcDbLine
 10
124.86918399999999
 20
-167.9939999999999998
 30
0
 11
124.9178479999999922
 21
-168.0265169999999841
 31
0
  0
LINE
  5
B5
330
1A
100
AcDbEntity
  8
BLACK
  6
CONTINUOUS
100
AcDbLine
 10
124.9178479999999922
 20
-168.0265169999999841
 30
0
 11
125.1299799999999891
 21
-168.238648999999981
 31
0
  0
LINE
  5
B6
330
1A
100
AcDbEntity
  8
BLACK
  6
CONTINUOUS
100
AcDbLine
 10
125.1299799999999891
 20
-168.238648999999981
 30
0
 11
125.1624969999999877
 21
-168.2873129999999833
 31
0
  0
LINE
  5
B7
330
1A
100
AcDbEntity
  8
BLACK
  6
CONTINUOUS
100
AcDbLine
 10
125.1624969999999877
 20
-168.2873129999999833
 30
0
 11
125.1739139999999963
 21
-168.3447149999999795
 31
0
  0
LINE
  5
B8
330
1A
100
AcDbEntity
  8
BLACK
  6
CONTINUOUS
100
AcDbLine
 10
125.1739139999999963
 20
-168.3447149999999795
 30
0
 11
125.1624969999999877
 21
-168.4021170000000041
 31
0
  0
LINE
  5
B9
330
1A
100
AcDbEntity
  8
BLACK
  6
CONTINUOUS
100
AcDbLine
 10
125.1624969999999877
 20
-168.4021170000000041
 30
0
 11
125.1299799999999891
 21
-168.4507810000000063
 31
0
  0
LINE
  5
BA
330
1A
100
AcDbEntity
  8
BLACK
  6
CONTINUOUS
100
AcDbLine
 10
125.1299799999999891
 20
-168.4507810000000063
 30
0
 11
124.299129999999991
 21
-169.2816310000000044
 31
0
  0
LINE
  5
BB
330
1A
100
AcDbEntity
  8
BLACK
  6
CONTINUOUS
100
AcDbLine
 10
124.299129999999991
 20
-169.2816310000000044
 30
0
 11
124.2504659999999888
 21
-169.3141479999999888
 31
0
  0
LINE
  5
BC
330
1A
100
AcDbEntity
  8
BLACK
  6
CONTINUOUS
100
AcDbLine
 10
124.2504659999999888
 20
-169.3141479999999888
 30
0
 11
124.1930639999999926
 21
-169.3255649999999832
 31
0
  0
LINE
  5
BD
330
1A
100
AcDbEntity
  8
BLACK
  6
CONTINUOUS
100
AcDbLine
 10
124.1930639999999926
 20
-169.3255649999999832
 30
0
 11
124.1356619999999964
 21
-169.3141479999999888
 31
0
  0
LINE
  5
BE
330
1A
100
AcDbEntity
  8
BLACK
  6
CONTINUOUS
100
AcDbLine
 10
124.1356619999999964
 20
-169.3141479999999888
 30
0
 11
124.0869979999999941
 21
-169.2816310000000044
 31
0
  0
LINE
  5
BF
330
1A
100
AcDbEntity
  8
BLACK
  6
CONTINUOUS
100
AcDbLine
 10
124.0869979999999941
 20
-169.2816310000000044
 30
0
 11
123.8748659999999973
 21
-169.0694989999999791
 31
0
  0
LINE
  5
C0
330
1A
100
AcDbEntity
  8
BLACK
  6
CONTINUOUS
100
AcDbLine
 10
123.8748659999999973
 20
-169.0694989999999791
 30
0
 11
123.8423489999999987
 21
-169.0208350000000053
 31
0
  0
LINE
  5
C1
330
1A
100
AcDbEntity
  8
BLACK
  6
CONTINUOUS
100
AcDbLine
 10
123.8423489999999987
 20
-169.0208350000000053
 30
0
 11
123.83093199999999
 21
-168.9634329999999807
 31
0
  0
LINE
  5
C2
330
1A
100
AcDbEntity
  8
BLACK
  6
CONTINUOUS
100
AcDbLine
 10
123.83093199999999
 20
-168.9634329999999807
 30
0
 11
123.8423489999999987
 21
-168.9060309999999845
 31
0
  0
LINE
  5
C3
330
1A
100
AcDbEntity
  8
BLACK
  6
CONTINUOUS
100
AcDbLine
 10
123.8423489999999987
 20
-168.9060309999999845
 30
0
 11
123.8748659999999973
 21
-168.8573669999999822
 31
0
  0
LINE
  5
C4
330
1A
100
AcDbEntity
  8
BLACK
  6
CONTINUOUS
100
AcDbLine
 10
123.8748659999999973
 20
-168.8573669999999822
 30
0
 11
124.7057159999999953
 21
-168.0265169999999841
 31
0
  0
LINE
  5
C5
330
1A
100
AcDbEntity
  8
BLACK
  6
CONTINUOUS
100
AcDbLine
 10
124.7057159999999953
 20
-168.0265169999999841
 30
0
 11
124.7543799999999976
 21
-167.9939999999999998
 31
0
  0
LINE
  5
C6
330
1A
100
AcDbEntity
  8
BLACK
  6
CONTINUOUS
100
AcDbLine
 10
124.7543799999999976
 20
-167.9939999999999998
 30
0
 11
124.8117819999999938
 21
-167.9825830000000053
 31
0
  0
LINE
  5
C7
330
1A
100
AcDbEntity
  8
BLACK
  6
CONTINUOUS
100
AcDbLine
 10
124.8117819999999938
 20
-167.9825830000000053
 30
0
 11
124.86918399999999
 21
-167.9939999999999998
 31
0
  0
LINE
  5
C8
330
1A
100
AcDbEntity
  8
BLACK
  6
CONTINUOUS
100
AcDbLine
 10
126.8667609999999968
 20
-167.3399259999999913
 30
0
 11
126.915424999999999
 21
-167.3724430000000041
 31
0
  0
LINE
  5
C9
330
1A
100
AcDbEntity
  8
BLACK
  6
CONTINUOUS
100
AcDbLine
 10
126.915424999999999
 20
-167.3724430000000041
 30
0
 11
127.1275569999999959
 21
-167.584575000000001
 31
0
  0
LINE
  5
CA
330
1A
100
AcDbEntity
  8
BLACK
  6
CONTINUOUS
100
AcDbLine
 10
127.1275569999999959
 20
-167.584575000000001
 30
0
 11
127.1600739999999945
 21
-167.6332390000000032
 31
0
  0
LINE
  5
CB
330
1A
100
AcDbEntity
  8
BLACK
  6
CONTINUOUS
100
AcDbLine
 10
127.1600739999999945
 20
-167.6332390000000032
 30
0
 11
127.171490999999989
 21
-167.6906409999999994
 31
0
  0
LINE
  5
CC
330
1A
100
AcDbEntity
  8
BLACK
  6
CONTINUOUS
100
AcDbLine
 10
127.171490999999989
 20
-167.6906409999999994
 30
0
 11
127.1600739999999945
 21
-167.7480429999999956
 31
0
  0
LINE
  5
CD
330
1A
100
AcDbEntity
  8
BLACK
  6
CONTINUOUS
100
AcDbLine
 10
127.1600739999999945
 20
-167.7480429999999956
 30
0
 11
127.1275569999999959
 21
-167.7967069999999978
 31
0
  0
LINE
  5
CE
330
1A
100
AcDbEntity
  8
BLACK
  6
CONTINUOUS
100
AcDbLine
 10
127.1275569999999959
 20
-167.7967069999999978
 30
0
 11
126.2967069999999978
 21
-168.6275569999999959
 31
0
  0
LINE
  5
CF
330
1A
100
AcDbEntity
  8
BLACK
  6
CONTINUOUS
100
AcDbLine
 10
126.2967069999999978
 20
-168.6275569999999959
 30
0
 11
126.2480429999999956
 21
-168.6600739999999803
 31
0
  0
LINE
  5
D0
330
1A
100
AcDbEntity
  8
BLACK
  6
CONTINUOUS
100
AcDbLine
 10
126.2480429999999956
 20
-168.6600739999999803
 30
0
 11
126.1906409999999994
 21
-168.6714910000000032
 31
0
  0
LINE
  5
D1
330
1A
100
AcDbEntity
  8
BLACK
  6
CONTINUOUS
100
AcDbLine
 10
126.1906409999999994
 20
-168.6714910000000032
 30
0
 11
126.133238999999989
 21
-168.6600739999999803
 31
0
  0
LINE
  5
D2
330
1A
100
AcDbEntity
  8
BLACK
  6
CONTINUOUS
100
AcDbLine
 10
126.133238999999989
 20
-168.6600739999999803
 30
0
 11
126.084575000000001
 21
-168.6275569999999959
 31
0
  0
LINE
  5
D3
330
1A
100
AcDbEntity
  8
BLACK
  6
CONTINUOUS
100
AcDbLine
 10
126.084575000000001
 20
-168.6275569999999959
 30
0
 11
125.8724429999999899
 21
-168.415424999999999
 31
0
  0
LINE
  5
D4
330
1A
100
AcDbEntity
  8
BLACK
  6
CONTINUOUS
100
AcDbLine
 10
125.8724429999999899
 20
-168.415424999999999
 30
0
 11
125.8399259999999913
 21
-168.3667609999999968
 31
0
  0
LINE
  5
D5
330
1A
100
AcDbEntity
  8
BLACK
  6
CONTINUOUS
100
AcDbLine
 10
125.8399259999999913
 20
-168.3667609999999968
 30
0
 11
125.8285089999999968
 21
-168.3093590000000006
 31
0
  0
LINE
  5
D6
330
1A
100
AcDbEntity
  8
BLACK
  6
CONTINUOUS
100
AcDbLine
 10
125.8285089999999968
 20
-168.3093590000000006
 30
0
 11
125.8399259999999913
 21
-168.2519570000000044
 31
0
  0
LINE
  5
D7
330
1A
100
AcDbEntity
  8
BLACK
  6
CONTINUOUS
100
AcDbLine
 10
125.8399259999999913
 20
-168.2519570000000044
 30
0
 11
125.8724429999999899
 21
-168.2032930000000022
 31
0
  0
LINE
  5
D8
330
1A
100
AcDbEntity
  8
BLACK
  6
CONTINUOUS
100
AcDbLine
 10
125.8724429999999899
 20
-168.2032930000000022
 30
0
 11
126.703292999999988
 21
-167.3724430000000041
 31
0
  0
LINE
  5
D9
330
1A
100
AcDbEntity
  8
BLACK
  6
CONTINUOUS
100
AcDbLine
 10
126.703292999999988
 20
-167.3724430000000041
 30
0
 11
126.7519569999999902
 21
-167.3399259999999913
 31
0
  0
LINE
  5
DA
330
1A
100
AcDbEntity
  8
BLACK
  6
CONTINUOUS
100
AcDbLine
 10
126.7519569999999902
 20
-167.3399259999999913
 30
0
 11
126.8093590000000006
 21
-167.3285089999999968
 31
0
  0
LINE
  5
DB
330
1A
100
AcDbEntity
  8
BLACK
  6
CONTINUOUS
100
AcDbLine
 10
126.8093590000000006
 20
-167.3285089999999968
 30
0
 11
126.8667609999999968
 21
-167.3399259999999913
 31
0
  0
LINE
  5
DC
330
1A
100
AcDbEntity
  8
BLACK
  6
CONTINUOUS
100
AcDbLine
 10
104.8824029999999965
 20
-167.5214179999999828
 30
0
 11
104.9310660000000013
 21
-167.5539339999999982
 31
0
  0
LINE
  5
DD
330
1A
100
AcDbEntity
  8
BLACK
  6
CONTINUOUS
100
AcDbLine
 10
104.9310660000000013
 20
-167.5539339999999982
 30
0
 11
104.9635819999999882
 21
-167.6025970000000029
 31
0
  0
LINE
  5
DE
330
1A
100
AcDbEntity
  8
BLACK
  6
CONTINUOUS
100
AcDbLine
 10
104.9635819999999882
 20
-167.6025970000000029
 30
0
 11
104.9749999999999943
 21
-167.6599999999999966
 31
0
  0
LINE
  5
DF
330
1A
100
AcDbEntity
  8
BLACK
  6
CONTINUOUS
100
AcDbLine
 10
104.9749999999999943
 20
-167.6599999999999966
 30
0
 11
104.9749999999999943
 21
-167.9599999999999795
 31
0
  0
LINE
  5
E0
330
1A
100
AcDbEntity
  8
BLACK
  6
CONTINUOUS
100
AcDbLine
 10
104.9749999999999943
 20
-167.9599999999999795
 30
0
 11
104.9635819999999882
 21
-168.0174030000000016
 31
0
  0
LINE
  5
E1
330
1A
100
AcDbEntity
  8
BLACK
  6
CONTINUOUS
100
AcDbLine
 10
104.9635819999999882
 20
-168.0174030000000016
 30
0
 11
104.9310660000000013
 21
-168.0660660000000064
 31
0
  0
LINE
  5
E2
330
1A
100
AcDbEntity
  8
BLACK
  6
CONTINUOUS
100
AcDbLine
 10
104.9310660000000013
 20
-168.0660660000000064
 30
0
 11
104.8824029999999965
 21
-168.0985819999999933
 31
0
  0
LINE
  5
E3
330
1A
100
AcDbEntity
  8
BLACK
  6
CONTINUOUS
100
AcDbLine
 10
104.8824029999999965
 20
-168.0985819999999933
 30
0
 11
104.8249999999999886
 21
-168.1099999999999852
 31
0
  0
LINE
  5
E4
330
1A
100
AcDbEntity
  8
BLACK
  6
CONTINUOUS
100
AcDbLine
 10
104.8249999999999886
 20
-168.1099999999999852
 30
0
 11
103.1749999999999972
 21
-168.1099999999999852
 31
0
  0
LINE
  5
E5
330
1A
100
AcDbEntity
  8
BLACK
  6
CONTINUOUS
100
AcDbLine
 10
103.1749999999999972
 20
-168.1099999999999852
 30
0
 11
103.1175969999999893
 21
-168.0985819999999933
 31
0
  0
LINE
  5
E6
330
1A
100
AcDbEntity
  8
BLACK
  6
CONTINUOUS
100
AcDbLine
 10
103.1175969999999893
 20
-168.0985819999999933
 30
0
 11
103.0689339999999987
 21
-168.0660660000000064
 31
0
  0
LINE
  5
E7
330
1A
100
AcDbEntity
  8
BLACK
  6
CONTINUOUS
100
AcDbLine
 10
103.0689339999999987
 20
-168.0660660000000064
 30
0
 11
103.0364179999999976
 21
-168.0174030000000016
 31
0
  0
LINE
  5
E8
330
1A
100
AcDbEntity
  8
BLACK
  6
CONTINUOUS
100
AcDbLine
 10
103.0364179999999976
 20
-168.0174030000000016
 30
0
 11
103.0249999999999915
 21
-167.9599999999999795
 31
0
  0
LINE
  5
E9
330
1A
100
AcDbEntity
  8
BLACK
  6
CONTINUOUS
100
AcDbLine
 10
103.0249999999999915
 20
-167.9599999999999795
 30
0
 11
103.0249999999999915
 21
-167.6599999999999966
 31
0
  0
LINE
  5
EA
330
1A
100
AcDbEntity
  8
BLACK
  6
CONTINUOUS
100
AcDbLine
 10
103.0249999999999915
 20
-167.6599999999999966
 30
0
 11
103.0364179999999976
 21
-167.6025970000000029
 31
0
  0
LINE
  5
EB
330
1A
100
AcDbEntity
  8
BLACK
  6
CONTINUOUS
100
AcDbLine
 10
103.0364179999999976
 20
-167.6025970000000029
 30
0
 11
103.0689339999999987
 21
-167.5539339999999982
 31
0
  0
LINE
  5
EC
330
1A
100
AcDbEntity
  8
BLACK
  6
CONTINUOUS
100
AcDbLine
 10
103.0689339999999987
 20
-167.5539339999999982
 30
0
 11
103.1175969999999893
 21
-167.5214179999999828
 31
0
  0
LINE
  5
ED
330
1A
100
AcDbEntity
  8
BLACK
  6
CONTINUOUS
100
AcDbLine
 10
103.1175969999999893
 20
-167.5214179999999828
 30
0
 11
103.1749999999999972
 21
-167.5099999999999909
 31
0
  0
LINE
  5
EE
330
1A
100
AcDbEntity
  8
BLACK
  6
CONTINUOUS
100
AcDbLine
 10
103.1749999999999972
 20
-167.5099999999999909
 30
0
 11
104.8249999999999886
 21
-167.5099999999999909
 31
0
  0
LINE
  5
EF
330
1A
100
AcDbEntity
  8
BLACK
  6
CONTINUOUS
100
AcDbLine
 10
104.8249999999999886
 20
-167.5099999999999909
 30
0
 11
104.8824029999999965
 21
-167.5214179999999828
 31
0
  0
LINE
  5
F0
330
1A
100
AcDbEntity
  8
BLACK
  6
CONTINUOUS
100
AcDbLine
 10
109.8324029999999993
 20
-167.5214179999999828
 30
0
 11
109.8810659999999899
 21
-167.5539339999999982
 31
0
  0
LINE
  5
F1
330
1A
100
AcDbEntity
  8
BLACK
  6
CONTINUOUS
100
AcDbLine
 10
109.8810659999999899
 20
-167.5539339999999982
 30
0
 11
109.913581999999991
 21
-167.6025970000000029
 31
0
  0
LINE
  5
F2
330
1A
100
AcDbEntity
  8
BLACK
  6
CONTINUOUS
100
AcDbLine
 10
109.913581999999991
 20
-167.6025970000000029
 30
0
 11
109.9249999999999972
 21
-167.6599999999999966
 31
0
  0
LINE
  5
F3
330
1A
100
AcDbEntity
  8
BLACK
  6
CONTINUOUS
100
AcDbLine
 10
109.9249999999999972
 20
-167.6599999999999966
 30
0
 11
109.9249999999999972
 21
-167.9599999999999795
 31
0
  0
LINE
  5
F4
330
1A
100
AcDbEntity
  8
BLACK
  6
CONTINUOUS
100
AcDbLine
 10
109.9249999999999972
 20
-167.9599999999999795
 30
0
 11
109.913581999999991
 21
-168.0174030000000016
 31
0
  0
LINE
  5
F5
330
1A
100
AcDbEntity
  8
BLACK
  6
CONTINUOUS
100
AcDbLine
 10
109.913581999999991
 20
-168.0174030000000016
 30
0
 11
109.8810659999999899
 21
-168.0660660000000064
 31
0
  0
LINE
  5
F6
330
1A
100
AcDbEntity
  8
BLACK
  6
CONTINUOUS
100
AcDbLine
 10
109.8810659999999899
 20
-168.0660660000000064
 30
0
 11
109.8324029999999993
 21
-168.0985819999999933
 31
0
  0
LINE
  5
F7
330
1A
100
AcDbEntity
  8
BLACK
  6
CONTINUOUS
100
AcDbLine
 10
109.8324029999999993
 20
-168.0985819999999933
 30
0
 11
109.7749999999999915
 21
-168.1099999999999852
 31
0
  0
LINE
  5
F8
330
1A
100
AcDbEntity
  8
BLACK
  6
CONTINUOUS
100
AcDbLine
 10
109.7749999999999915
 20
-168.1099999999999852
 30
0
 11
108.125
 21
-168.1099999999999852
 31
0
  0
LINE
  5
F9
330
1A
100
AcDbEntity
  8
BLACK
  6
CONTINUOUS
100
AcDbLine
 10
108.125
 20
-168.1099999999999852
 30
0
 11
108.0675969999999921
 21
-168.0985819999999933
 31
0
  0
LINE
  5
FA
330
1A
100
AcDbEntity
  8
BLACK
  6
CONTINUOUS
100
AcDbLine
 10
108.0675969999999921
 20
-168.0985819999999933
 30
0
 11
108.0189340000000016
 21
-168.0660660000000064
 31
0
  0
LINE
  5
FB
330
1A
100
AcDbEntity
  8
BLACK
  6
CONTINUOUS
100
AcDbLine
 10
108.0189340000000016
 20
-168.0660660000000064
 30
0
 11
107.9864180000000005
 21
-168.0174030000000016
 31
0
  0
LINE
  5
FC
330
1A
100
AcDbEntity
  8
BLACK
  6
CONTINUOUS
100
AcDbLine
 10
107.9864180000000005
 20
-168.0174030000000016
 30
0
 11
107.9749999999999943
 21
-167.9599999999999795
 31
0
  0
LINE
  5
FD
330
1A
100
AcDbEntity
  8
BLACK
  6
CONTINUOUS
100
AcDbLine
 10
107.9749999999999943
 20
-167.9599999999999795
 30
0
 11
107.9749999999999943
 21
-167.6599999999999966
 31
0
  0
LINE
  5
FE
330
1A
100
AcDbEntity
  8
BLACK
  6
CONTINUOUS
100
AcDbLine
 10
107.9749999999999943
 20
-167.6599999999999966
 30
0
 11
107.9864180000000005
 21
-167.6025970000000029
 31
0
  0
LINE
  5
FF
330
1A
100
AcDbEntity
  8
BLACK
  6
CONTINUOUS
100
AcDbLine
 10
107.9864180000000005
 20
-167.6025970000000029
 30
0
 11
108.0189340000000016
 21
-167.5539339999999982
 31
0
  0
LINE
  5
100
330
1A
100
AcDbEntity
  8
BLACK
  6
CONTINUOUS
100
AcDbLine
 10
108.0189340000000016
 20
-167.5539339999999982
 30
0
 11
108.0675969999999921
 21
-167.5214179999999828
 31
0
  0
LINE
  5
101
330
1A
100
AcDbEntity
  8
BLACK
  6
CONTINUOUS
100
AcDbLine
 10
108.0675969999999921
 20
-167.5214179999999828
 30
0
 11
108.125
 21
-167.5099999999999909
 31
0
  0
LINE
  5
102
330
1A
100
AcDbEntity
  8
BLACK
  6
CONTINUOUS
100
AcDbLine
 10
108.125
 20
-167.5099999999999909
 30
0
 11
109.7749999999999915
 21
-167.5099999999999909
 31
0
  0
LINE
  5
103
330
1A
100
AcDbEntity
  8
BLACK
  6
CONTINUOUS
100
AcDbLine
 10
109.7749999999999915
 20
-167.5099999999999909
 30
0
 11
109.8324029999999993
 21
-167.5214179999999828
 31
0
  0
LINE
  5
104
330
1A
100
AcDbEntity
  8
BLACK
  6
CONTINUOUS
100
AcDbLine
 10
104.8824029999999965
 20
-166.251418000000001
 30
0
 11
104.9310660000000013
 21
-166.2839339999999879
 31
0
  0
LINE
  5
105
330
1A
100
AcDbEntity
  8
BLACK
  6
CONTINUOUS
100
AcDbLine
 10
104.9310660000000013
 20
-166.2839339999999879
 30
0
 11
104.9635819999999882
 21
-166.3325969999999927
 31
0
  0
LINE
  5
106
330
1A
100
AcDbEntity
  8
BLACK
  6
CONTINUOUS
100
AcDbLine
 10
104.9635819999999882
 20
-166.3325969999999927
 30
0
 11
104.9749999999999943
 21
-166.3899999999999864
 31
0
  0
LINE
  5
107
330
1A
100
AcDbEntity
  8
BLACK
  6
CONTINUOUS
100
AcDbLine
 10
104.9749999999999943
 20
-166.3899999999999864
 30
0
 11
104.9749999999999943
 21
-166.6899999999999977
 31
0
  0
LINE
  5
108
330
1A
100
AcDbEntity
  8
BLACK
  6
CONTINUOUS
100
AcDbLine
 10
104.9749999999999943
 20
-166.6899999999999977
 30
0
 11
104.9635819999999882
 21
-166.7474029999999914
 31
0
  0
LINE
  5
109
330
1A
100
AcDbEntity
  8
BLACK
  6
CONTINUOUS
100
AcDbLine
 10
104.9635819999999882
 20
-166.7474029999999914
 30
0
 11
104.9310660000000013
 21
-166.7960659999999962
 31
0
  0
LINE
  5
10A
330
1A
100
AcDbEntity
  8
BLACK
  6
CONTINUOUS
100
AcDbLine
 10
104.9310660000000013
 20
-166.7960659999999962
 30
0
 11
104.8824029999999965
 21
-166.8285819999999831
 31
0
  0
LINE
  5
10B
330
1A
100
AcDbEntity
  8
BLACK
  6
CONTINUOUS
100
AcDbLine
 10
104.8824029999999965
 20
-166.8285819999999831
 30
0
 11
104.8249999999999886
 21
-166.8400000000000034
 31
0
  0
LINE
  5
10C
330
1A
100
AcDbEntity
  8
BLACK
  6
CONTINUOUS
100
AcDbLine
 10
104.8249999999999886
 20
-166.8400000000000034
 30
0
 11
103.1749999999999972
 21
-166.8400000000000034
 31
0
  0
LINE
  5
10D
330
1A
100
AcDbEntity
  8
BLACK
  6
CONTINUOUS
100
AcDbLine
 10
103.1749999999999972
 20
-166.8400000000000034
 30
0
 11
103.1175969999999893
 21
-166.8285819999999831
 31
0
  0
LINE
  5
10E
330
1A
100
AcDbEntity
  8
BLACK
  6
CONTINUOUS
100
AcDbLine
 10
103.1175969999999893
 20
-166.8285819999999831
 30
0
 11
103.0689339999999987
 21
-166.7960659999999962
 31
0
  0
LINE
  5
10F
330
1A
100
AcDbEntity
  8
BLACK
  6
CONTINUOUS
100
AcDbLine
 10
103.0689339999999987
 20
-166.7960659999999962
 30
0
 11
103.0364179999999976
 21
-166.7474029999999914
 31
0
  0
LINE
  5
110
330
1A
100
AcDbEntity
  8
BLACK
  6
CONTINUOUS
100
AcDbLine
 10
103.0364179999999976
 20
-166.7474029999999914
 30
0
 11
103.0249999999999915
 21
-166.6899999999999977
 31
0
  0
LINE
  5
111
330
1A
100
AcDbEntity
  8
BLACK
  6
CONTINUOUS
100
AcDbLine
 10
103.0249999999999915
 20
-166.6899999999999977
 30
0
 11
103.0249999999999915
 21
-166.3899999999999864
 31
0
  0
LINE
  5
112
330
1A
100
AcDbEntity
  8
BLACK
  6
CONTINUOUS
100
AcDbLine
 10
103.0249999999999915
 20
-166.3899999999999864
 30
0
 11
103.0364179999999976
 21
-166.3325969999999927
 31
0
  0
LINE
  5
113
330
1A
100
AcDbEntity
  8
BLACK
  6
CONTINUOUS
100
AcDbLine
 10
103.0364179999999976
 20
-166.3325969999999927
 30
0
 11
103.0689339999999987
 21
-166.2839339999999879
 31
0
  0
LINE
  5
114
330
1A
100
AcDbEntity
  8
BLACK
  6
CONTINUOUS
100
AcDbLine
 10
103.0689339999999987
 20
-166.2839339999999879
 30
0
 11
103.1175969999999893
 21
-166.251418000000001
 31
0
  0
LINE
  5
115
330
1A
100
AcDbEntity
  8
BLACK
  6
CONTINUOUS
100
AcDbLine
 10
103.1175969999999893
 20
-166.251418000000001
 30
0
 11
103.1749999999999972
 21
-166.2399999999999807
 31
0
  0
LINE
  5
116
330
1A
100
AcDbEntity
  8
BLACK
  6
CONTINUOUS
100
AcDbLine
 10
103.1749999999999972
 20
-166.2399999999999807
 30
0
 11
104.8249999999999886
 21
-166.2399999999999807
 31
0
  0
LINE
  5
117
330
1A
100
AcDbEntity
  8
BLACK
  6
CONTINUOUS
100
AcDbLine
 10
104.8249999999999886
 20
-166.2399999999999807
 30
0
 11
104.8824029999999965
 21
-166.251418000000001
 31
0
  0
LINE
  5
118
330
1A
100
AcDbEntity
  8
BLACK
  6
CONTINUOUS
100
AcDbLine
 10
109.8324029999999993
 20
-166.251418000000001
 30
0
 11
109.8810659999999899
 21
-166.2839339999999879
 31
0
  0
LINE
  5
119
330
1A
100
AcDbEntity
  8
BLACK
  6
CONTINUOUS
100
AcDbLine
 10
109.8810659999999899
 20
-166.2839339999999879
 30
0
 11
109.913581999999991
 21
-166.3325969999999927
 31
0
  0
LINE
  5
11A
330
1A
100
AcDbEntity
  8
BLACK
  6
CONTINUOUS
100
AcDbLine
 10
109.913581999999991
 20
-166.3325969999999927
 30
0
 11
109.9249999999999972
 21
-166.3899999999999864
 31
0
  0
LINE
  5
11B
330
1A
100
AcDbEntity
  8
BLACK
  6
CONTINUOUS
100
AcDbLine
 10
109.9249999999999972
 20
-166.3899999999999864
 30
0
 11
109.9249999999999972
 21
-166.6899999999999977
 31
0
  0
LINE
  5
11C
330
1A
100
AcDbEntity
  8
BLACK
  6
CONTINUOUS
100
AcDbLine
 10
109.9249999999999972
 20
-166.6899999999999977
 30
0
 11
109.913581999999991
 21
-166.7474029999999914
 31
0
  0
LINE
  5
11D
330
1A
100
AcDbEntity
  8
BLACK
  6
CONTINUOUS
100
AcDbLine
 10
109.913581999999991
 20
-166.7474029999999914
 30
0
 11
109.8810659999999899
 21
-166.7960659999999962
 31
0
  0
LINE
  5
11E
330
1A
100
AcDbEntity
  8
BLACK
  6
CONTINUOUS
100
AcDbLine
 10
109.8810659999999899
 20
-166.7960659999999962
 30
0
 11
109.8324029999999993
 21
-166.8285819999999831
 31
0
  0
LINE
  5
11F
330
1A
100
AcDbEntity
  8
BLACK
  6
CONTINUOUS
100
AcDbLine
 10
109.8324029999999993
 20
-166.8285819999999831
 30
0
 11
109.7749999999999915
 21
-166.8400000000000034
 31
0
  0
LINE
  5
120
330
1A
100
AcDbEntity
  8
BLACK
  6
CONTINUOUS
100
AcDbLine
 10
109.7749999999999915
 20
-166.8400000000000034
 30
0
 11
108.125
 21
-166.8400000000000034
 31
0
  0
LINE
  5
121
330
1A
100
AcDbEntity
  8
BLACK
  6
CONTINUOUS
100
AcDbLine
 10
108.125
 20
-166.8400000000000034
 30
0
 11
108.0675969999999921
 21
-166.8285819999999831
 31
0
  0
LINE
  5
122
330
1A
100
AcDbEntity
  8
BLACK
  6
CONTINUOUS
100
AcDbLine
 10
108.0675969999999921
 20
-166.8285819999999831
 30
0
 11
108.0189340000000016
 21
-166.7960659999999962
 31
0
  0
LINE
  5
123
330
1A
100
AcDbEntity
  8
BLACK
  6
CONTINUOUS
100
AcDbLine
 10
108.0189340000000016
 20
-166.7960659999999962
 30
0
 11
107.9864180000000005
 21
-166.7474029999999914
 31
0
  0
LINE
  5
124
330
1A
100
AcDbEntity
  8
BLACK
  6
CONTINUOUS
100
AcDbLine
 10
107.9864180000000005
 20
-166.7474029999999914
 30
0
 11
107.9749999999999943
 21
-166.6899999999999977
 31
0
  0
LINE
  5
125
330
1A
100
AcDbEntity
  8
BLACK
  6
CONTINUOUS
100
AcDbLine
 10
107.9749999999999943
 20
-166.6899999999999977
 30
0
 11
107.9749999999999943
 21
-166.3899999999999864
 31
0
  0
LINE
  5
126
330
1A
100
AcDbEntity
  8
BLACK
  6
CONTINUOUS
100
AcDbLine
 10
107.9749999999999943
 20
-166.3899999999999864
 30
0
 11
107.9864180000000005
 21
-166.3325969999999927
 31
0
  0
LINE
  5
127
330
1A
100
AcDbEntity
  8
BLACK
  6
CONTINUOUS
100
AcDbLine
 10
107.9864180000000005
 20
-166.3325969999999927
 30
0
 11
108.0189340000000016
 21
-166.2839339999999879
 31
0
  0
LINE
  5
128
330
1A
100
AcDbEntity
  8
BLACK
  6
CONTINUOUS
100
AcDbLine
 10
108.0189340000000016
 20
-166.2839339999999879
 30
0
 11
108.0675969999999921
 21
-166.251418000000001
 31
0
  0
LINE
  5
129
330
1A
100
AcDbEntity
  8
BLACK
  6
CONTINUOUS
100
AcDbLine
 10
108.0675969999999921
 20
-166.251418000000001
 30
0
 11
108.125
 21
-166.2399999999999807
 31
0
  0
LINE
  5
12A
330
1A
100
AcDbEntity
  8
BLACK
  6
CONTINUOUS
100
AcDbLine
 10
108.125
 20
-166.2399999999999807
 30
0
 11
109.7749999999999915
 21
-166.2399999999999807
 31
0
  0
LINE
  5
12B
330
1A
100
AcDbEntity
  8
BLACK
  6
CONTINUOUS
100
AcDbLine
 10
109.7749999999999915
 20
-166.2399999999999807
 30
0
 11
109.8324029999999993
 21
-166.251418000000001
 31
0
  0
LINE
  5
12C
330
1A
100
AcDbEntity
  8
BLACK
  6
CONTINUOUS
100
AcDbLine
 10
104.8824029999999965
 20
-164.9814179999999908
 30
0
 11
104.9310660000000013
 21
-165.0139340000000061
 31
0
  0
LINE
  5
12D
330
1A
100
AcDbEntity
  8
BLACK
  6
CONTINUOUS
100
AcDbLine
 10
104.9310660000000013
 20
-165.0139340000000061
 30
0
 11
104.9635819999999882
 21
-165.0625969999999825
 31
0
  0
LINE
  5
12E
330
1A
100
AcDbEntity
  8
BLACK
  6
CONTINUOUS
100
AcDbLine
 10
104.9635819999999882
 20
-165.0625969999999825
 30
0
 11
104.9749999999999943
 21
-165.1200000000000045
 31
0
  0
LINE
  5
12F
330
1A
100
AcDbEntity
  8
BLACK
  6
CONTINUOUS
100
AcDbLine
 10
104.9749999999999943
 20
-165.1200000000000045
 30
0
 11
104.9749999999999943
 21
-165.4199999999999875
 31
0
  0
LINE
  5
130
330
1A
100
AcDbEntity
  8
BLACK
  6
CONTINUOUS
100
AcDbLine
 10
104.9749999999999943
 20
-165.4199999999999875
 30
0
 11
104.9635819999999882
 21
-165.4774029999999811
 31
0
  0
LINE
  5
131
330
1A
100
AcDbEntity
  8
BLACK
  6
CONTINUOUS
100
AcDbLine
 10
104.9635819999999882
 20
-165.4774029999999811
 30
0
 11
104.9310660000000013
 21
-165.5260659999999859
 31
0
  0
LINE
  5
132
330
1A
100
AcDbEntity
  8
BLACK
  6
CONTINUOUS
100
AcDbLine
 10
104.9310660000000013
 20
-165.5260659999999859
 30
0
 11
104.8824029999999965
 21
-165.5585820000000012
 31
0
  0
LINE
  5
133
330
1A
100
AcDbEntity
  8
BLACK
  6
CONTINUOUS
100
AcDbLine
 10
104.8824029999999965
 20
-165.5585820000000012
 30
0
 11
104.8249999999999886
 21
-165.5699999999999932
 31
0
  0
LINE
  5
134
330
1A
100
AcDbEntity
  8
BLACK
  6
CONTINUOUS
100
AcDbLine
 10
104.8249999999999886
 20
-165.5699999999999932
 30
0
 11
103.1749999999999972
 21
-165.5699999999999932
 31
0
  0
LINE
  5
135
330
1A
100
AcDbEntity
  8
BLACK
  6
CONTINUOUS
100
AcDbLine
 10
103.1749999999999972
 20
-165.5699999999999932
 30
0
 11
103.1175969999999893
 21
-165.5585820000000012
 31
0
  0
LINE
  5
136
330
1A
100
AcDbEntity
  8
BLACK
  6
CONTINUOUS
100
AcDbLine
 10
103.1175969999999893
 20
-165.5585820000000012
 30
0
 11
103.0689339999999987
 21
-165.5260659999999859
 31
0
  0
LINE
  5
137
330
1A
100
AcDbEntity
  8
BLACK
  6
CONTINUOUS
100
AcDbLine
 10
103.0689339999999987
 20
-165.5260659999999859
 30
0
 11
103.0364179999999976
 21
-165.4774029999999811
 31
0
  0
LINE
  5
138
330
1A
100
AcDbEntity
  8
BLACK
  6
CONTINUOUS
100
AcDbLine
 10
103.0364179999999976
 20
-165.4774029999999811
 30
0
 11
103.0249999999999915
 21
-165.4199999999999875
 31
0
  0
LINE
  5
139
330
1A
100
AcDbEntity
  8
BLACK
  6
CONTINUOUS
100
AcDbLine
 10
103.0249999999999915
 20
-165.4199999999999875
 30
0
 11
103.0249999999999915
 21
-165.1200000000000045
 31
0
  0
LINE
  5
13A
330
1A
100
AcDbEntity
  8
BLACK
  6
CONTINUOUS
100
AcDbLine
 10
103.0249999999999915
 20
-165.1200000000000045
 30
0
 11
103.0364179999999976
 21
-165.0625969999999825
 31
0
  0
LINE
  5
13B
330
1A
100
AcDbEntity
  8
BLACK
  6
CONTINUOUS
100
AcDbLine
 10
103.0364179999999976
 20
-165.0625969999999825
 30
0
 11
103.0689339999999987
 21
-165.0139340000000061
 31
0
  0
LINE
  5
13C
330
1A
100
AcDbEntity
  8
BLACK
  6
CONTINUOUS
100
AcDbLine
 10
103.0689339999999987
 20
-165.0139340000000061
 30
0
 11
103.1175969999999893
 21
-164.9814179999999908
 31
0
  0
LINE
  5
13D
330
1A
100
AcDbEntity
  8
BLACK
  6
CONTINUOUS
100
AcDbLine
 10
103.1175969999999893
 20
-164.9814179999999908
 30
0
 11
103.1749999999999972
 21
-164.9699999999999989
 31
0
  0
LINE
  5
13E
330
1A
100
AcDbEntity
  8
BLACK
  6
CONTINUOUS
100
AcDbLine
 10
103.1749999999999972
 20
-164.9699999999999989
 30
0
 11
104.8249999999999886
 21
-164.9699999999999989
 31
0
  0
LINE
  5
13F
330
1A
100
AcDbEntity
  8
BLACK
  6
CONTINUOUS
100
AcDbLine
 10
104.8249999999999886
 20
-164.9699999999999989
 30
0
 11
104.8824029999999965
 21
-164.9814179999999908
 31
0
  0
LINE
  5
140
330
1A
100
AcDbEntity
  8
BLACK
  6
CONTINUOUS
100
AcDbLine
 10
109.8324029999999993
 20
-164.9814179999999908
 30
0
 11
109.8810659999999899
 21
-165.0139340000000061
 31
0
  0
LINE
  5
141
330
1A
100
AcDbEntity
  8
BLACK
  6
CONTINUOUS
100
AcDbLine
 10
109.8810659999999899
 20
-165.0139340000000061
 30
0
 11
109.913581999999991
 21
-165.0625969999999825
 31
0
  0
LINE
  5
142
330
1A
100
AcDbEntity
  8
BLACK
  6
CONTINUOUS
100
AcDbLine
 10
109.913581999999991
 20
-165.0625969999999825
 30
0
 11
109.9249999999999972
 21
-165.1200000000000045
 31
0
  0
LINE
  5
143
330
1A
100
AcDbEntity
  8
BLACK
  6
CONTINUOUS
100
AcDbLine
 10
109.9249999999999972
 20
-165.1200000000000045
 30
0
 11
109.9249999999999972
 21
-165.4199999999999875
 31
0
  0
LINE
  5
144
330
1A
100
AcDbEntity
  8
BLACK
  6
CONTINUOUS
100
AcDbLine
 10
109.9249999999999972
 20
-165.4199999999999875
 30
0
 11
109.913581999999991
 21
-165.4774029999999811
 31
0
  0
LINE
  5
145
330
1A
100
AcDbEntity
  8
BLACK
  6
CONTINUOUS
100
AcDbLine
 10
109.913581999999991
 20
-165.4774029999999811
 30
0
 11
109.8810659999999899
 21
-165.5260659999999859
 31
0
  0
LINE
  5
146
330
1A
100
AcDbEntity
  8
BLACK
  6
CONTINUOUS
100
AcDbLine
 10
109.8810659999999899
 20
-165.5260659999999859
 30
0
 11
109.8324029999999993
 21
-165.5585820000000012
 31
0
  0
LINE
  5
147
330
1A
100
AcDbEntity
  8
BLACK
  6
CONTINUOUS
100
AcDbLine
 10
109.8324029999999993
 20
-165.5585820000000012
 30
0
 11
109.7749999999999915
 21
-165.5699999999999932
 31
0
  0
LINE
  5
148
330
1A
100
AcDbEntity
  8
BLACK
  6
CONTINUOUS
100
AcDbLine
 10
109.7749999999999915
 20
-165.5699999999999932
 30
0
 11
108.125
 21
-165.5699999999999932
 31
0
  0
LINE
  5
149
330
1A
100
AcDbEntity
  8
BLACK
  6
CONTINUOUS
100
AcDbLine
 10
108.125
 20
-165.5699999999999932
 30
0
 11
108.0675969999999921
 21
-165.5585820000000012
 31
0
  0
LINE
  5
14A
330
1A
100
AcDbEntity
  8
BLACK
  6
CONTINUOUS
100
AcDbLine
 10
108.0675969999999921
 20
-165.5585820000000012
 30
0
 11
108.0189340000000016
 21
-165.5260659999999859
 31
0
  0
LINE
  5
14B
330
1A
100
AcDbEntity
  8
BLACK
  6
CONTINUOUS
100
AcDbLine
 10
108.0189340000000016
 20
-165.5260659999999859
 30
0
 11
107.9864180000000005
 21
-165.4774029999999811
 31
0
  0
LINE
  5
14C
330
1A
100
AcDbEntity
  8
BLACK
  6
CONTINUOUS
100
AcDbLine
 10
107.9864180000000005
 20
-165.4774029999999811
 30
0
 11
107.9749999999999943
 21
-165.4199999999999875
 31
0
  0
LINE
  5
14D
330
1A
100
AcDbEntity
  8
BLACK
  6
CONTINUOUS
100
AcDbLine
 10
107.9749999999999943
 20
-165.4199999999999875
 30
0
 11
107.9749999999999943
 21
-165.1200000000000045
 31
0
  0
LINE
  5
14E
330
1A
100
AcDbEntity
  8
BLACK
  6
CONTINUOUS
100
AcDbLine
 10
107.9749999999999943
 20
-165.1200000000000045
 30
0
 11
107.9864180000000005
 21
-165.0625969999999825
 31
0
  0
LINE
  5
14F
330
1A
100
AcDbEntity
  8
BLACK
  6
CONTINUOUS
100
AcDbLine
 10
107.9864180000000005
 20
-165.0625969999999825
 30
0
 11
108.0189340000000016
 21
-165.0139340000000061
 31
0
  0
LINE
  5
150
330
1A
100
AcDbEntity
  8
BLACK
  6
CONTINUOUS
100
AcDbLine
 10
108.0189340000000016
 20
-165.0139340000000061
 30
0
 11
108.0675969999999921
 21
-164.9814179999999908
 31
0
  0
LINE
  5
151
330
1A
100
AcDbEntity
  8
BLACK
  6
CONTINUOUS
100
AcDbLine
 10
108.0675969999999921
 20
-164.9814179999999908
 30
0
 11
108.125
 21
-164.9699999999999989
 31
0
  0
LINE
  5
152
330
1A
100
AcDbEntity
  8
BLACK
  6
CONTINUOUS
100
AcDbLine
 10
108.125
 20
-164.9699999999999989
 30
0
 11
109.7749999999999915
 21
-164.9699999999999989
 31
0
  0
LINE
  5
153
330
1A
100
AcDbEntity
  8
BLACK
  6
CONTINUOUS
100
AcDbLine
 10
109.7749999999999915
 20
-164.9699999999999989
 30
0
 11
109.8324029999999993
 21
-164.9814179999999908
 31
0
  0
LINE
  5
154
330
1A
100
AcDbEntity
  8
BLACK
  6
CONTINUOUS
100
AcDbLine
 10
104.8824029999999965
 20
-163.7114179999999806
 30
0
 11
104.9310660000000013
 21
-163.7439339999999959
 31
0
  0
LINE
  5
155
330
1A
100
AcDbEntity
  8
BLACK
  6
CONTINUOUS
100
AcDbLine
 10
104.9310660000000013
 20
-163.7439339999999959
 30
0
 11
104.9635819999999882
 21
-163.7925970000000007
 31
0
  0
LINE
  5
156
330
1A
100
AcDbEntity
  8
BLACK
  6
CONTINUOUS
100
AcDbLine
 10
104.9635819999999882
 20
-163.7925970000000007
 30
0
 11
104.9749999999999943
 21
-163.8499999999999943
 31
0
  0
LINE
  5
157
330
1A
100
AcDbEntity
  8
BLACK
  6
CONTINUOUS
100
AcDbLine
 10
104.9749999999999943
 20
-163.8499999999999943
 30
0
 11
104.9749999999999943
 21
-164.1500000000000057
 31
0
  0
LINE
  5
158
330
1A
100
AcDbEntity
  8
BLACK
  6
CONTINUOUS
100
AcDbLine
 10
104.9749999999999943
 20
-164.1500000000000057
 30
0
 11
104.9635819999999882
 21
-164.2074029999999993
 31
0
  0
LINE
  5
159
330
1A
100
AcDbEntity
  8
BLACK
  6
CONTINUOUS
100
AcDbLine
 10
104.9635819999999882
 20
-164.2074029999999993
 30
0
 11
104.9310660000000013
 21
-164.2560660000000041
 31
0
  0
LINE
  5
15A
330
1A
100
AcDbEntity
  8
BLACK
  6
CONTINUOUS
100
AcDbLine
 10
104.9310660000000013
 20
-164.2560660000000041
 30
0
 11
104.8824029999999965
 21
-164.288581999999991
 31
0
  0
LINE
  5
15B
330
1A
100
AcDbEntity
  8
BLACK
  6
CONTINUOUS
100
AcDbLine
 10
104.8824029999999965
 20
-164.288581999999991
 30
0
 11
104.8249999999999886
 21
-164.2999999999999829
 31
0
  0
LINE
  5
15C
330
1A
100
AcDbEntity
  8
BLACK
  6
CONTINUOUS
100
AcDbLine
 10
104.8249999999999886
 20
-164.2999999999999829
 30
0
 11
103.1749999999999972
 21
-164.2999999999999829
 31
0
  0
LINE
  5
15D
330
1A
100
AcDbEntity
  8
BLACK
  6
CONTINUOUS
100
AcDbLine
 10
103.1749999999999972
 20
-164.2999999999999829
 30
0
 11
103.1175969999999893
 21
-164.288581999999991
 31
0
  0
LINE
  5
15E
330
1A
100
AcDbEntity
  8
BLACK
  6
CONTINUOUS
100
AcDbLine
 10
103.1175969999999893
 20
-164.288581999999991
 30
0
 11
103.0689339999999987
 21
-164.2560660000000041
 31
0
  0
LINE
  5
15F
330
1A
100
AcDbEntity
  8
BLACK
  6
CONTINUOUS
100
AcDbLine
 10
103.0689339999999987
 20
-164.2560660000000041
 30
0
 11
103.0364179999999976
 21
-164.2074029999999993
 31
0
  0
LINE
  5
160
330
1A
100
AcDbEntity
  8
BLACK
  6
CONTINUOUS
100
AcDbLine
 10
103.0364179999999976
 20
-164.2074029999999993
 30
0
 11
103.0249999999999915
 21
-164.1500000000000057
 31
0
  0
LINE
  5
161
330
1A
100
AcDbEntity
  8
BLACK
  6
CONTINUOUS
100
AcDbLine
 10
103.0249999999999915
 20
-164.1500000000000057
 30
0
 11
103.0249999999999915
 21
-163.8499999999999943
 31
0
  0
LINE
  5
162
330
1A
100
AcDbEntity
  8
BLACK
  6
CONTINUOUS
100
AcDbLine
 10
103.0249999999999915
 20
-163.8499999999999943
 30
0
 11
103.0364179999999976
 21
-163.7925970000000007
 31
0
  0
LINE
  5
163
330
1A
100
AcDbEntity
  8
BLACK
  6
CONTINUOUS
100
AcDbLine
 10
103.0364179999999976
 20
-163.7925970000000007
 30
0
 11
103.0689339999999987
 21
-163.7439339999999959
 31
0
  0
LINE
  5
164
330
1A
100
AcDbEntity
  8
BLACK
  6
CONTINUOUS
100
AcDbLine
 10
103.0689339999999987
 20
-163.7439339999999959
 30
0
 11
103.1175969999999893
 21
-163.7114179999999806
 31
0
  0
LINE
  5
165
330
1A
100
AcDbEntity
  8
BLACK
  6
CONTINUOUS
100
AcDbLine
 10
103.1175969999999893
 20
-163.7114179999999806
 30
0
 11
103.1749999999999972
 21
-163.6999999999999886
 31
0
  0
LINE
  5
166
330
1A
100
AcDbEntity
  8
BLACK
  6
CONTINUOUS
100
AcDbLine
 10
103.1749999999999972
 20
-163.6999999999999886
 30
0
 11
104.8249999999999886
 21
-163.6999999999999886
 31
0
  0
LINE
  5
167
330
1A
100
AcDbEntity
  8
BLACK
  6
CONTINUOUS
100
AcDbLine
 10
104.8249999999999886
 20
-163.6999999999999886
 30
0
 11
104.8824029999999965
 21
-163.7114179999999806
 31
0
  0
LINE
  5
168
330
1A
100
AcDbEntity
  8
BLACK
  6
CONTINUOUS
100
AcDbLine
 10
109.8324029999999993
 20
-163.7114179999999806
 30
0
 11
109.8810659999999899
 21
-163.7439339999999959
 31
0
  0
LINE
  5
169
330
1A
100
AcDbEntity
  8
BLACK
  6
CONTINUOUS
100
AcDbLine
 10
109.8810659999999899
 20
-163.7439339999999959
 30
0
 11
109.913581999999991
 21
-163.7925970000000007
 31
0
  0
LINE
  5
16A
330
1A
100
AcDbEntity
  8
BLACK
  6
CONTINUOUS
100
AcDbLine
 10
109.913581999999991
 20
-163.7925970000000007
 30
0
 11
109.9249999999999972
 21
-163.8499999999999943
 31
0
  0
LINE
  5
16B
330
1A
100
AcDbEntity
  8
BLACK
  6
CONTINUOUS
100
AcDbLine
 10
109.9249999999999972
 20
-163.8499999999999943
 30
0
 11
109.9249999999999972
 21
-164.1500000000000057
 31
0
  0
LINE
  5
16C
330
1A
100
AcDbEntity
  8
BLACK
  6
CONTINUOUS
100
AcDbLine
 10
109.9249999999999972
 20
-164.1500000000000057
 30
0
 11
109.913581999999991
 21
-164.2074029999999993
 31
0
  0
LINE
  5
16D
330
1A
100
AcDbEntity
  8
BLACK
  6
CONTINUOUS
100
AcDbLine
 10
109.913581999999991
 20
-164.2074029999999993
 30
0
 11
109.8810659999999899
 21
-164.2560660000000041
 31
0
  0
LINE
  5
16E
330
1A
100
AcDbEntity
  8
BLACK
  6
CONTINUOUS
100
AcDbLine
 10
109.8810659999999899
 20
-164.2560660000000041
 30
0
 11
109.8324029999999993
 21
-164.288581999999991
 31
0
  0
LINE
  5
16F
330
1A
100
AcDbEntity
  8
BLACK
  6
CONTINUOUS
100
AcDbLine
 10
109.8324029999999993
 20
-164.288581999999991
 30
0
 11
109.7749999999999915
 21
-164.2999999999999829
 31
0
  0
LINE
  5
170
330
1A
100
AcDbEntity
  8
BLACK
  6
CONTINUOUS
100
AcDbLine
 10
109.7749999999999915
 20
-164.2999999999999829
 30
0
 11
108.125
 21
-164.2999999999999829
 31
0
  0
LINE
  5
171
330
1A
100
AcDbEntity
  8
BLACK
  6
CONTINUOUS
100
AcDbLine
 10
108.125
 20
-164.2999999999999829
 30
0
 11
108.0675969999999921
 21
-164.288581999999991
 31
0
  0
LINE
  5
172
330
1A
100
AcDbEntity
  8
BLACK
  6
CONTINUOUS
100
AcDbLine
 10
108.0675969999999921
 20
-164.288581999999991
 30
0
 11
108.0189340000000016
 21
-164.2560660000000041
 31
0
  0
LINE
  5
173
330
1A
100
AcDbEntity
  8
BLACK
  6
CONTINUOUS
100
AcDbLine
 10
108.0189340000000016
 20
-164.2560660000000041
 30
0
 11
107.9864180000000005
 21
-164.2074029999999993
 31
0
  0
LINE
  5
174
330
1A
100
AcDbEntity
  8
BLACK
  6
CONTINUOUS
100
AcDbLine
 10
107.9864180000000005
 20
-164.2074029999999993
 30
0
 11
107.9749999999999943
 21
-164.1500000000000057
 31
0
  0
LINE
  5
175
330
1A
100
AcDbEntity
  8
BLACK
  6
CONTINUOUS
100
AcDbLine
 10
107.9749999999999943
 20
-164.1500000000000057
 30
0
 11
107.9749999999999943
 21
-163.8499999999999943
 31
0
  0
LINE
  5
176
330
1A
100
AcDbEntity
  8
BLACK
  6
CONTINUOUS
100
AcDbLine
 10
107.9749999999999943
 20
-163.8499999999999943
 30
0
 11
107.9864180000000005
 21
-163.7925970000000007
 31
0
  0
LINE
  5
177
330
1A
100
AcDbEntity
  8
BLACK
  6
CONTINUOUS
100
AcDbLine
 10
107.9864180000000005
 20
-163.7925970000000007
 30
0
 11
108.0189340000000016
 21
-163.7439339999999959
 31
0
  0
LINE
  5
178
330
1A
100
AcDbEntity
  8
BLACK
  6
CONTINUOUS
100
AcDbLine
 10
108.0189340000000016
 20
-163.7439339999999959
 30
0
 11
108.0675969999999921
 21
-163.7114179999999806
 31
0
  0
LINE
  5
179
330
1A
100
AcDbEntity
  8
BLACK
  6
CONTINUOUS
100
AcDbLine
 10
108.0675969999999921
 20
-163.7114179999999806
 30
0
 11
108.125
 21
-163.6999999999999886
 31
0
  0
LINE
  5
17A
330
1A
100
AcDbEntity
  8
BLACK
  6
CONTINUOUS
100
AcDbLine
 10
108.125
 20
-163.6999999999999886
 30
0
 11
109.7749999999999915
 21
-163.6999999999999886
 31
0
  0
LINE
  5
17B
330
1A
100
AcDbEntity
  8
BLACK
  6
CONTINUOUS
100
AcDbLine
 10
109.7749999999999915
 20
-163.6999999999999886
 30
0
 11
109.8324029999999993
 21
-163.7114179999999806
 31
0
  0
LINE
  5
17C
330
1A
100
AcDbEntity
  8
BLACK
  6
CONTINUOUS
100
AcDbLine
 10
132.7456709999999873
 20
-104.4190299999999922
 30
0
 11
132.8267769999999928
 21
-104.4732229999999902
 31
0
  0
LINE
  5
17D
330
1A
100
AcDbEntity
  8
BLACK
  6
CONTINUOUS
100
AcDbLine
 10
132.8267769999999928
 20
-104.4732229999999902
 30
0
 11
132.8809699999999907
 21
-104.5543289999999956
 31
0
  0
LINE
  5
17E
330
1A
100
AcDbEntity
  8
BLACK
  6
CONTINUOUS
100
AcDbLine
 10
132.8809699999999907
 20
-104.5543289999999956
 30
0
 11
132.9000000000000057
 21
-104.6499999999999915
 31
0
  0
LINE
  5
17F
330
1A
100
AcDbEntity
  8
BLACK
  6
CONTINUOUS
100
AcDbLine
 10
132.9000000000000057
 20
-104.6499999999999915
 30
0
 11
132.9000000000000057
 21
-105.2999999999999972
 31
0
  0
LINE
  5
180
330
1A
100
AcDbEntity
  8
BLACK
  6
CONTINUOUS
100
AcDbLine
 10
132.9000000000000057
 20
-105.2999999999999972
 30
0
 11
132.8809699999999907
 21
-105.395670999999993
 31
0
  0
LINE
  5
181
330
1A
100
AcDbEntity
  8
BLACK
  6
CONTINUOUS
100
AcDbLine
 10
132.8809699999999907
 20
-105.395670999999993
 30
0
 11
132.8267769999999928
 21
-105.4767769999999985
 31
0
  0
LINE
  5
182
330
1A
100
AcDbEntity
  8
BLACK
  6
CONTINUOUS
100
AcDbLine
 10
132.8267769999999928
 20
-105.4767769999999985
 30
0
 11
132.7456709999999873
 21
-105.5309699999999964
 31
0
  0
LINE
  5
183
330
1A
100
AcDbEntity
  8
BLACK
  6
CONTINUOUS
100
AcDbLine
 10
132.7456709999999873
 20
-105.5309699999999964
 30
0
 11
132.6500000000000057
 21
-105.5499999999999972
 31
0
  0
LINE
  5
184
330
1A
100
AcDbEntity
  8
BLACK
  6
CONTINUOUS
100
AcDbLine
 10
132.6500000000000057
 20
-105.5499999999999972
 30
0
 11
131.3499999999999943
 21
-105.5499999999999972
 31
0
  0
LINE
  5
185
330
1A
100
AcDbEntity
  8
BLACK
  6
CONTINUOUS
100
AcDbLine
 10
131.3499999999999943
 20
-105.5499999999999972
 30
0
 11
131.2543289999999843
 21
-105.5309699999999964
 31
0
  0
LINE
  5
186
330
1A
100
AcDbEntity
  8
BLACK
  6
CONTINUOUS
100
AcDbLine
 10
131.2543289999999843
 20
-105.5309699999999964
 30
0
 11
131.1732230000000072
 21
-105.4767769999999985
 31
0
  0
LINE
  5
187
330
1A
100
AcDbEntity
  8
BLACK
  6
CONTINUOUS
100
AcDbLine
 10
131.1732230000000072
 20
-105.4767769999999985
 30
0
 11
131.1190299999999809
 21
-105.395670999999993
 31
0
  0
LINE
  5
188
330
1A
100
AcDbEntity
  8
BLACK
  6
CONTINUOUS
100
AcDbLine
 10
131.1190299999999809
 20
-105.395670999999993
 30
0
 11
131.0999999999999943
 21
-105.2999999999999972
 31
0
  0
LINE
  5
189
330
1A
100
AcDbEntity
  8
BLACK
  6
CONTINUOUS
100
AcDbLine
 10
131.0999999999999943
 20
-105.2999999999999972
 30
0
 11
131.0999999999999943
 21
-104.6499999999999915
 31
0
  0
LINE
  5
18A
330
1A
100
AcDbEntity
  8
BLACK
  6
CONTINUOUS
100
AcDbLine
 10
131.0999999999999943
 20
-104.6499999999999915
 30
0
 11
131.1190299999999809
 21
-104.5543289999999956
 31
0
  0
LINE
  5
18B
330
1A
100
AcDbEntity
  8
BLACK
  6
CONTINUOUS
100
AcDbLine
 10
131.1190299999999809
 20
-104.5543289999999956
 30
0
 11
131.1732230000000072
 21
-104.4732229999999902
 31
0
  0
LINE
  5
18C
330
1A
100
AcDbEntity
  8
BLACK
  6
CONTINUOUS
100
AcDbLine
 10
131.1732230000000072
 20
-104.4732229999999902
 30
0
 11
131.2543289999999843
 21
-104.4190299999999922
 31
0
  0
LINE
  5
18D
330
1A
100
AcDbEntity
  8
BLACK
  6
CONTINUOUS
100
AcDbLine
 10
131.2543289999999843
 20
-104.4190299999999922
 30
0
 11
131.3499999999999943
 21
-104.3999999999999915
 31
0
  0
LINE
  5
18E
330
1A
100
AcDbEntity
  8
BLACK
  6
CONTINUOUS
100
AcDbLine
 10
131.3499999999999943
 20
-104.3999999999999915
 30
0
 11
132.6500000000000057
 21
-104.3999999999999915
 31
0
  0
LINE
  5
18F
330
1A
100
AcDbEntity
  8
BLACK
  6
CONTINUOUS
100
AcDbLine
 10
132.6500000000000057
 20
-104.3999999999999915
 30
0
 11
132.7456709999999873
 21
-104.4190299999999922
 31
0
  0
LINE
  5
190
330
1A
100
AcDbEntity
  8
BLACK
  6
CONTINUOUS
100
AcDbLine
 10
132.7456709999999873
 20
-101.4690299999999894
 30
0
 11
132.8267769999999928
 21
-101.5232230000000015
 31
0
  0
LINE
  5
191
330
1A
100
AcDbEntity
  8
BLACK
  6
CONTINUOUS
100
AcDbLine
 10
132.8267769999999928
 20
-101.5232230000000015
 30
0
 11
132.8809699999999907
 21
-101.6043289999999928
 31
0
  0
LINE
  5
192
330
1A
100
AcDbEntity
  8
BLACK
  6
CONTINUOUS
100
AcDbLine
 10
132.8809699999999907
 20
-101.6043289999999928
 30
0
 11
132.9000000000000057
 21
-101.6999999999999886
 31
0
  0
LINE
  5
193
330
1A
100
AcDbEntity
  8
BLACK
  6
CONTINUOUS
100
AcDbLine
 10
132.9000000000000057
 20
-101.6999999999999886
 30
0
 11
132.9000000000000057
 21
-102.3499999999999943
 31
0
  0
LINE
  5
194
330
1A
100
AcDbEntity
  8
BLACK
  6
CONTINUOUS
100
AcDbLine
 10
132.9000000000000057
 20
-102.3499999999999943
 30
0
 11
132.8809699999999907
 21
-102.4456709999999902
 31
0
  0
LINE
  5
195
330
1A
100
AcDbEntity
  8
BLACK
  6
CONTINUOUS
100
AcDbLine
 10
132.8809699999999907
 20
-102.4456709999999902
 30
0
 11
132.8267769999999928
 21
-102.5267769999999956
 31
0
  0
LINE
  5
196
330
1A
100
AcDbEntity
  8
BLACK
  6
CONTINUOUS
100
AcDbLine
 10
132.8267769999999928
 20
-102.5267769999999956
 30
0
 11
132.7456709999999873
 21
-102.5809699999999935
 31
0
  0
LINE
  5
197
330
1A
100
AcDbEntity
  8
BLACK
  6
CONTINUOUS
100
AcDbLine
 10
132.7456709999999873
 20
-102.5809699999999935
 30
0
 11
132.6500000000000057
 21
-102.5999999999999943
 31
0
  0
LINE
  5
198
330
1A
100
AcDbEntity
  8
BLACK
  6
CONTINUOUS
100
AcDbLine
 10
132.6500000000000057
 20
-102.5999999999999943
 30
0
 11
131.3499999999999943
 21
-102.5999999999999943
 31
0
  0
LINE
  5
199
330
1A
100
AcDbEntity
  8
BLACK
  6
CONTINUOUS
100
AcDbLine
 10
131.3499999999999943
 20
-102.5999999999999943
 30
0
 11
131.2543289999999843
 21
-102.5809699999999935
 31
0
  0
LINE
  5
19A
330
1A
100
AcDbEntity
  8
BLACK
  6
CONTINUOUS
100
AcDbLine
 10
131.2543289999999843
 20
-102.5809699999999935
 30
0
 11
131.1732230000000072
 21
-102.5267769999999956
 31
0
  0
LINE
  5
19B
330
1A
100
AcDbEntity
  8
BLACK
  6
CONTINUOUS
100
AcDbLine
 10
131.1732230000000072
 20
-102.5267769999999956
 30
0
 11
131.1190299999999809
 21
-102.4456709999999902
 31
0
  0
LINE
  5
19C
330
1A
100
AcDbEntity
  8
BLACK
  6
CONTINUOUS
100
AcDbLine
 10
131.1190299999999809
 20
-102.4456709999999902
 30
0
 11
131.0999999999999943
 21
-102.3499999999999943
 31
0
  0
LINE
  5
19D
330
1A
100
AcDbEntity
  8
BLACK
  6
CONTINUOUS
100
AcDbLine
 10
131.0999999999999943
 20
-102.3499999999999943
 30
0
 11
131.0999999999999943
 21
-101.6999999999999886
 31
0
  0
LINE
  5
19E
330
1A
100
AcDbEntity
  8
BLACK
  6
CONTINUOUS
100
AcDbLine
 10
131.0999999999999943
 20
-101.6999999999999886
 30
0
 11
131.1190299999999809
 21
-101.6043289999999928
 31
0
  0
LINE
  5
19F
330
1A
100
AcDbEntity
  8
BLACK
  6
CONTINUOUS
100
AcDbLine
 10
131.1190299999999809
 20
-101.6043289999999928
 30
0
 11
131.1732230000000072
 21
-101.5232230000000015
 31
0
  0
LINE
  5
1A0
330
1A
100
AcDbEntity
  8
BLACK
  6
CONTINUOUS
100
AcDbLine
 10
131.1732230000000072
 20
-101.5232230000000015
 30
0
 11
131.2543289999999843
 21
-101.4690299999999894
 31
0
  0
LINE
  5
1A1
330
1A
100
AcDbEntity
  8
BLACK
  6
CONTINUOUS
100
AcDbLine
 10
131.2543289999999843
 20
-101.4690299999999894
 30
0
 11
131.3499999999999943
 21
-101.4499999999999886
 31
0
  0
LINE
  5
1A2
330
1A
100
AcDbEntity
  8
BLACK
  6
CONTINUOUS
100
AcDbLine
 10
131.3499999999999943
 20
-101.4499999999999886
 30
0
 11
132.6500000000000057
 21
-101.4499999999999886
 31
0
  0
LINE
  5
1A3
330
1A
100
AcDbEntity
  8
BLACK
  6
CONTINUOUS
100
AcDbLine
 10
132.6500000000000057
 20
-101.4499999999999886
 30
0
 11
132.7456709999999873
 21
-101.4690299999999894
 31
0
  0
ENDSEC
  0
SECTION
  2
OBJECTS
  0
DICTIONARY
  5
20
330
0
100
AcDbDictionary
281
1
  3
ACAD_GROUP
350
1A4
  3
ACAD_LAYOUT
350
21
  3
ACAD_PLOTSTYLENAME
350
11
  0
DICTIONARY
  5
1A4
330
20
100
AcDbDictionary
281
1
  0
ACDBDICTIONARYWDFLT
  5
11
330
20
100
AcDbDictionary
281
1
  3
Normal
350
10
100
AcDbDictionaryWithDefault
340
10
  0
ACDBPLACEHOLDER
  5
10
330
11
  0
DICTIONARY
  5
21
330
20
100
AcDbDictionary
281
1
  3
Model
350
1D
  3
Layout1
350
1E
  3
Layout2
350
1F
  0
LAYOUT
  5
1D
330
21
100
AcDbPlotSettings
  1

  2
none_device
  4
A3
  6

 40
0.0
 41
0.0
 42
0.0
 43
0.0
 44
420.0
 45
297.0
 46
0.0
 47
0.0
 48
0.0
 49
0.0
140
0.0
141
0.0
142
1.0
143
1.0
 70
1024
 72
1
 73
0
 74
5
  7

 75
16
 76
0
 77
2
 78
300
147
1.0
148
0.0
149
0.0
100
AcDbLayout
  1
Model
 70
1
 71
0
 10
0.0
 20
0.0
 11
420.0
 21
297.0
 12
0.0
 22
0.0
 32
0.0
 14
1e+20
 24
1e+20
 34
1e+20
 15
-1e+20
 25
-1e+20
 35
-1e+20
146
0.0
 13
0.0
 23
0.0
 33
0.0
 16
1.0
 26
0.0
 36
0.0
 17
0.0
 27
1.0
 37
0.0
 76
0
330
1A
  0
LAYOUT
  5
1E
330
21
100
AcDbPlotSettings
  1

  2
none_device
  4
A3
  6

 40
0.0
 41
0.0
 42
0.0
 43
0.0
 44
420.0
 45
297.0
 46
0.0
 47
0.0
 48
0.0
 49
0.0
140
0.0
141
0.0
142
1.0
143
1.0
 70
0
 72
1
 73
0
 74
5
  7

 75
16
 76
0
 77
2
 78
300
147
1.0
148
0.0
149
0.0
100
AcDbLayout
  1
Layout1
 70
1
 71
1
 10
0.0
 20
0.0
 11
420.0
 21
297.0
 12
0.0
 22
0.0
 32
0.0
 14
1e+20
 24
1e+20
 34
1e+20
 15
-1e+20
 25
-1e+20
 35
-1e+20
146
0.0
 13
0.0
 23
0.0
 33
0.0
 16
1.0
 26
0.0
 36
0.0
 17
0.0
 27
1.0
 37
0.0
 76
0
330
1B
  0
LAYOUT
  5
1F
330
21
100
AcDbPlotSettings
  1

  2
none_device
  4
A3
  6

 40
0.0
 41
0.0
 42
0.0
 43
0.0
 44
420.0
 45
297.0
 46
0.0
 47
0.0
 48
0.0
 49
0.0
140
0.0
141
0.0
142
1.0
143
1.0
 70
0
 72
1
 73
0
 74
5
  7

 75
16
 76
0
 77
2
 78
300
147
1.0
148
0.0
149
0.0
100
AcDbLayout
  1
Layout2
 70
1
 71
2
 10
0.0
 20
0.0
 11
420.0
 21
297.0
 12
0.0
 22
0.0
 32
0.0
 14
1e+20
 24
1e+20
 34
1e+20
 15
-1e+20
 25
-1e+20
 35
-1e+20
146
0.0
 13
0.0
 23
0.0
 33
0.0
 16
1.0
 26
0.0
 36
0.0
 17
0.0
 27
1.0
 37
0.0
 76
0
330
1C
  0
ENDSEC
  0
EOF
