M48
; DRILL file KiCad 10.0.5 date 2026-08-03T13:57:02
; FORMAT={-:-/ absolute / metric / decimal}
; #@! TF.CreationDate,2026-08-03T13:57:02-07:00
; #@! TF.GenerationSoftware,Kicad,Pcbnew,10.0.5
; #@! TF.FileFunction,MixedPlating,1,2
FMAT,2
METRIC
; #@! TA.AperFunction,Plated,PTH,ViaDrill
T1C0.300
; #@! TA.AperFunction,Plated,PTH,ComponentDrill
T2C0.750
; #@! TA.AperFunction,Plated,PTH,ComponentDrill
T3C0.800
; #@! TA.AperFunction,Plated,PTH,ComponentDrill
T4C1.000
; #@! TA.AperFunction,Plated,PTH,ComponentDrill
T5C1.100
; #@! TA.AperFunction,Plated,PTH,ComponentDrill
T6C1.500
%
G90
G05
T1
X95.0Y-89.0
X95.5Y-141.475
X104.0Y-157.0
X104.5Y-98.975
X107.5Y-161.75
X108.5Y-77.0
X112.5Y-94.5
X113.951Y-83.8
X114.5Y-84.4
X115.076Y-89.924
X116.024Y-89.976
X116.995Y-90.005
X118.0Y-90.0
X119.0Y-90.0
X119.5Y-99.0
X120.0Y-90.0
X120.25Y-100.0
X121.0Y-99.0
X121.003Y-90.003
X132.0Y-147.5
X133.5Y-142.5
T2
X129.0Y-118.0
X131.0Y-118.0
T3
X102.5Y-129.94
X102.5Y-137.56
X102.651Y-142.81
X109.25Y-139.0
X113.5Y-104.19
X113.5Y-111.81
X115.0Y-165.19
X115.0Y-172.81
X117.19Y-104.19
X117.19Y-111.81
X119.0Y-164.0
X119.0Y-171.62
X123.0Y-164.0
X128.388Y-158.612
X129.19Y-109.5
X136.81Y-109.5
T4
X107.5Y-147.5
X107.5Y-150.0
X107.5Y-152.5
X108.855Y-99.25
X108.855Y-101.79
X108.855Y-104.33
X108.855Y-106.87
X108.855Y-109.41
X108.855Y-111.95
X108.855Y-114.49
X108.855Y-117.03
X108.855Y-119.57
X108.855Y-122.11
X108.855Y-124.65
X108.855Y-127.19
X108.855Y-129.73
X122.0Y-147.5
X122.0Y-152.5
X124.095Y-99.25
X124.095Y-101.79
X124.095Y-104.33
X124.095Y-106.87
X124.095Y-109.41
X124.095Y-111.95
X124.095Y-114.49
X124.095Y-117.03
X124.095Y-119.57
X124.095Y-122.11
X124.095Y-124.65
X124.095Y-127.19
X124.095Y-129.73
T5
X96.5Y-120.5
X96.5Y-127.0
X98.0Y-101.5
X98.0Y-106.0
X101.0Y-120.5
X101.0Y-127.0
X104.5Y-101.5
X104.5Y-106.0
X112.0Y-115.0
X112.0Y-121.5
X116.5Y-115.0
X116.5Y-121.5
T6
X114.35Y-144.4G85X115.65Y-144.4
G05
X114.35Y-155.6G85X115.65Y-155.6
G05
M30
