%TF.GenerationSoftware,KiCad,Pcbnew,10.0.5*%
%TF.CreationDate,2026-08-03T13:57:01-07:00*%
%TF.ProjectId,pico2-knob,7069636f-322d-46b6-9e6f-622e6b696361,rev?*%
%TF.SameCoordinates,Original*%
%TF.FileFunction,Copper,L1,Top*%
%TF.FilePolarity,Positive*%
%FSLAX46Y46*%
G04 Gerber Fmt 4.6, Leading zero omitted, Abs format (unit mm)*
G04 Created by KiCad (PCBNEW 10.0.5) date 2026-08-03 13:57:01*
%MOMM*%
%LPD*%
G01*
G04 APERTURE LIST*
G04 Aperture macros list*
%AMRoundRect*
0 Rectangle with rounded corners*
0 $1 Rounding radius*
0 $2 $3 $4 $5 $6 $7 $8 $9 X,Y pos of 4 corners*
0 Add a 4 corners polygon primitive as box body*
4,1,4,$2,$3,$4,$5,$6,$7,$8,$9,$2,$3,0*
0 Add four circle primitives for the rounded corners*
1,1,$1+$1,$2,$3*
1,1,$1+$1,$4,$5*
1,1,$1+$1,$6,$7*
1,1,$1+$1,$8,$9*
0 Add four rect primitives between the rounded corners*
20,1,$1+$1,$2,$3,$4,$5,0*
20,1,$1+$1,$4,$5,$6,$7,0*
20,1,$1+$1,$6,$7,$8,$9,0*
20,1,$1+$1,$8,$9,$2,$3,0*%
G04 Aperture macros list end*
%TA.AperFunction,EtchedComponent*%
%ADD10C,0.200000*%
%TD*%
%TA.AperFunction,EtchedComponent*%
%ADD11C,0.100000*%
%TD*%
%TA.AperFunction,ComponentPad*%
%ADD12C,1.600000*%
%TD*%
%TA.AperFunction,SMDPad,CuDef*%
%ADD13RoundRect,0.150000X-0.309359X-0.521491X0.521491X0.309359X0.309359X0.521491X-0.521491X-0.309359X0*%
%TD*%
%TA.AperFunction,ComponentPad*%
%ADD14C,2.000000*%
%TD*%
%TA.AperFunction,SMDPad,CuDef*%
%ADD15RoundRect,0.250000X0.325000X0.650000X-0.325000X0.650000X-0.325000X-0.650000X0.325000X-0.650000X0*%
%TD*%
%TA.AperFunction,SMDPad,CuDef*%
%ADD16RoundRect,0.250000X-0.325000X-0.650000X0.325000X-0.650000X0.325000X0.650000X-0.325000X0.650000X0*%
%TD*%
%TA.AperFunction,SMDPad,CuDef*%
%ADD17RoundRect,0.150000X-0.825000X-0.150000X0.825000X-0.150000X0.825000X0.150000X-0.825000X0.150000X0*%
%TD*%
%TA.AperFunction,SMDPad,CuDef*%
%ADD18RoundRect,0.250000X-0.650000X0.325000X-0.650000X-0.325000X0.650000X-0.325000X0.650000X0.325000X0*%
%TD*%
%TA.AperFunction,ComponentPad*%
%ADD19R,2.000000X2.000000*%
%TD*%
%TA.AperFunction,ComponentPad*%
%ADD20R,3.200000X2.000000*%
%TD*%
%TA.AperFunction,ComponentPad*%
%ADD21RoundRect,0.250000X0.350000X0.625000X-0.350000X0.625000X-0.350000X-0.625000X0.350000X-0.625000X0*%
%TD*%
%TA.AperFunction,ComponentPad*%
%ADD22O,1.200000X1.750000*%
%TD*%
%TA.AperFunction,ComponentPad*%
%ADD23C,1.800000*%
%TD*%
%TA.AperFunction,ComponentPad*%
%ADD24RoundRect,0.450000X0.450000X0.450000X-0.450000X0.450000X-0.450000X-0.450000X0.450000X-0.450000X0*%
%TD*%
%TA.AperFunction,ComponentPad*%
%ADD25O,1.800000X4.340000*%
%TD*%
%TA.AperFunction,ViaPad*%
%ADD26C,0.600000*%
%TD*%
%TA.AperFunction,Conductor*%
%ADD27C,0.200000*%
%TD*%
%TA.AperFunction,Conductor*%
%ADD28C,0.600000*%
%TD*%
%TA.AperFunction,Conductor*%
%ADD29C,1.000000*%
%TD*%
%TA.AperFunction,Conductor*%
%ADD30C,0.400000*%
%TD*%
%TA.AperFunction,Conductor*%
%ADD31C,1.016000*%
%TD*%
G04 APERTURE END LIST*
%TO.C,REF\u002A\u002A*%
D10*
X134260000Y-127600000D02*
X134460000Y-127850000D01*
X134370000Y-129480000D02*
X134880000Y-129570000D01*
X134580000Y-127845000D02*
X134780000Y-128095000D01*
D11*
X134211573Y-127875740D02*
X135375740Y-127250000D01*
X134720896Y-129636542D01*
X135055594Y-129432813D01*
X134458958Y-130320490D01*
X134240677Y-129272740D01*
X134473511Y-129592886D01*
X134750000Y-127861188D01*
X133629490Y-128457823D01*
X134357094Y-125882104D01*
X135070146Y-125882104D01*
X134211573Y-127875740D01*
%TA.AperFunction,EtchedComponent*%
G36*
X134211573Y-127875740D02*
G01*
X135375740Y-127250000D01*
X134720896Y-129636542D01*
X135055594Y-129432813D01*
X134458958Y-130320490D01*
X134240677Y-129272740D01*
X134473511Y-129592886D01*
X134750000Y-127861188D01*
X133629490Y-128457823D01*
X134357094Y-125882104D01*
X135070146Y-125882104D01*
X134211573Y-127875740D01*
G37*
%TD.AperFunction*%
D10*
X131510000Y-125600000D02*
X131710000Y-125850000D01*
X131620000Y-127480000D02*
X132130000Y-127570000D01*
X131830000Y-125845000D02*
X132030000Y-126095000D01*
D11*
X131461573Y-125875740D02*
X132625740Y-125250000D01*
X131970896Y-127636542D01*
X132305594Y-127432813D01*
X131708958Y-128320490D01*
X131490677Y-127272740D01*
X131723511Y-127592886D01*
X132000000Y-125861188D01*
X130879490Y-126457823D01*
X131607094Y-123882104D01*
X132320146Y-123882104D01*
X131461573Y-125875740D01*
%TA.AperFunction,EtchedComponent*%
G36*
X131461573Y-125875740D02*
G01*
X132625740Y-125250000D01*
X131970896Y-127636542D01*
X132305594Y-127432813D01*
X131708958Y-128320490D01*
X131490677Y-127272740D01*
X131723511Y-127592886D01*
X132000000Y-125861188D01*
X130879490Y-126457823D01*
X131607094Y-123882104D01*
X132320146Y-123882104D01*
X131461573Y-125875740D01*
G37*
%TD.AperFunction*%
D10*
X132010000Y-131100000D02*
X132210000Y-131350000D01*
X132120000Y-132980000D02*
X132630000Y-133070000D01*
X132330000Y-131345000D02*
X132530000Y-131595000D01*
D11*
X131961573Y-131375740D02*
X133125740Y-130750000D01*
X132470896Y-133136542D01*
X132805594Y-132932813D01*
X132208958Y-133820490D01*
X131990677Y-132772740D01*
X132223511Y-133092886D01*
X132500000Y-131361188D01*
X131379490Y-131957823D01*
X132107094Y-129382104D01*
X132820146Y-129382104D01*
X131961573Y-131375740D01*
%TA.AperFunction,EtchedComponent*%
G36*
X131961573Y-131375740D02*
G01*
X133125740Y-130750000D01*
X132470896Y-133136542D01*
X132805594Y-132932813D01*
X132208958Y-133820490D01*
X131990677Y-132772740D01*
X132223511Y-133092886D01*
X132500000Y-131361188D01*
X131379490Y-131957823D01*
X132107094Y-129382104D01*
X132820146Y-129382104D01*
X131961573Y-131375740D01*
G37*
%TD.AperFunction*%
%TD*%
D12*
%TO.P,R3,1*%
%TO.N,+12V*%
X102500000Y-129940000D03*
%TO.P,R3,2*%
%TO.N,Net-(U2-Vfb)*%
X102500000Y-137560000D03*
%TD*%
%TO.P,R7,1*%
%TO.N,Net-(U2-Ipk)*%
X119000000Y-171620000D03*
%TO.P,R7,2*%
%TO.N,Net-(U2-DC)*%
X119000000Y-164000000D03*
%TD*%
%TO.P,R5,1*%
%TO.N,Net-(U2-Vin)*%
X115000000Y-172810000D03*
%TO.P,R5,2*%
%TO.N,Net-(U2-Ipk)*%
X115000000Y-165190000D03*
%TD*%
%TO.P,R4,1*%
%TO.N,Net-(U2-Vfb)*%
X109250000Y-139000000D03*
%TO.P,R4,2*%
%TO.N,GND*%
X102650886Y-142810000D03*
%TD*%
D13*
%TO.P,Q1,D,D_D*%
%TO.N,+BATT*%
X126500000Y-168000000D03*
%TO.P,Q1,G,G_G*%
%TO.N,/12V_EN*%
X124502423Y-168654074D03*
%TO.P,Q1,S,S_S*%
%TO.N,Net-(U2-Vin)*%
X125845926Y-169997577D03*
%TD*%
D14*
%TO.P,SW1,1,1_1*%
%TO.N,/BTN1*%
X104500000Y-106000000D03*
X98000000Y-106000000D03*
%TO.P,SW1,2,2_2*%
%TO.N,GND*%
X104500000Y-101500000D03*
X98000000Y-101500000D03*
%TD*%
D12*
%TO.P,R2,1*%
%TO.N,+3.3V*%
X117190000Y-104190000D03*
%TO.P,R2,2*%
%TO.N,/OLED_RES*%
X117190000Y-111810000D03*
%TD*%
%TO.P,R6,1*%
%TO.N,+3.3V*%
X113500000Y-104190000D03*
%TO.P,R6,2*%
%TO.N,/OLED_CS*%
X113500000Y-111810000D03*
%TD*%
D14*
%TO.P,SW3,1,1_1*%
%TO.N,/BTN3*%
X101000000Y-120500000D03*
X101000000Y-127000000D03*
%TO.P,SW3,2,2_2*%
%TO.N,GND*%
X96500000Y-120500000D03*
X96500000Y-127000000D03*
%TD*%
D15*
%TO.P,C1,1*%
%TO.N,Net-(U2-TC)*%
X104475000Y-171000000D03*
%TO.P,C1,2*%
%TO.N,GND*%
X101525000Y-171000000D03*
%TD*%
D12*
%TO.P,R1,1*%
%TO.N,Net-(J3-Pin_6)*%
X129190000Y-109500000D03*
%TO.P,R1,2*%
%TO.N,GND*%
X136810000Y-109500000D03*
%TD*%
D16*
%TO.P,C3,1*%
%TO.N,Net-(U2-Vin)*%
X128775000Y-172000000D03*
%TO.P,C3,2*%
%TO.N,GND*%
X131725000Y-172000000D03*
%TD*%
D17*
%TO.P,U2,1,SwC_1*%
%TO.N,Net-(D1-A)*%
X104000000Y-164000000D03*
%TO.P,U2,2,SwE_2*%
%TO.N,GND*%
X104000000Y-165270000D03*
%TO.P,U2,3,TC_3*%
%TO.N,Net-(U2-TC)*%
X104000000Y-166540000D03*
%TO.P,U2,4,GND_4*%
%TO.N,GND*%
X104000000Y-167810000D03*
%TO.P,U2,5,Vfb_5*%
%TO.N,Net-(U2-Vfb)*%
X108950000Y-167810000D03*
%TO.P,U2,6,Vin_6*%
%TO.N,Net-(U2-Vin)*%
X108950000Y-166540000D03*
%TO.P,U2,7,Ipk_7*%
%TO.N,Net-(U2-Ipk)*%
X108950000Y-165270000D03*
%TO.P,U2,8,DC_8*%
%TO.N,Net-(U2-DC)*%
X108950000Y-164000000D03*
%TD*%
D18*
%TO.P,C5,1*%
%TO.N,Net-(J3-Pin_2)*%
X132000000Y-102025000D03*
%TO.P,C5,2*%
%TO.N,GND*%
X132000000Y-104975000D03*
%TD*%
D12*
%TO.P,R8,1*%
%TO.N,+BATT*%
X128388154Y-158611846D03*
%TO.P,R8,2*%
%TO.N,/12V_EN*%
X123000000Y-164000000D03*
%TD*%
D15*
%TO.P,C6,1*%
%TO.N,Net-(U2-Vin)*%
X112475000Y-171000000D03*
%TO.P,C6,2*%
%TO.N,GND*%
X109525000Y-171000000D03*
%TD*%
D14*
%TO.P,SW2,1,1_1*%
%TO.N,/BTN2*%
X112000000Y-121500000D03*
X112000000Y-115000000D03*
%TO.P,SW2,2,2_2*%
%TO.N,GND*%
X116500000Y-121500000D03*
X116500000Y-115000000D03*
%TD*%
D19*
%TO.P,RE1,A,A_A*%
%TO.N,/ENC_A*%
X107500000Y-147500000D03*
D14*
%TO.P,RE1,B,B_B*%
%TO.N,/ENC_B*%
X107500000Y-152500000D03*
%TO.P,RE1,C,C_C*%
%TO.N,GND*%
X107500000Y-150000000D03*
D20*
%TO.P,RE1,MP*%
%TO.N,N/C*%
X115000000Y-144400000D03*
X115000000Y-155600000D03*
D14*
%TO.P,RE1,S1,S1_S1*%
%TO.N,/ENC_SW*%
X122000000Y-152500000D03*
%TO.P,RE1,S2,S2_S2*%
%TO.N,GND*%
X122000000Y-147500000D03*
%TD*%
D21*
%TO.P,J2,1,Pin_1_1*%
%TO.N,+BATT*%
X131000000Y-118000000D03*
D22*
%TO.P,J2,2,Pin_2_2*%
%TO.N,GND*%
X129000000Y-118000000D03*
%TD*%
D23*
%TO.P,U1,1,P0.06_1*%
%TO.N,/OLED_DC*%
X124095000Y-101790000D03*
%TO.P,U1,2,P0.08_2*%
%TO.N,/OLED_SCLK*%
X124095000Y-104330000D03*
D24*
%TO.P,U1,3,GND_3*%
%TO.N,GND*%
X124095000Y-106870000D03*
%TO.P,U1,4,GND_4*%
X124095000Y-109410000D03*
D23*
%TO.P,U1,5,P0.17_5*%
%TO.N,/OLED_SDI*%
X124095000Y-111950000D03*
%TO.P,U1,6,P0.20_6*%
%TO.N,unconnected-(U1-P0.20-Pad6)*%
X124095000Y-114490000D03*
%TO.P,U1,7,P0.22_7*%
%TO.N,/OLED_RES*%
X124095000Y-117030000D03*
%TO.P,U1,8,P0.24_8*%
%TO.N,/OLED_CS*%
X124095000Y-119570000D03*
%TO.P,U1,9,P1.00_9*%
%TO.N,unconnected-(U1-P1.00-Pad9)*%
X124095000Y-122110000D03*
%TO.P,U1,10,P0.11_10*%
%TO.N,unconnected-(U1-P0.11-Pad10)*%
X124095000Y-124650000D03*
%TO.P,U1,11,P1.04-LF_11*%
%TO.N,unconnected-(U1-P1.04-LF-Pad11)*%
X124095000Y-127190000D03*
%TO.P,U1,12,P1.06-LF_12*%
%TO.N,/12V_EN*%
X124095000Y-129730000D03*
D25*
%TO.P,U1,13,BAT+_13*%
%TO.N,+BATT*%
X108855000Y-100520000D03*
D24*
%TO.P,U1,14,GND_14*%
%TO.N,GND*%
X108855000Y-104330000D03*
D23*
%TO.P,U1,15,RST_15*%
%TO.N,unconnected-(U1-RST-Pad15)*%
X108855000Y-106870000D03*
%TO.P,U1,16,3V3_16*%
%TO.N,+3.3V*%
X108855000Y-109410000D03*
%TO.P,U1,17,P0.31-LF_17*%
%TO.N,/BTN1*%
X108855000Y-111950000D03*
%TO.P,U1,18,P0.29-LF_18*%
%TO.N,unconnected-(U1-P0.29-LF-Pad18)*%
X108855000Y-114490000D03*
%TO.P,U1,19,P0.02-LF_19*%
%TO.N,/BTN2*%
X108855000Y-117030000D03*
%TO.P,U1,20,P1.15-LF_20*%
%TO.N,/BTN3*%
X108855000Y-119570000D03*
%TO.P,U1,21,P1.13-LF_21*%
%TO.N,unconnected-(U1-P1.13-LF-Pad21)*%
X108855000Y-122110000D03*
%TO.P,U1,22,P1.11-LF_22*%
%TO.N,/ENC_SW*%
X108855000Y-124650000D03*
%TO.P,U1,23,P0.10-LF_23*%
%TO.N,/ENC_B*%
X108855000Y-127190000D03*
%TO.P,U1,24,P0.09-LF_24*%
%TO.N,/ENC_A*%
X108855000Y-129730000D03*
D24*
%TO.P,U1,28,GND_28*%
%TO.N,GND*%
X124095000Y-99250000D03*
D23*
%TO.P,U1,29,BAT+_29*%
%TO.N,+BATT*%
X108855000Y-99250000D03*
%TD*%
D26*
%TO.N,Net-(U2-Vfb)*%
X107500000Y-161750000D03*
%TO.N,GND*%
X114500000Y-84400000D03*
X95000000Y-89000000D03*
X104500000Y-98975000D03*
X132000000Y-147500000D03*
X95500000Y-141475000D03*
X112500000Y-94500000D03*
%TO.N,+BATT*%
X133500000Y-142500000D03*
%TO.N,+3.3V*%
X113951473Y-83800000D03*
X108500000Y-77000000D03*
%TO.N,/OLED_CS*%
X119000000Y-90000000D03*
%TO.N,Net-(J3-Pin_6)*%
X120000000Y-90000000D03*
%TO.N,Net-(D1-A)*%
X104000000Y-157000000D03*
%TO.N,Net-(J3-Pin_2)*%
X121003097Y-90003097D03*
%TO.N,/OLED_RES*%
X118000000Y-90000000D03*
%TO.N,/OLED_DC*%
X121000000Y-99000000D03*
X116995259Y-90004741D03*
%TO.N,/OLED_SCLK*%
X120250000Y-100000000D03*
X116024265Y-89975735D03*
%TO.N,/OLED_SDI*%
X115075735Y-89924265D03*
X119500000Y-99000000D03*
%TD*%
%TO.N,Net-(U2-Vfb)*%
D27*
X109924999Y-167810000D02*
X108950000Y-167810000D01*
X107500000Y-167334999D02*
X107500000Y-161750000D01*
X107975001Y-167810000D02*
X107500000Y-167334999D01*
X108950000Y-167810000D02*
X107975001Y-167810000D01*
%TO.N,Net-(U2-Ipk)*%
X109030000Y-165190000D02*
X108950000Y-165270000D01*
X115000000Y-165190000D02*
X109030000Y-165190000D01*
%TO.N,Net-(U2-DC)*%
X108950000Y-164000000D02*
X119000000Y-164000000D01*
%TO.N,Net-(U2-Vin)*%
D28*
X112475000Y-169090001D02*
X109924999Y-166540000D01*
X113250000Y-171000000D02*
X115000000Y-172750000D01*
X120000000Y-169000000D02*
X122000000Y-171000000D01*
X115000000Y-172750000D02*
X115000000Y-172810000D01*
X112475000Y-171000000D02*
X112475000Y-169090001D01*
X112475000Y-171000000D02*
X113250000Y-171000000D01*
X125845926Y-170154074D02*
X125000000Y-171000000D01*
X127775000Y-171000000D02*
X125000000Y-171000000D01*
X118810000Y-169000000D02*
X120000000Y-169000000D01*
X128775000Y-172000000D02*
X127775000Y-171000000D01*
X115000000Y-172810000D02*
X118810000Y-169000000D01*
X122000000Y-171000000D02*
X125000000Y-171000000D01*
D27*
X109924999Y-166540000D02*
X108950000Y-166540000D01*
D28*
X125845926Y-169997577D02*
X125845926Y-170154074D01*
%TO.N,GND*%
D29*
X132000000Y-147500000D02*
X131725000Y-147775000D01*
D28*
X129000000Y-135000000D02*
X135750000Y-141750000D01*
X104750000Y-150000000D02*
X100750000Y-154000000D01*
X135750000Y-143750000D02*
X132000000Y-147500000D01*
X102480000Y-165270000D02*
X101750000Y-166000000D01*
X100750000Y-154000000D02*
X100750000Y-165000000D01*
X109525000Y-171000000D02*
X107275000Y-173250000D01*
X96500000Y-120500000D02*
X100750000Y-116250000D01*
D29*
X131725000Y-147775000D02*
X131725000Y-172000000D01*
D28*
X101525000Y-168845000D02*
X102560000Y-167810000D01*
X95500000Y-128000000D02*
X95500000Y-141475000D01*
X96500000Y-120500000D02*
X96500000Y-127000000D01*
X104750000Y-150000000D02*
X107500000Y-150000000D01*
X96500000Y-127000000D02*
X95500000Y-128000000D01*
X102650886Y-142810000D02*
X102650886Y-147900886D01*
X101750000Y-166000000D02*
X101750000Y-167000000D01*
X100750000Y-116250000D02*
X102250000Y-116250000D01*
X104000000Y-165270000D02*
X102480000Y-165270000D01*
X96835000Y-142810000D02*
X95500000Y-141475000D01*
X101750000Y-167000000D02*
X102560000Y-167810000D01*
X129000000Y-118000000D02*
X129000000Y-135000000D01*
X101525000Y-171000000D02*
X101525000Y-168845000D01*
X102650886Y-142810000D02*
X96835000Y-142810000D01*
X102650886Y-147900886D02*
X104750000Y-150000000D01*
X135750000Y-141750000D02*
X135750000Y-143750000D01*
X100750000Y-165000000D02*
X101750000Y-166000000D01*
D30*
X96500000Y-127000000D02*
X96500000Y-127500000D01*
D28*
X101525000Y-171000000D02*
X103775000Y-173250000D01*
X102560000Y-167810000D02*
X104000000Y-167810000D01*
X107275000Y-173250000D02*
X103775000Y-173250000D01*
%TO.N,+BATT*%
X127750000Y-157973692D02*
X128388154Y-158611846D01*
X133500000Y-142500000D02*
X127750000Y-148250000D01*
X126500000Y-167500000D02*
X126500000Y-168000000D01*
X127750000Y-148250000D02*
X127750000Y-157973692D01*
X128000000Y-159000000D02*
X128388154Y-158611846D01*
X128000000Y-166000000D02*
X126500000Y-167500000D01*
X128000000Y-166000000D02*
X128000000Y-159000000D01*
%TO.N,/12V_EN*%
D27*
X126500000Y-132135000D02*
X126500000Y-160500000D01*
X123000000Y-164000000D02*
X126500000Y-160500000D01*
X123000000Y-164000000D02*
X123175000Y-164000000D01*
X124500000Y-165500000D02*
X123000000Y-164000000D01*
X124500000Y-166000000D02*
X124500000Y-165500000D01*
X124502423Y-168654074D02*
X124502423Y-166002423D01*
X124095000Y-129730000D02*
X126500000Y-132135000D01*
X124502423Y-166002423D02*
X124500000Y-166000000D01*
%TO.N,+3.3V*%
D28*
X113951473Y-79951473D02*
X113951473Y-83800000D01*
X108500000Y-77000000D02*
X111000000Y-77000000D01*
X111000000Y-77000000D02*
X113951473Y-79951473D01*
X108855000Y-109410000D02*
X108755000Y-109410000D01*
%TO.N,/OLED_CS*%
D27*
X119000000Y-90000000D02*
X128000000Y-99000000D01*
X128000000Y-115665000D02*
X124095000Y-119570000D01*
X128000000Y-99000000D02*
X128000000Y-115665000D01*
%TO.N,Net-(U2-TC)*%
D28*
X105290000Y-166540000D02*
X106000000Y-167250000D01*
X106000000Y-167250000D02*
X106000000Y-170000000D01*
D27*
X104475000Y-171000000D02*
X105000000Y-171000000D01*
D28*
X105290000Y-166540000D02*
X104000000Y-166540000D01*
X106000000Y-170000000D02*
X105000000Y-171000000D01*
%TO.N,Net-(J3-Pin_6)*%
D27*
X129190000Y-109500000D02*
X129190000Y-99190000D01*
X120000000Y-90000000D02*
X129190000Y-99190000D01*
%TO.N,Net-(D1-A)*%
D31*
X104000000Y-164000000D02*
X104000000Y-157000000D01*
%TO.N,Net-(J3-Pin_2)*%
D27*
X132000000Y-101000000D02*
X132000000Y-102000000D01*
X121003097Y-90003097D02*
X132000000Y-101000000D01*
%TO.N,/ENC_A*%
X111000000Y-131875000D02*
X108855000Y-129730000D01*
X107500000Y-147500000D02*
X111000000Y-144000000D01*
X111000000Y-144000000D02*
X111000000Y-131875000D01*
%TO.N,/ENC_B*%
X111750000Y-148500000D02*
X111750000Y-130085000D01*
X111750000Y-130085000D02*
X108855000Y-127190000D01*
X107750000Y-152500000D02*
X111750000Y-148500000D01*
X107500000Y-152500000D02*
X107750000Y-152500000D01*
%TO.N,/ENC_SW*%
X125750000Y-141545000D02*
X125750000Y-151000000D01*
X108855000Y-124650000D02*
X125750000Y-141545000D01*
X124250000Y-152500000D02*
X122000000Y-152500000D01*
X125750000Y-151000000D02*
X124250000Y-152500000D01*
%TO.N,/OLED_RES*%
X127000000Y-114125000D02*
X127000000Y-99000000D01*
X127000000Y-99000000D02*
X118000000Y-90000000D01*
X124095000Y-117030000D02*
X127000000Y-114125000D01*
%TO.N,/OLED_DC*%
X117239841Y-90249323D02*
X117261255Y-90249323D01*
X124095000Y-101790000D02*
X123635000Y-101790000D01*
X121000000Y-93988068D02*
X121000000Y-99000000D01*
X117261255Y-90249323D02*
X121000000Y-93988068D01*
X116995259Y-90004741D02*
X117239841Y-90249323D01*
%TO.N,/OLED_SCLK*%
X116024265Y-89975735D02*
X116024265Y-90024265D01*
X116024265Y-90024265D02*
X120250000Y-94250000D01*
X120250000Y-99000000D02*
X120250000Y-100000000D01*
X120250000Y-94250000D02*
X120250000Y-99000000D01*
%TO.N,/OLED_SDI*%
X115075735Y-89924265D02*
X115124265Y-89924265D01*
X115124265Y-89924265D02*
X119500000Y-94300000D01*
X119500000Y-94300000D02*
X119500000Y-99000000D01*
%TD*%
%TA.AperFunction,Conductor*%
%TO.N,GND*%
G36*
X97579029Y-75216883D02*
G01*
X97624784Y-75269687D01*
X97635990Y-75321198D01*
X97635990Y-88838830D01*
X97635990Y-88904722D01*
X97635990Y-89102888D01*
X97659766Y-89351883D01*
X97673664Y-89497428D01*
X97673666Y-89497440D01*
X97748667Y-89886582D01*
X97748671Y-89886599D01*
X97860331Y-90266876D01*
X98007627Y-90634803D01*
X98007631Y-90634811D01*
X98007632Y-90634813D01*
X98189241Y-90987087D01*
X98403514Y-91320502D01*
X98559931Y-91519402D01*
X98648510Y-91632040D01*
X98648519Y-91632049D01*
X98922013Y-91918881D01*
X99221536Y-92178419D01*
X99221549Y-92178430D01*
X99544365Y-92408306D01*
X99544374Y-92408312D01*
X99544380Y-92408316D01*
X99887614Y-92606482D01*
X100248130Y-92771124D01*
X100351975Y-92807065D01*
X100622650Y-92900747D01*
X100622656Y-92900748D01*
X100622663Y-92900751D01*
X101007823Y-92994190D01*
X101400121Y-93050594D01*
X101796004Y-93069452D01*
X102191886Y-93050594D01*
X102584184Y-92994190D01*
X102969344Y-92900751D01*
X103343877Y-92771124D01*
X103704393Y-92606482D01*
X104047627Y-92408316D01*
X104068011Y-92393800D01*
X104370457Y-92178430D01*
X104370460Y-92178427D01*
X104370469Y-92178421D01*
X104669996Y-91918879D01*
X104943497Y-91632040D01*
X105188493Y-91320502D01*
X105402766Y-90987087D01*
X105584375Y-90634813D01*
X105731677Y-90266872D01*
X105843337Y-89886594D01*
X105918343Y-89497425D01*
X105956017Y-89102888D01*
X105956017Y-88904722D01*
X105956017Y-88838830D01*
X105956017Y-79148617D01*
X105975702Y-79081578D01*
X106028506Y-79035823D01*
X106085248Y-79024728D01*
X112100583Y-79278897D01*
X112166729Y-79301394D01*
X112183027Y-79315105D01*
X113114654Y-80246732D01*
X113148139Y-80308055D01*
X113150973Y-80334413D01*
X113150973Y-83878846D01*
X113181734Y-84033489D01*
X113181737Y-84033501D01*
X113242075Y-84179172D01*
X113242082Y-84179185D01*
X113329683Y-84310288D01*
X113329686Y-84310292D01*
X113441180Y-84421786D01*
X113441184Y-84421789D01*
X113572287Y-84509390D01*
X113572300Y-84509397D01*
X113717971Y-84569735D01*
X113717976Y-84569737D01*
X113872626Y-84600499D01*
X113872629Y-84600500D01*
X113872631Y-84600500D01*
X114030317Y-84600500D01*
X114030318Y-84600499D01*
X114184970Y-84569737D01*
X114330652Y-84509394D01*
X114461762Y-84421789D01*
X114573262Y-84310289D01*
X114660867Y-84179179D01*
X114721210Y-84033497D01*
X114751973Y-83878842D01*
X114751973Y-83721158D01*
X114751973Y-79872631D01*
X114746432Y-79844777D01*
X114746432Y-79844775D01*
X114721212Y-79717983D01*
X114721209Y-79717974D01*
X114658536Y-79566665D01*
X114660206Y-79565973D01*
X114647703Y-79505892D01*
X114672709Y-79440651D01*
X114729018Y-79399286D01*
X114776531Y-79391965D01*
X114842653Y-79394759D01*
X114908799Y-79417256D01*
X114925891Y-79431769D01*
X138527741Y-103467547D01*
X138560666Y-103529173D01*
X138562374Y-103569260D01*
X137946601Y-108679530D01*
X137919038Y-108743733D01*
X137911173Y-108752377D01*
X137210000Y-109453553D01*
X137210000Y-109447339D01*
X137182741Y-109345606D01*
X137130080Y-109254394D01*
X137055606Y-109179920D01*
X136964394Y-109127259D01*
X136862661Y-109100000D01*
X136856446Y-109100000D01*
X137535922Y-108420524D01*
X137535921Y-108420523D01*
X137491359Y-108388147D01*
X137491350Y-108388141D01*
X137309031Y-108295244D01*
X137114417Y-108232009D01*
X136912317Y-108200000D01*
X136707683Y-108200000D01*
X136505582Y-108232009D01*
X136310968Y-108295244D01*
X136128644Y-108388143D01*
X136084077Y-108420523D01*
X136084077Y-108420524D01*
X136763554Y-109100000D01*
X136757339Y-109100000D01*
X136655606Y-109127259D01*
X136564394Y-109179920D01*
X136489920Y-109254394D01*
X136437259Y-109345606D01*
X136410000Y-109447339D01*
X136410000Y-109453553D01*
X135730524Y-108774077D01*
X135730523Y-108774077D01*
X135698143Y-108818644D01*
X135605244Y-109000968D01*
X135542009Y-109195582D01*
X135510000Y-109397682D01*
X135510000Y-109602317D01*
X135542009Y-109804417D01*
X135605244Y-109999031D01*
X135698141Y-110181350D01*
X135698147Y-110181359D01*
X135730523Y-110225921D01*
X135730524Y-110225922D01*
X136410000Y-109546446D01*
X136410000Y-109552661D01*
X136437259Y-109654394D01*
X136489920Y-109745606D01*
X136564394Y-109820080D01*
X136655606Y-109872741D01*
X136757339Y-109900000D01*
X136763553Y-109900000D01*
X136084076Y-110579474D01*
X136128650Y-110611859D01*
X136310968Y-110704755D01*
X136505582Y-110767990D01*
X136707683Y-110800000D01*
X136912317Y-110800000D01*
X137114417Y-110767990D01*
X137309031Y-110704755D01*
X137491347Y-110611860D01*
X137505092Y-110601874D01*
X137570898Y-110578392D01*
X137638952Y-110594215D01*
X137687649Y-110644320D01*
X137701526Y-110712797D01*
X137701090Y-110717024D01*
X136691754Y-119093459D01*
X136664191Y-119157662D01*
X136606293Y-119196772D01*
X136567151Y-119202616D01*
X132129159Y-119149146D01*
X132062362Y-119128655D01*
X132017246Y-119075304D01*
X132008137Y-119006031D01*
X132025114Y-118960060D01*
X132034814Y-118944334D01*
X132089999Y-118777797D01*
X132100500Y-118675009D01*
X132100499Y-117324992D01*
X132089999Y-117222203D01*
X132034814Y-117055666D01*
X131942712Y-116906344D01*
X131818656Y-116782288D01*
X131669334Y-116690186D01*
X131502797Y-116635001D01*
X131502795Y-116635000D01*
X131400010Y-116624500D01*
X130599998Y-116624500D01*
X130599980Y-116624501D01*
X130497203Y-116635000D01*
X130497200Y-116635001D01*
X130330668Y-116690185D01*
X130330663Y-116690187D01*
X130181342Y-116782289D01*
X130057289Y-116906342D01*
X129965187Y-117055663D01*
X129965186Y-117055666D01*
X129910001Y-117222203D01*
X129910001Y-117222204D01*
X129910000Y-117222204D01*
X129899500Y-117324983D01*
X129899500Y-118675001D01*
X129899501Y-118675018D01*
X129910000Y-118777796D01*
X129910001Y-118777799D01*
X129965187Y-118944337D01*
X129965642Y-118945312D01*
X129965753Y-118946044D01*
X129967458Y-118951189D01*
X129966578Y-118951480D01*
X129976134Y-119014389D01*
X129947614Y-119078173D01*
X129889137Y-119116412D01*
X129851766Y-119121707D01*
X125739925Y-119072166D01*
X125673128Y-119051675D01*
X125628012Y-118998324D01*
X125618903Y-118929051D01*
X125648691Y-118865849D01*
X125653705Y-118860528D01*
X128358506Y-116155728D01*
X128358511Y-116155724D01*
X128368714Y-116145520D01*
X128368716Y-116145520D01*
X128480520Y-116033716D01*
X128539857Y-115930941D01*
X128559577Y-115896785D01*
X128600501Y-115744057D01*
X128600501Y-115585943D01*
X128600501Y-115578348D01*
X128600500Y-115578330D01*
X128600500Y-110846557D01*
X128620185Y-110779518D01*
X128672989Y-110733763D01*
X128742147Y-110723819D01*
X128762812Y-110728624D01*
X128840206Y-110753771D01*
X128885465Y-110768477D01*
X128955175Y-110779518D01*
X129087648Y-110800500D01*
X129087649Y-110800500D01*
X129292351Y-110800500D01*
X129292352Y-110800500D01*
X129494534Y-110768477D01*
X129689219Y-110705220D01*
X129871610Y-110612287D01*
X129969009Y-110541523D01*
X130037213Y-110491971D01*
X130037215Y-110491968D01*
X130037219Y-110491966D01*
X130181966Y-110347219D01*
X130181968Y-110347215D01*
X130181971Y-110347213D01*
X130234732Y-110274590D01*
X130302287Y-110181610D01*
X130395220Y-109999219D01*
X130458477Y-109804534D01*
X130490500Y-109602352D01*
X130490500Y-109397648D01*
X130474999Y-109299778D01*
X130458477Y-109195465D01*
X130427458Y-109100000D01*
X130395220Y-109000781D01*
X130395218Y-109000778D01*
X130395218Y-109000776D01*
X130361503Y-108934607D01*
X130302287Y-108818390D01*
X130270092Y-108774077D01*
X130181971Y-108652786D01*
X130037213Y-108508028D01*
X129871610Y-108387712D01*
X129858200Y-108380879D01*
X129807406Y-108332903D01*
X129790500Y-108270397D01*
X129790500Y-105349986D01*
X130600001Y-105349986D01*
X130610494Y-105452697D01*
X130665641Y-105619119D01*
X130665643Y-105619124D01*
X130757684Y-105768345D01*
X130881654Y-105892315D01*
X131030875Y-105984356D01*
X131030880Y-105984358D01*
X131197302Y-106039505D01*
X131197309Y-106039506D01*
X131300019Y-106049999D01*
X131749999Y-106049999D01*
X132250000Y-106049999D01*
X132699972Y-106049999D01*
X132699986Y-106049998D01*
X132802697Y-106039505D01*
X132969119Y-105984358D01*
X132969124Y-105984356D01*
X133118345Y-105892315D01*
X133242315Y-105768345D01*
X133334356Y-105619124D01*
X133334358Y-105619119D01*
X133389505Y-105452697D01*
X133389506Y-105452690D01*
X133399999Y-105349986D01*
X133400000Y-105349973D01*
X133400000Y-105225000D01*
X132250000Y-105225000D01*
X132250000Y-106049999D01*
X131749999Y-106049999D01*
X131750000Y-106049998D01*
X131750000Y-105225000D01*
X130600001Y-105225000D01*
X130600001Y-105349986D01*
X129790500Y-105349986D01*
X129790500Y-104600013D01*
X130600000Y-104600013D01*
X130600000Y-104725000D01*
X131750000Y-104725000D01*
X132250000Y-104725000D01*
X133399999Y-104725000D01*
X133399999Y-104600028D01*
X133399998Y-104600013D01*
X133389505Y-104497302D01*
X133334358Y-104330880D01*
X133334356Y-104330875D01*
X133242315Y-104181654D01*
X133118345Y-104057684D01*
X132969124Y-103965643D01*
X132969119Y-103965641D01*
X132802697Y-103910494D01*
X132802690Y-103910493D01*
X132699986Y-103900000D01*
X132250000Y-103900000D01*
X132250000Y-104725000D01*
X131750000Y-104725000D01*
X131750000Y-103900000D01*
X131300028Y-103900000D01*
X131300012Y-103900001D01*
X131197302Y-103910494D01*
X131030880Y-103965641D01*
X131030875Y-103965643D01*
X130881654Y-104057684D01*
X130757684Y-104181654D01*
X130665643Y-104330875D01*
X130665641Y-104330880D01*
X130610494Y-104497302D01*
X130610493Y-104497309D01*
X130600000Y-104600013D01*
X129790500Y-104600013D01*
X129790500Y-99939097D01*
X129810185Y-99872058D01*
X129862989Y-99826303D01*
X129932147Y-99816359D01*
X129995703Y-99845384D01*
X130002181Y-99851416D01*
X131003448Y-100852683D01*
X131036933Y-100914006D01*
X131031949Y-100983698D01*
X130990077Y-101039631D01*
X130980865Y-101045902D01*
X130881344Y-101107287D01*
X130757289Y-101231342D01*
X130665187Y-101380663D01*
X130665185Y-101380668D01*
X130638219Y-101462047D01*
X130610001Y-101547203D01*
X130610001Y-101547204D01*
X130610000Y-101547204D01*
X130599500Y-101649983D01*
X130599500Y-102400001D01*
X130599501Y-102400019D01*
X130610000Y-102502796D01*
X130610001Y-102502799D01*
X130665185Y-102669331D01*
X130665187Y-102669336D01*
X130698076Y-102722658D01*
X130757288Y-102818656D01*
X130881344Y-102942712D01*
X131030666Y-103034814D01*
X131197203Y-103089999D01*
X131299991Y-103100500D01*
X132700008Y-103100499D01*
X132802797Y-103089999D01*
X132969334Y-103034814D01*
X133118656Y-102942712D01*
X133242712Y-102818656D01*
X133334814Y-102669334D01*
X133389999Y-102502797D01*
X133400500Y-102400009D01*
X133400499Y-101649992D01*
X133389999Y-101547203D01*
X133334814Y-101380666D01*
X133242712Y-101231344D01*
X133118656Y-101107288D01*
X132969334Y-101015186D01*
X132802797Y-100960001D01*
X132802795Y-100960000D01*
X132700005Y-100949499D01*
X132696979Y-100949345D01*
X132631030Y-100926268D01*
X132588027Y-100871199D01*
X132583531Y-100857615D01*
X132559577Y-100768216D01*
X132528178Y-100713830D01*
X132480524Y-100631290D01*
X132480521Y-100631286D01*
X132480520Y-100631284D01*
X132368716Y-100519480D01*
X132368715Y-100519479D01*
X132364385Y-100515149D01*
X132364374Y-100515139D01*
X121837671Y-89988436D01*
X121804186Y-89927113D01*
X121803735Y-89924946D01*
X121772835Y-89769607D01*
X121772834Y-89769600D01*
X121740179Y-89690763D01*
X121712494Y-89623924D01*
X121712487Y-89623911D01*
X121624886Y-89492808D01*
X121624883Y-89492804D01*
X121513389Y-89381310D01*
X121513385Y-89381307D01*
X121382282Y-89293706D01*
X121382269Y-89293699D01*
X121236598Y-89233361D01*
X121236586Y-89233358D01*
X121081942Y-89202597D01*
X121081939Y-89202597D01*
X120924255Y-89202597D01*
X120924252Y-89202597D01*
X120769607Y-89233358D01*
X120769595Y-89233361D01*
X120623925Y-89293699D01*
X120623909Y-89293708D01*
X120572754Y-89327888D01*
X120506076Y-89348765D01*
X120438696Y-89330279D01*
X120434974Y-89327887D01*
X120379184Y-89290609D01*
X120379172Y-89290602D01*
X120233501Y-89230264D01*
X120233489Y-89230261D01*
X120078845Y-89199500D01*
X120078842Y-89199500D01*
X119921158Y-89199500D01*
X119921155Y-89199500D01*
X119766510Y-89230261D01*
X119766498Y-89230264D01*
X119620827Y-89290602D01*
X119620814Y-89290609D01*
X119568891Y-89325304D01*
X119502214Y-89346182D01*
X119434833Y-89327698D01*
X119431109Y-89325304D01*
X119379185Y-89290609D01*
X119379172Y-89290602D01*
X119233501Y-89230264D01*
X119233489Y-89230261D01*
X119078845Y-89199500D01*
X119078842Y-89199500D01*
X118921158Y-89199500D01*
X118921155Y-89199500D01*
X118766510Y-89230261D01*
X118766498Y-89230264D01*
X118620827Y-89290602D01*
X118620814Y-89290609D01*
X118568891Y-89325304D01*
X118502214Y-89346182D01*
X118434833Y-89327698D01*
X118431109Y-89325304D01*
X118379185Y-89290609D01*
X118379172Y-89290602D01*
X118233501Y-89230264D01*
X118233489Y-89230261D01*
X118078845Y-89199500D01*
X118078842Y-89199500D01*
X117921158Y-89199500D01*
X117921155Y-89199500D01*
X117766510Y-89230261D01*
X117766498Y-89230264D01*
X117620828Y-89290602D01*
X117620812Y-89290611D01*
X117562970Y-89329259D01*
X117496292Y-89350136D01*
X117428912Y-89331650D01*
X117425190Y-89329258D01*
X117374444Y-89295350D01*
X117374431Y-89295343D01*
X117228760Y-89235005D01*
X117228748Y-89235002D01*
X117074104Y-89204241D01*
X117074101Y-89204241D01*
X116916417Y-89204241D01*
X116916414Y-89204241D01*
X116761769Y-89235002D01*
X116761757Y-89235005D01*
X116616087Y-89295343D01*
X116616075Y-89295350D01*
X116600354Y-89305854D01*
X116533676Y-89326729D01*
X116466296Y-89308242D01*
X116462577Y-89305852D01*
X116422602Y-89279142D01*
X116403444Y-89266341D01*
X116403441Y-89266339D01*
X116403440Y-89266339D01*
X116257766Y-89205999D01*
X116257754Y-89205996D01*
X116103110Y-89175235D01*
X116103107Y-89175235D01*
X115945423Y-89175235D01*
X115945420Y-89175235D01*
X115790775Y-89205996D01*
X115790763Y-89205999D01*
X115639458Y-89268672D01*
X115638684Y-89266804D01*
X115579330Y-89279142D01*
X115520430Y-89258647D01*
X115454920Y-89214874D01*
X115454907Y-89214867D01*
X115309236Y-89154529D01*
X115309224Y-89154526D01*
X115154580Y-89123765D01*
X115154577Y-89123765D01*
X114996893Y-89123765D01*
X114996890Y-89123765D01*
X114842245Y-89154526D01*
X114842233Y-89154529D01*
X114696562Y-89214867D01*
X114696549Y-89214874D01*
X114565446Y-89302475D01*
X114565442Y-89302478D01*
X114453948Y-89413972D01*
X114453945Y-89413976D01*
X114366344Y-89545079D01*
X114366337Y-89545092D01*
X114305999Y-89690763D01*
X114305996Y-89690775D01*
X114275235Y-89845418D01*
X114275235Y-90003111D01*
X114305996Y-90157754D01*
X114305999Y-90157766D01*
X114366337Y-90303437D01*
X114366344Y-90303450D01*
X114453945Y-90434553D01*
X114453948Y-90434557D01*
X114565442Y-90546051D01*
X114565446Y-90546054D01*
X114696549Y-90633655D01*
X114696562Y-90633662D01*
X114842233Y-90694000D01*
X114842238Y-90694002D01*
X114996888Y-90724764D01*
X114996891Y-90724765D01*
X114996893Y-90724765D01*
X115024168Y-90724765D01*
X115091207Y-90744450D01*
X115111849Y-90761084D01*
X118863181Y-94512416D01*
X118896666Y-94573739D01*
X118899500Y-94600097D01*
X118899500Y-98420234D01*
X118879815Y-98487273D01*
X118878602Y-98489125D01*
X118790609Y-98620814D01*
X118790602Y-98620827D01*
X118730264Y-98766498D01*
X118730261Y-98766510D01*
X118699500Y-98921153D01*
X118699500Y-99078846D01*
X118730261Y-99233489D01*
X118730264Y-99233501D01*
X118790602Y-99379172D01*
X118790609Y-99379185D01*
X118878210Y-99510288D01*
X118878213Y-99510292D01*
X118989707Y-99621786D01*
X118989711Y-99621789D01*
X119120814Y-99709390D01*
X119120827Y-99709397D01*
X119231161Y-99755098D01*
X119266503Y-99769737D01*
X119312914Y-99778968D01*
X119350382Y-99786422D01*
X119412293Y-99818807D01*
X119446867Y-99879522D01*
X119449253Y-99915066D01*
X119449500Y-99915066D01*
X119449500Y-99918743D01*
X119449596Y-99920174D01*
X119449500Y-99921150D01*
X119449500Y-100078846D01*
X119480261Y-100233489D01*
X119480264Y-100233501D01*
X119540602Y-100379172D01*
X119540609Y-100379185D01*
X119628210Y-100510288D01*
X119628213Y-100510292D01*
X119739707Y-100621786D01*
X119739711Y-100621789D01*
X119870814Y-100709390D01*
X119870827Y-100709397D01*
X120012831Y-100768216D01*
X120016503Y-100769737D01*
X120171153Y-100800499D01*
X120171156Y-100800500D01*
X120171158Y-100800500D01*
X120328844Y-100800500D01*
X120328845Y-100800499D01*
X120483497Y-100769737D01*
X120599329Y-100721758D01*
X120629172Y-100709397D01*
X120629172Y-100709396D01*
X120629179Y-100709394D01*
X120760289Y-100621789D01*
X120871789Y-100510289D01*
X120959394Y-100379179D01*
X121019737Y-100233497D01*
X121050500Y-100078842D01*
X121050500Y-99921158D01*
X121050500Y-99921155D01*
X121050405Y-99920191D01*
X121050500Y-99919690D01*
X121050500Y-99915066D01*
X121051377Y-99915066D01*
X121063425Y-99851546D01*
X121111490Y-99800836D01*
X121149617Y-99786422D01*
X121163560Y-99783648D01*
X121233497Y-99769737D01*
X121379179Y-99709394D01*
X121510289Y-99621789D01*
X121621789Y-99510289D01*
X121709394Y-99379179D01*
X121769737Y-99233497D01*
X121800500Y-99078842D01*
X121800500Y-98921158D01*
X121800500Y-98921155D01*
X121769737Y-98766505D01*
X121769737Y-98766503D01*
X121760789Y-98744901D01*
X121709397Y-98620827D01*
X121709390Y-98620814D01*
X121621398Y-98489125D01*
X121600520Y-98422447D01*
X121600500Y-98420234D01*
X121600500Y-94749097D01*
X121620185Y-94682058D01*
X121672989Y-94636303D01*
X121742147Y-94626359D01*
X121805703Y-94655384D01*
X121812181Y-94661416D01*
X124798432Y-97647667D01*
X124831917Y-97708990D01*
X124826933Y-97778682D01*
X124785061Y-97834615D01*
X124719597Y-97859032D01*
X124699771Y-97858861D01*
X124600099Y-97850000D01*
X124345000Y-97850000D01*
X124345000Y-98816988D01*
X124287993Y-98784075D01*
X124160826Y-98750000D01*
X124029174Y-98750000D01*
X123902007Y-98784075D01*
X123845000Y-98816988D01*
X123845000Y-97850000D01*
X123589907Y-97850000D01*
X123589901Y-97850001D01*
X123476539Y-97860078D01*
X123290784Y-97913228D01*
X123119525Y-98002686D01*
X122969784Y-98124784D01*
X122847686Y-98274525D01*
X122758228Y-98445784D01*
X122705079Y-98631538D01*
X122705078Y-98631541D01*
X122695000Y-98744902D01*
X122695000Y-99000000D01*
X123661988Y-99000000D01*
X123629075Y-99057007D01*
X123595000Y-99184174D01*
X123595000Y-99315826D01*
X123629075Y-99442993D01*
X123661988Y-99500000D01*
X122695001Y-99500000D01*
X122695001Y-99755098D01*
X122705078Y-99868460D01*
X122758228Y-100054215D01*
X122847686Y-100225474D01*
X122969784Y-100375215D01*
X123119526Y-100497313D01*
X123119527Y-100497314D01*
X123159046Y-100517957D01*
X123209354Y-100566443D01*
X123225462Y-100634430D01*
X123202256Y-100700334D01*
X123185886Y-100718119D01*
X123186080Y-100718313D01*
X123026756Y-100877636D01*
X123026752Y-100877641D01*
X122897187Y-101055974D01*
X122797104Y-101252393D01*
X122797103Y-101252396D01*
X122728985Y-101462047D01*
X122694500Y-101679778D01*
X122694500Y-101900221D01*
X122728985Y-102117952D01*
X122797103Y-102327603D01*
X122797104Y-102327606D01*
X122865122Y-102461096D01*
X122886371Y-102502799D01*
X122897187Y-102524025D01*
X123026752Y-102702358D01*
X123026756Y-102702363D01*
X123182636Y-102858243D01*
X123182641Y-102858247D01*
X123322254Y-102959682D01*
X123364920Y-103015012D01*
X123370899Y-103084625D01*
X123338293Y-103146420D01*
X123322254Y-103160318D01*
X123182641Y-103261752D01*
X123182636Y-103261756D01*
X123026756Y-103417636D01*
X123026752Y-103417641D01*
X122897187Y-103595974D01*
X122797104Y-103792393D01*
X122797103Y-103792396D01*
X122728985Y-104002047D01*
X122694500Y-104219778D01*
X122694500Y-104440221D01*
X122728985Y-104657952D01*
X122797103Y-104867603D01*
X122797104Y-104867606D01*
X122897187Y-105064025D01*
X123026752Y-105242358D01*
X123026756Y-105242363D01*
X123186080Y-105401687D01*
X123185232Y-105402534D01*
X123220363Y-105456357D01*
X123220857Y-105526225D01*
X123183500Y-105585269D01*
X123159048Y-105602041D01*
X123119528Y-105622684D01*
X123119526Y-105622686D01*
X122969784Y-105744784D01*
X122847686Y-105894525D01*
X122758228Y-106065784D01*
X122705079Y-106251538D01*
X122705078Y-106251541D01*
X122695000Y-106364902D01*
X122695000Y-106620000D01*
X123661988Y-106620000D01*
X123629075Y-106677007D01*
X123595000Y-106804174D01*
X123595000Y-106935826D01*
X123629075Y-107062993D01*
X123661988Y-107120000D01*
X122695001Y-107120000D01*
X122695001Y-107375098D01*
X122705078Y-107488460D01*
X122758228Y-107674215D01*
X122847686Y-107845474D01*
X122969784Y-107995215D01*
X123029488Y-108043898D01*
X123069005Y-108101519D01*
X123071097Y-108171358D01*
X123035099Y-108231240D01*
X123029488Y-108236102D01*
X122969784Y-108284784D01*
X122847686Y-108434525D01*
X122758228Y-108605784D01*
X122705079Y-108791538D01*
X122705078Y-108791541D01*
X122695000Y-108904902D01*
X122695000Y-109160000D01*
X123661988Y-109160000D01*
X123629075Y-109217007D01*
X123595000Y-109344174D01*
X123595000Y-109475826D01*
X123629075Y-109602993D01*
X123661988Y-109660000D01*
X122695001Y-109660000D01*
X122695001Y-109915098D01*
X122705078Y-110028460D01*
X122758228Y-110214215D01*
X122847686Y-110385474D01*
X122969784Y-110535215D01*
X123119526Y-110657313D01*
X123119527Y-110657314D01*
X123159046Y-110677957D01*
X123209354Y-110726443D01*
X123225462Y-110794430D01*
X123202256Y-110860334D01*
X123185886Y-110878119D01*
X123186080Y-110878313D01*
X123026756Y-111037636D01*
X123026752Y-111037641D01*
X122897187Y-111215974D01*
X122797104Y-111412393D01*
X122797103Y-111412396D01*
X122728985Y-111622047D01*
X122694500Y-111839778D01*
X122694500Y-112060221D01*
X122728985Y-112277952D01*
X122797103Y-112487603D01*
X122797104Y-112487606D01*
X122897187Y-112684025D01*
X123026752Y-112862358D01*
X123026756Y-112862363D01*
X123182636Y-113018243D01*
X123182641Y-113018247D01*
X123322254Y-113119682D01*
X123364920Y-113175012D01*
X123370899Y-113244625D01*
X123338293Y-113306420D01*
X123322254Y-113320318D01*
X123182641Y-113421752D01*
X123182636Y-113421756D01*
X123026756Y-113577636D01*
X123026752Y-113577641D01*
X122897187Y-113755974D01*
X122797104Y-113952393D01*
X122797103Y-113952396D01*
X122728985Y-114162047D01*
X122694500Y-114379778D01*
X122694500Y-114600222D01*
X122704331Y-114662292D01*
X122728985Y-114817952D01*
X122797103Y-115027603D01*
X122797104Y-115027606D01*
X122843190Y-115118052D01*
X122891208Y-115212292D01*
X122897187Y-115224025D01*
X123026752Y-115402358D01*
X123026756Y-115402363D01*
X123182636Y-115558243D01*
X123182641Y-115558247D01*
X123322254Y-115659682D01*
X123364920Y-115715012D01*
X123370899Y-115784625D01*
X123338293Y-115846420D01*
X123322254Y-115860318D01*
X123182641Y-115961752D01*
X123182636Y-115961756D01*
X123026756Y-116117636D01*
X123026752Y-116117641D01*
X122897187Y-116295974D01*
X122797104Y-116492393D01*
X122797103Y-116492396D01*
X122728985Y-116702047D01*
X122728985Y-116702049D01*
X122694500Y-116919778D01*
X122694500Y-117140222D01*
X122707484Y-117222200D01*
X122728985Y-117357952D01*
X122797103Y-117567603D01*
X122797104Y-117567606D01*
X122897187Y-117764025D01*
X123026752Y-117942358D01*
X123026756Y-117942363D01*
X123182636Y-118098243D01*
X123182641Y-118098247D01*
X123322254Y-118199682D01*
X123364920Y-118255012D01*
X123370899Y-118324625D01*
X123338293Y-118386420D01*
X123322254Y-118400318D01*
X123182641Y-118501752D01*
X123182636Y-118501756D01*
X123026756Y-118657636D01*
X123026752Y-118657641D01*
X122897185Y-118835976D01*
X122829883Y-118968062D01*
X122781909Y-119018857D01*
X122717905Y-119035757D01*
X110149640Y-118884332D01*
X110082843Y-118863841D01*
X110050816Y-118833226D01*
X109923247Y-118657640D01*
X109767363Y-118501756D01*
X109767358Y-118501752D01*
X109627745Y-118400318D01*
X109585079Y-118344989D01*
X109579100Y-118275375D01*
X109611705Y-118213580D01*
X109627745Y-118199682D01*
X109767358Y-118098247D01*
X109767356Y-118098247D01*
X109767365Y-118098242D01*
X109923242Y-117942365D01*
X110052815Y-117764022D01*
X110152895Y-117567606D01*
X110221015Y-117357951D01*
X110255500Y-117140222D01*
X110255500Y-116919778D01*
X110221015Y-116702049D01*
X110155529Y-116500500D01*
X110152896Y-116492396D01*
X110152895Y-116492393D01*
X110118237Y-116424375D01*
X110052815Y-116295978D01*
X109950921Y-116155732D01*
X109923247Y-116117641D01*
X109923243Y-116117636D01*
X109767363Y-115961756D01*
X109767358Y-115961752D01*
X109627745Y-115860318D01*
X109585079Y-115804989D01*
X109579100Y-115735375D01*
X109611705Y-115673580D01*
X109627745Y-115659682D01*
X109767358Y-115558247D01*
X109767356Y-115558247D01*
X109767365Y-115558242D01*
X109923242Y-115402365D01*
X110052815Y-115224022D01*
X110152895Y-115027606D01*
X110161865Y-114999999D01*
X110200237Y-114881902D01*
X110499500Y-114881902D01*
X110499500Y-115118097D01*
X110536446Y-115351368D01*
X110609433Y-115575996D01*
X110695064Y-115744054D01*
X110716657Y-115786433D01*
X110855483Y-115977510D01*
X111022490Y-116144517D01*
X111213567Y-116283343D01*
X111238357Y-116295974D01*
X111424003Y-116390566D01*
X111424005Y-116390566D01*
X111424008Y-116390568D01*
X111544412Y-116429689D01*
X111648631Y-116463553D01*
X111881903Y-116500500D01*
X111881908Y-116500500D01*
X112118097Y-116500500D01*
X112351368Y-116463553D01*
X112352870Y-116463065D01*
X112575992Y-116390568D01*
X112786433Y-116283343D01*
X112977510Y-116144517D01*
X113144517Y-115977510D01*
X113283343Y-115786433D01*
X113390568Y-115575992D01*
X113463553Y-115351368D01*
X113483722Y-115224025D01*
X113500500Y-115118097D01*
X113500500Y-114881947D01*
X115000000Y-114881947D01*
X115000000Y-115118052D01*
X115036934Y-115351247D01*
X115109897Y-115575802D01*
X115217087Y-115786174D01*
X115277338Y-115869104D01*
X115277340Y-115869105D01*
X115976212Y-115170233D01*
X115987482Y-115212292D01*
X116059890Y-115337708D01*
X116162292Y-115440110D01*
X116287708Y-115512518D01*
X116329765Y-115523787D01*
X115630893Y-116222658D01*
X115713828Y-116282914D01*
X115924197Y-116390102D01*
X116148752Y-116463065D01*
X116148751Y-116463065D01*
X116381948Y-116500000D01*
X116618052Y-116500000D01*
X116851247Y-116463065D01*
X117075802Y-116390102D01*
X117286163Y-116282918D01*
X117286169Y-116282914D01*
X117369104Y-116222658D01*
X117369105Y-116222658D01*
X116670233Y-115523787D01*
X116712292Y-115512518D01*
X116837708Y-115440110D01*
X116940110Y-115337708D01*
X117012518Y-115212292D01*
X117023787Y-115170234D01*
X117722658Y-115869105D01*
X117722658Y-115869104D01*
X117782914Y-115786169D01*
X117782918Y-115786163D01*
X117890102Y-115575802D01*
X117963065Y-115351247D01*
X118000000Y-115118052D01*
X118000000Y-114881947D01*
X117963065Y-114648752D01*
X117890102Y-114424197D01*
X117782914Y-114213828D01*
X117722658Y-114130894D01*
X117722658Y-114130893D01*
X117023787Y-114829765D01*
X117012518Y-114787708D01*
X116940110Y-114662292D01*
X116837708Y-114559890D01*
X116712292Y-114487482D01*
X116670234Y-114476212D01*
X117369105Y-113777340D01*
X117369104Y-113777338D01*
X117286174Y-113717087D01*
X117075802Y-113609897D01*
X116851247Y-113536934D01*
X116851248Y-113536934D01*
X116618052Y-113500000D01*
X116381948Y-113500000D01*
X116148752Y-113536934D01*
X115924197Y-113609897D01*
X115713830Y-113717084D01*
X115630894Y-113777340D01*
X116329766Y-114476212D01*
X116287708Y-114487482D01*
X116162292Y-114559890D01*
X116059890Y-114662292D01*
X115987482Y-114787708D01*
X115976212Y-114829766D01*
X115277340Y-114130894D01*
X115217084Y-114213830D01*
X115109897Y-114424197D01*
X115036934Y-114648752D01*
X115000000Y-114881947D01*
X113500500Y-114881947D01*
X113500500Y-114881902D01*
X113463553Y-114648631D01*
X113390566Y-114424003D01*
X113283477Y-114213830D01*
X113283343Y-114213567D01*
X113144517Y-114022490D01*
X112977510Y-113855483D01*
X112786433Y-113716657D01*
X112575996Y-113609433D01*
X112351368Y-113536446D01*
X112118097Y-113499500D01*
X112118092Y-113499500D01*
X111881908Y-113499500D01*
X111881903Y-113499500D01*
X111648631Y-113536446D01*
X111424003Y-113609433D01*
X111213566Y-113716657D01*
X111159446Y-113755978D01*
X111022490Y-113855483D01*
X111022488Y-113855485D01*
X111022487Y-113855485D01*
X110855485Y-114022487D01*
X110855485Y-114022488D01*
X110855483Y-114022490D01*
X110795862Y-114104550D01*
X110716657Y-114213566D01*
X110609433Y-114424003D01*
X110536446Y-114648631D01*
X110499500Y-114881902D01*
X110200237Y-114881902D01*
X110214268Y-114838718D01*
X110214268Y-114838717D01*
X110221014Y-114817954D01*
X110221013Y-114817954D01*
X110221015Y-114817951D01*
X110255500Y-114600222D01*
X110255500Y-114379778D01*
X110221015Y-114162049D01*
X110152895Y-113952394D01*
X110152895Y-113952393D01*
X110103516Y-113855483D01*
X110052815Y-113755978D01*
X109946682Y-113609897D01*
X109923247Y-113577641D01*
X109923243Y-113577636D01*
X109767363Y-113421756D01*
X109767358Y-113421752D01*
X109627745Y-113320318D01*
X109585079Y-113264989D01*
X109579100Y-113195375D01*
X109611705Y-113133580D01*
X109627745Y-113119682D01*
X109767358Y-113018247D01*
X109767356Y-113018247D01*
X109767365Y-113018242D01*
X109923242Y-112862365D01*
X110052815Y-112684022D01*
X110152895Y-112487606D01*
X110221015Y-112277951D01*
X110255500Y-112060222D01*
X110255500Y-111839778D01*
X110234573Y-111707648D01*
X112199500Y-111707648D01*
X112199500Y-111912351D01*
X112231522Y-112114534D01*
X112294781Y-112309223D01*
X112358691Y-112434653D01*
X112385671Y-112487603D01*
X112387715Y-112491613D01*
X112508028Y-112657213D01*
X112652786Y-112801971D01*
X112807749Y-112914556D01*
X112818390Y-112922287D01*
X112934607Y-112981503D01*
X113000776Y-113015218D01*
X113000778Y-113015218D01*
X113000781Y-113015220D01*
X113105137Y-113049127D01*
X113195465Y-113078477D01*
X113296557Y-113094488D01*
X113397648Y-113110500D01*
X113397649Y-113110500D01*
X113602351Y-113110500D01*
X113602352Y-113110500D01*
X113804534Y-113078477D01*
X113999219Y-113015220D01*
X114181610Y-112922287D01*
X114274590Y-112854732D01*
X114347213Y-112801971D01*
X114347215Y-112801968D01*
X114347219Y-112801966D01*
X114491966Y-112657219D01*
X114491968Y-112657215D01*
X114491971Y-112657213D01*
X114544732Y-112584590D01*
X114612287Y-112491610D01*
X114705220Y-112309219D01*
X114768477Y-112114534D01*
X114800500Y-111912352D01*
X114800500Y-111707648D01*
X115889500Y-111707648D01*
X115889500Y-111912351D01*
X115921522Y-112114534D01*
X115984781Y-112309223D01*
X116048691Y-112434653D01*
X116075671Y-112487603D01*
X116077715Y-112491613D01*
X116198028Y-112657213D01*
X116342786Y-112801971D01*
X116497749Y-112914556D01*
X116508390Y-112922287D01*
X116624607Y-112981503D01*
X116690776Y-113015218D01*
X116690778Y-113015218D01*
X116690781Y-113015220D01*
X116795137Y-113049127D01*
X116885465Y-113078477D01*
X116986557Y-113094488D01*
X117087648Y-113110500D01*
X117087649Y-113110500D01*
X117292351Y-113110500D01*
X117292352Y-113110500D01*
X117494534Y-113078477D01*
X117689219Y-113015220D01*
X117871610Y-112922287D01*
X117964590Y-112854732D01*
X118037213Y-112801971D01*
X118037215Y-112801968D01*
X118037219Y-112801966D01*
X118181966Y-112657219D01*
X118181968Y-112657215D01*
X118181971Y-112657213D01*
X118234732Y-112584590D01*
X118302287Y-112491610D01*
X118395220Y-112309219D01*
X118458477Y-112114534D01*
X118490500Y-111912352D01*
X118490500Y-111707648D01*
X118458477Y-111505466D01*
X118395220Y-111310781D01*
X118395218Y-111310778D01*
X118395218Y-111310776D01*
X118346913Y-111215974D01*
X118302287Y-111128390D01*
X118236355Y-111037641D01*
X118181971Y-110962786D01*
X118037213Y-110818028D01*
X117871613Y-110697715D01*
X117871612Y-110697714D01*
X117871610Y-110697713D01*
X117814653Y-110668691D01*
X117689223Y-110604781D01*
X117494534Y-110541522D01*
X117319995Y-110513878D01*
X117292352Y-110509500D01*
X117087648Y-110509500D01*
X117063329Y-110513351D01*
X116885465Y-110541522D01*
X116690776Y-110604781D01*
X116508386Y-110697715D01*
X116342786Y-110818028D01*
X116198028Y-110962786D01*
X116077715Y-111128386D01*
X115984781Y-111310776D01*
X115921522Y-111505465D01*
X115889500Y-111707648D01*
X114800500Y-111707648D01*
X114768477Y-111505466D01*
X114705220Y-111310781D01*
X114705218Y-111310778D01*
X114705218Y-111310776D01*
X114656913Y-111215974D01*
X114612287Y-111128390D01*
X114546355Y-111037641D01*
X114491971Y-110962786D01*
X114347213Y-110818028D01*
X114181613Y-110697715D01*
X114181612Y-110697714D01*
X114181610Y-110697713D01*
X114124653Y-110668691D01*
X113999223Y-110604781D01*
X113804534Y-110541522D01*
X113629995Y-110513878D01*
X113602352Y-110509500D01*
X113397648Y-110509500D01*
X113373329Y-110513351D01*
X113195465Y-110541522D01*
X113000776Y-110604781D01*
X112818386Y-110697715D01*
X112652786Y-110818028D01*
X112508028Y-110962786D01*
X112387715Y-111128386D01*
X112294781Y-111310776D01*
X112231522Y-111505465D01*
X112199500Y-111707648D01*
X110234573Y-111707648D01*
X110221015Y-111622049D01*
X110221015Y-111622048D01*
X110152896Y-111412396D01*
X110152895Y-111412393D01*
X110101117Y-111310776D01*
X110052815Y-111215978D01*
X109989176Y-111128386D01*
X109923247Y-111037641D01*
X109923243Y-111037636D01*
X109767363Y-110881756D01*
X109767358Y-110881752D01*
X109627745Y-110780318D01*
X109585079Y-110724989D01*
X109579100Y-110655375D01*
X109611705Y-110593580D01*
X109627745Y-110579682D01*
X109767358Y-110478247D01*
X109767356Y-110478247D01*
X109767365Y-110478242D01*
X109923242Y-110322365D01*
X110052815Y-110144022D01*
X110152895Y-109947606D01*
X110221015Y-109737951D01*
X110255500Y-109520222D01*
X110255500Y-109299778D01*
X110221015Y-109082049D01*
X110221014Y-109082045D01*
X110175014Y-108940467D01*
X110152896Y-108872396D01*
X110152895Y-108872393D01*
X110102799Y-108774077D01*
X110052815Y-108675978D01*
X110035961Y-108652781D01*
X109923247Y-108497641D01*
X109923243Y-108497636D01*
X109767363Y-108341756D01*
X109767358Y-108341752D01*
X109627745Y-108240318D01*
X109585079Y-108184989D01*
X109579100Y-108115375D01*
X109611705Y-108053580D01*
X109627745Y-108039682D01*
X109767358Y-107938247D01*
X109767356Y-107938247D01*
X109767365Y-107938242D01*
X109923242Y-107782365D01*
X110052815Y-107604022D01*
X110152895Y-107407606D01*
X110221015Y-107197951D01*
X110255500Y-106980222D01*
X110255500Y-106759778D01*
X110221015Y-106542049D01*
X110163459Y-106364907D01*
X110152896Y-106332396D01*
X110152895Y-106332393D01*
X110111696Y-106251538D01*
X110052815Y-106135978D01*
X110036260Y-106113192D01*
X109923247Y-105957641D01*
X109923243Y-105957636D01*
X109763920Y-105798313D01*
X109764766Y-105797466D01*
X109729635Y-105743639D01*
X109729142Y-105673771D01*
X109766501Y-105614728D01*
X109790954Y-105597956D01*
X109830474Y-105577313D01*
X109980215Y-105455215D01*
X110102313Y-105305474D01*
X110191771Y-105134215D01*
X110244920Y-104948461D01*
X110244921Y-104948458D01*
X110254999Y-104835097D01*
X110255000Y-104835095D01*
X110255000Y-104580000D01*
X109288012Y-104580000D01*
X109320925Y-104522993D01*
X109355000Y-104395826D01*
X109355000Y-104264174D01*
X109320925Y-104137007D01*
X109292428Y-104087648D01*
X112199500Y-104087648D01*
X112199500Y-104292351D01*
X112231522Y-104494534D01*
X112294781Y-104689223D01*
X112358691Y-104814653D01*
X112385671Y-104867603D01*
X112387715Y-104871613D01*
X112508028Y-105037213D01*
X112652786Y-105181971D01*
X112807749Y-105294556D01*
X112818390Y-105302287D01*
X112934607Y-105361503D01*
X113000776Y-105395218D01*
X113000778Y-105395218D01*
X113000781Y-105395220D01*
X113105137Y-105429127D01*
X113195465Y-105458477D01*
X113265061Y-105469500D01*
X113397648Y-105490500D01*
X113397649Y-105490500D01*
X113602351Y-105490500D01*
X113602352Y-105490500D01*
X113804534Y-105458477D01*
X113999219Y-105395220D01*
X114181610Y-105302287D01*
X114303725Y-105213566D01*
X114347213Y-105181971D01*
X114347215Y-105181968D01*
X114347219Y-105181966D01*
X114491966Y-105037219D01*
X114491968Y-105037215D01*
X114491971Y-105037213D01*
X114556454Y-104948458D01*
X114612287Y-104871610D01*
X114705220Y-104689219D01*
X114768477Y-104494534D01*
X114800500Y-104292352D01*
X114800500Y-104087648D01*
X115889500Y-104087648D01*
X115889500Y-104292351D01*
X115921522Y-104494534D01*
X115984781Y-104689223D01*
X116048691Y-104814653D01*
X116075671Y-104867603D01*
X116077715Y-104871613D01*
X116198028Y-105037213D01*
X116342786Y-105181971D01*
X116497749Y-105294556D01*
X116508390Y-105302287D01*
X116624607Y-105361503D01*
X116690776Y-105395218D01*
X116690778Y-105395218D01*
X116690781Y-105395220D01*
X116795137Y-105429127D01*
X116885465Y-105458477D01*
X116955061Y-105469500D01*
X117087648Y-105490500D01*
X117087649Y-105490500D01*
X117292351Y-105490500D01*
X117292352Y-105490500D01*
X117494534Y-105458477D01*
X117689219Y-105395220D01*
X117871610Y-105302287D01*
X117993725Y-105213566D01*
X118037213Y-105181971D01*
X118037215Y-105181968D01*
X118037219Y-105181966D01*
X118181966Y-105037219D01*
X118181968Y-105037215D01*
X118181971Y-105037213D01*
X118246454Y-104948458D01*
X118302287Y-104871610D01*
X118395220Y-104689219D01*
X118458477Y-104494534D01*
X118490500Y-104292352D01*
X118490500Y-104087648D01*
X118485754Y-104057684D01*
X118458477Y-103885465D01*
X118401965Y-103711541D01*
X118395220Y-103690781D01*
X118395218Y-103690778D01*
X118395218Y-103690776D01*
X118346913Y-103595974D01*
X118302287Y-103508390D01*
X118236355Y-103417641D01*
X118181971Y-103342786D01*
X118037213Y-103198028D01*
X117871613Y-103077715D01*
X117871612Y-103077714D01*
X117871610Y-103077713D01*
X117807935Y-103045269D01*
X117689223Y-102984781D01*
X117494534Y-102921522D01*
X117319995Y-102893878D01*
X117292352Y-102889500D01*
X117087648Y-102889500D01*
X117063329Y-102893351D01*
X116885465Y-102921522D01*
X116690776Y-102984781D01*
X116508386Y-103077715D01*
X116342786Y-103198028D01*
X116198028Y-103342786D01*
X116077715Y-103508386D01*
X115984781Y-103690776D01*
X115921522Y-103885465D01*
X115889500Y-104087648D01*
X114800500Y-104087648D01*
X114795754Y-104057684D01*
X114768477Y-103885465D01*
X114711965Y-103711541D01*
X114705220Y-103690781D01*
X114705218Y-103690778D01*
X114705218Y-103690776D01*
X114656913Y-103595974D01*
X114612287Y-103508390D01*
X114546355Y-103417641D01*
X114491971Y-103342786D01*
X114347213Y-103198028D01*
X114181613Y-103077715D01*
X114181612Y-103077714D01*
X114181610Y-103077713D01*
X114117935Y-103045269D01*
X113999223Y-102984781D01*
X113804534Y-102921522D01*
X113629995Y-102893878D01*
X113602352Y-102889500D01*
X113397648Y-102889500D01*
X113373329Y-102893351D01*
X113195465Y-102921522D01*
X113000776Y-102984781D01*
X112818386Y-103077715D01*
X112652786Y-103198028D01*
X112508028Y-103342786D01*
X112387715Y-103508386D01*
X112294781Y-103690776D01*
X112231522Y-103885465D01*
X112199500Y-104087648D01*
X109292428Y-104087648D01*
X109288012Y-104080000D01*
X110254999Y-104080000D01*
X110254999Y-103824907D01*
X110254998Y-103824901D01*
X110244921Y-103711539D01*
X110191771Y-103525784D01*
X110102313Y-103354525D01*
X109980215Y-103204784D01*
X109830474Y-103082686D01*
X109790952Y-103062042D01*
X109740644Y-103013555D01*
X109724537Y-102945568D01*
X109747743Y-102879665D01*
X109764114Y-102861881D01*
X109763920Y-102861687D01*
X109842693Y-102782914D01*
X109923242Y-102702365D01*
X110052815Y-102524022D01*
X110152895Y-102327606D01*
X110221015Y-102117951D01*
X110255500Y-101900222D01*
X110255500Y-99139778D01*
X110221015Y-98922049D01*
X110170478Y-98766510D01*
X110152896Y-98712396D01*
X110152895Y-98712393D01*
X110083759Y-98576709D01*
X110052815Y-98515978D01*
X110018264Y-98468422D01*
X109923247Y-98337641D01*
X109923243Y-98337636D01*
X109767363Y-98181756D01*
X109767358Y-98181752D01*
X109589025Y-98052187D01*
X109589024Y-98052186D01*
X109589022Y-98052185D01*
X109491876Y-98002686D01*
X109392606Y-97952104D01*
X109392603Y-97952103D01*
X109182952Y-97883985D01*
X109074086Y-97866742D01*
X108965222Y-97849500D01*
X108744778Y-97849500D01*
X108685675Y-97858861D01*
X108527047Y-97883985D01*
X108317396Y-97952103D01*
X108317393Y-97952104D01*
X108120974Y-98052187D01*
X107942641Y-98181752D01*
X107942636Y-98181756D01*
X107786756Y-98337636D01*
X107786752Y-98337641D01*
X107657187Y-98515974D01*
X107557104Y-98712393D01*
X107557103Y-98712396D01*
X107488985Y-98922047D01*
X107454500Y-99139778D01*
X107454500Y-101900221D01*
X107488985Y-102117952D01*
X107557103Y-102327603D01*
X107557104Y-102327606D01*
X107625122Y-102461096D01*
X107646371Y-102502799D01*
X107657187Y-102524025D01*
X107786752Y-102702358D01*
X107786756Y-102702363D01*
X107946080Y-102861687D01*
X107945232Y-102862534D01*
X107980363Y-102916357D01*
X107980857Y-102986225D01*
X107943500Y-103045269D01*
X107919048Y-103062041D01*
X107879528Y-103082684D01*
X107879526Y-103082686D01*
X107729784Y-103204784D01*
X107607686Y-103354525D01*
X107518228Y-103525784D01*
X107465079Y-103711538D01*
X107465078Y-103711541D01*
X107455000Y-103824902D01*
X107455000Y-104080000D01*
X108421988Y-104080000D01*
X108389075Y-104137007D01*
X108355000Y-104264174D01*
X108355000Y-104395826D01*
X108389075Y-104522993D01*
X108421988Y-104580000D01*
X107455001Y-104580000D01*
X107455001Y-104835098D01*
X107465078Y-104948460D01*
X107518228Y-105134215D01*
X107607686Y-105305474D01*
X107729784Y-105455215D01*
X107879526Y-105577313D01*
X107879527Y-105577314D01*
X107919046Y-105597957D01*
X107969354Y-105646443D01*
X107985462Y-105714430D01*
X107962256Y-105780334D01*
X107945886Y-105798119D01*
X107946080Y-105798313D01*
X107786756Y-105957636D01*
X107786752Y-105957641D01*
X107657187Y-106135974D01*
X107557104Y-106332393D01*
X107557103Y-106332396D01*
X107488985Y-106542047D01*
X107454500Y-106759778D01*
X107454500Y-106980221D01*
X107488985Y-107197952D01*
X107557103Y-107407603D01*
X107557104Y-107407606D01*
X107657187Y-107604025D01*
X107786752Y-107782358D01*
X107786756Y-107782363D01*
X107942636Y-107938243D01*
X107942641Y-107938247D01*
X108082254Y-108039682D01*
X108124920Y-108095012D01*
X108130899Y-108164625D01*
X108098293Y-108226420D01*
X108082254Y-108240318D01*
X107942641Y-108341752D01*
X107942636Y-108341756D01*
X107786756Y-108497636D01*
X107786752Y-108497641D01*
X107657187Y-108675974D01*
X107557104Y-108872393D01*
X107557103Y-108872396D01*
X107488985Y-109082047D01*
X107454500Y-109299778D01*
X107454500Y-109520221D01*
X107488985Y-109737952D01*
X107557103Y-109947603D01*
X107557104Y-109947606D01*
X107657187Y-110144025D01*
X107786752Y-110322358D01*
X107786756Y-110322363D01*
X107942636Y-110478243D01*
X107942641Y-110478247D01*
X108082254Y-110579682D01*
X108124920Y-110635012D01*
X108130899Y-110704625D01*
X108098293Y-110766420D01*
X108082254Y-110780318D01*
X107942641Y-110881752D01*
X107942636Y-110881756D01*
X107786756Y-111037636D01*
X107786752Y-111037641D01*
X107657187Y-111215974D01*
X107557104Y-111412393D01*
X107557103Y-111412396D01*
X107488985Y-111622047D01*
X107454500Y-111839778D01*
X107454500Y-112060221D01*
X107488985Y-112277952D01*
X107557103Y-112487603D01*
X107557104Y-112487606D01*
X107657187Y-112684025D01*
X107786752Y-112862358D01*
X107786756Y-112862363D01*
X107942636Y-113018243D01*
X107942641Y-113018247D01*
X108082254Y-113119682D01*
X108124920Y-113175012D01*
X108130899Y-113244625D01*
X108098293Y-113306420D01*
X108082254Y-113320318D01*
X107942641Y-113421752D01*
X107942636Y-113421756D01*
X107786756Y-113577636D01*
X107786752Y-113577641D01*
X107657187Y-113755974D01*
X107557104Y-113952393D01*
X107557103Y-113952396D01*
X107488985Y-114162047D01*
X107454500Y-114379778D01*
X107454500Y-114600222D01*
X107464331Y-114662292D01*
X107488985Y-114817952D01*
X107557103Y-115027603D01*
X107557104Y-115027606D01*
X107603190Y-115118052D01*
X107651208Y-115212292D01*
X107657187Y-115224025D01*
X107786752Y-115402358D01*
X107786756Y-115402363D01*
X107942636Y-115558243D01*
X107942641Y-115558247D01*
X108082254Y-115659682D01*
X108124920Y-115715012D01*
X108130899Y-115784625D01*
X108098293Y-115846420D01*
X108082254Y-115860318D01*
X107942641Y-115961752D01*
X107942636Y-115961756D01*
X107786756Y-116117636D01*
X107786752Y-116117641D01*
X107657187Y-116295974D01*
X107557104Y-116492393D01*
X107557103Y-116492396D01*
X107488985Y-116702047D01*
X107488985Y-116702049D01*
X107454500Y-116919778D01*
X107454500Y-117140222D01*
X107467484Y-117222200D01*
X107488985Y-117357952D01*
X107557103Y-117567603D01*
X107557104Y-117567606D01*
X107657187Y-117764025D01*
X107786752Y-117942358D01*
X107786756Y-117942363D01*
X107942636Y-118098243D01*
X107942641Y-118098247D01*
X108082254Y-118199682D01*
X108124920Y-118255012D01*
X108130899Y-118324625D01*
X108098293Y-118386420D01*
X108082254Y-118400318D01*
X107942641Y-118501752D01*
X107942636Y-118501756D01*
X107786756Y-118657636D01*
X107786752Y-118657641D01*
X107681678Y-118802265D01*
X107626349Y-118844931D01*
X107579866Y-118853371D01*
X99000000Y-118750000D01*
X99000000Y-122626000D01*
X98980315Y-122693039D01*
X98927511Y-122738794D01*
X98876000Y-122750000D01*
X93858801Y-122750000D01*
X93791762Y-122730315D01*
X93746007Y-122677511D01*
X93735692Y-122640834D01*
X93733905Y-122626000D01*
X93463503Y-120381947D01*
X95000000Y-120381947D01*
X95000000Y-120618052D01*
X95036934Y-120851247D01*
X95109897Y-121075802D01*
X95217087Y-121286174D01*
X95277338Y-121369104D01*
X95277340Y-121369105D01*
X95976212Y-120670233D01*
X95987482Y-120712292D01*
X96059890Y-120837708D01*
X96162292Y-120940110D01*
X96287708Y-121012518D01*
X96329765Y-121023787D01*
X95630893Y-121722658D01*
X95713828Y-121782914D01*
X95924197Y-121890102D01*
X96148752Y-121963065D01*
X96148751Y-121963065D01*
X96381948Y-122000000D01*
X96618052Y-122000000D01*
X96851247Y-121963065D01*
X97075802Y-121890102D01*
X97286163Y-121782918D01*
X97286169Y-121782914D01*
X97369104Y-121722658D01*
X97369105Y-121722658D01*
X96670233Y-121023787D01*
X96712292Y-121012518D01*
X96837708Y-120940110D01*
X96940110Y-120837708D01*
X97012518Y-120712292D01*
X97023787Y-120670234D01*
X97722658Y-121369105D01*
X97722658Y-121369104D01*
X97782914Y-121286169D01*
X97782918Y-121286163D01*
X97890102Y-121075802D01*
X97963065Y-120851247D01*
X98000000Y-120618052D01*
X98000000Y-120381947D01*
X97963065Y-120148752D01*
X97890102Y-119924197D01*
X97782914Y-119713828D01*
X97722658Y-119630894D01*
X97722658Y-119630893D01*
X97023787Y-120329765D01*
X97012518Y-120287708D01*
X96940110Y-120162292D01*
X96837708Y-120059890D01*
X96712292Y-119987482D01*
X96670234Y-119976212D01*
X97369105Y-119277340D01*
X97369104Y-119277338D01*
X97286174Y-119217087D01*
X97075802Y-119109897D01*
X96851247Y-119036934D01*
X96851248Y-119036934D01*
X96618052Y-119000000D01*
X96381948Y-119000000D01*
X96148752Y-119036934D01*
X95924197Y-119109897D01*
X95713830Y-119217084D01*
X95630894Y-119277340D01*
X96329766Y-119976212D01*
X96287708Y-119987482D01*
X96162292Y-120059890D01*
X96059890Y-120162292D01*
X95987482Y-120287708D01*
X95976212Y-120329766D01*
X95277340Y-119630894D01*
X95217084Y-119713830D01*
X95109897Y-119924197D01*
X95036934Y-120148752D01*
X95000000Y-120381947D01*
X93463503Y-120381947D01*
X92761399Y-114555212D01*
X91717492Y-105891870D01*
X91716291Y-105881902D01*
X96499500Y-105881902D01*
X96499500Y-106118097D01*
X96536446Y-106351368D01*
X96609433Y-106575996D01*
X96716657Y-106786433D01*
X96855483Y-106977510D01*
X97022490Y-107144517D01*
X97213567Y-107283343D01*
X97312991Y-107334002D01*
X97424003Y-107390566D01*
X97424005Y-107390566D01*
X97424008Y-107390568D01*
X97544412Y-107429689D01*
X97648631Y-107463553D01*
X97881903Y-107500500D01*
X97881908Y-107500500D01*
X98118097Y-107500500D01*
X98351368Y-107463553D01*
X98575992Y-107390568D01*
X98786433Y-107283343D01*
X98977510Y-107144517D01*
X99144517Y-106977510D01*
X99283343Y-106786433D01*
X99390568Y-106575992D01*
X99463553Y-106351368D01*
X99479364Y-106251541D01*
X99500500Y-106118097D01*
X99500500Y-105881902D01*
X102999500Y-105881902D01*
X102999500Y-106118097D01*
X103036446Y-106351368D01*
X103109433Y-106575996D01*
X103216657Y-106786433D01*
X103355483Y-106977510D01*
X103522490Y-107144517D01*
X103713567Y-107283343D01*
X103812991Y-107334002D01*
X103924003Y-107390566D01*
X103924005Y-107390566D01*
X103924008Y-107390568D01*
X104044412Y-107429689D01*
X104148631Y-107463553D01*
X104381903Y-107500500D01*
X104381908Y-107500500D01*
X104618097Y-107500500D01*
X104851368Y-107463553D01*
X105075992Y-107390568D01*
X105286433Y-107283343D01*
X105477510Y-107144517D01*
X105644517Y-106977510D01*
X105783343Y-106786433D01*
X105890568Y-106575992D01*
X105963553Y-106351368D01*
X105979364Y-106251541D01*
X106000500Y-106118097D01*
X106000500Y-105881902D01*
X105963553Y-105648631D01*
X105916554Y-105503985D01*
X105890568Y-105424008D01*
X105890566Y-105424005D01*
X105890566Y-105424003D01*
X105828548Y-105302287D01*
X105783343Y-105213567D01*
X105644517Y-105022490D01*
X105477510Y-104855483D01*
X105286433Y-104716657D01*
X105232583Y-104689219D01*
X105075996Y-104609433D01*
X104851368Y-104536446D01*
X104618097Y-104499500D01*
X104618092Y-104499500D01*
X104381908Y-104499500D01*
X104381903Y-104499500D01*
X104148631Y-104536446D01*
X103924003Y-104609433D01*
X103713566Y-104716657D01*
X103604550Y-104795862D01*
X103522490Y-104855483D01*
X103522488Y-104855485D01*
X103522487Y-104855485D01*
X103355485Y-105022487D01*
X103355485Y-105022488D01*
X103355483Y-105022490D01*
X103344782Y-105037219D01*
X103216657Y-105213566D01*
X103109433Y-105424003D01*
X103036446Y-105648631D01*
X102999500Y-105881902D01*
X99500500Y-105881902D01*
X99463553Y-105648631D01*
X99416554Y-105503985D01*
X99390568Y-105424008D01*
X99390566Y-105424005D01*
X99390566Y-105424003D01*
X99328548Y-105302287D01*
X99283343Y-105213567D01*
X99144517Y-105022490D01*
X98977510Y-104855483D01*
X98786433Y-104716657D01*
X98732583Y-104689219D01*
X98575996Y-104609433D01*
X98351368Y-104536446D01*
X98118097Y-104499500D01*
X98118092Y-104499500D01*
X97881908Y-104499500D01*
X97881903Y-104499500D01*
X97648631Y-104536446D01*
X97424003Y-104609433D01*
X97213566Y-104716657D01*
X97104550Y-104795862D01*
X97022490Y-104855483D01*
X97022488Y-104855485D01*
X97022487Y-104855485D01*
X96855485Y-105022487D01*
X96855485Y-105022488D01*
X96855483Y-105022490D01*
X96844782Y-105037219D01*
X96716657Y-105213566D01*
X96609433Y-105424003D01*
X96536446Y-105648631D01*
X96499500Y-105881902D01*
X91716291Y-105881902D01*
X91331704Y-102690233D01*
X91175260Y-101391909D01*
X91174060Y-101381947D01*
X96500000Y-101381947D01*
X96500000Y-101618052D01*
X96536934Y-101851247D01*
X96609897Y-102075802D01*
X96717087Y-102286174D01*
X96777338Y-102369104D01*
X96777340Y-102369105D01*
X97476212Y-101670233D01*
X97487482Y-101712292D01*
X97559890Y-101837708D01*
X97662292Y-101940110D01*
X97787708Y-102012518D01*
X97829765Y-102023787D01*
X97130893Y-102722658D01*
X97213828Y-102782914D01*
X97424197Y-102890102D01*
X97648752Y-102963065D01*
X97648751Y-102963065D01*
X97881948Y-103000000D01*
X98118052Y-103000000D01*
X98351247Y-102963065D01*
X98575802Y-102890102D01*
X98786163Y-102782918D01*
X98786169Y-102782914D01*
X98869104Y-102722658D01*
X98869105Y-102722658D01*
X98170233Y-102023787D01*
X98212292Y-102012518D01*
X98337708Y-101940110D01*
X98440110Y-101837708D01*
X98512518Y-101712292D01*
X98523787Y-101670234D01*
X99222658Y-102369105D01*
X99222658Y-102369104D01*
X99282914Y-102286169D01*
X99282918Y-102286163D01*
X99390102Y-102075802D01*
X99463065Y-101851247D01*
X99500000Y-101618052D01*
X99500000Y-101381947D01*
X103000000Y-101381947D01*
X103000000Y-101618052D01*
X103036934Y-101851247D01*
X103109897Y-102075802D01*
X103217087Y-102286174D01*
X103277338Y-102369104D01*
X103277340Y-102369105D01*
X103976212Y-101670233D01*
X103987482Y-101712292D01*
X104059890Y-101837708D01*
X104162292Y-101940110D01*
X104287708Y-102012518D01*
X104329765Y-102023787D01*
X103630893Y-102722658D01*
X103713828Y-102782914D01*
X103924197Y-102890102D01*
X104148752Y-102963065D01*
X104148751Y-102963065D01*
X104381948Y-103000000D01*
X104618052Y-103000000D01*
X104851247Y-102963065D01*
X105075802Y-102890102D01*
X105286163Y-102782918D01*
X105286169Y-102782914D01*
X105369104Y-102722658D01*
X105369105Y-102722658D01*
X104670233Y-102023787D01*
X104712292Y-102012518D01*
X104837708Y-101940110D01*
X104940110Y-101837708D01*
X105012518Y-101712292D01*
X105023787Y-101670234D01*
X105722658Y-102369105D01*
X105722658Y-102369104D01*
X105782914Y-102286169D01*
X105782918Y-102286163D01*
X105890102Y-102075802D01*
X105963065Y-101851247D01*
X106000000Y-101618052D01*
X106000000Y-101381947D01*
X105963065Y-101148752D01*
X105890102Y-100924197D01*
X105782914Y-100713828D01*
X105722658Y-100630894D01*
X105722658Y-100630893D01*
X105023787Y-101329765D01*
X105012518Y-101287708D01*
X104940110Y-101162292D01*
X104837708Y-101059890D01*
X104712292Y-100987482D01*
X104670234Y-100976212D01*
X105369105Y-100277340D01*
X105369104Y-100277338D01*
X105286174Y-100217087D01*
X105075802Y-100109897D01*
X104851247Y-100036934D01*
X104851248Y-100036934D01*
X104618052Y-100000000D01*
X104381948Y-100000000D01*
X104148752Y-100036934D01*
X103924197Y-100109897D01*
X103713830Y-100217084D01*
X103630894Y-100277340D01*
X104329766Y-100976212D01*
X104287708Y-100987482D01*
X104162292Y-101059890D01*
X104059890Y-101162292D01*
X103987482Y-101287708D01*
X103976212Y-101329766D01*
X103277340Y-100630894D01*
X103217084Y-100713830D01*
X103109897Y-100924197D01*
X103036934Y-101148752D01*
X103000000Y-101381947D01*
X99500000Y-101381947D01*
X99463065Y-101148752D01*
X99390102Y-100924197D01*
X99282914Y-100713828D01*
X99222658Y-100630894D01*
X99222658Y-100630893D01*
X98523787Y-101329765D01*
X98512518Y-101287708D01*
X98440110Y-101162292D01*
X98337708Y-101059890D01*
X98212292Y-100987482D01*
X98170234Y-100976212D01*
X98869105Y-100277340D01*
X98869104Y-100277339D01*
X98786174Y-100217087D01*
X98575802Y-100109897D01*
X98351247Y-100036934D01*
X98351248Y-100036934D01*
X98118052Y-100000000D01*
X97881948Y-100000000D01*
X97648752Y-100036934D01*
X97424197Y-100109897D01*
X97213830Y-100217084D01*
X97130894Y-100277340D01*
X97829766Y-100976212D01*
X97787708Y-100987482D01*
X97662292Y-101059890D01*
X97559890Y-101162292D01*
X97487482Y-101287708D01*
X97476212Y-101329766D01*
X96777340Y-100630894D01*
X96717084Y-100713830D01*
X96609897Y-100924197D01*
X96536934Y-101148752D01*
X96500000Y-101381947D01*
X91174060Y-101381947D01*
X91048440Y-100339433D01*
X90905085Y-99149740D01*
X90360031Y-94626359D01*
X88675953Y-80650264D01*
X88687476Y-80581352D01*
X88729082Y-80533065D01*
X96503023Y-75218830D01*
X96569476Y-75197248D01*
X96573001Y-75197198D01*
X97511990Y-75197198D01*
X97579029Y-75216883D01*
G37*
%TD.AperFunction*%
%TA.AperFunction,Conductor*%
G36*
X125682237Y-98533713D02*
G01*
X125697332Y-98546567D01*
X126363181Y-99212416D01*
X126396666Y-99273739D01*
X126399500Y-99300097D01*
X126399500Y-113824902D01*
X126379815Y-113891941D01*
X126363181Y-113912583D01*
X125707181Y-114568583D01*
X125645858Y-114602068D01*
X125576166Y-114597084D01*
X125520233Y-114555212D01*
X125495816Y-114489748D01*
X125495500Y-114480902D01*
X125495500Y-114379778D01*
X125469216Y-114213830D01*
X125461015Y-114162049D01*
X125392895Y-113952394D01*
X125392895Y-113952393D01*
X125343516Y-113855483D01*
X125292815Y-113755978D01*
X125186682Y-113609897D01*
X125163247Y-113577641D01*
X125163243Y-113577636D01*
X125007363Y-113421756D01*
X125007358Y-113421752D01*
X124867745Y-113320318D01*
X124825079Y-113264989D01*
X124819100Y-113195375D01*
X124851705Y-113133580D01*
X124867745Y-113119682D01*
X125007358Y-113018247D01*
X125007356Y-113018247D01*
X125007365Y-113018242D01*
X125163242Y-112862365D01*
X125292815Y-112684022D01*
X125392895Y-112487606D01*
X125461015Y-112277951D01*
X125495500Y-112060222D01*
X125495500Y-111839778D01*
X125461015Y-111622049D01*
X125426955Y-111517221D01*
X125392896Y-111412396D01*
X125392895Y-111412393D01*
X125341117Y-111310776D01*
X125292815Y-111215978D01*
X125229176Y-111128386D01*
X125163247Y-111037641D01*
X125163243Y-111037636D01*
X125003920Y-110878313D01*
X125004766Y-110877466D01*
X124969635Y-110823639D01*
X124969142Y-110753771D01*
X125006501Y-110694728D01*
X125030954Y-110677956D01*
X125070474Y-110657313D01*
X125220215Y-110535215D01*
X125342313Y-110385474D01*
X125431771Y-110214215D01*
X125484920Y-110028461D01*
X125484921Y-110028458D01*
X125494999Y-109915097D01*
X125495000Y-109915095D01*
X125495000Y-109660000D01*
X124528012Y-109660000D01*
X124560925Y-109602993D01*
X124595000Y-109475826D01*
X124595000Y-109344174D01*
X124560925Y-109217007D01*
X124528012Y-109160000D01*
X125494999Y-109160000D01*
X125494999Y-108904907D01*
X125494998Y-108904901D01*
X125484921Y-108791539D01*
X125431771Y-108605784D01*
X125342313Y-108434525D01*
X125220213Y-108284781D01*
X125160512Y-108236102D01*
X125120994Y-108178482D01*
X125118902Y-108108643D01*
X125154900Y-108048760D01*
X125160512Y-108043898D01*
X125220213Y-107995218D01*
X125342313Y-107845474D01*
X125431771Y-107674215D01*
X125484920Y-107488461D01*
X125484921Y-107488458D01*
X125494999Y-107375097D01*
X125495000Y-107375095D01*
X125495000Y-107120000D01*
X124528012Y-107120000D01*
X124560925Y-107062993D01*
X124595000Y-106935826D01*
X124595000Y-106804174D01*
X124560925Y-106677007D01*
X124528012Y-106620000D01*
X125494999Y-106620000D01*
X125494999Y-106364907D01*
X125494998Y-106364901D01*
X125484921Y-106251539D01*
X125431771Y-106065784D01*
X125342313Y-105894525D01*
X125220215Y-105744784D01*
X125070474Y-105622686D01*
X125030952Y-105602042D01*
X124980644Y-105553555D01*
X124964537Y-105485568D01*
X124987743Y-105419665D01*
X125004114Y-105401881D01*
X125003920Y-105401687D01*
X125055634Y-105349973D01*
X125163242Y-105242365D01*
X125292815Y-105064022D01*
X125392895Y-104867606D01*
X125461015Y-104657951D01*
X125495500Y-104440222D01*
X125495500Y-104219778D01*
X125461015Y-104002049D01*
X125426955Y-103897221D01*
X125392896Y-103792396D01*
X125392895Y-103792393D01*
X125341117Y-103690776D01*
X125292815Y-103595978D01*
X125244279Y-103529173D01*
X125163247Y-103417641D01*
X125163243Y-103417636D01*
X125007363Y-103261756D01*
X125007358Y-103261752D01*
X124867745Y-103160318D01*
X124825079Y-103104989D01*
X124819100Y-103035375D01*
X124851705Y-102973580D01*
X124867745Y-102959682D01*
X124992826Y-102868804D01*
X125007365Y-102858242D01*
X125163242Y-102702365D01*
X125292815Y-102524022D01*
X125392895Y-102327606D01*
X125461015Y-102117951D01*
X125495500Y-101900222D01*
X125495500Y-101679778D01*
X125461015Y-101462049D01*
X125392895Y-101252394D01*
X125392895Y-101252393D01*
X125338911Y-101146446D01*
X125292815Y-101055978D01*
X125223084Y-100960001D01*
X125163247Y-100877641D01*
X125163243Y-100877636D01*
X125003920Y-100718313D01*
X125004766Y-100717466D01*
X124969635Y-100663639D01*
X124969142Y-100593771D01*
X125006501Y-100534728D01*
X125030954Y-100517956D01*
X125070474Y-100497313D01*
X125220215Y-100375215D01*
X125342313Y-100225474D01*
X125431771Y-100054215D01*
X125484920Y-99868461D01*
X125484921Y-99868458D01*
X125494999Y-99755097D01*
X125495000Y-99755095D01*
X125495000Y-99500000D01*
X124528012Y-99500000D01*
X124560925Y-99442993D01*
X124595000Y-99315826D01*
X124595000Y-99184174D01*
X124560925Y-99057007D01*
X124528012Y-99000000D01*
X125494999Y-99000000D01*
X125494999Y-98744907D01*
X125494998Y-98744901D01*
X125486138Y-98645228D01*
X125499809Y-98576709D01*
X125548354Y-98526458D01*
X125616360Y-98510430D01*
X125682237Y-98533713D01*
G37*
%TD.AperFunction*%
%TA.AperFunction,Conductor*%
G36*
X124345000Y-108976988D02*
G01*
X124287993Y-108944075D01*
X124160826Y-108910000D01*
X124029174Y-108910000D01*
X123902007Y-108944075D01*
X123845000Y-108976988D01*
X123845000Y-107303012D01*
X123902007Y-107335925D01*
X124029174Y-107370000D01*
X124160826Y-107370000D01*
X124287993Y-107335925D01*
X124345000Y-107303012D01*
X124345000Y-108976988D01*
G37*
%TD.AperFunction*%
%TD*%
M02*
